<?xml version="1.0" encoding="utf-8"?>
<!-- Generator: Adobe Illustrator 22.0.1, SVG Export Plug-In . SVG Version: 6.00 Build 0)  -->
<svg version="1.1" id="Layer_1" xmlns="http://www.w3.org/2000/svg" xmlns:xlink="http://www.w3.org/1999/xlink" x="0px" y="0px"
	 viewBox="0 0 1000 1000" style="enable-background:new 0 0 1000 1000;" xml:space="preserve">
<style type="text/css">
	.st0{fill:#F8C968;}
	.st1{fill:#F1F1F2;}
	.st2{fill:#404041;}
	.st3{fill:#405766;}
	.st4{fill:#808184;}
	.st5{fill:#D0D2D3;}
	.st6{fill:#F16447;}
</style>
<polygon class="st0" points="492,26.2 508.2,58.6 544.1,63.9 518.1,89.3 524.2,125.1 492,108.2 459.9,125.1 466.1,89.3 440,63.9 
	476,58.6 "/>
<g>
	<path class="st1" d="M731.7,202.1c0,0-142.7-54.4-239.7-54.4c0,170.2,0,520.4,0,825.8c363.6-121,384.9-630.1,384.9-630.1
		c-1.3,0-2.5,0.1-3.8,0.1C795,343.5,731.7,280.2,731.7,202.1z"/>
</g>
<g>
	<path class="st1" d="M254.3,202.1c0,0,142.7-54.4,239.7-54.4c0,170.2,0,520.4,0,825.8c-363.6-121-384.9-630.1-384.9-630.1
		c1.3,0,2.5,0.1,3.8,0.1C191,343.5,254.3,280.2,254.3,202.1z"/>
</g>
<g>
	<path class="st2" d="M721.2,217.8c0,0-136.5-52-229.2-52c0,162.8,0,497.6,0,789.7c347.7-115.7,368.1-602.6,368.1-602.6
		c-1.2,0.1-2.4,0.1-3.6,0.1C781.8,353,721.2,292.5,721.2,217.8z"/>
</g>
<g>
	<path class="st2" d="M264.8,217.8c0,0,136.5-52,229.2-52c0,162.8,0,497.6,0,789.7C146.3,839.8,125.9,352.9,125.9,352.9
		c1.2,0.1,2.4,0.1,3.6,0.1C204.2,353,264.8,292.5,264.8,217.8z"/>
</g>
<g>
	<path class="st3" d="M698.8,252.7c0,0-122.6-46.7-205.9-46.7c0,146.2,0,446.9,0,709.3c312.3-103.9,330.6-541.2,330.6-541.2
		c-1.1,0-2.2,0.4-3.3,0.1C757.3,355.2,711.6,315.6,698.8,252.7z"/>
</g>
<g>
	<path class="st3" d="M288,252.7c0,0,122.6-46.7,205.9-46.7c0,146.2,0,446.9,0,709.3C181.6,811.4,163.3,374.1,163.3,374.1
		c1.1,0,2.2,0.4,3.3,0.1C229.5,355.2,275.2,315.6,288,252.7z"/>
</g>
<path class="st2" d="M813.3,565.4c0-159.5-142.3-288.9-317.8-288.9c-175.5,0-317.8,129.3-317.8,288.9S813.3,724.9,813.3,565.4z"/>
<path class="st4" d="M665,339c54.1,23.5,106.1,86.9,118.5,145.3c7.2,33.5-32.2,65.4-89,89.3C666,585.7,625.5,321.8,665,339z"/>
<path class="st5" d="M326.3,339c-54.1,23.5-106.1,86.9-118.5,145.3c-7.2,33.5,32.2,65.4,88.9,89.3
	C325.3,585.7,365.8,321.8,326.3,339z"/>
<polygon class="st2" points="209.7,620.1 223.9,669.4 343.5,845.9 493.2,925.4 653,837.5 771.8,667.7 779.3,622.6 "/>
<path class="st4" d="M493.7,937.2c30.8,0,109.7-54,115.2-63.2c0-3.8-8.7,23.8-115.2,23.8C493.7,965.8,493.7,914.1,493.7,937.2z"/>
<path class="st5" d="M493.5,937.2c-30.8,0-109.7-54-115.2-63.2c0-3.8,8.7,23.8,115.2,23.8C493.5,965.8,493.5,914.1,493.5,937.2z"/>
<path class="st0" d="M655.6,757.7v-64c0-18.3-2.3-31.2-6.9-38.9c-5.9-9.8-17-15.1-33.2-16.2h-0.4c14.9-1,25.8-7.7,32.8-20
	c5.1-9.3,7.7-20.3,7.7-33.2v-28.5c0-38.6-21.7-57.8-65.2-57.8l-15.2,0c0,10.4,0,20.7,0,31.1l11.7,0.1c14.4,0,21.6,9.4,21.6,28.2
	v47.4c0,18.8-7.2,28.2-21.6,28.2l-11.7,0c0.1,7.3,0,14.7,0,22.1l4.4-0.1c12.8,0,21.3,4.9,25.4,14.7c2.3,5.7,3.5,15.3,3.5,28.9v73.6
	c0,13.9,1.9,25.3,5.8,34.3h47.8C657.7,792.3,655.6,775.7,655.6,757.7z"/>
<path class="st0" d="M565.8,571.4h-46.7v32.3c0,0,15.9,9.7,30.3,27.6c14.4,17.9,16.4,38.2,16.4,38.2V571.4z"/>
<g>
	<path class="st6" d="M436.1,442.3c13.2-6.9,29.5-10.4,49-10.4c24.1,0,43.2,5,57.4,14.9c15.5,10.9,23.3,27,23.3,48.5v68.3h-46.6
		l0.1-55.4c0-28.9-10.1-35.6-34.2-35.6c-15.2,0-22.6,12.1-22.3,36.1c0.3,24.7,5.8,45.5,16.3,62.4c6.6,10.2,18.1,22.6,34.6,37.1
		c18.1,15.5,30.5,29.4,37.1,41.6c11.5,20.4,17.3,47.2,17.3,80.1v34.6c0,21.4-7.8,37.6-23.3,48.5c-13.9,9.9-32.8,14.8-56.9,14.8
		c-19.5,0-36-3.5-49.5-10.4c-20.8-10.5-31.2-28.2-31.2-52.9v-67.3c0,0,0-1.2,0-15.4c0-14.2,28.9,27.8,28.9,27.8s29-43.2,29-27.8
		c0,15.4,0,15.4,0,15.4v54.4c0,23.7,7.6,35.6,22.8,35.6c15.2,0,22.6-12,22.3-36.1c-0.3-32.3-7.3-59.7-20.8-82.1
		c-7.9-13.2-21.9-28.9-42.1-47c-14.8-13.5-24.9-24.2-30.2-32.2c-8.2-12.5-12.4-27.4-12.4-44.5v-50
		C404.9,470.5,415.3,452.8,436.1,442.3z"/>
</g>
<path class="st4" d="M488.1,333.8l-51.8,72.8l-74.8-26.9c0,0,25.8,44.6,43.7,77.5c8.1-20.9,41.9-36.7,82.9-36.8
	C488.1,348.7,488.1,333.8,488.1,333.8z"/>
<path class="st5" d="M487.5,333.8l51.8,72.8l74.8-26.9c0,0-25.8,44.6-43.7,77.5c-8.1-20.9-41.9-36.7-82.9-36.8
	C487.5,348.7,487.5,333.8,487.5,333.8z"/>
<g>
	<path class="st1" d="M478.6,876.2c1.2,0,2,0.2,2.7,0.5c0.6,0.4,0.9,0.8,0.9,1.4v2.8c0,0.6-0.3,1.1-0.9,1.4
		c-0.6,0.3-1.5,0.5-2.7,0.5h-1.8c-0.4,0-0.6,0.1-0.6,0.4v2.6h2.1c0.1-0.2,0.2-0.6,0.3-1h3.5v2.9h-10.3v-4.7c0-0.6,0.3-1.1,0.9-1.4
		c0.6-0.3,1.5-0.5,2.6-0.5h1.8c0.2,0,0.4,0,0.5-0.1c0.1,0,0.2-0.1,0.2-0.2v-2.4c0-0.2-0.2-0.3-0.7-0.3h-1.5c-0.1,0.2-0.2,0.6-0.3,1
		h-3.5v-2.9H478.6z"/>
	<path class="st1" d="M491.7,876.2c2.5,0,3.7,0.7,3.7,2v7.4c0,0.6-0.3,1.1-1,1.5c-0.7,0.4-1.6,0.5-2.8,0.5h-3c-2.5,0-3.8-0.7-3.8-2
		v-7.4c0-0.7,0.3-1.1,1-1.5c0.6-0.4,1.6-0.5,2.8-0.5H491.7z M489.7,878.1c-0.2,0-0.2,0-0.2,0.1v7.6c0,0.1,0.1,0.1,0.2,0.1h1.1
		c0.1,0,0.2,0,0.2-0.1v-7.5c0-0.1-0.1-0.1-0.2-0.1H489.7z"/>
	<path class="st1" d="M498.1,876.2h5.4v11.4h-4.4v-9.5c-0.2,0-0.5-0.1-1.1-0.2V876.2z"/>
	<path class="st1" d="M512.7,876.2c1.1,0,2,0.2,2.6,0.5c0.6,0.4,0.9,0.8,0.9,1.4v2.8c0,0.4-0.2,0.7-0.7,1.1c0.4,0.3,0.7,0.7,0.7,1
		v2.7c0,0.6-0.3,1.1-0.9,1.4c-0.6,0.4-1.5,0.5-2.6,0.5h-6.5v-2.9h3.5c0.2,0.5,0.3,0.8,0.3,1c0.4,0,0.8,0,1.2,0c0.2,0,0.4,0,0.5-0.1
		c0.1-0.1,0.2-0.2,0.2-0.3v-2.3c0.1-0.2-0.2-0.3-0.6-0.3h-3.4l0-1.8h3.5c0.4,0,0.6-0.1,0.6-0.3v-2.4c0-0.2-0.2-0.3-0.7-0.3h-1.2
		c-0.1,0.2-0.2,0.5-0.4,1h-3.5v-2.9H512.7z"/>
</g>
<path class="st1" d="M478.9,849.4v2.2h-3.7v6.2h3.6v2.2h-3.6v8.7h3.7v2.2h-7v-21.5H478.9z"/>
<path class="st1" d="M491.7,850c0.7-0.4,1.6-0.6,2.7-0.6c1.3,0,2.3,0.3,3.1,0.8c0.8,0.6,1.3,1.5,1.3,2.6v3.7h-3.1v-3
	c0-1.3-0.4-1.9-1.2-1.9c-0.8,0-1.2,0.7-1.2,2c0,1.3,0.3,2.5,0.9,3.4c0.4,0.6,1,1.2,1.9,2c1,0.9,1.7,1.6,2,2.3
	c0.6,1.1,0.9,2.5,0.9,4.3v1.9c0,1.2-0.4,2.1-1.3,2.6c-0.8,0.6-1.8,0.8-3.1,0.8c-1.1,0-2-0.2-2.7-0.6c-1.1-0.6-1.7-1.5-1.7-2.9V863
	h3.1v3.8c0,1.3,0.4,1.9,1.2,1.9c0.8,0,1.2-0.6,1.2-1.9c0-1.8-0.4-3.3-1.1-4.5c-0.4-0.7-1.2-1.6-2.3-2.6c-0.8-0.7-1.4-1.3-1.6-1.7
	c-0.4-0.7-0.7-1.5-0.7-2.4v-2.7C490,851.5,490.6,850.6,491.7,850z"/>
<path class="st1" d="M516.6,849.4v2.2h-2.9v19.3h-3.3v-19.3h-2.9v-2.2H516.6z"/>
</svg>
