<?xml version="1.0" encoding="utf-8"?>
<!-- Generator: Adobe Illustrator 22.0.1, SVG Export Plug-In . SVG Version: 6.00 Build 0)  -->
<svg version="1.1" id="Layer_1" xmlns="http://www.w3.org/2000/svg" xmlns:xlink="http://www.w3.org/1999/xlink" x="0px" y="0px"
	 viewBox="0 0 2000 2000" style="enable-background:new 0 0 2000 2000;" xml:space="preserve">
<style type="text/css">
	.st0{fill:#F8C968;}
	.st1{fill:#F1F1F2;}
	.st2{fill:#404041;}
	.st3{fill:#405766;}
	.st4{fill:#808184;}
	.st5{fill:#D0D2D3;}
	.st6{fill:#F16447;}
</style>
<polygon class="st0" points="992.1,26 1025.3,92.6 1099,103.5 1045.6,155.6 1058.2,229.2 992.1,194.4 926.1,229.2 938.8,155.6 
	885.3,103.5 959.2,92.6 "/>
<g>
	<path class="st1" d="M1484.1,387.2c0,0-293.1-111.7-492.2-111.7c0,349.5,0,1068.4,0,1695.5c746.5-248.3,790.2-1293.7,790.2-1293.7
		c-2.6,0.1-5.2,0.2-7.8,0.2C1614.1,677.5,1484.1,547.5,1484.1,387.2z"/>
</g>
<g>
	<path class="st1" d="M504.1,387.2c0,0,293.1-111.7,492.1-111.7c0,349.5,0,1068.4,0,1695.5C249.8,1722.7,206,677.3,206,677.3
		c2.6,0.1,5.2,0.2,7.8,0.2C374.1,677.5,504.1,547.5,504.1,387.2z"/>
</g>
<g>
	<path class="st2" d="M1462.7,419.3c0,0-280.3-106.8-470.6-106.8c0,334.2,0,1021.7,0,1621.4c713.9-237.5,755.7-1237.1,755.7-1237.1
		c-2.5,0.1-5,0.2-7.5,0.2C1587,697,1462.7,572.7,1462.7,419.3z"/>
</g>
<g>
	<path class="st2" d="M525.6,419.3c0,0,280.3-106.8,470.6-106.8c0,334.2,0,1021.7,0,1621.4C282.3,1696.4,240.5,696.8,240.5,696.8
		c2.5,0.1,4.9,0.2,7.4,0.2C401.2,697,525.6,572.7,525.6,419.3z"/>
</g>
<g>
	<path class="st3" d="M1416.6,491.1c0,0-251.7-96-422.7-96c0,300.2,0,917.6,0,1456.2c641.2-213.3,678.7-1111.1,678.7-1111.1
		c-2.2,0.1-4.5,0.8-6.7,0.2C1536.8,701.4,1443,620.1,1416.6,491.1z"/>
</g>
<g>
	<path class="st3" d="M573.3,491.1c0,0,251.7-96,422.7-96c0,300.2,0,917.6,0,1456.2C354.8,1638.1,317.2,740.2,317.2,740.2
		c2.2,0.1,4.5,0.8,6.7,0.2C453.1,701.4,546.9,620.1,573.3,491.1z"/>
</g>
<path class="st2" d="M1651.7,1133c0-327.5-292.1-593.1-652.5-593.1c-360.4,0-652.5,265.5-652.5,593.1S1651.7,1460.6,1651.7,1133z"/>
<path class="st4" d="M1347.3,668.2c111,48.3,217.7,178.3,243.4,298.3c14.7,68.8-66.2,134.2-182.6,183.4
	C1349.3,1174.7,1266.1,632.9,1347.3,668.2z"/>
<path class="st5" d="M651.8,668.2c-111,48.3-217.7,178.3-243.4,298.3c-14.7,68.8,66.2,134.2,182.6,183.4
	C649.8,1174.7,733,632.9,651.8,668.2z"/>
<polygon class="st2" points="412.4,1245.3 441.6,1346.6 687.2,1709 994.6,1872.1 1322.7,1691.8 1566.5,1343.1 1582,1250.4 "/>
<path class="st4" d="M995.6,1896.3c63.2,0,225.3-110.9,236.4-129.8c0-7.8-17.8,48.9-236.4,48.9
	C995.6,1955,995.6,1848.9,995.6,1896.3z"/>
<path class="st5" d="M995,1896.3c-63.2,0-225.3-110.9-236.4-129.8c0-7.8,17.8,48.9,236.4,48.9C995,1955,995,1848.9,995,1896.3z"/>
<path class="st0" d="M1327.9,1527.9v-131.4c0-37.5-4.7-64.1-14.3-80c-12.1-20-34.8-31.1-68.1-33.2h-0.8c30.6-2.1,53-15.8,67.3-41.1
	c10.6-19,15.8-41.7,15.8-68.1v-58.5c0-79.2-44.6-118.8-133.8-118.8l-31.2,0.1c0.1,21.4-0.1,42.6,0,63.9l24.1,0.1
	c29.5,0,44.3,19.3,44.3,57.8v97.4c0,38.5-14.8,57.8-44.3,57.8l-24.1-0.1c0.2,15-0.1,30.2,0,45.3l9-0.1c26.4,0,43.8,10,52.2,30.1
	c4.8,11.6,7.1,31.4,7.1,59.4v151.2c0,28.5,4,52,11.9,70.5h98.2C1332.4,1598.8,1327.9,1564.8,1327.9,1527.9z"/>
<path class="st0" d="M1143.5,1145.3h-95.9v66.3c0,0,32.7,19.9,62.3,56.8c29.5,36.8,33.6,78.4,33.6,78.4V1145.3z"/>
<g>
	<path class="st6" d="M877.3,880.3c27.1-14.2,60.6-21.4,100.6-21.4c49.4,0,88.7,10.2,117.8,30.5c31.8,22.3,47.8,55.5,47.8,99.6
		v140.2h-95.6l0.3-113.8c0-59.4-20.7-73.1-70.2-73.1c-31.2,0-46.4,24.7-45.7,74.2c0.7,50.8,11.8,93.5,33.5,128
		c13.5,21,37.2,46.4,71.1,76.2c37.2,31.8,62.6,60.3,76.2,85.4c23.7,42,35.5,96.9,35.5,164.5v71.1c0,44-15.9,77.2-47.8,99.6
		c-28.4,20.3-67.4,30.5-116.8,30.5c-40,0-73.8-7.1-101.6-21.3c-42.7-21.6-64-57.9-64-108.7v-138.1c0,0,0-2.4,0-31.6
		c0-29.2,59.2,57.1,59.2,57.1s59.6-88.7,59.6-57.1c0,31.6,0,31.6,0,31.6v111.6c0,48.7,15.6,73.1,46.7,73.1
		c31.1,0,46.4-24.7,45.7-74.1c-0.7-66.4-14.9-122.6-42.7-168.6c-16.3-27.1-45-59.2-86.4-96.5c-30.5-27.7-51.2-49.8-62-66
		c-16.9-25.7-25.4-56.2-25.4-91.4V989C813.3,938.2,834.7,902,877.3,880.3z"/>
</g>
<path class="st4" d="M984.1,657.5L877.7,807l-153.6-55.2c0,0,52.9,91.5,89.7,159c16.7-42.9,86-75.4,170.3-75.5
	C984.1,688.1,984.1,657.5,984.1,657.5z"/>
<path class="st5" d="M982.9,657.5L1089.3,807l153.6-55.2c0,0-52.9,91.5-89.7,159c-16.7-42.9-86-75.4-170.3-75.5
	C982.9,688.1,982.9,657.5,982.9,657.5z"/>
<g>
	<path class="st1" d="M964.6,1771.1c2.4,0,4.2,0.3,5.5,1c1.3,0.7,1.9,1.7,1.9,3v5.7c0,1.2-0.6,2.2-1.9,2.9c-1.3,0.7-3.1,1-5.5,1
		h-3.7c-0.8,0-1.2,0.3-1.3,0.8v5.4h4.4c0.2-0.4,0.4-1.2,0.7-2.2h7.2v5.9h-21.2v-9.7c0-1.3,0.6-2.2,1.9-2.9c1.3-0.7,3.1-1,5.4-1h3.7
		c0.5,0,0.8,0,1-0.2c0.2-0.1,0.3-0.3,0.3-0.5v-4.8c0-0.4-0.5-0.6-1.4-0.6h-3c-0.1,0.4-0.4,1.1-0.7,2.1h-7.2v-5.9H964.6z"/>
	<path class="st1" d="M991.4,1771.1c5.1,0,7.7,1.4,7.7,4.2v15.2c0,1.3-0.7,2.3-2,3c-1.4,0.7-3.3,1.1-5.7,1.1h-6.1
		c-5.2,0-7.7-1.4-7.7-4.1v-15.2c0-1.3,0.7-2.4,2-3.1c1.3-0.8,3.2-1.1,5.7-1.1H991.4z M987.4,1774.9c-0.3,0-0.5,0.1-0.5,0.2v15.6
		c0,0.2,0.1,0.2,0.4,0.2h2.2c0.3,0,0.4-0.1,0.4-0.2v-15.5c0-0.2-0.2-0.3-0.5-0.3H987.4z"/>
	<path class="st1" d="M1004.6,1771.1h11.1v23.5h-8.9v-19.5c-0.4-0.1-1.1-0.2-2.2-0.4V1771.1z"/>
	<path class="st1" d="M1034.6,1771.1c2.3,0,4.1,0.3,5.4,1c1.3,0.7,1.9,1.7,1.9,2.9v5.8c0,0.8-0.5,1.5-1.4,2.2
		c0.9,0.7,1.4,1.4,1.4,2.2v5.5c0,1.3-0.6,2.3-1.9,2.9c-1.3,0.7-3.1,1.1-5.4,1.1h-13.4v-5.9h7.2c0.3,1,0.6,1.7,0.7,2.1
		c0.7,0,1.6,0,2.5,0c0.5,0,0.8,0,1.1-0.1c0.2-0.2,0.3-0.3,0.3-0.5v-4.7c0.1-0.5-0.3-0.7-1.3-0.7h-7.1l-0.1-3.7h7.2
		c0.8,0,1.2-0.2,1.2-0.6v-4.9c0-0.4-0.5-0.6-1.4-0.6h-2.5c-0.1,0.4-0.4,1.1-0.8,2.1h-7.2v-5.9H1034.6z"/>
</g>
<path class="st1" d="M965.2,1716.1v4.5h-7.7v12.7h7.4v4.5h-7.4v18h7.7v4.5h-14.4v-44.2H965.2z"/>
<path class="st1" d="M991.4,1717.3c1.5-0.8,3.3-1.2,5.5-1.2c2.7,0,4.8,0.5,6.4,1.6c1.7,1.2,2.6,3,2.6,5.4v7.6h-6.5v-6.2
	c0-2.6-0.9-4-2.5-4c-1.7,0-2.5,1.3-2.5,4c0.1,2.7,0.7,5.1,1.8,7c0.7,1.1,2,2.5,3.9,4.1c2,1.8,3.4,3.3,4.2,4.7
	c1.3,2.2,1.9,5.2,1.9,8.9v3.8c0,2.4-0.9,4.2-2.6,5.4c-1.6,1.1-3.7,1.7-6.4,1.7c-2.2,0-4-0.4-5.5-1.2c-2.3-1.2-3.5-3.1-3.5-5.9v-9.2
	h6.5v7.8c0,2.7,0.9,4,2.5,4c1.7,0,2.5-1.3,2.5-4c0-3.6-0.8-6.7-2.3-9.2c-0.9-1.4-2.5-3.2-4.7-5.3c-1.6-1.5-2.8-2.7-3.4-3.6
	c-0.9-1.4-1.4-3.1-1.4-5v-5.6C987.9,1720.5,989.1,1718.5,991.4,1717.3z"/>
<path class="st1" d="M1042.6,1716.1v4.5h-6v39.7h-6.7v-39.7h-6v-4.5H1042.6z"/>
</svg>
