<?xml version="1.0" encoding="utf-8"?>
<!-- Generator: Adobe Illustrator 22.0.1, SVG Export Plug-In . SVG Version: 6.00 Build 0)  -->
<svg version="1.1" xmlns="http://www.w3.org/2000/svg" xmlns:xlink="http://www.w3.org/1999/xlink" x="0px" y="0px"
	 viewBox="0 0 280 280" style="enable-background:new 0 0 280 280;" xml:space="preserve">
<style type="text/css">
	.st0{fill:#ED1C24;}
	.st1{fill:#C9202A;}
	.st2{fill:#414042;}
	.st3{fill:none;stroke:#FFFFFF;stroke-width:34;stroke-miterlimit:10;}
	.st4{fill:#1A6497;}
	.st5{fill:#FFFFFF;}
	.st6{fill:none;stroke:#FFFFFF;stroke-width:1.5;stroke-miterlimit:10;}
	.st7{fill:none;}
	.st8{fill:#1C75BC;}
	.st9{opacity:0.75;enable-background:new    ;}
	.st10{display:none;}
	.st11{display:inline;}
</style>
<g id="Layer_2">
	<g>
		<path class="st0" d="M53.9,0h171.9c9.5,0,17.2,7.7,17.2,17.2v240.6c0,10-7.6,17.2-17.2,17.2c-8,0-69-38.1-77.3-43
			c-8.3-4.9-8.5-5.1-17.2,0c-8.7,5.2-69.1,43-77.3,43c-9.7,0-17.2-6.9-17.2-17.2V17.2C36.8,7.7,44.5,0,53.9,0z"/>
		<path class="st1" d="M225.8,0h-85.9v228.3c2.2,0,4.3,1.3,8.6,3.7c8.3,4.8,68.8,42.7,77.2,42.9h0.4c9.5-0.1,16.9-7.2,16.9-17.2
			V17.2C243,7.7,235.3,0,225.8,0z"/>
	</g>
	<path class="st2" d="M1454.9,551.5c0,0-393.1-96.1-393.1-534.4c163.4-167.4,612.1-169.9,778,0
		C1839.8,455.3,1454.9,551.5,1454.9,551.5z"/>
	<g>
		
			<image style="overflow:visible;opacity:0.75;enable-background:new    ;" width="2896" height="2083" xlink:href="7F42BF05912D570A.png"  transform="matrix(0.2395 0 0 0.2395 1105.3762 -34.7807)">
		</image>
		<g>
			<path class="st0" d="M1783.8,107.5c0,183.2-148.5,331.7-331.7,331.7c-183.2,0-331.7-148.5-331.7-331.7
				C1120.4-75.7,1783.8-75.7,1783.8,107.5z"/>
		</g>
	</g>
	<g>
		<path class="st1" d="M1783.8,107.5c0,183.2-148.5,331.7-331.7,331.7c0-202.7-1.3-306.7-1.3-469.1
			C1617.1-30.2,1783.8,15.6,1783.8,107.5z"/>
	</g>
	<polygon class="st0" points="1121.1,-201.4 1451.7,-237.7 1782.2,-201.4 1782.2,98 1121.1,98 	"/>
	<polygon class="st1" points="1451.7,-237.7 1782.2,-201.4 1782.2,98 1451.8,98 	"/>
	<path class="st3" d="M1713.8,106.3c0,145.2-117.7,262.9-262.9,262.9c-145.2,0-262.9-117.7-262.9-262.9
		C1427.5,106.3,1340.4,106.3,1713.8,106.3z"/>
	<line class="st3" x1="1450.1" y1="356.3" x2="1450.1" y2="36.9"/>
	<path class="st3" d="M1315.4,341.8c0-72.7,58.8-131.5,131.5-131.5"/>
	<path class="st3" d="M1449.1,209.3c72.7,0,131.5,58.8,131.5,131.5"/>
	<line class="st3" x1="1472.7" y1="237.7" x2="1472.7" y2="-53.6"/>
	<line class="st3" x1="1187.1" y1="135.3" x2="1187.1" y2="-156.1"/>
	<line class="st3" x1="1172.3" y1="-140.5" x2="1454.2" y2="-171.4"/>
	<line class="st3" x1="1729.2" y1="-140.5" x2="1447.3" y2="-171.4"/>
	<polygon class="st4" points="1098.4,16.1 1121.1,-0.2 1121.1,16.1 	"/>
	<polygon class="st4" points="1809.1,16.1 1782.2,-0.2 1782.2,16.1 	"/>
	<path class="st5" d="M1361.2,15.5h-52.1V1.1h6.7v-108.2h-6.7v-14.4h52.1l9.8,9.7v51.6l-7,7.1l7,7.3V5.8L1361.2,15.5z M1356.6-107.1
		h-26.5v46.9h26.5V-107.1z M1356.6-45.8h-26.5V1.1h26.5V-45.8z"/>
	<path class="st5" d="M1432.4,15.5h-33.9l-10.8-10.8v-17.3h14.4V1.1h26.5v-47.6h-28.3l-12.6-12.7v-51.5l10.8-10.8h33.9l10.8,10.8
		v17.1h-14.6v-13.5h-26.5v46.2h29.5l11.6,11.6V4.7L1432.4,15.5z"/>
	<path class="st5" d="M1521.8-121.5v27.9h-14.4v-13.5h-26.5v46.9h17.1v14.4h-17.1V1.1h7.2v14.4H1460V1.1h6.7v-108.2h-6.7v-14.4
		L1521.8-121.5L1521.8-121.5z"/>
	<path class="st5" d="M1584.6,15.5h-52.1V1.1h6.7v-108.2h-6.7v-14.4h52.1l9.8,9.7v51.6l-7,7.1l7,7.3V5.8L1584.6,15.5z M1580-107.1
		h-26.5v46.9h26.5V-107.1z M1580-45.8h-26.5V1.1h26.5V-45.8z"/>
	<path class="st5" d="M1428.9,499.9l3,3v4.5l-8,5.7v0.9h4.5V513h3.5v4.6h-11.5v-5.8l8.1-6v-1.5l-0.9-0.9h-2.9l-0.9,0.9v0.7h-3.4
		v-2.1l3-3L1428.9,499.9L1428.9,499.9z"/>
	<path class="st5" d="M1447,499.9l3,3v11.6l-3,3h-5.5l-3-3v-11.6l3-3H1447z M1442.8,514.1h2.8l0.9-1v-8.8l-0.9-0.9h-2.8l-0.9,0.9
		v8.8L1442.8,514.1z"/>
	<path class="st5" d="M1465.1,499.9l3,3v11.6l-3,3h-5.5l-3-3v-11.6l3-3H1465.1z M1460.9,514.1h2.8l0.9-1v-8.8l-0.9-0.9h-2.8
		l-0.9,0.9v8.8L1460.9,514.1z"/>
	<path class="st5" d="M1483.2,499.9l3,3v4.5l-1.1,1.1l1.1,1.1v0v4.9l-3,3h-5.5l-3-3v-4.9l1.1-1.1l-1.1-1.1v-4.5l3-3L1483.2,499.9
		L1483.2,499.9z M1479,506.7h2.8l0.9-0.9v-1.5l-0.9-0.9h-2.8l-0.9,0.9v1.5L1479,506.7z M1479,514h2.8l0.9-1v-1.9l-0.9-0.9h-2.8
		l-0.9,0.9v1.9L1479,514z"/>
	<path class="st5" d="M1441.3,463.7v-1.9h-3.7v6.6h2.4v2h-2.4v6.6h3.7V475h2v4h-8.7v-2h0.9v-15.2h-0.9v-2h8.7v3.9L1441.3,463.7
		L1441.3,463.7z"/>
	<path class="st5" d="M1455.8,478.9h-4.8l-1.5-1.5V475h2v1.9h3.7v-6.7h-4l-1.8-1.8v-7.2l1.5-1.5h4.8l1.5,1.5v2.4h-2v-1.9h-3.7v6.5
		h4.1l1.6,1.6v7.6L1455.8,478.9z"/>
	<path class="st5" d="M1472.7,463.7h-2v-1.9h-1.4v15.2h1v2h-3.9v-2h0.9v-15.2h-1.5v1.9h-2v-3.9h8.9L1472.7,463.7L1472.7,463.7z"/>
	<line class="st6" x1="1409.5" y1="489.6" x2="1494.3" y2="489.6"/>
	<polygon class="st5" points="1449.4,124.2 1445.8,131.6 1437.6,132.8 1443.5,138.6 1442.1,146.7 1449.4,142.9 1456.8,146.7 
		1455.4,138.6 1461.3,132.8 1453.1,131.6 	"/>
	<polygon class="st7" points="1384.7,130.5 1381.7,124.5 1378.7,130.5 1372.1,131.5 1376.9,136.1 1375.8,142.7 1381.7,139.6 
		1387.6,142.7 1386.5,136.1 1391.3,131.5 	"/>
	<polygon class="st7" points="1449.4,124.2 1445.8,131.6 1437.6,132.8 1443.5,138.6 1442.1,146.7 1449.4,142.9 1456.8,146.7 
		1455.4,138.6 1461.3,132.8 1453.1,131.6 	"/>
	<g>
		
			<image style="overflow:visible;opacity:0.75;enable-background:new    ;" width="3092" height="750" xlink:href="7F42BF05912D570E.png"  transform="matrix(0.2397 0 0 0.2397 1083.3831 10.6124)">
		</image>
		<g>
			<path class="st8" d="M1452.8,34.5c-106,0-354.4-19-354.4-19v94.4c0,0,213.4,55.6,358.4,55.6s352.5-55.6,352.5-55.6V15.5
				C1809.3,15.5,1558.8,34.5,1452.8,34.5z M1387.6,142.7l-5.9-3.1l-5.9,3.1l1.1-6.6l-4.8-4.7l6.6-1l3-6l3,6l6.6,1l-4.8,4.7
				L1387.6,142.7z M1455.4,138.6l1.4,8.1l-7.3-3.8l-7.3,3.8l1.4-8.1l-5.9-5.8l8.2-1.2l3.7-7.4l3.7,7.4l8.2,1.2L1455.4,138.6z
				 M1525.6,142.7l-5.9-3.1l-5.9,3.1l1.1-6.6l-4.8-4.7l6.6-1l3-6l3,6l6.6,1l-4.8,4.7L1525.6,142.7z"/>
		</g>
	</g>
	<polygon class="st7" points="1522.7,130.5 1519.7,124.5 1516.7,130.5 1510.1,131.5 1514.9,136.1 1513.8,142.7 1519.7,139.6 
		1525.6,142.7 1524.5,136.1 1529.3,131.5 	"/>
	<polygon class="st7" points="1384.7,130.5 1381.7,124.5 1378.7,130.5 1372.1,131.5 1376.9,136.1 1375.8,142.7 1381.7,139.6 
		1387.6,142.7 1386.5,136.1 1391.3,131.5 	"/>
	<path class="st5" d="M1214.7,59.3v18.9l-2.4,2.6l2.2,2.1v19.8l-3.9,4h-18.4V55.5h18.6L1214.7,59.3z M1207.1,62.4h-8.5v14.7h8.5
		V62.4z M1207.1,84.4h-8.5v15.4h8.5V84.4z"/>
	<path class="st5" d="M1266.6,55.5l4.3,51.1l-6.8,0.1l-1-13.2h-9.4l-1.6,13.2l-6.6-0.1l5.3-51.1L1266.6,55.5L1266.6,55.5z
		 M1262.2,86.7l-1.7-24.7h-3.6l-2.4,24.7H1262.2z"/>
	<path class="st5" d="M1301.1,59.8l4.2-4.3h15.2l3.6,3.8v5.2h-6.7v-2.2h-9.3v15h11.8l4.1,4v21.1l-4.3,4.3l-14.8-0.1l-4-4v-5.2h6.7
		v2.2h9.3V83.9h-12.2l-3.8-3.5V59.8L1301.1,59.8z"/>
	<path class="st5" d="M1370.5,106.7l-6.1-20.8l-3.2,7.8v12.7h-7.1v-51h7.1v19.7l8-19.7h7.6l-8.2,20.3l9.2,30.9L1370.5,106.7
		L1370.5,106.7z"/>
	<path class="st5" d="M1430.2,55.5v6.7h-15.6v15.1h9v6.9h-9v15.6h15.7v6.9h-22.7V55.6L1430.2,55.5z"/>
	<path class="st5" d="M1482,62.5h-8.2v44.2h-6.8V62.5h-7.9v-7h23V62.5L1482,62.5z"/>
	<path class="st5" d="M1534.5,59.3v18.9l-2.4,2.6l2.2,2.1v19.8l-3.9,4h-18.4V55.5h18.6L1534.5,59.3z M1526.9,62.4h-8.5v14.7h8.5
		V62.4z M1526.9,84.4h-8.5v15.4h8.5V84.4z"/>
	<path class="st5" d="M1586.4,55.5l4.3,51.1l-6.8,0.1l-1-13.2h-9.4l-1.6,13.2l-6.6-0.1l5.3-51.1L1586.4,55.5L1586.4,55.5z
		 M1582,86.7l-1.7-24.7h-3.6l-2.4,24.7H1582z"/>
	<path class="st5" d="M1621,55.5h7.2v44.3h15.9v6.9H1621L1621,55.5L1621,55.5z"/>
	<path class="st5" d="M1672.1,55.5h7.2v44.3h15.9v6.9h-23.1L1672.1,55.5L1672.1,55.5z"/>
	<g class="st9">
		<path class="st2" d="M53.9,0h171.9c9.5,0,17.2,7.7,17.2,17.2v240.6c0,10-7.6,17.2-17.2,17.2c-8,0-69-38.1-77.3-43
			c-8.3-4.9-8.5-5.1-17.2,0c-8.7,5.2-69.1,43-77.3,43c-9.7,0-17.2-6.9-17.2-17.2V17.2C36.8,7.7,44.5,0,53.9,0z"/>
		<path class="st2" d="M225.8,0h-85.9v228.3c2.2,0,4.3,1.3,8.6,3.7c8.3,4.8,68.8,42.7,77.2,42.9h0.4c9.5-0.1,16.9-7.2,16.9-17.2
			V17.2C243,7.7,235.3,0,225.8,0z"/>
	</g>
	<g>
		<path class="st0" d="M68.1,0h143.5c7.9,0,14.4,6.4,14.4,14.4v201c0,8.4-6.3,14.4-14.4,14.4c-6.7,0-57.6-31.8-64.6-35.9
			c-7-4.1-7.1-4.3-14.4,0c-7.3,4.3-57.7,35.9-64.6,35.9c-8.1,0-14.4-5.8-14.4-14.4v-201C53.8,6.4,60.2,0,68.1,0z"/>
		<path class="st1" d="M211.6,0h-71.8v190.7c1.9,0,3.6,1,7.2,3.1c6.9,4,57.5,35.6,64.5,35.9h0.3c7.9-0.1,14.1-6,14.1-14.3v-201
			C226,6.4,219.6,0,211.6,0z"/>
	</g>
	<g>
		<path class="st0" d="M68.1,0h143.5c7.9,0,14.4,6.4,14.4,14.4v201c0,8.4-6.3,14.4-14.4,14.4c-6.7,0-57.6-31.8-64.6-35.9
			c-7-4.1-7.1-4.3-14.4,0c-7.3,4.3-57.7,35.9-64.6,35.9c-8.1,0-14.4-5.8-14.4-14.4v-201C53.8,6.4,60.2,0,68.1,0z"/>
		<path class="st1" d="M211.6,0h-71.8v190.7c1.9,0,3.6,1,7.2,3.1c6.9,4,57.5,35.6,64.5,35.9h0.3c7.9-0.1,14.1-6,14.1-14.3v-201
			C226,6.4,219.6,0,211.6,0z"/>
	</g>
</g>
<g id="Layer_3" class="st10">
	<g class="st11">
		<g>
			<path class="st5" d="M216.5,94.5c0-42.6-34.5-77.2-77.2-77.2c-42.6,0-77.2,34.5-77.2,77.2c0,42.6,34.5,77.2,77.2,77.2
				C181.9,171.7,216.5,137.1,216.5,94.5z M69.1,94.5c0-38.7,31.4-70.2,70.2-70.2s70.2,31.4,70.2,70.2s-31.4,70.2-70.2,70.2
				S69.1,133.2,69.1,94.5z"/>
			<path class="st5" d="M142.2,139V94.5h14.7l2.3-14.8h-17v-7.4c0-3.9,1.3-7.5,6.8-7.5h11V50.1h-15.7c-13.2,0-16.8,8.7-16.8,20.7
				v8.9h-9v14.8h9V139H142.2L142.2,139z"/>
		</g>
	</g>
</g>
<g id="Layer_4">
	<g>
		<g>
			<path class="st5" d="M161.5,99.6l-8.7-27c-0.8-2.5-3.5-3.9-6-3.1c-8.9,2.8-18.3,5.9-27.1,8.8c-2.5,0.8-3.9,3.5-3.1,6l8.7,27
				c0.7,2,2.5,3.3,4.6,3.3c0.5,0,1-0.1,1.5-0.2l27-8.7c1.2-0.4,2.2-1.2,2.8-2.4C161.8,102.1,161.9,100.8,161.5,99.6z M133,103.7
				l-5.8-17.9c5.9-1.9,12-3.9,17.9-5.8l5.8,17.9L133,103.7z"/>
		</g>
	</g>
	<g>
		<g>
			<path class="st5" d="M215,95.7c-1.4-4.5-4.5-8.1-8.6-10.2c-4.2-2.2-9-2.6-13.6-1.1l-8.3,2.7l-5.9-18c5.2-1.7,8.4-2.7,8.4-2.7
				c4.4-1.4,8.1-4.5,10.2-8.6c2.2-4.2,2.6-9.1,1.1-13.5c-1.4-4.5-4.5-8.2-8.7-10.3c-4.2-2.2-9-2.5-13.5-1.1l-8.3,2.7
				c-1.7-5.2-2.7-8.4-2.7-8.4c-3-9.2-13-14.2-22.3-11.3c-4.5,1.4-8.1,4.5-10.2,8.7c-2.2,4.2-2.6,9.1-1.1,13.6l2.7,8.3l-18,5.9
				c-1.7-5.2-2.7-8.4-2.7-8.4c-1.4-4.5-4.5-8.1-8.7-10.2c-4.2-2.2-9.1-2.6-13.5-1.1c-4.5,1.4-8.2,4.5-10.3,8.7
				c-2.2,4.2-2.5,9-1.1,13.5l2.7,8.4l-8.9,2.9c-8.7,3.1-13.5,12.5-11,21.5c1.4,4.6,4.6,8.5,8.8,10.8c4.1,2.2,8.8,2.7,13.3,1.3
				c0,0,3.3-1.1,8.7-2.8l5.8,17.9l-8.9,2.9c-8.6,3.1-13.5,12.6-11,21.5c1.4,4.6,4.6,8.6,8.9,10.8c4.1,2.2,8.8,2.6,13.2,1.1l8.8-2.8
				l2.9,8.9c2.5,7.1,9.3,11.6,16.7,11.6c1.6,0,3.2-0.2,4.8-0.7c4.6-1.4,8.5-4.6,10.8-8.8c2.2-4.1,2.7-8.8,1.3-13.3
				c0,0-1.1-3.3-2.9-8.7c5.9-1.9,12-3.9,17.9-5.8l2.9,8.9c3.1,8.7,12.6,13.5,21.5,11c4.6-1.4,8.6-4.6,10.8-8.9
				c2.2-4.1,2.6-8.8,1.1-13.2c0,0-1.1-3.3-2.8-8.7c5.2-1.7,8.4-2.7,8.4-2.7C213,114.9,218,104.9,215,95.7z M200.9,108.8
				c0,0-5.1,1.6-13,4.2c-2.5,0.8-3.9,3.5-3.1,6c2.6,8.1,4.3,13.3,4.3,13.3c0.6,1.9,0.4,3.9-0.5,5.7c-1,2-2.9,3.5-5,4.1
				c-4.1,1.1-8.4-1-9.8-4.8l-4.3-13.4c-0.4-1.2-1.2-2.2-2.4-2.8c-1.1-0.6-2.5-0.7-3.7-0.3l-4.2,1.4c-7.6,2.5-15.5,5-22.8,7.4
				c-2,0.6-3.3,2.5-3.3,4.6v0.1v0c0,0,0,0,0,0v0c0,0,0,0,0,0c0,0.5,0.1,1,0.2,1.4c0,0,0,0,0,0c2.6,8,4.3,13.2,4.3,13.2
				c0.6,1.9,0.4,4-0.6,5.8c-1,2-2.9,3.5-5,4.1c-4.1,1.2-8.4-1-9.7-4.8l-4.3-13.4c-0.7-2-2.5-3.3-4.6-3.3c-0.5,0-1,0.1-1.5,0.2
				L98.6,142c-1.9,0.6-3.9,0.4-5.7-0.5c-2-1-3.5-2.9-4.1-5c-1.1-4.1,1-8.4,4.8-9.8l13.4-4.3c1.2-0.4,2.2-1.2,2.8-2.4
				c0.6-1.1,0.7-2.5,0.3-3.7l-8.8-27c-0.8-2.5-3.5-3.9-6-3.1c-8,2.6-13.2,4.3-13.2,4.3c-1.9,0.6-4,0.4-5.8-0.6c-2-1-3.5-2.9-4.1-5
				c-1.1-4.1,1-8.4,4.8-9.7l13.4-4.3c1.2-0.4,2.2-1.2,2.8-2.4c0.6-1.1,0.7-2.5,0.3-3.7l-4.2-13c-0.7-2-0.5-4.2,0.5-6.1
				c1-1.9,2.6-3.3,4.7-4c2.1-0.7,4.3-0.5,6.2,0.5c1.9,1,3.2,2.6,3.9,4.6c0,0,1.6,5.1,4.2,13c0.8,2.5,3.5,3.9,6.1,3.1l27.1-8.8
				c1.2-0.4,2.2-1.3,2.8-2.4c0.6-1.1,0.7-2.5,0.3-3.7l-4.2-12.9c-0.7-2.1-0.5-4.3,0.5-6.2c1-1.9,2.6-3.2,4.6-3.9
				c4.3-1.4,8.8,0.9,10.2,5.1c0,0,1.6,5.1,4.3,13c0.8,2.5,3.5,3.9,6.1,3.1l12.9-4.2c2-0.7,4.2-0.5,6.1,0.5c1.9,1,3.3,2.6,4,4.7
				c0.7,2.1,0.5,4.3-0.5,6.2c-1,1.9-2.6,3.2-4.6,3.9c0,0-5.1,1.6-13,4.2c-2.5,0.8-3.9,3.5-3.1,6.1l8.8,27.1c0.4,1.2,1.3,2.2,2.4,2.8
				c1.2,0.6,2.5,0.7,3.7,0.3l12.9-4.2c2.1-0.7,4.3-0.5,6.2,0.5c1.9,1,3.2,2.6,3.9,4.6C207.3,102.9,205.1,107.4,200.9,108.8z"/>
		</g>
	</g>
</g>
</svg>
