<?xml version="1.0" encoding="utf-8"?>
<!-- Generator: Adobe Illustrator 22.0.1, SVG Export Plug-In . SVG Version: 6.00 Build 0)  -->
<svg version="1.1" xmlns="http://www.w3.org/2000/svg" xmlns:xlink="http://www.w3.org/1999/xlink" x="0px" y="0px"
	 viewBox="0 0 1000 1000" style="enable-background:new 0 0 1000 1000;" xml:space="preserve">
<style type="text/css">
	.st0{fill:#C1B49A;}
	.st1{fill:#404041;}
	.st2{opacity:0.74;fill:#BE1E2D;}
	.st3{fill:#F1F1F2;}
	.st4{fill:none;}
	.st5{font-family:'NBABostonCeltics';}
	.st6{font-size:58px;}
	.st7{letter-spacing:5;}
</style>
<g id="Layer_1">
</g>
<g id="Layer_2">
	<path class="st0" d="M896.7,76.4c0,0-7.2-41.6-387.7-41.7l0,0c0,0-0.1,0-0.1,0c0,0-0.1,0-0.1,0l0,0c-380.5,0-387.7,41.7-387.7,41.7
		s-4.3,409.5,83.3,571.9c85.9,159.2,296.2,294.9,304.3,300.1c0,0.1,0,0.2,0,0.2s0.1,0,0.1-0.1c0.1,0,0.1,0.1,0.1,0.1s0-0.1,0-0.2
		c8.2-5.2,218.4-140.9,304.3-300.1C901,485.8,896.7,76.4,896.7,76.4z"/>
	<path class="st0" d="M888,66.7c0,0-7-40.7-379-40.7l0,0c0,0-0.1,0-0.1,0c0,0-0.1,0-0.1,0l0,0c-371.9,0-379,40.7-379,40.7
		s-1.3,126.7,12.8,265.7c239.9,0,333.3,0.7,732.6,0.7C889.4,193.7,888,66.7,888,66.7z"/>
	<polygon class="st0" points="110,83.5 158.3,70.4 158.3,334 140.8,334 110,334 	"/>
	<polygon class="st0" points="901.7,82.7 853.5,69.5 877.6,114 876,311.5 853.5,312.2 852.6,333.1 901.7,333.1 	"/>
	<path class="st1" d="M861.4,114.1c0,0-6.5-37.9-352.4-37.9l0,0c0,0-0.1,0-0.1,0c0,0-0.1,0-0.1,0l0,0c0,346.3,0.1,830.7,0.1,830.7
		c0.1,0,0.1,0.1,0.1,0.1s0-0.1,0-0.2c7.4-4.8,198.5-128.1,276.7-272.8c41.2-76.2,60-212.4,68.6-326.3c0.2-2.5,18.6,0.7,18.7-1.7
		C879.4,217.7,861.4,114.1,861.4,114.1z"/>
	<path class="st1" d="M156.3,114.1c0,0,6.5-37.9,352.4-37.9l0,0c0,0,0.1,0,0.1,0c0,0,0.1,0,0.1,0l0,0c0,346.3-0.1,830.7-0.1,830.7
		c-0.1,0-0.1,0.1-0.1,0.1s0-0.1,0-0.2c-7.4-4.8-198.5-128.1-276.7-272.8c-41.2-76.2-60-212.4-68.6-326.3c-0.2-2.5-18.6,0.7-18.7-1.7
		C138.3,217.7,156.3,114.1,156.3,114.1z"/>
	<path class="st0" d="M388.4,777.3c62.9,53.3,116.5,88,120.5,90.5c0,0.1,0-36.1,0-72.3C442.6,795.5,439.5,777.3,388.4,777.3z"/>
	<path class="st0" d="M629.4,777.3c-62.9,53.3-116.5,88-120.5,90.5c0,0.1,0-36.1,0-72.3C575.3,795.5,578.3,777.3,629.4,777.3z"/>
	<path class="st2" d="M668.6,327.4c0,0,65.5-13.8,79.2-14.2c1.4,0,9.7,10.5,9.7,10.5c27.6,44.8,43.5,97.6,43.5,154.1
		c0,162.5-131.7,294.2-294.2,294.2c-86.1,0-163.5-37-217.3-95.9c-1.2-1.3,0.1-3.2,0.3-5c3-21,8.4-60.6,41.2-117.8
		c0.1-0.2,0.7-1.7,0.8-1.9c11.9-18,23.7-36.8,39.4-53.6c22.4-24.1,46.9-50.4,75.9-70.5c67.1-46.5,107.8-63,139.8-75.3
		c27.9-10.8,46.4-15.4,76.7-23.8"/>
	<path class="st1" d="M364.7,735.8C589,719.9,752.2,555.1,763.6,334c0-0.5,30.3,17.8,18.7,40.2c-12.9,94.2-53.7,180.6-118.3,248
		c-39.5,41.3-86.4,74-139.3,97.4c-38,16.8-78.4,28.3-120.7,34.5C368.1,752.2,366,746.9,364.7,735.8z"/>
	<path class="st1" d="M737.1,661.1C700.8,545.8,607.4,444,496.3,399.6l8.3-20.9c112.1,44.8,207.1,145.1,248.6,260.2
		C749.4,649.4,744.3,654.7,737.1,661.1z"/>
	<path class="st1" d="M793.6,543.9c-30.9-7.7-60.3-30.5-83.1-65.2c-27.1-41.3-42.7-95.8-42.7-149.5l22.9-1.7l-0.5,1.7
		c0,49.4,14.2,99.4,39,137.2c19.4,29.5,43.6,48.9,68.6,55.5C801.8,528.5,799.3,537.4,793.6,543.9z"/>
	<path class="st1" d="M655.6,731.9c-9.4-141-102.4-199.2-313.8-199.2v-22.5c118,0,198.3,17.6,252.6,55.4
		c48.2,33.6,75.4,84,82.6,152.8C666.7,725.4,665.9,725.7,655.6,731.9z"/>
	<path class="st3" d="M288.7,115.5v165.6h-23v-95.4L246,241.1l-20-55.5v95.4h-23V115.5h22.8l20.1,57.5l19.9-57.5H288.7z"/>
	<path class="st3" d="M435.5,127.1v18.8H415v-8.5h-30.8v121.3h29.4v-15.9h21.9v25.9l-11.6,12.4h-49.7l-12.6-12.8V128.7l14.1-13.2
		h48.6L435.5,127.1z"/>
	<path class="st3" d="M519.7,129.4v138.9l-12.8,12.8h-47l-13.5-13.2V129.2l12.6-13.7h48L519.7,129.4z M497.3,257.9V138.7H469v119.2
		H497.3z"/>
	<path class="st3" d="M630.6,115.5l-14.7,165.6h-18.6l-13.5-69.1l-15.9,69.1h-17.6l-14.1-165.6h22.3l7.7,75.7l16.8-72l18.8,72
		l5.8-75.7H630.6z"/>
	<path class="st3" d="M704.5,115.5l13.9,165.3l-22.1,0.2l-3.1-42.8h-30.2l-5.1,42.8l-21.2-0.2l17.2-165.3H704.5z M690.2,216.5
		l-5.4-79.9H673l-7.7,79.9H690.2z"/>
	<path class="st3" d="M806.5,115.5v165.6h-21.8l-28.3-92.2v92.2h-23V115.5h23l28.4,87.7l0.2-87.7H806.5z"/>
	<polygon class="st3" points="352,202.1 352,176.2 340.5,163.9 340.5,163.7 312.5,163.8 299.9,176.6 299.9,207.3 299.8,207.3 
		299.8,268.2 312.4,281.1 340.4,281.1 340.5,281 352,268.6 352,242.8 336,242.8 335.9,262.3 317.3,262.2 317.3,183.4 335.7,183.3 
		335.8,202.1 	"/>
	<rect x="203" y="309" class="st4" width="344" height="63"/>
	<text transform="matrix(1 0 0 1 203 355.3994)" class="st3 st5 st6 st7">BASKETBALL</text>
</g>
</svg>
