<?xml version="1.0" encoding="utf-8"?>
<!-- Generator: Adobe Illustrator 22.0.1, SVG Export Plug-In . SVG Version: 6.00 Build 0)  -->
<svg version="1.1" xmlns="http://www.w3.org/2000/svg" xmlns:xlink="http://www.w3.org/1999/xlink" x="0px" y="0px"
	 viewBox="0 0 1000 1000" style="enable-background:new 0 0 1000 1000;" xml:space="preserve">
<style type="text/css">
	.st0{fill:#C1B49A;}
	.st1{fill:#404041;}
	.st2{opacity:0.74;fill:#BE1E2D;}
	.st3{fill:#F1F1F2;}
	.st4{fill:none;}
	.st5{font-family:'NBABostonCeltics';}
	.st6{font-size:50.2637px;}
	.st7{letter-spacing:5;}
</style>
<g id="Layer_1">
</g>
<g id="Layer_2">
	<path class="st0" d="M842.8,192.7c0,0-6.2-36.1-336-36.1l0,0c0,0-0.1,0-0.1,0c0,0-0.1,0-0.1,0l0,0c-329.7,0-336,36.1-336,36.1
		s-3.7,354.9,72.2,495.6c74.5,138,256.7,255.6,263.7,260.1c0,0.1,0,0.2,0,0.2s0,0,0.1-0.1c0.1,0,0.1,0.1,0.1,0.1s0-0.1,0-0.2
		c7.1-4.5,189.3-122.1,263.7-260.1C846.5,547.6,842.8,192.7,842.8,192.7z"/>
	<path class="st0" d="M835.3,184.3c0,0-6.1-35.3-328.4-35.3l0,0c0,0-0.1,0-0.1,0c0,0-0.1,0-0.1,0l0,0
		c-322.3,0-328.4,35.3-328.4,35.3s-1.2,109.8,11,230.3c207.9,0,288.9,0.6,634.9,0.6C836.4,294.4,835.3,184.3,835.3,184.3z"/>
	<polygon class="st0" points="161,198.9 202.8,187.5 202.8,416 187.7,416 161,416 	"/>
	<polygon class="st0" points="847.1,198.1 805.3,186.8 826.2,225.3 824.8,396.5 805.3,397.1 804.6,415.2 847.1,415.2 	"/>
	<path class="st1" d="M812.2,225.4c0,0-5.7-32.8-305.4-32.8c0,0,0,0,0,0c0,0,0,0-0.1,0c0,0,0,0,0,0c0,0,0,0-0.1,0c0,0,0,0,0,0
		c-299.8,0-305.4,32.8-305.4,32.8s-15.6,89.7-10.1,166.2c0.2,2.1,16.1-0.6,16.2,1.5c7.5,98.7,23.8,216.7,59.5,282.8
		c67.7,125.4,233.3,232.3,239.8,236.4c0,0.1,0,0.1,0,0.1s0,0,0.1-0.1c0,0,0-3.7,0-10.7c0,7,0,10.7,0,10.7c0.1,0,0.1,0.1,0.1,0.1
		s0-0.1,0-0.1c6.4-4.1,172.1-111,239.8-236.4c35.7-66.1,52-184.1,59.5-282.8c0.2-2.1,16.1,0.6,16.2-1.5
		C827.8,315.1,812.2,225.4,812.2,225.4z"/>
	<path class="st0" d="M506.7,878.6c3.8-2.4,50.1-32.5,104.4-78.4c-44.2,0-46.9,15.8-104.4,15.8c-57.5,0-60.2-15.8-104.4-15.8
		C456.6,846.1,502.9,876.1,506.7,878.6C506.7,878.6,506.7,878.6,506.7,878.6C506.7,878.6,506.7,878.6,506.7,878.6
		C506.7,878.6,506.7,878.6,506.7,878.6C506.7,878.6,506.7,878.6,506.7,878.6z"/>
	<path class="st2" d="M645.1,410.3c0,0,56.8-12,68.7-12.3c1.2,0,8.4,9.1,8.4,9.1c23.9,38.8,37.7,84.6,37.7,133.6
		c0,140.8-114.2,255-255,255c-74.6,0-141.7-32-188.3-83.1c-1-1.1,0.1-2.8,0.3-4.3c2.6-18.2,7.3-52.5,35.7-102.1
		c0.1-0.2,0.6-1.5,0.7-1.6c10.3-15.6,20.6-31.9,34.2-46.5c19.4-20.9,40.7-43.7,65.8-61.1c58.2-40.3,93.4-54.6,121.1-65.3
		c24.2-9.4,40.2-13.4,66.4-20.6"/>
	<path class="st1" d="M381.7,764.1C576.1,750.4,717.5,607.6,727.4,416c0-0.4,26.3,15.5,16.2,34.8c-11.2,81.7-46.6,156.5-102.5,214.9
		c-34.2,35.8-74.8,64.1-120.7,84.4c-32.9,14.5-68,24.5-104.6,29.9C384.7,778.4,382.9,773.8,381.7,764.1z"/>
	<path class="st1" d="M704.5,699.5C673,599.6,592.1,511.3,495.8,472.8l7.2-18.1c97.2,38.8,179.5,125.7,215.5,225.5
		C715.1,689.3,710.7,693.9,704.5,699.5z"/>
	<path class="st1" d="M753.4,597.9c-26.8-6.6-52.3-26.4-72-56.5c-23.5-35.8-37-83-37-129.6l19.9-1.4l-0.4,1.4
		c0,42.8,12.3,86.2,33.8,118.9c16.8,25.5,37.8,42.4,59.4,48.1C760.5,584.5,758.4,592.2,753.4,597.9z"/>
	<path class="st1" d="M633.8,760.8c-8.1-122.2-88.7-172.6-272-172.6v-19.5c102.3,0,171.8,15.3,218.9,48
		c41.8,29.1,65.4,72.8,71.6,132.4C643.4,755.1,642.8,755.4,633.8,760.8z"/>
	<path class="st3" d="M315.9,226.6v143.5H296v-82.7l-17.1,48.1l-17.3-48.1v82.7h-19.9V226.6h19.7l17.4,49.9l17.2-49.9H315.9z"/>
	<path class="st3" d="M443.1,236.7V253h-17.8v-7.4h-26.7v105.1H424v-13.8h19v22.4l-10,10.8h-43L379,359V238.1l12.2-11.5h42.1
		L443.1,236.7z"/>
	<path class="st3" d="M516,238.6V359l-11.1,11.1h-40.7l-11.7-11.5V238.5l10.9-11.8h41.6L516,238.6z M496.7,350V246.7h-24.6V350
		H496.7z"/>
	<path class="st3" d="M612.2,226.6l-12.7,143.5h-16.1l-11.7-59.9l-13.8,59.9h-15.2l-12.2-143.5h19.4l6.6,65.6l14.5-62.4l16.3,62.4
		l5-65.6H612.2z"/>
	<path class="st3" d="M676.2,226.6l12,143.3l-19.2,0.2l-2.7-37.1h-26.2l-4.4,37.1l-18.4-0.2l14.9-143.3H676.2z M663.8,314.1
		l-4.7-69.2h-10.2l-6.6,69.2H663.8z"/>
	<path class="st3" d="M764.6,226.6v143.5h-18.9l-24.5-79.9v79.9h-19.9V226.6h19.9l24.6,76l0.2-76H764.6z"/>
	<polygon class="st3" points="370.8,301.6 370.8,279.2 360.8,268.5 360.7,268.4 336.5,268.5 325.6,279.6 325.6,306.2 325.5,306.2 
		325.5,359 336.4,370.1 360.6,370.2 360.7,370 370.7,359.3 370.7,336.9 356.9,336.9 356.8,353.8 340.6,353.7 340.6,285.5 
		356.6,285.4 356.7,301.6 	"/>
	<rect x="241.6" y="394.3" class="st4" width="298.1" height="54.6"/>
	<text transform="matrix(1 0 0 1 241.6006 434.5103)" class="st3 st5 st6 st7">BASKETBALL</text>
	<polygon class="st0" points="507.5,32 518.4,65.4 553.5,65.4 525.1,86.1 535.9,119.5 507.5,98.8 479.1,119.5 489.9,86.1 
		461.5,65.4 496.6,65.4 	"/>
</g>
</svg>
