<?xml version="1.0" encoding="utf-8"?>
<!-- Generator: Adobe Illustrator 22.0.1, SVG Export Plug-In . SVG Version: 6.00 Build 0)  -->
<svg version="1.1" xmlns="http://www.w3.org/2000/svg" xmlns:xlink="http://www.w3.org/1999/xlink" x="0px" y="0px"
	 viewBox="0 0 300 300" style="enable-background:new 0 0 300 300;" xml:space="preserve">
<style type="text/css">
	.st0{fill:#414042;}
	.st1{fill:#C9202A;}
	.st2{fill:#ED1C24;}
	.st3{fill:#FFFFFF;}
	.st4{display:none;}
	.st5{display:inline;}
</style>
<g id="Layer_1">
	<g>
		
			<image style="overflow:visible;opacity:0.33;" width="480" height="726" xlink:href="D350587FB0EA0D31.png"  transform="matrix(0.48 0 0 0.48 39.28 -36.52)">
		</image>
		<g>
			<polygon class="st0" points="254,254.9 154.2,289.3 54.3,254.9 54.3,-28.5 254,-28.5 			"/>
		</g>
	</g>
	<g>
		
			<image style="overflow:visible;opacity:0.33;" width="293" height="677" xlink:href="D350587FB0EA0D33.png"  transform="matrix(0.48 0 0 0.48 491.64 -14.28)">
		</image>
		<g>
			<path class="st0" d="M598.6-6h-91.9v244.1c2.4,0,4.6,1.3,9.2,4c8.9,5.2,73.6,45.6,82.5,45.9h0.4c10.1-0.1,18.1-7.7,18.1-18.3
				V12.4C617,2.2,608.8-6,598.6-6z"/>
		</g>
	</g>
	<path class="st1" d="M227.2-6h-74.4v197.7c1.9,0,3.8,1.1,7.4,3.2c7.2,4.2,59.6,37,66.9,37.2h0.3c8.2-0.1,14.7-6.3,14.7-14.9V8.9
		C242,0.7,235.4-6,227.2-6z"/>
	<path class="st2" d="M64.9,8.9v208.4c0,8.6,6.4,14.7,14.7,14.9h0.3c7.3-0.2,59.7-33,66.9-37.2c3.7-2.2,5.5-3.3,7.4-3.2V-6H79.8
		C71.5-6,64.9,0.7,64.9,8.9z"/>
	<g>
		
			<image style="overflow:visible;opacity:0.33;" width="432" height="649" xlink:href="D350587FB0EA0D36.png"  transform="matrix(0.48 0 0 0.48 50.28 -14.28)">
		</image>
		<g>
			<polygon class="st2" points="242,244.6 153.7,275 65.3,244.6 65.3,-6.2 242,-6.2 			"/>
		</g>
	</g>
</g>
<g id="Layer_2">
	<g>
		<g>
			<path class="st3" d="M214.8,121.7c0-34.4-27.9-62.3-62.3-62.3c-34.4,0-62.3,27.9-62.3,62.3c0,34.4,27.9,62.3,62.3,62.3
				C186.9,184,214.8,156.1,214.8,121.7z M95.8,121.7c0-31.3,25.4-56.7,56.7-56.7s56.7,25.4,56.7,56.7s-25.4,56.7-56.7,56.7
				S95.8,153,95.8,121.7z"/>
			<path class="st3" d="M154.9,157.7v-36h11.9l1.9-11.9h-13.8v-6c0-3.1,1-6.1,5.5-6.1h8.9V85.8h-12.7c-10.7,0-13.6,7-13.6,16.7v7.2
				h-7.3v11.9h7.3v36H154.9L154.9,157.7z"/>
		</g>
	</g>
</g>
<g id="Layer_3" class="st4">
	<g class="st5">
		<g>
			<path class="st3" d="M171.2,133l-7.1-21.8c-0.7-2-2.8-3.1-4.9-2.5c-7.2,2.3-14.8,4.8-21.9,7.1c-2,0.7-3.1,2.9-2.5,4.9l7.1,21.8
				c0.5,1.6,2.1,2.7,3.7,2.7c0.4,0,0.8-0.1,1.2-0.2l21.8-7.1c1-0.3,1.8-1,2.3-1.9S171.5,134,171.2,133z M148.2,136.4l-4.7-14.5
				c4.7-1.6,9.7-3.2,14.4-4.7l4.7,14.5L148.2,136.4z"/>
		</g>
	</g>
	<g class="st5">
		<g>
			<path class="st3" d="M214.5,129.9c-1.1-3.6-3.6-6.5-7-8.3c-3.4-1.8-7.3-2.1-11-0.9l-6.7,2.2l-4.7-14.5c4.2-1.4,6.8-2.2,6.8-2.2
				c3.6-1.1,6.5-3.6,8.3-7c1.8-3.4,2.1-7.3,0.9-10.9c-1.1-3.6-3.7-6.6-7.1-8.3c-3.4-1.7-7.3-2.1-10.9-0.9l-6.7,2.2
				c-1.4-4.2-2.2-6.8-2.2-6.8c-2.4-7.4-10.5-11.5-18-9.1c-3.6,1.1-6.5,3.6-8.3,7c-1.8,3.4-2.1,7.3-0.9,11l2.2,6.7l-14.5,4.7
				c-1.4-4.2-2.2-6.8-2.2-6.8c-1.1-3.6-3.6-6.5-7-8.3c-3.4-1.8-7.3-2.1-10.9-0.9c-3.6,1.1-6.6,3.6-8.3,7c-1.7,3.4-2.1,7.3-0.9,10.9
				l2.2,6.8l-7.2,2.3c-7,2.5-10.9,10.1-8.9,17.3c1.1,3.7,3.7,6.9,7.1,8.7c3.3,1.8,7.1,2.1,10.7,1c0,0,2.6-0.9,7-2.3l4.7,14.4
				l-7.2,2.3c-7,2.5-10.9,10.2-8.8,17.4c1.1,3.7,3.7,6.9,7.2,8.7c3.3,1.7,7.1,2.1,10.7,0.9l7.1-2.3l2.3,7.2c2,5.7,7.5,9.4,13.5,9.4
				c1.3,0,2.6-0.2,3.9-0.6c3.7-1.1,6.9-3.7,8.7-7.1c1.8-3.3,2.2-7.1,1-10.7c0,0-0.9-2.7-2.3-7c4.8-1.5,9.7-3.1,14.5-4.7l2.3,7.2
				c2.5,7,10.2,10.9,17.4,8.8c3.7-1.1,6.9-3.7,8.7-7.2c1.7-3.3,2.1-7.1,0.9-10.7c0,0-0.9-2.6-2.3-7c4.2-1.4,6.8-2.2,6.8-2.2
				C212.8,145.4,216.9,137.3,214.5,129.9z M203,140.5c0,0-4.1,1.3-10.5,3.4c-2,0.7-3.1,2.8-2.5,4.9c2.1,6.5,3.5,10.8,3.5,10.8
				c0.5,1.5,0.3,3.2-0.4,4.6c-0.8,1.6-2.3,2.8-4,3.3c-3.3,0.9-6.8-0.8-7.9-3.9l-3.5-10.8c-0.3-1-1-1.8-1.9-2.3c-0.9-0.5-2-0.6-3-0.2
				l-3.4,1.1c-6.1,2-12.5,4.1-18.4,6c-1.6,0.5-2.7,2-2.7,3.7v0.1v0c0,0,0,0,0,0v0c0,0,0,0,0,0c0,0.4,0.1,0.8,0.2,1.1c0,0,0,0,0,0
				c2.1,6.5,3.5,10.7,3.5,10.7c0.5,1.5,0.3,3.2-0.5,4.7c-0.8,1.6-2.3,2.8-4,3.3c-3.3,0.9-6.8-0.8-7.8-3.9l-3.5-10.8
				c-0.5-1.6-2.1-2.7-3.7-2.7c-0.4,0-0.8,0.1-1.2,0.2l-10.8,3.5c-1.5,0.5-3.2,0.3-4.6-0.4c-1.6-0.8-2.8-2.3-3.3-4
				c-0.9-3.3,0.8-6.8,3.9-7.9l10.8-3.5c1-0.3,1.8-1,2.3-1.9c0.5-0.9,0.6-2,0.2-3l-7.1-21.8c-0.7-2-2.9-3.1-4.9-2.5
				c-6.5,2.1-10.7,3.5-10.7,3.5c-1.5,0.5-3.2,0.3-4.7-0.5c-1.6-0.8-2.8-2.3-3.3-4c-0.9-3.3,0.8-6.8,3.9-7.8l10.8-3.5
				c1-0.3,1.8-1,2.3-1.9s0.6-2,0.2-3l-3.4-10.5c-0.5-1.6-0.4-3.4,0.4-4.9c0.8-1.5,2.1-2.7,3.8-3.2c1.7-0.6,3.4-0.4,5,0.4
				c1.5,0.8,2.6,2.1,3.1,3.7c0,0,1.3,4.1,3.4,10.5c0.7,2,2.8,3.2,4.9,2.5l21.9-7.1c1-0.3,1.8-1,2.3-1.9c0.5-0.9,0.5-2,0.2-3
				L154.4,81c-0.5-1.7-0.4-3.4,0.4-5c0.8-1.5,2.1-2.6,3.7-3.1c3.5-1.1,7.1,0.7,8.2,4.1c0,0,1.3,4.1,3.4,10.5c0.7,2,2.9,3.1,4.9,2.5
				l10.4-3.4c1.6-0.5,3.4-0.4,4.9,0.4c1.5,0.8,2.7,2.1,3.2,3.8c0.6,1.7,0.4,3.4-0.4,5c-0.8,1.5-2.1,2.6-3.7,3.1
				c0,0-4.1,1.3-10.5,3.4c-2,0.7-3.1,2.9-2.5,4.9l7.1,21.9c0.3,1,1,1.8,1.9,2.3c0.9,0.5,2,0.6,3,0.2l10.4-3.4c1.7-0.5,3.5-0.4,5,0.4
				c1.5,0.8,2.6,2.1,3.1,3.7C208.3,135.7,206.4,139.3,203,140.5z"/>
		</g>
	</g>
</g>
</svg>
