<?xml version="1.0" encoding="utf-8"?>
<!-- Generator: Adobe Illustrator 22.0.1, SVG Export Plug-In . SVG Version: 6.00 Build 0)  -->
<svg version="1.1" xmlns="http://www.w3.org/2000/svg" xmlns:xlink="http://www.w3.org/1999/xlink" x="0px" y="0px"
	 viewBox="0 0 300 300" style="enable-background:new 0 0 300 300;" xml:space="preserve">
<style type="text/css">
	.st0{fill:#414042;}
	.st1{fill:#C9202A;}
	.st2{fill:#ED1C24;}
	.st3{fill:#FFFFFF;}
</style>
<g id="Layer_1">
	<path class="st0" d="M244.6,0h-91.9v244.1c2.4,0,4.6,1.3,9.2,4c8.9,5.2,73.6,45.6,82.5,45.9h0.4c10.1-0.1,18.1-7.7,18.1-18.3V18.4
		C263,8.2,254.8,0,244.6,0z"/>
	<path class="st1" d="M227.2,0h-74.4v197.7c1.9,0,3.8,1.1,7.4,3.2c7.2,4.2,59.6,37,66.9,37.2h0.3c8.2-0.1,14.7-6.3,14.7-14.9V14.9
		C242,6.7,235.4,0,227.2,0z"/>
	<path class="st0" d="M43.9,18.4v257.3c0,10.6,7.9,18.2,18.1,18.3h0.4c9-0.3,73.7-40.7,82.5-45.9c4.5-2.7,6.8-4,9.2-4V0L62.3,0
		C52.1,0,43.9,8.2,43.9,18.4z"/>
	<path class="st2" d="M64.9,14.9v208.4c0,8.6,6.4,14.7,14.7,14.9h0.3c7.3-0.2,59.7-33,66.9-37.2c3.7-2.2,5.5-3.3,7.4-3.2V0L79.8,0
		C71.5,0,64.9,6.7,64.9,14.9z"/>
	<polygon class="st2" points="-180.7,450.1 149.8,413.8 480.4,450.1 480.4,749.5 -180.7,749.5 	"/>
</g>
<g id="Layer_2">
	<g>
		<g>
			<path class="st3" d="M230.5,101.5c0-42.6-34.5-77.2-77.2-77.2c-42.6,0-77.2,34.5-77.2,77.2c0,42.6,34.5,77.2,77.2,77.2
				C195.9,178.7,230.5,144.1,230.5,101.5z M83.1,101.5c0-38.7,31.4-70.2,70.2-70.2s70.2,31.4,70.2,70.2s-31.4,70.2-70.2,70.2
				S83.1,140.2,83.1,101.5z"/>
			<path class="st3" d="M156.2,146v-44.5h14.7l2.3-14.8h-17v-7.4c0-3.9,1.3-7.5,6.8-7.5h11V57.1h-15.7c-13.2,0-16.8,8.7-16.8,20.7
				v8.9h-9v14.8h9V146H156.2L156.2,146z"/>
		</g>
	</g>
</g>
<g id="Layer_3">
</g>
</svg>
