<?xml version="1.0" encoding="utf-8"?>
<!-- Generator: Adobe Illustrator 22.0.1, SVG Export Plug-In . SVG Version: 6.00 Build 0)  -->
<svg version="1.1" id="Layer_1" xmlns="http://www.w3.org/2000/svg" xmlns:xlink="http://www.w3.org/1999/xlink" x="0px" y="0px"
	 viewBox="0 0 1000 1000" style="enable-background:new 0 0 1000 1000;" xml:space="preserve">
<style type="text/css">
	.st0{fill:#222222;}
	.st1{fill:#FFFFFF;}
</style>
<g>
	<g>
		<g>
			<path class="st0" d="M854.2,74.8c0,83.1,0,166.2,0,249.3c17.7,0,35.4,0,53.1,0c0,15.8,0,31.6,0,47.3c11,2.2,26.1,0.4,38.6,1
				c-3,166.1-53.6,291.8-128.5,387.4C742.2,856,638.9,926,507.4,965.6c-130.6-40.1-235.7-108.8-311.1-204.8
				C121.4,665.4,72,538.4,68.8,372.4c11.9,0,23.8,0,35.7,0c2.3-14.2,0.3-32.5,1-48.3c17.1,0,34.1,0,51.2,0
				c2.3-81.2,0.3-166.5,1-249.3c115.3-8.3,229.2-19.7,343-28c25.8-1.9,62.3,3.2,91.8,5.8C678.6,60.1,766.4,68.6,854.2,74.8z
				 M575,82.6c-25.6-2.4-51.5-8.4-74.4-6.8c-103.5,7.2-204.1,25.9-312.1,29c0,73.1,0,146.2,0,219.3c11.9,0,23.8,0,35.7,0
				c0-61.5,0-123,0-184.5c70.5-6.8,141.4-14.7,211.6-21.3c24-2.3,48-6.9,71.5-6.8c22.9,0.2,46.5,4.6,69.6,6.8
				c70.8,6.7,139.5,14,208.7,21.3c0,61.5,0,123,0,184.5c12.2,0,24.5,0,36.7,0c0-73.1,0-146.2,0-219.3
				C737.1,101.2,655.9,90.1,575,82.6z M391.4,174.3c-7.1-18.7-42.1-9.5-65.7-11.6c-2,3.8-0.5,11.1-1,16.4c2.3,0.6,7-1.2,7.7,1
				c0,37.7,0,75.4,0,113c-2.6,0-5.2,0-7.7,0c0.5,5.3-1.1,12.7,1,16.4c18,0,36.1,0,54.1,0c12.4-5.7,11.6-17.1,11.6-38.6
				c0-17.8,1-30.8-6.8-35.7C398,226,388.6,194.1,391.4,174.3z M435.9,162.7c-19.3,6.5-10.8,41.2-12.6,66.7
				c5.4,3.6,7.6,12.3,15.5,14.5c8.5,2.3,18.1-2.5,28,1c-0.6,15.8,1.3,34.1-1,48.3c-8.7,0-17.4,0-26.1,0c0-4.5,0-9,0-13.5
				c-3.8-2-11.1-0.5-16.4-1c-1.4,15.1,1.2,27.5,13.5,30.9c16.7,4.6,42.7,0,46.4-13.5c4.9-17.9-3.6-34.4,0-55.1
				c-5.1-3.4-6.9-11.4-14.5-13.5c-8.7-2.4-19.2,2.6-29-1c0.6-15.5-1.3-33.5,1-47.3c8.7,0,17.4,0,26.1,0c0,4.8,0,9.7,0,14.5
				c5.5,0,11,0,16.4,0C489.3,161.5,464,160.7,435.9,162.7z M524.8,179.2c2,0.6,6.3-1.2,6.8,1c0,37.7,0,75.4,0,113
				c-2.3,0-4.5,0-6.8,0c0,5.5,0,11,0,16.4c10,0,20,0,29.9,0c0-5.5,0-11,0-16.4c-2-0.6-6.3,1.2-6.8-1c0.6-15.8-1.3-34.1,1-48.3
				c5.5,0,10.9,0,16.4,0c0-5.2,0-10.3,0-15.5c-5.8,0-11.6,0-17.4,0c0.6-16.1-1.3-34.8,1-49.3c8.7,0,17.4,0,26.1,0
				c0,4.8,0,9.7,0,14.5c5.2,0,10.3,0,15.5,0c0-10.3,0-20.6,0-30.9c-21.9,0-43.8,0-65.7,0C524.8,168.2,524.8,173.7,524.8,179.2z
				 M683.2,245.8c-0.9-3.6-7.9-8.1-7.7-10.6c0.2-2.3,6.9-6.4,7.7-9.7c3.7-15.5-2.7-32.8,0-51.2c-7.1-18.7-42.1-9.5-65.7-11.6
				c-2,3.8-0.5,11.1-1,16.4c2,0.6,6.3-1.2,6.8,1c0,37.7,0,75.4,0,113c-2.3,0-4.5,0-6.8,0c0.5,5.3-1.1,12.7,1,16.4
				c23.7-2.1,58.5,7,65.7-11.6C680.3,279.9,687.1,261.6,683.2,245.8z M235.9,400.4c7.6-0.4,17.1,1,23.2-1c4.2-7.3,5.3-27.4-3.9-30
				c9.2-0.6,8-18.7,3.9-24.2c-6.1-1.9-15.6-0.6-23.2-1C235.9,363.1,235.9,381.7,235.9,400.4z M295.8,400.4c2.6,0,5.2,0,7.7,0
				c2.3-2.2-0.4-9.4,1.9-11.6c2.6,0,5.2,0,7.7,0c0.4,3.8-0.9,9.3,1,11.6c2.6,0,5.2,0,7.7,0c-1.5-19.5-4.2-37.7-6.8-56
				c-4.2,0-8.4,0-12.6,0C300.8,363.5,297.7,381.3,295.8,400.4z M358.6,345.3c-3.4,4.3-1.4,14.1-1.9,21.3c3.6,5.4,11.7,6.3,15.5,11.6
				c-1.3,5.5,3.5,17-4.8,15.5c-4-1.8-0.3-11.3-2.9-14.5c-2.6,0-5.2,0-7.7,0c0.3,6.4-0.9,14.4,1,19.3c4.7,2.7,17.7,3.1,22.2,0
				c6.7-15.8-0.9-32.1-13.5-34.8c-1.1-3.1-3.5-14.8,3.9-12.6c3.4,0.5,1.4,6.3,1.9,9.7c3.2,0,6.4,0,9.7,0c0.5-7.2-0.1-13.4-3.9-16.4
				C371.3,344.5,363.9,343.9,358.6,345.3z M415.6,400.4c3.2,0,6.4,0,9.7,0c0.6-8.4-1.3-19.3,1-26.1c1.5,9.4,5.1,16.8,6.8,26.1
				c2.9,0,5.8,0,8.7,0c-5.6-19-8.4-37.1-1-56c-2.9,0-5.8,0-8.7,0c-2.3,7.7-3.8,16.2-6.8,23.2c0-7.7,0-15.5,0-23.2
				c-3.2,0-6.4,0-9.7,0C415.6,363.1,415.6,381.7,415.6,400.4z M476.5,400.4c5.5,0,10.9,0,16.4,0c0-2.3,0-4.5,0-6.8
				c-2-0.6-6.3,1.2-6.8-1c0-6.8,0-13.5,0-20.3c2.2-0.7,7.5,1.7,6.8-1.9c2-6.2-4.6-3.8-6.8-5.8c0-4.8,0-9.7,0-14.5
				c2.2-0.7,7.5,1.7,6.8-1.9c0-1,0-1.9,0-2.9c-3.6-2.2-11.3-0.3-16.4-1C476.5,363.1,476.5,381.7,476.5,400.4z M526.7,349.2
				c0.1,2.8,6.6-0.8,6.8,1.9c0,16.4,0,32.8,0,49.3c2.9,0,5.8,0,8.7,0c0-16.7,0-33.5,0-50.2c4.2,0.4,8.4,0.7,6.8-4.8
				c-5.5-2.2-15.1-0.3-22.2-1C526.7,346,526.7,347.6,526.7,349.2z M582.7,400.4c7.6-0.4,17.1,1,23.2-1c4.2-7.3,5.3-27.4-3.9-30
				c9.2-0.6,8-18.7,3.9-24.2c-6.1-1.9-15.6-0.6-23.2-1C582.7,363.1,582.7,381.7,582.7,400.4z M650.4,344.4
				c-3.4,17.8-4.9,37.6-7.7,56c2.9,0,5.8,0,8.7,0c-0.1-4.6-0.1-9.1,1.9-11.6c2.3,0,4.5,0,6.8,0c-0.6,4.8,0.9,7.5,1,11.6
				c2.6,0,5.1,0,7.7,0c-0.7-16.4-3.9-38.6-6.8-56C658.1,344.4,654.2,344.4,650.4,344.4z M703.5,400.4c5.6-1.5,17.7,3.5,17.4-3.9
				c1.2-5.1-6.5-1.2-7.7-3.9c0-15.8,0-31.6,0-47.3c-1.8-1.7-6.4-0.7-9.7-1C703.5,363.1,703.5,381.7,703.5,400.4z M754.7,400.4
				c5.6-1.5,17.7,3.5,17.4-3.9c1.2-5.1-6.5-1.2-7.7-3.9c0-15.8,0-31.6,0-47.3c-1.8-1.7-6.4-0.7-9.7-1
				C754.7,363.1,754.7,381.7,754.7,400.4z M189.5,438.1c-1.1,0.2-1,1.5-1,2.9c-9,123.8,21.9,210.4,76.3,274.4
				c52.4,61.5,132.2,110.1,241.5,110.1c109.8,0,188.3-50.2,240.6-111.1c55.1-64.3,83-152.7,75.4-276.3c-12.2,0-24.5,0-36.7,0
				c-0.2,20.5,0.2,45.5,0,62.8c-48-8.6-79.9-33.5-107.2-62.8c-11.9,0-23.8,0-35.7,0c30.6,48.6,77.2,81.2,143,94.7
				c-6.1,70.9-34.1,125-70.5,162.3c-36-72.5-94.6-122.5-192.3-133.3c0-41.2,0-82.4,0-123.7c-10.3,0-20.6,0-30.9,0
				c0,41.5,0,83.1,0,124.6c-100.2,9.9-157.8,62.4-193.2,137.2c-38.2-42.3-67.3-93.7-73.4-168.1c64.9-13.1,109.9-46,140.1-93.7
				c-12.2,0-24.5,0-36.7,0c-24.9,29.9-60.1,54.6-104.3,61.8c0-20.6,0-41.2,0-61.8C212.7,438.1,201.1,438.1,189.5,438.1z"/>
			<path class="st1" d="M822.3,104.8c0,73.1,0,146.2,0,219.3c-12.2,0-24.5,0-36.7,0c0-61.5,0-123,0-184.5
				c-69.2-7.2-137.9-14.6-208.7-21.3c-23-2.2-46.6-6.6-69.6-6.8c-23.5-0.2-47.5,4.5-71.5,6.8c-70.2,6.6-141.1,14.4-211.6,21.3
				c0,61.5,0,123,0,184.5c-11.9,0-23.8,0-35.7,0c0-73.1,0-146.2,0-219.3c108-3,208.6-21.7,312.1-29c22.9-1.6,48.8,4.4,74.4,6.8
				C655.9,90.1,737.1,101.2,822.3,104.8z"/>
			<path class="st1" d="M384.7,235.2c7.8,5,6.8,17.9,6.8,35.7c0,21.6,0.8,32.9-11.6,38.6c-18,0-36.1,0-54.1,0
				c-2-3.8-0.5-11.1-1-16.4c2.6,0,5.2,0,7.7,0c0-37.7,0-75.4,0-113c-0.7-2.2-5.4-0.4-7.7-1c0.5-5.3-1.1-12.7,1-16.4
				c23.6,2.1,58.6-7.1,65.7,11.6C388.6,194.1,398,226,384.7,235.2z M348,179.2c0,16.4,0,32.8,0,49.3c9,0,18,0,27,0
				c0-16.4,0-32.8,0-49.3C366,179.2,357,179.2,348,179.2z M348,243.9c0,16.4,0,32.8,0,49.3c9,0,18,0,27,0c0-16.4,0-32.8,0-49.3
				C366,243.9,357,243.9,348,243.9z"/>
			<path class="st1" d="M483.2,193.7c-5.5,0-10.9,0-16.4,0c0-4.8,0-9.7,0-14.5c-8.7,0-17.4,0-26.1,0c-2.3,13.9-0.3,31.9-1,47.3
				c9.8,3.5,20.3-1.4,29,1c7.6,2.1,9.4,10.1,14.5,13.5c-3.6,20.7,4.9,37.2,0,55.1c-3.7,13.5-29.6,18.1-46.4,13.5
				c-12.3-3.4-14.9-15.8-13.5-30.9c5.3,0.5,12.7-1.1,16.4,1c0,4.5,0,9,0,13.5c8.7,0,17.4,0,26.1,0c2.2-14.2,0.3-32.5,1-48.3
				c-9.9-3.5-19.5,1.4-28-1c-7.9-2.2-10-10.9-15.5-14.5c1.8-25.4-6.7-60.2,12.6-66.7C464,160.7,489.3,161.5,483.2,193.7z"/>
			<path class="st1" d="M524.8,162.7c21.9,0,43.8,0,65.7,0c0,10.3,0,20.6,0,30.9c-5.2,0-10.3,0-15.5,0c0-4.8,0-9.7,0-14.5
				c-8.7,0-17.4,0-26.1,0c-2.3,14.5-0.3,33.2-1,49.3c5.8,0,11.6,0,17.4,0c0,5.1,0,10.3,0,15.5c-5.5,0-11,0-16.4,0
				c-2.3,14.2-0.3,32.5-1,48.3c0.4,2.2,4.8,0.4,6.8,1c0,5.5,0,10.9,0,16.4c-10,0-20,0-29.9,0c0-5.5,0-11,0-16.4c2.3,0,4.5,0,6.8,0
				c0-37.7,0-75.4,0-113c-0.4-2.2-4.8-0.4-6.8-1C524.8,173.7,524.8,168.2,524.8,162.7z"/>
			<path class="st1" d="M683.2,298c-7.2,18.6-42,9.5-65.7,11.6c-2-3.8-0.5-11.1-1-16.4c2.3,0,4.5,0,6.8,0c0-37.7,0-75.4,0-113
				c-0.4-2.2-4.8-0.4-6.8-1c0.5-5.3-1.1-12.7,1-16.4c23.6,2.1,58.6-7.1,65.7,11.6c-2.7,18.4,3.7,35.7,0,51.2
				c-0.8,3.3-7.6,7.3-7.7,9.7c-0.2,2.5,6.8,7,7.7,10.6C687.1,261.6,680.3,279.9,683.2,298z M639.7,179.2c0,16.4,0,32.8,0,49.3
				c9,0,18,0,27.1,0c0-16.4,0-32.8,0-49.3C657.8,179.2,648.8,179.2,639.7,179.2z M639.7,243.9c0,16.4,0,32.8,0,49.3c9,0,18,0,27.1,0
				c0-16.4,0-32.8,0-49.3C657.8,243.9,648.8,243.9,639.7,243.9z"/>
			<path class="st0" d="M375,179.2c0,16.4,0,32.8,0,49.3c-9,0-18,0-27,0c0-16.4,0-32.8,0-49.3C357,179.2,366,179.2,375,179.2z"/>
			<path class="st0" d="M666.8,179.2c0,16.4,0,32.8,0,49.3c-9,0-18,0-27.1,0c0-16.4,0-32.8,0-49.3
				C648.8,179.2,657.8,179.2,666.8,179.2z"/>
			<path class="st0" d="M375,243.9c0,16.4,0,32.8,0,49.3c-9,0-18,0-27,0c0-16.4,0-32.8,0-49.3C357,243.9,366,243.9,375,243.9z"/>
			<path class="st0" d="M666.8,243.9c0,16.4,0,32.8,0,49.3c-9,0-18,0-27.1,0c0-16.4,0-32.8,0-49.3
				C648.8,243.9,657.8,243.9,666.8,243.9z"/>
			<path class="st1" d="M235.9,344.4c7.6,0.4,17.1-1,23.2,1c4.1,5.4,5.3,23.6-3.9,24.2c9.1,2.5,8.1,22.6,3.9,30
				c-6.1,1.9-15.6,0.5-23.2,1C235.9,381.7,235.9,363.1,235.9,344.4z M245.6,366.6c3,0.7,3.5-1,5.8-1c1.5-3,1.5-11.5,0-14.5
				c-1.9,0-3.9,0-5.8,0C245.6,356.3,245.6,361.4,245.6,366.6z M245.6,393.7c10.6,2.5,6.4-13.7,5.8-19.3c-1.9,0-3.9,0-5.8,0
				C245.6,380.8,245.6,387.2,245.6,393.7z"/>
			<path class="st1" d="M302.6,344.4c4.2,0,8.4,0,12.6,0c2.5,18.4,5.3,36.6,6.8,56c-2.6,0-5.2,0-7.7,0c-1.8-2.3-0.6-7.8-1-11.6
				c-2.6,0-5.2,0-7.7,0c-2.3,2.2,0.4,9.4-1.9,11.6c-2.6,0-5.2,0-7.7,0C297.7,381.3,300.8,363.5,302.6,344.4z M305.5,382.1
				c2.3,0,4.5,0,6.8,0c-1.2-7.9-1.7-21.5-3.9-25.1C307.9,365.8,306.3,373.6,305.5,382.1z"/>
			<path class="st1" d="M377.9,344.4c3.8,3,4.3,9.2,3.9,16.4c-3.2,0-6.4,0-9.7,0c-0.5-3.3,1.4-9.2-1.9-9.7
				c-7.4-2.3-4.9,9.5-3.9,12.6c12.6,2.7,20.3,19,13.5,34.8c-4.6,3.1-17.5,2.7-22.2,0c-1.8-4.9-0.6-12.9-1-19.3c2.6,0,5.2,0,7.7,0
				c2.6,3.2-1.1,12.7,2.9,14.5c8.4,1.6,3.6-10,4.8-15.5c-3.7-5.3-11.8-6.2-15.5-11.6c0.6-7.2-1.5-17,1.9-21.3
				C363.9,343.9,371.3,344.5,377.9,344.4z"/>
			<path class="st1" d="M415.6,344.4c3.2,0,6.4,0,9.7,0c0,7.7,0,15.5,0,23.2c3-7,4.5-15.5,6.8-23.2c2.9,0,5.8,0,8.7,0
				c-7.4,19-4.7,37,1,56c-2.9,0-5.8,0-8.7,0c-1.7-9.3-5.2-16.7-6.8-26.1c-2.2,6.8-0.3,17.7-1,26.1c-3.2,0-6.4,0-9.7,0
				C415.6,381.7,415.6,363.1,415.6,344.4z"/>
			<path class="st1" d="M476.5,344.4c5.2,0.6,12.9-1.3,16.4,1c0,1,0,1.9,0,2.9c0.8,3.7-4.6,1.2-6.8,1.9c0,4.8,0,9.7,0,14.5
				c2.2,2,8.8-0.4,6.8,5.8c0.8,3.7-4.6,1.2-6.8,1.9c0,6.8,0,13.5,0,20.3c0.4,2.2,4.8,0.4,6.8,1c0,2.3,0,4.5,0,6.8
				c-5.5,0-11,0-16.4,0C476.5,381.7,476.5,363.1,476.5,344.4z"/>
			<path class="st1" d="M526.7,344.4c7.1,0.6,16.7-1.3,22.2,1c1.6,5.5-2.5,5.2-6.8,4.8c0,16.7,0,33.5,0,50.2c-2.9,0-5.8,0-8.7,0
				c0-16.4,0-32.8,0-49.3c-0.1-2.8-6.6,0.8-6.8-1.9C526.7,347.6,526.7,346,526.7,344.4z"/>
			<path class="st1" d="M582.7,344.4c7.6,0.4,17.1-1,23.2,1c4.1,5.4,5.3,23.6-3.9,24.2c9.1,2.5,8.1,22.6,3.9,30
				c-6.1,1.9-15.6,0.5-23.2,1C582.7,381.7,582.7,363.1,582.7,344.4z M592.4,366.6c3,0.7,3.5-1,5.8-1c1.5-3,1.5-11.5,0-14.5
				c-1.9,0-3.9,0-5.8,0C592.4,356.3,592.4,361.4,592.4,366.6z M592.4,393.7c10.6,2.5,6.4-13.7,5.8-19.3c-1.9,0-3.9,0-5.8,0
				C592.4,380.8,592.4,387.2,592.4,393.7z"/>
			<path class="st1" d="M662,344.4c2.8,17.5,6.1,39.6,6.8,56c-2.6,0-5.2,0-7.7,0c-0.1-4.1-1.6-6.8-1-11.6c-2.2,0-4.5,0-6.8,0
				c-2,2.5-2,7-1.9,11.6c-2.9,0-5.8,0-8.7,0c2.8-18.4,4.3-38.2,7.7-56C654.2,344.4,658.1,344.4,662,344.4z M652.3,382.1
				c2.3,0,4.5,0,6.8,0c-0.9-8.8-0.8-18.5-3.9-25.1C655,366.1,653.6,374,652.3,382.1z"/>
			<path class="st1" d="M703.5,344.4c3.3,0.3,7.8-0.8,9.7,1c0,15.8,0,31.6,0,47.3c1.2,2.7,9-1.2,7.7,3.9c0.3,7.4-11.8,2.4-17.4,3.9
				C703.5,381.7,703.5,363.1,703.5,344.4z"/>
			<path class="st1" d="M754.7,344.4c3.3,0.3,7.8-0.8,9.7,1c0,15.8,0,31.6,0,47.3c1.2,2.7,9-1.2,7.7,3.9c0.3,7.4-11.8,2.4-17.4,3.9
				C754.7,381.7,754.7,363.1,754.7,344.4z"/>
			<path class="st0" d="M245.6,351.1c1.9,0,3.9,0,5.8,0c1.5,3,1.5,11.5,0,14.5c-2.3,0-2.8,1.7-5.8,1
				C245.6,361.4,245.6,356.3,245.6,351.1z"/>
			<path class="st0" d="M592.4,351.1c1.9,0,3.9,0,5.8,0c1.5,3,1.5,11.5,0,14.5c-2.3,0-2.8,1.7-5.8,1
				C592.4,361.4,592.4,356.3,592.4,351.1z"/>
			<path class="st0" d="M308.4,356.9c2.2,3.6,2.7,17.3,3.9,25.1c-2.3,0-4.5,0-6.8,0C306.3,373.6,307.9,365.8,308.4,356.9z"/>
			<path class="st0" d="M655.2,356.9c3.1,6.6,3,16.4,3.9,25.1c-2.3,0-4.5,0-6.8,0C653.6,374,655,366.1,655.2,356.9z"/>
			<path class="st0" d="M245.6,374.3c1.9,0,3.9,0,5.8,0c0.6,5.6,4.8,21.8-5.8,19.3C245.6,387.2,245.6,380.8,245.6,374.3z"/>
			<path class="st0" d="M592.4,374.3c1.9,0,3.9,0,5.8,0c0.6,5.6,4.8,21.8-5.8,19.3C592.4,387.2,592.4,380.8,592.4,374.3z"/>
			<path class="st1" d="M224.3,438.1c0,20.6,0,41.2,0,61.8c44.3-7.3,79.4-32,104.3-61.8c12.2,0,24.5,0,36.7,0
				c-30.2,47.7-75.2,80.6-140.1,93.7c6.1,74.4,35.2,125.8,73.4,168.1c35.4-74.7,93-127.3,193.2-137.2c0-41.5,0-83.1,0-124.6
				c10.3,0,20.6,0,30.9,0c0,41.2,0,82.4,0,123.7c97.7,10.9,156.2,60.8,192.3,133.3c36.4-37.3,64.4-91.4,70.5-162.3
				c-65.8-13.4-112.4-46.1-143-94.7c11.9,0,23.8,0,35.7,0c27.4,29.3,59.2,54.1,107.2,62.8c0.2-17.3-0.2-42.3,0-62.8
				c12.2,0,24.5,0,36.7,0c7.7,123.6-20.2,212-75.4,276.3c-52.2,60.9-130.8,111.1-240.6,111.1c-109.3,0-189.2-48.6-241.5-110.1
				c-54.5-63.9-85.3-150.6-76.3-274.4c-0.1-1.4-0.2-2.7,1-2.9C201.1,438.1,212.7,438.1,224.3,438.1z M522.8,599.4
				c0,63.4,0,126.9,0,190.3c55.8-3.2,101.1-21.3,136.2-44.4c11.8-7.8,24.8-15.7,31.9-27.1c-30.5-65.5-80.2-111.7-167.1-120.8
				C523.5,595.9,522.4,597.6,522.8,599.4z M322.8,723.1c42.5,36.4,95.5,62.3,169.1,67.6c0-64.4,0-128.8,0-193.2
				C403.1,606.9,352.6,654.6,322.8,723.1z"/>
			<path class="st0" d="M523.8,597.5c86.9,9,136.7,55.3,167.1,120.8c-7.1,11.4-20.1,19.2-31.9,27.1c-35.1,23.2-80.4,41.3-136.2,44.4
				c0-63.4,0-126.9,0-190.3C522.4,597.6,523.5,595.9,523.8,597.5z"/>
			<path class="st0" d="M491.9,597.5c0,64.4,0,128.8,0,193.2c-73.6-5.3-126.6-31.2-169.1-67.6C352.6,654.6,403.1,606.9,491.9,597.5z
				"/>
		</g>
	</g>
</g>
<line style="fill:none;" x1="177.6" y1="1017" x2="838.6" y2="1017"/>
</svg>
