<?xml version="1.0" encoding="utf-8"?>
<!-- Generator: Adobe Illustrator 22.0.1, SVG Export Plug-In . SVG Version: 6.00 Build 0)  -->
<svg version="1.1" id="Layer_1" xmlns="http://www.w3.org/2000/svg" xmlns:xlink="http://www.w3.org/1999/xlink" x="0px" y="0px"
	 viewBox="0 0 1000 1000" style="enable-background:new 0 0 1000 1000;" xml:space="preserve">
<style type="text/css">
	.st0{fill:#E24700;}
	.st1{fill-rule:evenodd;clip-rule:evenodd;fill:#E24700;}
	.st2{fill-rule:evenodd;clip-rule:evenodd;fill:#9FB7DA;stroke:#132A4F;stroke-miterlimit:10;}
	.st3{fill-rule:evenodd;clip-rule:evenodd;fill:#132A4F;}
	.st4{fill-rule:evenodd;clip-rule:evenodd;fill:#9FB7DA;stroke:#E24700;stroke-width:2;stroke-miterlimit:10;}
</style>
<polygon class="st0" points="504.3,11 515.5,45.6 551.8,45.6 522.5,66.9 533.7,101.5 504.3,80.1 474.9,101.5 486.1,66.9 456.7,45.6 
	493.1,45.6 "/>
<path class="st1" d="M383.2,812.3c2.5-7.5,60.5-57.6,116.2-57.4c0,108.6,0,126.5,0,197.7c-120.1,0-202.1-10.2-303.9-31.4
	c-14.4-3-35.8-6.1-38.6-13.9c-3.1-8.5,3.3-23.6,5.4-32.4c5.7-23.9,9.7-38,15.4-62.6c2.4-10.1,3.7-25,10.8-27.8
	c9.9-3.9,25.2,2.7,47.1,7.7C283.3,803,332.4,808,383.2,812.3z"/>
<path class="st1" d="M762.9,792.2c21.9-5,37.2-11.6,47.1-7.7c7.2,2.8,8.5,17.7,10.8,27.8c5.8,24.6,9.8,38.7,15.5,62.6
	c2.1,8.9,8.5,23.9,5.4,32.4c-2.8,7.8-24.1,10.9-38.6,13.9c-101.8,21.2-183.8,31.4-303.9,31.4c0-71.2,0-84.4,0-193
	c55.7-0.1,113.7,45.2,116.2,52.7C666.1,808,715.2,803,762.9,792.2z"/>
<path class="st2" d="M393.6,875.9c0-48.2,64.2-110.9,110.9-110.9c46.7,0,100.1,60,100.1,108.2c0,48.2-54.1,87.9-100.8,87.9
	C457.1,961.1,393.6,924.1,393.6,875.9z"/>
<path class="st1" d="M499.1,723.1c-64.2,0-96.4,35.8-127.5-4.7C306.9,634.2,243.3,555.7,179.7,474c-13.4-17.2-29.9-33.6-37.4-50.5
	c-8.8-20.1-8.6-54.4,1-74.7c6.3-13.3,18.5-26.6,29.3-40.4c22-28,39.1-48.8,61.6-77.8c5.9-7.6,23-36.5,32.3-38.4
	c7.6-1.5,19.6,2.9,29.3,4c31.9,3.7,60.2,5.1,92.9,7.1c27.8,30,52.6,62.4,79.8,94.9c7.9,9.4,16.4,26.2,30.4,26.3
	C499,404.5,499.1,705.3,499.1,723.1z"/>
<path class="st1" d="M498.5,323.2c14,0,22.5-16.8,30.4-26.3c27.2-32.5,51.9-64.9,79.8-94.9c32.7-2,61-3.4,92.9-7.1
	c9.7-1.1,21.7-5.5,29.3-4c9.3,1.8,26.4,30.8,32.3,38.4c22.5,29,39.6,49.8,61.6,77.8c10.8,13.8,23,27.1,29.3,40.4
	c9.6,20.3,9.9,54.6,1,74.7c-7.5,16.9-24,33.3-37.4,50.5c-63.6,81.7-127.2,160.2-191.9,244.4c-31.1,40.5-63.3-0.7-127.5-0.7
	C498.3,698.5,498.5,403.2,498.5,323.2z"/>
<path class="st3" d="M866.3,423.4c11.6,14.8,25.1,29,32.5,44.9c11.5,24.4,11.9,59.8,0,85.3c-9.3,19.9-29.3,39.6-44.9,59.5
	c-79.7,101.9-152.5,195.7-231.2,296.3c-31.4,40.1-53.8,79.7-125.3,79.7c-71.4,0-107.3-65-141.8-110
	c-71.9-93.5-142.6-180.9-213.2-271.6c-14.9-19.1-33.2-37.3-41.5-56.1c-9.9-22.3-9.5-60.4,1.1-83c7-14.8,20.5-29.6,32.6-44.9
	c24.4-31.1,43.5-54.2,68.5-86.4c6.5-8.4,25.6-40.6,35.9-42.7c8.4-1.7,21.8,3.3,32.5,4.5c35.5,4.1,66.9,5.6,103.2,7.8
	c31,33.4,195.6,59,215.5,34.8c6.2-7.6,20.2-30.4,30.3-33.7c10.1-3.3,24.8-1.4,35.9-2.2c40.5-3.1,68.8-5.4,107.7-10.1
	C799,337.2,833.3,381,866.3,423.4z M492.6,941.9c1.1,0,2.2,0.5,2.2,0.2c0-29.5,0.1-51,0.1-76.5c-5.6,0-11.3,0-17,0
	c-1.6,26.8-12.6,44.3-22.4,62.8C465.8,935,477.9,939.8,492.6,941.9z M508.3,941.9c17.7-1,29.8-7.6,41.5-14.6
	c-10-18.8-20.7-36.9-24.7-61.7c-5.6,0-11.2,0-16.8,0C508.3,891,508.3,916.4,508.3,941.9z M464.6,865.6c-15.3,0-30.7,0-46,0
	c2.7,23.1,11.9,39.7,24.7,52.7C455.6,905.9,462.2,887.9,464.6,865.6z M584.6,865.6c-15,0-29.9,0-44.9,0c2.9,21,9.3,38.6,20.2,51.6
	C574.1,905.8,582.1,888.4,584.6,865.6z M418.6,852.1c15.4,0,30.7,0,46,0c-1.8-22.2-10.4-37.5-19.1-52.7
	C430,810.4,422.2,829.2,418.6,852.1z M478,852.1c5.6,0,11.2,0,16.8,0c0-25.4,0-50.9,0-76.3c-15.6,2-28,7.1-39.3,13.5
	C465.9,807.4,476.8,824.9,478,852.1z M508.3,852.1c6.7,0,13.1,0,16.9,0c-0.4-28.5,12-45.2,23.5-61.7c-10.6-7.3-24.9-12.4-40.2-15
	C508.5,798.6,508.3,816.7,508.3,852.1z M538.6,852.1c15.3,0,30.7,0,46,0c-3-22.8-10.6-41-25.8-51.6
	C548.2,813.7,538.5,828,538.6,852.1z"/>
<g>
	<path class="st4" d="M764.2,825.7c-38.9-4.7-67.2-7-107.7-10.1c-11.1-0.9-25.8,1.1-35.9-2.2c-10.1-3.3-24.1-26.1-30.3-33.6
		c-19.9-24.2-37.6-44.6-58.4-69.6c-9.4-11.3-8.9-31-34.2-31c-25.3,0-25.5,19.4-34.2,29.9c-30.2,36.1-57.7,72.1-88.7,105.5
		c-36.3,2.3-67.7,3.8-103.2,7.9c-10.7,1.2-24.1,6.2-32.5,4.5c-10.3-2.1-29.4-34.2-35.9-42.6c-25-32.2-44.1-55.3-68.5-86.4
		c-12-15.3-25.6-30.1-32.6-44.9c-10.6-22.6-11-60.7-1.1-83c8.3-18.8,26.6-37,41.5-56.1c70.7-90.7,141.4-178,213.2-271.6
		c34.5-44.9,78-110.3,142-110.3c64,0,93.7,39.9,125.1,80.1C701.5,312.4,774.3,406.2,854,508.1c15.5,19.9,35.6,39.6,44.9,59.5
		c11.9,25.5,11.5,60.9,0,85.3c-7.4,15.9-21,30.1-32.5,44.9C833.3,740.2,799,783.9,764.2,825.7z"/>
</g>
<path class="st3" d="M860,566.2c-7.4-16.9-23.9-33.3-37.4-50.5C759.1,434,695.5,355.5,630.8,271.3c-27-35.1-59.7-92.7-108.4-105.2
	c-7.4-1.9,13.2,163.2-24.7,198.3c-37.6-35.2-17.1-200.2-24.6-198.3c-48.7,12.5-81.4,70.1-108.3,105.2
	C300.1,355.5,236.5,434,172.9,515.7c-13.4,17.2-29.9,33.6-37.4,50.5c-8.8,20.1-8.6,54.4,1,74.7c6.3,13.3,18.5,26.6,29.3,40.4
	c22,28,39.1,48.8,61.6,77.8c5.9,7.6,23,36.5,32.3,38.4c7.6,1.5,19.6-2.9,29.3-4c31.9-3.7,32.3-2.3,65-4.3c39.9-39,61.1-62.4,89-98.5
	c9.3-12-63.6-29.8-63.6-125.4c0-95.6-3.9-155.9,12-174.9c7.7-9.1,89.9,134.9,106.1,143c16.2-8,98.6-152.1,106.2-143
	c15.9,19,12.1,79.3,12.1,174.9c0,95.6-72.8,113.4-63.5,125.4c27.9,36,49.1,59.5,89.1,98.5c32.7,2,33.1,0.6,65,4.3
	c9.7,1.1,21.7,5.5,29.3,4c9.3-1.8,26.4-30.8,32.3-38.4c22.5-29,39.6-49.8,61.6-77.8c10.8-13.8,23-27.1,29.3-40.4
	C868.6,620.6,868.9,586.3,860,566.2z"/>
</svg>
