<?xml version="1.0" encoding="utf-8"?>
<!-- Generator: Adobe Illustrator 22.0.1, SVG Export Plug-In . SVG Version: 6.00 Build 0)  -->
<svg version="1.1" xmlns="http://www.w3.org/2000/svg" xmlns:xlink="http://www.w3.org/1999/xlink" x="0px" y="0px"
	 viewBox="0 0 300 300" style="enable-background:new 0 0 300 300;" xml:space="preserve">
<style type="text/css">
	.st0{fill:#414042;}
	.st1{fill:#C9202A;}
	.st2{fill:#ED1C24;}
	.st3{display:none;}
	.st4{display:inline;}
	.st5{fill:#FFFFFF;}
</style>
<g id="Layer_1">
	<path class="st0" d="M244.6,0h-91.9v244.1c2.4,0,4.6,1.3,9.2,4c8.9,5.2,73.6,45.6,82.5,45.9h0.4c10.1-0.1,18.1-7.7,18.1-18.3V18.4
		C263,8.2,254.8,0,244.6,0z"/>
	<path class="st1" d="M227.2,0h-74.4v197.7c1.9,0,3.8,1.1,7.4,3.2c7.2,4.2,59.6,37,66.9,37.2h0.3c8.2-0.1,14.7-6.3,14.7-14.9V14.9
		C242,6.7,235.4,0,227.2,0z"/>
	<path class="st0" d="M43.9,18.4v257.3c0,10.6,7.9,18.2,18.1,18.3h0.4c9-0.3,73.7-40.7,82.5-45.9c4.5-2.7,6.8-4,9.2-4V0L62.3,0
		C52.1,0,43.9,8.2,43.9,18.4z"/>
	<path class="st2" d="M64.9,14.9v208.4c0,8.6,6.4,14.7,14.7,14.9h0.3c7.3-0.2,59.7-33,66.9-37.2c3.7-2.2,5.5-3.3,7.4-3.2V0L79.8,0
		C71.5,0,64.9,6.7,64.9,14.9z"/>
	<polygon class="st2" points="-180.7,450.1 149.8,413.8 480.4,450.1 480.4,749.5 -180.7,749.5 	"/>
</g>
<g id="Layer_2" class="st3">
	<g class="st4">
		<g>
			<path class="st5" d="M230.5,101.5c0-42.6-34.5-77.2-77.2-77.2c-42.6,0-77.2,34.5-77.2,77.2c0,42.6,34.5,77.2,77.2,77.2
				C195.9,178.7,230.5,144.1,230.5,101.5z M83.1,101.5c0-38.7,31.4-70.2,70.2-70.2s70.2,31.4,70.2,70.2s-31.4,70.2-70.2,70.2
				S83.1,140.2,83.1,101.5z"/>
			<path class="st5" d="M156.2,146v-44.5h14.7l2.3-14.8h-17v-7.4c0-3.9,1.3-7.5,6.8-7.5h11V57.1h-15.7c-13.2,0-16.8,8.7-16.8,20.7
				v8.9h-9v14.8h9V146H156.2L156.2,146z"/>
		</g>
	</g>
</g>
<g id="Layer_3">
	<g>
		<g>
			<path class="st5" d="M172.5,107.6l-8.7-27c-0.8-2.5-3.5-3.9-6-3.1c-8.9,2.8-18.3,5.9-27.1,8.8c-2.5,0.8-3.9,3.5-3.1,6l8.7,27
				c0.7,2,2.5,3.3,4.6,3.3c0.5,0,1-0.1,1.5-0.2l27-8.7c1.2-0.4,2.2-1.2,2.8-2.4C172.8,110.1,172.9,108.8,172.5,107.6z M144,111.7
				l-5.8-17.9c5.9-1.9,12-3.9,17.9-5.8l5.8,17.9L144,111.7z"/>
		</g>
	</g>
	<g>
		<g>
			<path class="st5" d="M226,103.7c-1.4-4.5-4.5-8.1-8.6-10.2c-4.2-2.2-9-2.6-13.6-1.1l-8.3,2.7l-5.9-18c5.2-1.7,8.4-2.7,8.4-2.7
				c4.4-1.4,8.1-4.5,10.2-8.6c2.2-4.2,2.6-9.1,1.1-13.5c-1.4-4.5-4.5-8.2-8.7-10.3c-4.2-2.2-9-2.5-13.5-1.1l-8.3,2.7
				c-1.7-5.2-2.7-8.4-2.7-8.4c-3-9.2-13-14.2-22.3-11.3c-4.5,1.4-8.1,4.5-10.2,8.7c-2.2,4.2-2.6,9.1-1.1,13.6l2.7,8.3l-18,5.9
				c-1.7-5.2-2.7-8.4-2.7-8.4c-1.4-4.5-4.5-8.1-8.7-10.2c-4.2-2.2-9.1-2.6-13.5-1.1c-4.5,1.4-8.2,4.5-10.3,8.7
				c-2.2,4.2-2.5,9-1.1,13.5l2.7,8.4l-8.9,2.9c-8.7,3.1-13.5,12.5-11,21.5c1.4,4.6,4.6,8.5,8.8,10.8c4.1,2.2,8.8,2.7,13.3,1.3
				c0,0,3.3-1.1,8.7-2.8l5.8,17.9l-8.9,2.9c-8.6,3.1-13.5,12.6-11,21.5c1.4,4.6,4.6,8.6,8.9,10.8c4.1,2.2,8.8,2.6,13.2,1.1l8.8-2.8
				l2.9,8.9c2.5,7.1,9.3,11.6,16.7,11.6c1.6,0,3.2-0.2,4.8-0.7c4.6-1.4,8.5-4.6,10.8-8.8c2.2-4.1,2.7-8.8,1.3-13.3
				c0,0-1.1-3.3-2.9-8.7c5.9-1.9,12-3.9,17.9-5.8l2.9,8.9c3.1,8.7,12.6,13.5,21.5,11c4.6-1.4,8.6-4.6,10.8-8.9
				c2.2-4.1,2.6-8.8,1.1-13.2c0,0-1.1-3.3-2.8-8.7c5.2-1.7,8.4-2.7,8.4-2.7C224,122.9,229,112.9,226,103.7z M211.9,116.8
				c0,0-5.1,1.6-13,4.2c-2.5,0.8-3.9,3.5-3.1,6c2.6,8.1,4.3,13.3,4.3,13.3c0.6,1.9,0.4,3.9-0.5,5.7c-1,2-2.9,3.5-5,4.1
				c-4.1,1.1-8.4-1-9.8-4.8l-4.3-13.4c-0.4-1.2-1.2-2.2-2.4-2.8c-1.1-0.6-2.5-0.7-3.7-0.3l-4.2,1.4c-7.6,2.5-15.5,5-22.8,7.4
				c-2,0.6-3.3,2.5-3.3,4.6v0.1v0c0,0,0,0,0,0v0c0,0,0,0,0,0c0,0.5,0.1,1,0.2,1.4c0,0,0,0,0,0c2.6,8,4.3,13.2,4.3,13.2
				c0.6,1.9,0.4,4-0.6,5.8c-1,2-2.9,3.5-5,4.1c-4.1,1.2-8.4-1-9.7-4.8l-4.3-13.4c-0.7-2-2.5-3.3-4.6-3.3c-0.5,0-1,0.1-1.5,0.2
				l-13.4,4.3c-1.9,0.6-3.9,0.4-5.7-0.5c-2-1-3.5-2.9-4.1-5c-1.1-4.1,1-8.4,4.8-9.8l13.4-4.3c1.2-0.4,2.2-1.2,2.8-2.4
				c0.6-1.1,0.7-2.5,0.3-3.7l-8.8-27c-0.8-2.5-3.5-3.9-6-3.1c-8,2.6-13.2,4.3-13.2,4.3c-1.9,0.6-4,0.4-5.8-0.6c-2-1-3.5-2.9-4.1-5
				c-1.1-4.1,1-8.4,4.8-9.7l13.4-4.3c1.2-0.4,2.2-1.2,2.8-2.4c0.6-1.1,0.7-2.5,0.3-3.7l-4.2-13c-0.7-2-0.5-4.2,0.5-6.1
				c1-1.9,2.6-3.3,4.7-4c2.1-0.7,4.3-0.5,6.2,0.5c1.9,1,3.2,2.6,3.9,4.6c0,0,1.6,5.1,4.2,13c0.8,2.5,3.5,3.9,6.1,3.1l27.1-8.8
				c1.2-0.4,2.2-1.3,2.8-2.4c0.6-1.1,0.7-2.5,0.3-3.7l-4.2-12.9c-0.7-2.1-0.5-4.3,0.5-6.2c1-1.9,2.6-3.2,4.6-3.9
				c4.3-1.4,8.8,0.9,10.2,5.1c0,0,1.6,5.1,4.3,13c0.8,2.5,3.5,3.9,6.1,3.1l12.9-4.2c2-0.7,4.2-0.5,6.1,0.5c1.9,1,3.3,2.6,4,4.7
				c0.7,2.1,0.5,4.3-0.5,6.2c-1,1.9-2.6,3.2-4.6,3.9c0,0-5.1,1.6-13,4.2c-2.5,0.8-3.9,3.5-3.1,6.1l8.8,27.1c0.4,1.2,1.3,2.2,2.4,2.8
				c1.2,0.6,2.5,0.7,3.7,0.3l12.9-4.2c2.1-0.7,4.3-0.5,6.2,0.5c1.9,1,3.2,2.6,3.9,4.6C218.3,110.9,216.1,115.4,211.9,116.8z"/>
		</g>
	</g>
</g>
</svg>
