<?xml version="1.0" encoding="utf-8"?>
<!-- Generator: Adobe Illustrator 22.0.1, SVG Export Plug-In . SVG Version: 6.00 Build 0)  -->
<svg version="1.1" id="Layer_1" xmlns="http://www.w3.org/2000/svg" xmlns:xlink="http://www.w3.org/1999/xlink" x="0px" y="0px"
	 viewBox="0 0 1000 1000" style="enable-background:new 0 0 1000 1000;" xml:space="preserve">
<style type="text/css">
	.st0{display:none;fill:#11284D;}
	.st1{display:none;fill:#FFFFFF;}
	.st2{display:none;fill:#EB2227;}
	.st3{display:none;fill:#F0EFEF;}
	.st4{display:none;fill:#CEA248;}
	.st5{display:none;fill:#2B2C2B;}
	.st6{display:none;fill:#1D76BB;}
	.st7{display:none;fill:#AC8030;}
	.st8{display:none;fill:#025F9C;}
	.st9{display:none;fill:#A7A9AC;}
	.st10{display:none;fill:#E6E7E8;}
	.st11{display:none;fill:none;}
	.st12{display:none;fill:#D1D3D4;}
	.st13{display:none;fill:#414142;}
	.st14{display:none;fill:#FEDD10;}
	.st15{display:none;fill:#0B8D80;}
	.st16{display:none;fill:#F2F2F2;}
	.st17{display:none;fill:#FDB917;}
	.st18{display:none;fill:#2E334B;}
	.st19{display:none;fill:#F1F1F2;}
	.st20{display:none;fill:#595A5C;}
	.st21{display:none;fill:#E7E7E7;}
	.st22{display:none;fill:#0E62AF;}
	.st23{display:none;fill:#2B3C90;}
	.st24{display:none;fill:#2BACE2;}
	.st25{display:none;fill:#415867;}
	.st26{display:none;fill:#808184;}
	.st27{display:none;fill:#D1D2D3;}
	.st28{display:none;fill:#F8C96A;}
	.st29{display:none;fill:#F06548;}
	.st30{display:none;opacity:0.14;fill:#424143;enable-background:new    ;}
	.st31{display:none;fill:#FFDE11;}
	.st32{display:none;fill:#6AABDD;}
	.st33{display:none;fill:#EC2227;}
	.st34{display:none;fill:#1F2E5C;}
	.st35{display:none;fill:#424143;}
	.st36{display:none;fill:#69539C;}
	.st37{display:none;fill:#3E2A6D;}
	.st38{display:none;fill:#564381;}
	.st39{display:none;fill:#F68B41;}
	.st40{display:none;fill:#939598;}
	.st41{display:none;fill:#EFEEEA;}
	.st42{display:none;fill:#414042;}
	.st43{display:none;fill:#58595B;}
	.st44{display:none;fill:#C61F4D;}
	.st45{display:none;fill:#304666;}
	.st46{display:none;fill:#273654;}
	.st47{display:none;fill:#4D638C;}
	.st48{display:none;fill:#EAEAE8;}
	.st49{display:none;fill:#EAEAE8;enable-background:new    ;}
	.st50{font-family:'NBANewYorkKnicks';}
	.st51{font-size:71.6781px;}
	.st52{display:none;fill:none;stroke:#29B574;stroke-width:0.5;stroke-miterlimit:10;enable-background:new    ;}
	.st53{display:none;fill:#D0DFF2;}
	.st54{fill:#E6E7E8;}
	.st55{font-family:'NBAAtlantaHawks';}
	.st56{font-size:72px;}
	.st57{fill:none;stroke:#414042;stroke-width:2;stroke-miterlimit:10;}
	.st58{fill-rule:evenodd;clip-rule:evenodd;fill:#FFFFFF;}
	.st59{fill-rule:evenodd;clip-rule:evenodd;fill:#58595B;}
	.st60{fill-rule:evenodd;clip-rule:evenodd;fill:#404041;}
	.st61{fill:#F05A28;}
	.st62{fill:#FFDD0F;}
	.st63{fill:#2D3749;}
	.st64{fill-rule:evenodd;clip-rule:evenodd;}
	.st65{fill-rule:evenodd;clip-rule:evenodd;fill:#F1F1F2;}
	.st66{fill-rule:evenodd;clip-rule:evenodd;fill:#D0D2D3;}
	.st67{fill-rule:evenodd;clip-rule:evenodd;fill:#CB2841;}
	.st68{fill:#F1F1F2;}
</style>
<path class="st0" d="M336.5,169.1l0.1-0.1c-50.2,34.9-117.9,45.5-144.7,48.4l-42.6,4.7l20.4,38.5c17.8,33.8,55.3,121.8,18.2,209.6
	c-30,71.8-41.9,133.7-36.4,189.3c5.6,57.2,30.2,106.7,73.1,147c39.2,36.4,83.9,48.4,119.8,58.1c0,0,20.5,5.8,20.5,5.8
	c-0.1,0,5.9,1.7,7.3,2.1v0c23.8,6.7,68.1,19.3,104.6,64.2l22.1,27.2l22.1-27.2c36.6-44.9,80.9-57.5,104.6-64.2c0,0-0.2-0.2-0.2-0.2
	c1.3-0.2,2.6-0.5,3.9-0.9l3.6-1c0,0-0.3,0-0.6,0.1c1.5-0.3,5.7-1.5,21-5.8c35.9-9.7,80.7-21.8,119.5-57.9
	c43.1-40.5,67.8-90.1,73.4-147.2c0.9-8.8,1.3-17.7,1.3-26.8c0-48.5-12.4-101.9-37.6-162.4c-11.5-27.2-15.8-54.4-15.8-80
	c0-57.2,21.7-106.4,34-129.7l20.3-38.5l-42.6-4.7c-26.8-2.9-94.5-13.5-144.8-48.4C579,111.4,531.3,103.9,499,103.8
	C466.5,103.9,418.8,111.4,336.5,169.1z M499,115.5c30.6,0.1,76,7.3,155.6,63.1c52.4,36.4,122.4,47.4,150,50.4c0,0,16,1.7,25.6,2.8
	C825.6,240.6,818,255,818,255c-12.8,24.3-35.4,75.6-35.4,135.4c0,27,4.6,55.8,16.8,84.6c24.6,58.9,36.7,110.8,36.7,157.7
	c0,8.7-0.4,17.2-1.2,25.6c-5.4,54.2-28.8,101.3-69.7,139.8c-36.7,34.1-80,45.8-114.8,55.2c0,0-20.4,5.7-20.4,5.7
	c-0.1,0-7.4,2.2-7.4,2.2c-24.9,7.1-71.5,20.3-110.4,68c0,0-8.3,10.2-13.3,16.3c-5-6.1-13.3-16.3-13.3-16.3
	c-38.7-47.6-85-60.9-110.1-68l0,0L368,859c-0.1,0-20.7-5.8-20.7-5.8c-34.7-9.3-77.9-21-114.9-55.4c-40.8-38.3-64.1-85.3-69.5-139.5
	c-0.9-8.3-1.3-16.8-1.3-25.5c0-47,12.1-98.9,36.8-158c12.1-28.8,16.8-57.5,16.8-84.4c0-59.8-22.6-111-35.4-135.4
	c0,0-7.6-14.4-12.2-23.1c9.6-1.1,25.6-2.8,25.6-2.8c27.6-3,97.6-14,149.9-50.3l0,0l-0.1,0C422.7,122.9,468.2,115.6,499,115.5z"/>
<path class="st1" d="M498.9,975.9l-28-34.4c-35.1-43.1-77.8-55.2-100.8-61.7l-3.3-1c-1.3-0.4-2.7-0.8-3.9-1.3l0,0.1
	c-10.1-2.8-16.4-4.6-20.3-6.1l-0.1,0.3c-36.7-9.9-82.4-22.2-123-59.9c-44.3-41.7-69.7-92.8-75.5-151.9c-5.6-56.9,6.5-120,37-193
	c35.8-84.8-0.6-170.3-17.9-203.1l-25.6-48.4l53.8-5.9c26.2-2.9,92.3-13.1,141.2-47.1v0c83.9-58.8,133.1-66.5,166.7-66.6
	c33.5,0.1,82.6,7.8,166.5,66.6c48.8,34,115,44.2,141.2,47.1l53.7,5.9l-25.5,48.4c-12.4,23.4-33.1,71-33.1,126.2
	c0,27.2,5.1,53.1,15.3,77.1c25.7,61.6,38.2,115.7,38.2,165.3c0,9-0.5,18.3-1.4,27.5c-5.8,59.1-31.3,110.2-75.7,152
	c-25.9,24-54,37.7-80.6,47l0.8,0l-4.4,1.3c-13.5,4.6-26.6,8.1-38.7,11.4c-5.1,1.5-9.1,2.6-12.1,3.4l0,0l-15.6,4.4
	c-22.9,6.5-65.7,18.6-100.8,61.7L498.9,975.9z M179.6,238.2l7,13.2c13.5,25.7,36.3,77.9,36.3,138.9c0,30.7-5.8,60.1-17.4,87.4
	c-24.3,58.3-36.2,109-36.2,155.1c0,8.5,0.4,16.8,1.2,24.7c5.1,52.4,27.7,97.7,67.1,134.7c35.7,33.2,77.8,44.5,111.7,53.6l28.3,8
	c25.7,7.3,73.6,20.9,113.9,70.5l7.4,9.1l7.4-9.1c40.4-49.6,88.4-63.2,114.2-70.5c0,0,8.1-2.3,8.2-2.4l19.6-5.5
	c34.1-9.2,76.3-20.7,111.7-53.4c39.5-37.2,62.1-82.6,67.3-134.9c0.8-8.3,1.2-16.6,1.2-24.9c0-46-11.8-96.6-36.1-154.8
	c-11.5-27.2-17.4-56.7-17.4-87.5c0-61.1,22.7-113.3,36.2-139l7-13.2l-14.4-1.6c-28.2-3.1-99.7-14.3-153.6-51.8
	c-77.8-54.6-121.7-61.6-151.3-61.7c-29.6,0.1-73.7,7.2-151.6,61.9l0,0c-53.8,37.3-125.2,48.5-153.4,51.6L179.6,238.2z"/>
<path class="st0" d="M783.5,481.9c-36.7-86.7-11.8-176.4,19.3-235.2c-46.2-5.1-109.6-19.8-157.9-53.4
	c-75.7-53.1-117.8-60-145.9-60.1c-28.2,0.1-70.4,7-146.1,60.2c-48.3,33.5-111.6,48.2-157.8,53.3c31.1,58.8,56,148.5,19.3,235.2
	c-55.4,132.9-45.6,232,29.8,303c33.7,31.3,72.9,41.9,107.6,51.3c7.4,2,14.4,3.9,21.3,6c2,0.6,4.3,1.3,6.8,2
	c26.3,7.5,76.7,21.9,119,73.8c42.3-51.9,92.7-66.3,119.1-73.8c2.5-0.7,4.8-1.4,6.9-2c6.8-2.1,13.8-4,21.3-6
	c34.6-9.3,73.8-19.9,107.5-51.2C829.1,713.8,838.9,614.7,783.5,481.9z"/>
<path class="st2" d="M649.3,665.6c-3.3,11.6-7.1,23.1-11.1,34.4c3.7-0.2,7.5-0.4,11.2-0.8c0.5,0,1-0.1,1.5-0.1
	c0.6-0.1,1.5-0.4,2.9-0.7c2.8-0.8,5.7-1.6,8.4-2.6c2.5-1.1,6-2.6,7.4-3.3c3.2-1.5,6.4-3,9.6-4.5c12.8-5.8,54.3-36.4,65.4-44.8
	C816.1,604.5,930,570,932,467.4c1.1-29.3-6.6-54.9-19.3-78.7c-3.4,3.4-3.4,10-6.6,14.1c-45.2,68-122.2,74.9-178.8,125.3
	c-8.6,8.6-13.8,19.3-20.7,29c-5.9-27.9,9.7-53.1,33.2-69c15.5-10,33.8-15.9,48.7-26.3c55.2-23.8,123.9-72.5,126-140.1
	c10-60.8-22.4-114.3-72.2-149.8c2.8,10.4,8.3,23.1,8.3,36.2c5.1,45.6-12.8,87-51.1,111.9c-59.7,41.1-129.5,57.3-186.4,104.6
	c-15.5,14.5-25.6,32.5-22.4,53.9C636.9,529.6,671.8,595.2,649.3,665.6z"/>
<path class="st2" d="M250.1,508.1c-57-33.5-129.8-47-162.2-114.3h-1.7C62,444.5,67.5,515,106.8,556.7c45.6,49,109.1,58.7,161.6,93.9
	c14.1,8.7,24.5,20.9,31,34.6c81.5-1,163.6-12.4,244.9-4c30.3,3.1,60.9,8.1,91.5,8.8c11-30.9,17.7-63.5,16.1-99.1
	c-8.6-76-82.9-122.2-113.6-188.8c-7.3-23.5-2.8-50.4,14.2-68c16.2-15.9,35.9-23.1,57.3-26.6c-2.8-9.3-10-19-19.3-23.1
	c-18.7-9.3-40.7-1-58,5.9c-29-13.8-63.5-0.7-90.1,11.4c-25.9,11.4-47,34.9-78,34.2c0.7,7.9,10,13.5,16.6,16.6
	c24.5,3.4,45.6-8.6,66.3-14.2c-24.8,39.7-14.8,93.2-0.7,135c-0.4,0.3-0.7,0.7-1,0.7c-27.3-37.6-68.7-63.2-107.7-83.6
	C297,370.7,256,352,215.2,331.6c-38.3-23.5-70.8-63.9-69.4-111.2c1-16.9,3.5-33.5,10.7-48c-51.1,34.5-78,87.4-71.4,148.1
	c5.2,57.3,51.1,113.6,105.3,131.9c41.4,26.6,113.9,41.4,116,104.2C293.2,536,272.2,517.7,250.1,508.1z"/>
<path class="st2" d="M501.1,924.7c-117.3,1.4-213.5-92.6-214.8-209.8c-1.4-117.2,92.6-213.5,209.9-214.8
	c117.2-1.4,213.4,92.6,214.8,209.8C712.3,827.2,618.4,923.4,501.1,924.7z"/>
<path class="st0" d="M550.3,832c27.6-17.5,56-36.5,89.7-47.6c0.3-1.5,0.6-3.3,0.8-5.2c1.3-10.6,1.6-25.2,1.6-33.4
	c-26.1,5.4-55.5,9.8-85.4,12.6c-50.7,4.7-97.1,2.3-135.9-2.4c-74.2-9-114.7-27.1-117.5-30.7c10.1,2.5,52.9,9.9,56.7,10.5
	c9.9,1.7,20,3.2,30.4,4.5c78.1,9.8,169.4,8.3,251.9-10.4c-0.6-15.8-2-28.8-4.2-40.4c-11.6,1.2-22.5,1-32.6-0.2
	c-39.7-5-67.5-27.2-90.8-42.7c-90.9-60.2-161.3-61.5-169.6-63.1c11.6-4.9,88.6-0.1,165.8,45.2c32.7,19.2,54.5,39.4,90.2,43.8
	c9.9,1.3,20.9,1.4,33.4,0.2c-8.5-32.5-20-64.1-37.3-91.5c-17.9-28.2-54.8-63.1-81-72.1c24.7,2.9,57,25.6,80.2,53.9
	c22.6,27.7,42.2,64.3,52,107.4c8-2,13.9-6,18.2-11.6c4.8-6.2,7.6-14.5,8.8-23.7c0.8-6.4,0.8-34.1-8.3-52.1c4.2,6.1,13.5,16.2,15,22
	c3.4,13.3,5.7,26.9,5.2,36.4c-0.1,0.9-0.2,1.8-0.2,2.7c-1.3,10.1-4.9,19.5-11.1,27.1c-5.8,7-13.8,12.3-24.2,15.2
	c2.6,12.5,4.5,25.9,4.9,39.6c14.8-4.1,48.5-16.3,55.9-24.8c-0.1,5.6,3,11.3,2.4,17c-10.1,8.1-45.5,20.3-57.8,23.6
	c0.2,9.1,0,25.9-1.5,39.7c3.2-0.2,6.6,0,10.1,0.4c6.2,0.8,12.2,2.3,16.2,4.3c0.3,0.2,12.7,6.6,13,6.8c-1.7,3.9-3.7,7.1-5.5,10.9
	c-0.1,0-11.9-5.7-12-5.7c-0.9-0.4-3.4-1-6.2-1.3c-3.2-0.4-7.1-0.6-10.6-0.5c-2.6,0.1-5.1,0.3-6.9,0.6c-3.8,21.2-10.5,53.8-57.9,84.8
	c18.8-18.6,39.6-50.2,42.5-81c-28.3,8.4-52.4,24.7-77.8,40.9c-26.7,17-54.8,33.8-90.9,40.4c-18.2,3.3-58.2,2.3-69-3.2
	c16.8,0.4,46.7-3.7,63.3-6.9C495,866.3,522.2,849.8,550.3,832z"/>
<polygon class="st3" points="486.7,320.9 506.2,302.1 486.7,302.1 "/>
<polygon class="st2" points="449.8,16.1 459.1,44.6 489.1,44.6 464.8,62.2 474.1,90.8 449.8,73.1 425.5,90.8 434.8,62.2 410.6,44.6 
	440.6,44.6 "/>
<polygon class="st2" points="538.9,16.1 548.2,44.6 578.1,44.6 553.9,62.2 563.1,90.8 538.9,73.1 514.6,90.8 523.9,62.2 499.6,44.6 
	529.6,44.6 "/>
<path class="st4" d="M499.4,108.7c-172.7,0-394.6,23.9-394.6,23.9s1.5,266.8,1.5,527c5.7,85.3,21.8,136.1,110.5,214.8
	c88.7,78.7,282.7,116.4,282.7,116.4s194-37.7,282.7-116.4c88.7-78.7,104.7-129.5,110.5-214.8c0-260.2,1.5-527,1.5-527
	S672.5,108.7,499.4,108.7z"/>
<path class="st5" d="M499.4,152.8c155.4,0,355.2,21.5,355.2,21.5s-1.4,240.2-1.4,474.3c-5.2,76.7-19.6,122.5-99.4,193.3
	c-79.8,70.9-254.4,104.8-254.4,104.8S324.8,912.8,245,841.9c-79.8-70.8-94.3-116.6-99.4-193.3c0-234.2-1.4-474.3-1.4-474.3
	S343.5,152.8,499.4,152.8z"/>
<path class="st6" d="M499.4,192.5c-139.9,0-319.6,19.4-319.6,19.4S181,428,181,638.7c4.6,69.1,17.6,110.2,89.5,174
	c71.9,63.8,229,94.3,229,94.3s157.1-30.5,229-94.3c71.8-63.8,84.8-104.9,89.5-174c0-210.7,1.2-426.8,1.2-426.8
	S639.6,192.5,499.4,192.5z"/>
<path class="st6" d="M516.8,426.1c-139.9,0-337,62.3-337,62.3S181,428,181,638.7c4.6,69.1,17.6,110.2,89.5,174
	c71.9,63.8,229,94.3,229,94.3s157.1-30.5,229-94.3c71.8-63.8,84.8-104.9,89.5-174c0-210.7,1.2-181.5,1.2-181.5
	S657,426.1,516.8,426.1z"/>
<path class="st5" d="M845,336l-697-1v268.8l129.2-42.7c0,0,27.8-30.6,52.6-61.9c24.8-31.3,34.5-33.7,60.2-48.5
	c25.7-14.7,72.2-30.6,110.4-30.6c38.3,0,69.2,7.1,99.2,22.4c30,15.3,49.1,36.6,54.2,45.9c5.2,9.3,22.9,23.9,37.4,41.4
	c14.6,17.5,30.4,40.1,30.4,40.1L845,603.8V336z"/>
<path class="st7" d="M279.6,744.1c-30-19.9-54.2-45.8-69.8-75.6c10.9,54.9,42.3,102.4,86,134.2c2.4,0.3,6.4,0.6,11.2,0.7
	C299.2,792.6,285.4,767,279.6,744.1z"/>
<path class="st7" d="M564.6,817.8c2.4,5.9,5.9,10.7,10.4,14.4c15.6,12.9,44.5,10.8,53.2,9.8c43.7-31.8,75.2-79.3,86-134.2
	C686.4,760.8,631.6,801.6,564.6,817.8L564.6,817.8z"/>
<path class="st8" d="M509.6,883.4c31-1.4,60.4-9.2,86.8-22.3c-11.2-1.6-23.5-5.6-33.8-14.1c-8-6.6-13.7-15.1-17.3-25.4
	c-11.6,1.9-23.5,3.1-35.6,3.6L509.6,883.4L509.6,883.4z"/>
<path class="st8" d="M394.7,474c-2.3,1.1-59,37.3-37.5,121.2c6.1,23.8,23.7,44.7,41.9,67c27.7,33.8,59,72.2,59.8,129.7
	c0.1,3.8-0.1,7.4-0.4,10.9c10.3,1.7,20.9,2.7,31.7,3.1V447.1C455.8,448.6,424.1,459.8,394.7,474L394.7,474z"/>
<path class="st8" d="M490.3,883.4v-58.2c-12.1-0.4-24-1.6-35.6-3.6c-3.6,10.3-9.4,18.8-17.3,25.4c-10.3,8.5-22.6,12.5-33.8,14.1
	C429.9,874.2,459.2,882,490.3,883.4L490.3,883.4z"/>
<path class="st4" d="M714.8,626.3c-3.6-39.5-24.6-74.5-49.5-103.4c4.5,19.5,4.8,45-4,77.4c-7.6,27.7-26,50.3-45.6,74.2
	c-26.9,32.9-54.8,67-55.5,117.7c0,2.3,0,4.6,0.2,6.7C649.4,777.2,722,706.3,714.8,626.3L714.8,626.3z"/>
<path class="st7" d="M372,842.1c10.6,1.1,38.2,2.4,53-10c4.5-3.7,7.9-8.5,10.3-14.4c-67.1-16.2-121.9-57-149.6-110
	C296.6,762.7,328.2,810.3,372,842.1L372,842.1z"/>
<path class="st4" d="M285.1,626.3c-7.2,80,65.4,150.9,154.4,172.5c0.1-2.1,0.2-4.4,0.2-6.7c-0.7-50.7-28.5-84.7-55.5-117.7
	c-19.5-23.9-38-46.5-45.6-74.2c-8.9-32.4-8.5-57.9-4-77.4C309.6,551.8,288.6,586.7,285.1,626.3L285.1,626.3z"/>
<path class="st8" d="M606.8,474c-29.5-14.1-62.6-25.3-97.2-26.9v358.7c10.8-0.4,21.4-1.4,31.7-3.1c-0.3-3.5-0.5-7.1-0.4-10.9
	c0.8-57.4,32.2-95.8,59.8-129.7c18.2-22.3,35.7-43.2,41.9-67C665.4,508,607.4,474.3,606.8,474L606.8,474z"/>
<path class="st4" d="M209.6,551.3c-6.2,53.6,23.7,104.1,70.9,138.7c-24.1-64.9,4.7-117.3,3.6-119.1c-7.8-12.4-16.8-30.2-20.3-44.3
	c-8-32.6-7-58-2-77.4C236.1,477.4,214.2,511.9,209.6,551.3L209.6,551.3z"/>
<path class="st7" d="M693.7,803.4c4.8-0.1,8.8-0.5,11.2-0.7c43.7-31.8,75.2-79.3,86-134.2c-15.6,29.8-39.7,55.7-69.8,75.6
	C715.3,767,701.4,792.6,693.7,803.4z"/>
<path class="st4" d="M791.9,551.3c-4.6-39.5-26.5-73.9-52.2-102.1c5,19.4,6,44.9-2,77.4c-3.5,14.1-12.5,31.9-20.3,44.3
	c-1.1,1.8,27.7,54.2,3.6,119.1C768.2,655.5,798.2,605,791.9,551.3L791.9,551.3z"/>
<path class="st4" d="M449.8,7.8l8.8,27.3l28.7,0c1.2,0,2.2,0.9,2.2,2.1c0,0.7-0.4,1.3-0.9,1.7l-23.3,16.8l8.9,27.3
	c0.4,1.1-0.2,2.3-1.4,2.7c-0.7,0.2-1.5,0.1-2.1-0.4l-23.1-16.8l-23.2,16.9c-1,0.7-2.3,0.5-3-0.5c-0.4-0.6-0.5-1.3-0.3-1.9h0
	l8.9-27.3L406.8,39c-1-0.7-1.2-2-0.5-3c0.5-0.6,1.2-0.9,1.9-0.9l28.6,0l8.8-27.3c0.4-1.1,1.6-1.7,2.7-1.4
	C449.1,6.6,449.5,7.1,449.8,7.8L449.8,7.8z"/>
<path class="st4" d="M553.2,7.8l8.8,27.3l28.7,0c1.2,0,2.2,0.9,2.2,2.1c0,0.7-0.4,1.3-0.9,1.7l-23.3,16.8l8.9,27.3
	c0.4,1.1-0.2,2.3-1.4,2.7c-0.7,0.2-1.5,0.1-2.1-0.4l-23.1-16.8L528,85.5c-1,0.7-2.3,0.5-3-0.5c-0.4-0.6-0.5-1.3-0.3-1.9h0l9-27.3
	L510.3,39c-1-0.7-1.2-2-0.5-3c0.5-0.6,1.2-0.9,1.9-0.9l28.6,0l8.8-27.3c0.4-1.1,1.6-1.7,2.7-1.4C552.5,6.6,553,7.1,553.2,7.8
	L553.2,7.8z"/>
<path class="st9" d="M307.7,394.7c0,5.4-0.7,8.9-2.2,10.3c-1,0.9-2.8,1.4-5.4,1.6c-0.1,0-0.5,0-1.3,0c-1,0-1.8,0.1-2.4,0.1h-14.5
	V349h12.4c6.1,0,9.9,0.5,11.2,1.6c1.4,1.2,2.2,3.6,2.2,7v8c0,4.7-1.5,7.5-4.4,8.5l-3.5,1.2l3.2,1.2c1.7,0.6,2.9,1.7,3.6,3.2
	c0.8,1.7,1.2,4.5,1.2,8.6V394.7z M293.5,371.9c1.8,0,3.1-0.4,3.9-1.2c0.8-0.8,1.2-2.4,1.2-4.6v-4.2c0-3-0.4-4.9-1.2-5.8
	c-0.7-0.7-2-1-3.7-1l0.1-0.1c-0.4,0-0.7-0.1-0.9-0.1h-1.9v16.8H293.5z M293.9,400.3c1.6,0,2.8-0.4,3.6-1.2c0.8-0.8,1.2-2,1.2-3.7
	v-10.9c-0.1-3.5-1.6-5.3-4.5-5.3h-3.2v21.1H293.9z"/>
<path class="st9" d="M349,349l7.1,57.6H348l-1-12.2h-8.6l-0.9,12.2h-8.1l7.3-57.6H349z M338.7,388.3h7.8l-3.5-27.6l-0.9-0.1
	L338.7,388.3z"/>
<path class="st9" d="M401.8,404.1c-0.7,1-1.7,1.7-3,1.9c-1.5,0.4-4.6,0.6-9.1,0.6c-5.6,0-9-0.7-10.2-2.1c-0.8-0.9-1.3-2.2-1.6-4
	c-0.1-0.7-0.1-2.9-0.1-6.4v-8.5h8.6v9.3c0,2.1,0.5,3.6,1.4,4.5c0.7,0.7,1.6,1,2.7,1c1.1,0,1.9-0.3,2.7-1c1-0.9,1.4-2.1,1.4-3.7v-8.3
	l-0.1-1.4c-0.1-2.4-1.4-4.2-3.8-5.5c-0.3-0.1-0.7-0.3-1.2-0.6c0,0-0.1,0-0.1-0.1l-5.6-3.2c-2.6-1.5-4.3-2.9-5-4.1
	c-0.7-1.2-1-3.6-1-7.1v-7.1c0-3.9,0.6-6.4,1.8-7.5c1.3-1.2,5.3-1.8,12-1.8c3.6,0,6.2,0.2,7.6,0.5c1.1,0.3,2,0.9,2.7,1.8
	c1,1.3,1.5,4.2,1.5,8.4v6h-8.6v-4.7c0-1.8-0.2-3.1-0.5-3.7l-0.1-0.3c-0.9-1.3-2-2-3.5-2c-1.7,0-3,0.7-3.7,2.2v0.1l-0.1,0.1
	c-0.3,0.8-0.4,2-0.4,3.7v4.5c0,2.4,1.4,4.4,4.3,5.8l0.1-0.1c0,0,0.2,0.2,0.7,0.5l4.6,2.5c3.3,1.8,5.4,3.4,6.1,4.7
	c0.7,1.2,1.1,3.7,1.1,7.5v9.8c0,3.9,0,5.9,0,5.9S402.8,402.9,401.8,404.1z"/>
<path class="st9" d="M450.3,349l-6.5,26.9l7.8,30.7h-8.7l-7.9-27.6h-1v27.6h-9.1V349h9.1v25h0.8l7-25H450.3z"/>
<path class="st9" d="M489.4,349v5.9h-7.2v16.7h7.2v6.1h-7.2v22.6h7.2v6.3h-16.3V349H489.4z"/>
<path class="st9" d="M533,349v6h-6.3v51.6h-9.1V355H511v-6H533z"/>
<path class="st9" d="M580.4,394.7c0,5.4-0.7,8.9-2.2,10.3c-1,0.9-2.8,1.4-5.4,1.6c-0.1,0-0.5,0-1.3,0c-1,0-1.8,0.1-2.4,0.1h-14.5
	V349H567c6.1,0,9.9,0.5,11.2,1.6c1.4,1.2,2.2,3.6,2.2,7v8c0,4.7-1.5,7.5-4.4,8.5l-3.5,1.2l3.2,1.2c1.7,0.6,2.9,1.7,3.6,3.2
	c0.8,1.7,1.2,4.5,1.2,8.6L580.4,394.7L580.4,394.7z M566.3,371.9c1.8,0,3.1-0.4,3.9-1.2c0.8-0.8,1.2-2.4,1.2-4.6v-4.2
	c0-3-0.4-4.9-1.2-5.8c-0.7-0.7-2-1-3.7-1l0.1-0.1c-0.4,0-0.7-0.1-0.9-0.1h-1.9v16.8H566.3z M566.6,400.3c1.6,0,2.8-0.4,3.6-1.2
	c0.8-0.8,1.2-2,1.2-3.7v-10.9c-0.1-3.5-1.6-5.3-4.5-5.3h-3.2v21.1H566.6z"/>
<path class="st9" d="M621.8,349l7.1,57.6h-8.2l-1-12.2H611l-0.9,12.2H602l7.3-57.6H621.8z M611.5,388.3h7.8l-3.5-27.6l-0.9-0.1
	L611.5,388.3z"/>
<path class="st9" d="M659.5,349v51.3h7.9v6.3h-16.9V349H659.5z"/>
<path class="st9" d="M698,349v51.3h7.9v6.3H689V349H698z"/>
<path class="st9" d="M494.4,915v1.3h-1.6v3.7h1.6v1.4h-1.6v5h1.6v1.4h-3.6V915H494.4z"/>
<path class="st9" d="M501.4,927.3c-0.2,0.2-0.4,0.4-0.7,0.4c-0.3,0.1-1,0.1-2,0.1c-1.3,0-2-0.2-2.3-0.5c-0.2-0.2-0.3-0.5-0.4-0.9
	c0-0.2,0-0.6,0-1.4v-1.9h1.9v2.1c0,0.5,0.1,0.8,0.3,1c0.2,0.1,0.4,0.2,0.6,0.2c0.2,0,0.4-0.1,0.6-0.2c0.2-0.2,0.3-0.5,0.3-0.8v-1.8
	l0-0.3c0-0.5-0.3-0.9-0.9-1.2c-0.1,0-0.2-0.1-0.3-0.1c0,0,0,0,0,0l-1.3-0.7c-0.6-0.3-1-0.6-1.1-0.9c-0.1-0.3-0.2-0.8-0.2-1.6v-1.6
	c0-0.9,0.1-1.4,0.4-1.7c0.3-0.3,1.2-0.4,2.7-0.4c0.8,0,1.4,0,1.7,0.1c0.2,0.1,0.4,0.2,0.6,0.4c0.2,0.3,0.3,0.9,0.3,1.9v1.3h-1.9v-1
	c0-0.4,0-0.7-0.1-0.8l0-0.1c-0.2-0.3-0.5-0.5-0.8-0.5c-0.4,0-0.7,0.2-0.8,0.5v0l0,0c-0.1,0.2-0.1,0.4-0.1,0.8v1c0,0.5,0.3,1,1,1.3
	l0,0c0,0,0.1,0,0.2,0.1l1,0.6c0.7,0.4,1.2,0.8,1.4,1c0.2,0.3,0.2,0.8,0.2,1.7v2.2c0,0.9,0,1.3,0,1.3S501.6,927.1,501.4,927.3z"/>
<path class="st9" d="M508.2,915v1.3h-1.4v11.5h-2v-11.5h-1.5V915H508.2z"/>
<path class="st10" d="M317.8,295.3c0,9.7-1.3,15.9-4,18.4c-1.8,1.6-5,2.6-9.7,2.8c-0.2,0-0.9,0-2.3,0c-1.7,0.1-3.2,0.1-4.4,0.1
	h-25.9V213.5h22.2c11,0,17.7,0.9,20.1,2.8c2.6,2.2,3.9,6.4,3.9,12.5v14.3c0,8.4-2.6,13.5-7.9,15.2l-6.2,2.1l5.7,2.1
	c3.1,1.1,5.2,3,6.5,5.7c1.4,3,2.1,8.1,2.1,15.4L317.8,295.3L317.8,295.3z M292.4,254.4c3.3,0,5.6-0.7,7-2.1c1.5-1.5,2.2-4.2,2.2-8.3
	v-7.5c0-5.4-0.7-8.9-2.1-10.3c-1.3-1.2-3.5-1.8-6.7-1.8l0.1-0.1c-0.7-0.1-1.2-0.1-1.7-0.1h-3.5v30.2L292.4,254.4L292.4,254.4z
	 M293,305.3c2.9,0,5.1-0.7,6.5-2.2c1.4-1.4,2.1-3.6,2.1-6.6V277c-0.2-6.3-2.8-9.4-8-9.4h-5.8v37.8H293z"/>
<path class="st10" d="M391.9,213.5l12.8,103.2h-14.7l-1.8-21.8h-15.5l-1.7,21.8h-14.4l13-103.2H391.9z M373.4,283.8h14.1l-6.3-49.4
	l-1.7-0.1L373.4,283.8z"/>
<path class="st10" d="M489.4,316.7h-15.5v-29.5c0-5.9-0.4-9.6-1.2-11.1c-1.2-2.1-4-3.3-8.5-3.4h-5.2v44h-15.7V213.5h20.4
	c0.3,0,0.6,0,0.8,0l8.3,0.3c7.1,0.1,11.7,1.2,13.7,3.4c2,2.1,3,6.9,3,14.3V243c0,7.5-0.8,12.7-2.3,15.7c-1.1,2.1-3.1,3.6-5.9,4.4
	l-5.5,1.4v2.2l5.4,1.8c2.9,1,5.1,2.8,6.5,5.2c1.3,2.4,1.9,8.4,1.9,17.9L489.4,316.7L489.4,316.7z M473.9,235.9l-0.1-2.8
	c0-3.2-0.8-5.5-2.3-6.8c-1.4-1.2-3.4-1.8-5.9-1.8h-6.5v35.2h5.5c3.1,0,5.4-0.6,6.8-1.9c1.6-1.5,2.5-4.8,2.5-9.7V235.9z"/>
<path class="st10" d="M544.2,213.5v91.8h14.2v11.4h-30.3V213.5H544.2z"/>
<path class="st10" d="M626.2,213.5v10.6h-12.9V254h12.9v11h-12.9v40.5h12.9v11.2h-29.2V213.5H626.2z"/>
<path class="st10" d="M708,312.2c-1.3,1.8-3.1,3-5.4,3.5c-2.8,0.7-8.2,1-16.3,1c-10.1,0-16.2-1.2-18.3-3.7c-1.5-1.5-2.4-3.9-2.8-7.1
	c-0.2-1.3-0.3-5.1-0.3-11.5v-15.2h15.4v16.6c0,3.8,0.9,6.5,2.6,8c1.3,1.2,2.9,1.8,4.9,1.8c1.9,0,3.5-0.6,4.8-1.8
	c1.7-1.5,2.6-3.8,2.6-6.7v-14.8l-0.3-2.6c-0.2-4.2-2.5-7.5-6.8-9.9c-0.6-0.3-1.3-0.6-2.1-1c-0.1,0-0.2,0-0.3-0.1l-10.1-5.7
	c-4.7-2.7-7.7-5.1-8.9-7.4c-1.2-2.2-1.8-6.4-1.8-12.6v-12.8c0-7,1.1-11.4,3.2-13.4c2.3-2.1,9.5-3.2,21.4-3.2c6.5,0,11,0.3,13.5,0.9
	c2,0.5,3.6,1.6,4.8,3.2c1.8,2.4,2.7,7.4,2.7,15.1v10.8h-15.5v-8.4c0-3.3-0.3-5.5-0.9-6.7l-0.3-0.5c-1.5-2.4-3.6-3.6-6.2-3.6
	c-3.1,0-5.3,1.3-6.6,4v0.1l-0.1,0.1c-0.5,1.4-0.8,3.6-0.8,6.6v8c0,4.4,2.6,7.9,7.7,10.4l0.1-0.1c0,0.1,0.4,0.4,1.3,0.9l8.3,4.5
	c5.9,3.3,9.6,6.1,11,8.4c1.3,2.2,1.9,6.7,1.9,13.4v17.5c0,7.1,0,10.6,0,10.6S709.7,310,708,312.2z"/>
<rect x="268" y="185" class="st11" width="522" height="43"/>
<path class="st12" d="M490.8,930.1c0.3-0.1,0.8-0.2,1.3-0.2c0.3,0,0.5,0.1,0.8,0.2c0.5,0.3,0.8,0.8,0.8,1.6c0,0.4-0.1,0.8-0.2,1.1
	l-1.5,4.5h1.1l0.5-0.4v1.5h-3l2-6.2c0.1-0.2,0.1-0.4,0-0.6c-0.1-0.4-0.4-0.6-1.1-0.6c-0.3,0-0.6,0.2-0.8,0.5L490.8,930.1
	L490.8,930.1z"/>
<path class="st12" d="M496.7,929.8c0.8,0,1.3,0.4,1.6,1.1c0.2,0.6,0.4,1.7,0.4,3.1c0,1.4-0.1,2.4-0.3,3c-0.3,0.8-0.8,1.2-1.6,1.2
	c-0.8,0-1.3-0.4-1.6-1.1c-0.2-0.6-0.4-1.7-0.4-3.1c0-1.4,0.1-2.5,0.4-3.1C495.5,930.2,496,929.8,496.7,929.8z M496.7,937.4
	c0.3,0,0.6-0.3,0.7-1c0.1-0.4,0.1-1.2,0.1-2.4c0-1.1,0-1.8-0.1-2.3c-0.1-0.7-0.4-1-0.7-1c-0.3,0-0.5,0.3-0.7,0.9
	c-0.1,0.5-0.1,1.3-0.1,2.4c0,1.1,0,1.9,0.1,2.3C496.2,937.1,496.4,937.4,496.7,937.4z"/>
<path class="st12" d="M501.7,929.8c0.8,0,1.3,0.4,1.6,1.1c0.2,0.6,0.4,1.7,0.4,3.1c0,1.4-0.1,2.4-0.3,3c-0.3,0.8-0.8,1.2-1.6,1.2
	c-0.8,0-1.3-0.4-1.6-1.1c-0.2-0.6-0.4-1.7-0.4-3.1c0-1.4,0.1-2.5,0.4-3.1C500.4,930.2,500.9,929.8,501.7,929.8z M501.7,937.4
	c0.3,0,0.6-0.3,0.7-1c0.1-0.4,0.1-1.2,0.1-2.4c0-1.1,0-1.8-0.1-2.3c-0.1-0.7-0.4-1-0.7-1c-0.3,0-0.5,0.3-0.7,0.9
	c-0.1,0.5-0.1,1.3-0.1,2.4c0,1.1,0,1.9,0.1,2.3C501.1,937.1,501.3,937.4,501.7,937.4z"/>
<path class="st12" d="M508.4,935.9c0,0.4-0.1,0.8-0.2,1.2c-0.3,0.8-0.9,1.2-1.7,1.2c-0.3,0-0.6-0.1-0.9-0.3
	c-0.6-0.4-0.9-1.1-0.9-2.1c0-0.2,0-0.5,0.1-0.8c0.2-0.6,0.5-1,1-1.3c-0.2-0.1-0.3-0.2-0.5-0.4c-0.3-0.4-0.5-0.9-0.5-1.5
	c0-0.3,0.1-0.7,0.2-1c0.3-0.7,0.8-1,1.5-1c0.3,0,0.6,0.1,0.9,0.2c0.6,0.3,0.9,0.9,0.9,1.8c0,0.2,0,0.5-0.1,0.8
	c-0.2,0.5-0.4,0.9-0.8,1.1c0.2,0.1,0.4,0.3,0.5,0.5C508.2,934.8,508.4,935.3,508.4,935.9z M505.8,932.5c0,0.4,0.1,0.7,0.4,0.9
	c0.1,0.1,0.3,0.1,0.4,0.1c0.3,0,0.5-0.2,0.6-0.5c0.1-0.2,0.1-0.3,0.1-0.5v-0.9c0-0.4-0.1-0.7-0.3-0.9c-0.1-0.1-0.2-0.1-0.4-0.1
	c-0.3,0-0.5,0.2-0.6,0.5c-0.1,0.2-0.1,0.3-0.1,0.5L505.8,932.5L505.8,932.5z M507.3,935.3c0-0.5-0.1-0.8-0.4-0.9
	c-0.1-0.1-0.3-0.1-0.4-0.1c-0.3,0-0.5,0.1-0.6,0.4c-0.1,0.1-0.1,0.3-0.1,0.4v1.6c0,0.3,0.1,0.6,0.4,0.7c0.1,0.1,0.3,0.1,0.4,0.1
	c0.3,0,0.5-0.2,0.7-0.5c0.1-0.2,0.1-0.4,0.1-0.5L507.3,935.3L507.3,935.3z"/>
<path class="st13" d="M924,554.5c0,214.8-189.8,423.9-423.9,423.9C266,978.4,76.2,788.7,76.2,554.5c0-234.1,189.8-423.8,423.8-423.8
	C734.2,130.7,924,320.5,924,554.5z"/>
<path class="st14" d="M500.1,985c-58.1,0-114.4-11.4-167.5-33.8c-51.3-21.7-97.3-52.7-136.8-92.2c-39.5-39.5-70.6-85.6-92.2-136.8
	C81.1,669,69.7,612.7,69.7,554.5c0-58.1,11.4-114.4,33.8-167.5c21.7-51.3,52.7-97.3,92.2-136.8c39.5-39.5,85.5-70.5,136.8-92.2
	c53.1-22.4,109.5-33.8,167.5-33.8c58.1,0,114.5,11.4,167.6,33.8c51.3,21.7,97.3,52.7,136.8,92.2C844,289.8,875,335.8,896.7,387
	c22.4,53.1,33.8,109.4,33.8,167.5c0,106.2-45.9,214.5-126,297.1c-40,41.2-86,73.8-136.7,96.8C614.1,972.7,557.7,985,500.1,985z
	 M500.1,137.2C270,137.2,82.8,324.5,82.8,554.5c0,230.1,187.2,417.4,417.3,417.4c222.3,0,417.4-195,417.4-417.4
	C917.4,324.5,730.2,137.2,500.1,137.2z"/>
<path class="st15" d="M426.1,337.3c-135.7,25.8-236.6,115.5-240.9,223.4c-0.4-6.6-0.6-13.2-0.6-20c0-133.2,82.3-247.2,198.8-293.9
	c12,12.6,42.8,40.5,42.8,86.1C426.2,334.4,426.1,335.9,426.1,337.3z"/>
<path class="st15" d="M695.1,700.3c6.1-45.9,10.8-59.2-3.7-99.1c-14.5-39.9-70.1-103.9-79.4-118.4c-9.3-14.5-20.9-35.1-28.3-53.1
	c-7.3-17.7-15.3-47.5-15.5-94.4c141.6,22.9,246.5,114.3,249.4,226c-7.4,115.8-73.4,219.9-176.1,263.5
	C671,801,689.9,739.1,695.1,700.3z"/>
<path class="st14" d="M175,567.9c-0.5-7.2-0.7-14.3-0.7-21c0-43.6,8.5-85.9,25.4-125.8c16.3-38.5,39.6-73,69.2-102.7
	c29.7-29.7,64.2-53,102.7-69.2c39.9-16.9,82.2-25.4,125.8-25.4c41.5,0,82,7.8,120.2,23.1l9,3.6l-6.7,7c-0.9,1-1.9,2-3,3.1
	C603.6,274.2,579,299.5,579,339c0,1.5,0,2.9,0,4.3l0.1,8l-7.8-1.5c-23-4.4-46.8-6.8-70.8-7.3l-2.8,0l-1.2,0
	c-21.8,0.2-43.5,2-64.5,5.4l-0.2,0C291.1,370.7,190.8,461,188,567.6L175,567.9z M384.2,258.2c-99.3,39.1-173.8,128.1-192.4,235.9
	c34.9-78,121.2-138.7,232.5-158.2c-1.3-37.8-25-62.1-37.9-75.4C385.7,259.7,384.9,258.9,384.2,258.2z M507.1,329.6
	c19.9,0.7,39.6,2.7,58.9,6c1.3-39,23.7-65.5,37.7-80.1c-31-11.3-63.4-17.5-96.5-18.5L507.1,329.6L507.1,329.6z M397.7,253.3
	c13.5,13.9,37.8,40.5,39.7,80.6c18-2.6,36.3-4,54.8-4.4v-0.1c0.6,0,1.3,0,1.9,0v-92.6C460.4,237.2,428,242.9,397.7,253.3z"/>
<path class="st15" d="M304,706.3c-6.1-45.9-10.8-59.2,3.7-99.1c14.5-39.9,70.1-103.9,79.4-118.4c9.3-14.5,20.9-35,28.3-53
	c7.3-17.7,15.3-47.5,15.5-94.4c-141.6,22.9-246.5,114.3-249.4,226C189,683.3,255,787.3,357.6,831C328.2,807,309.2,745.2,304,706.3z"
	/>
<path class="st14" d="M397.7,855L355,836.9c-50.9-21.7-94.7-58.7-126.6-107.1c-31.2-47.3-49.6-103.3-53.4-162l0-0.3v-0.3
	c3-113,107.8-208.5,254.9-232.3l7.6-1.2l0,7.7c-0.3,48.7-8.8,79.5-16,96.8c-8,19.3-20.1,40.6-28.8,54.1c-2.5,3.9-7.8,10.7-15,20
	c-19.9,25.6-53.3,68.4-63.8,97.1c-12.1,33.4-10.3,46.2-5.5,80.3c0.7,4.7,1.4,10,2.2,15.6c5.7,42.8,25.6,99.6,51.2,120.4L397.7,855z
	 M188,567.3c6.9,105.8,61.4,196.5,144.6,244c-19.4-31.1-31.3-75.6-35.1-104.1c-0.7-5.6-1.5-10.7-2.1-15.5
	c-4.9-34.4-7.1-50.1,6.2-86.6c11.2-30.7,45.3-74.5,65.7-100.7c6.8-8.7,12.2-15.6,14.4-19.1c8.4-13,20.1-33.5,27.8-52
	c6.3-15.3,13.9-42.1,14.9-84.1C287.6,373.9,191,462.8,188,567.3z"/>
<path class="st14" d="M507.1,342.6l-6.7-0.1c-0.9,0-1.9,0-2.8,0l-1.3,0V336h-2.3v-0.1h2.3v-6.5h1.4c1,0,1.9,0,2.8,0h6.5L507.1,342.6
	L507.1,342.6z"/>
<path class="st15" d="M572.5,343.4c135.7,25.8,236.6,115.6,240.9,223.4c0.4-6.6,0.6-13.3,0.6-20c0-133.2-82.3-247.2-198.8-293.9
	c-12,12.6-42.8,40.5-42.8,86.1C572.4,340.5,572.5,342,572.5,343.4z"/>
<path class="st14" d="M819.9,567.2l-13-0.1c-4.1-102.3-100.9-191.6-235.6-217.3l-5.2-1l0-5.3c0-1.5,0-2.9,0-4.4
	c0-44.9,28.1-73.7,41.6-87.6c1.1-1.1,2-2.1,2.9-3l3.1-3.2l4.1,1.6c59.2,23.8,109.7,64.2,146.1,116.9c37.2,54,56.8,117.3,56.8,183.1
	C820.5,553.4,820.3,560.1,819.9,567.2z M579,338c65.4,13.3,124.7,42.2,167.7,81.5c22.2,20.3,39.8,43.1,52.2,67.5
	c1.7,3.3,3.2,6.5,4.7,9.9c-16.9-105-86.3-194.4-186.7-236.3C603.7,274.1,579.4,299.1,579,338z"/>
<path class="st14" d="M497.4,870c-50,0-98.1-11.2-142.7-33.2l-0.7-0.3l-0.6-0.5c-31.9-25.9-50.9-91.2-55.9-128.8
	c-0.7-5.6-1.5-10.7-2.1-15.5c-4.9-34.4-7.1-50.1,6.2-86.6c11.2-30.7,45.3-74.5,65.7-100.7c6.8-8.7,12.2-15.6,14.4-19.1
	c8.4-13,20.1-33.5,27.8-52c6.7-16.2,14.8-45.4,15-91.9l0-5.5l5.4-0.9c20.9-3.4,42.5-5.2,64.1-5.6v-0.1l6.6,0.2c0,0,0,0,0.1,0
	l6.4,0.1v0c19.8,0.7,39.5,2.7,58.7,6v-0.1l7.8,1.5c0.1,0,0.2,0,0.3,0l5,1c65.4,13.3,124.7,42.2,167.7,81.5
	c22.2,20.3,39.8,43.1,52.2,67.5c12.9,25.4,20,52.1,21.1,79.5l0,0.3l0,0.4c-5.1,82-40.9,158.2-100.8,214.8
	C658.9,838.7,580.2,870,497.4,870z M361.2,825.4c42.7,20.9,88.5,31.5,136.3,31.5c44.1,0,86.2-9.3,124.4-26.1l-0.2-0.9
	c15.6-3.8,32-20.8,46.3-47.9c12.3-23.4,21.9-52.7,25-76.5c0.8-5.7,1.5-11,2.2-15.6c2.1-15,3.7-25.9,3.7-36.3c0-13.3-2.7-26.1-9.2-44
	c-10.5-28.7-43.8-71.5-63.7-97.1c-7.2-9.3-12.5-16.1-15-20c-8.7-13.5-20.9-34.8-28.9-54.1c-6.8-16.4-14.9-45-15.9-89.5
	c-19.2-3.4-39-5.5-58.9-6.2v221.7h-13.1V342.5c-19.1,0.3-38.1,1.8-56.6,4.5c-0.9,45.5-9,74.7-15.9,91.3c-8,19.3-20.1,40.6-28.8,54.1
	c-2.5,3.9-7.8,10.7-15,20c-19.9,25.6-53.3,68.4-63.8,97.1c-12.1,33.4-10.3,46.2-5.5,80.3c0.7,4.7,1.4,10,2.2,15.6
	C316.2,748,335.8,804.2,361.2,825.4z M711.8,653.5c0,11.4-1.6,22.6-3.8,38.2c-0.7,4.9-1.4,9.9-2.2,15.5
	c-3.3,25.1-13.5,56.1-26.4,80.8c-2.8,5.3-6,10.8-9.6,16.4c77.6-52.1,130.7-138.3,137-237.7c-4.2-100.1-97.3-187.8-227.7-215.3
	c1.3,40.9,8.7,67,14.9,82c7.6,18.4,19.3,39,27.7,52c2.2,3.4,7.6,10.4,14.4,19.1c20.4,26.2,54.6,70,65.7,100.7
	C708.9,624.5,711.8,638.6,711.8,653.5z"/>
<polygon class="st14" points="506.8,645.4 500.6,653.4 494.2,645.4 494.2,534.2 506.8,534.2 "/>
<path class="st16" d="M271.7,219.7c3.1,0.7,6.1,1.3,8.7,1.9l10.8,16.6l-0.1,0.1l0.1,0.1l-0.8,3.8l3.8,0.8l10.9,16.7l-1.9,8.7
	l-18.3,11.8l-3.7-5.7l3.6-2.3l-24.1-37.3l-3.6,2.3l-3.7-5.7L271.7,219.7z M276.5,247l8.7-5.6L275,225.7l-8.7,5.6L276.5,247z
	 M290.4,268.5l8.7-5.6l-10.2-15.8l-8.7,5.6L290.4,268.5z"/>
<path class="st16" d="M317.4,194.6l29.7,42.5l3.7-1.8l2.9,6.2l-13.1,6.2l-2.9-6.2l3.2-1.5l-5.9-8.5l-6.4,3.1l2.9,9.9l3.2-1.5
	l2.9,6.1l-13.1,6.2l-2.9-6.2l3.7-1.8c-9.4-32.8-14.1-49.4-14.3-49.9L317.4,194.6z M326.6,228l4.4-2.1l-8.5-12.2L326.6,228z"/>
<path class="st16" d="M368.2,174.4c4.8,2.4,7.5,3.7,8,4l1.5,4.5l-6.5,2.1l-1.4-4.1l-9.7,3.3l5.9,17.8l10.2-3.4c2.9,1.4,5.5,2.8,8,4
	l6.3,18.8l-4,8l-10.7,3.6l-8-4l-1.5-4.6l6.4-2.1l1.4,4.1l9.8-3.3l-5.9-17.8l-10.2,3.4c-2.9-1.4-5.5-2.8-8-4l-6.3-18.8
	c1.4-2.9,2.8-5.6,4-8L368.2,174.4z"/>
<path class="st16" d="M438.7,209.6l3.9-0.8l1.3,6.7l-15.1,3l-1.3-6.7l4.6-0.9L419,191.1l-2.9,6.5l3.1,15.9l4.2-0.8l1.3,6.7l-15.1,3
	l-1.3-6.7l4.2-0.8l-8.6-43.5l-4.2,0.9l-1.3-6.7l15.1-3l1.3,6.7l-4.2,0.8l3.5,18l9.4-20.5l-4.6,0.9l-1.4-6.7l15.1-3l1.3,6.7l-3.5,0.7
	l-8.5,18.6L438.7,209.6z"/>
<path class="st16" d="M485.6,153.6l0.7,11.1l-6.8,0.4l-0.2-4.3l-10.3,0.6l1.2,18.7l12.8-0.8l0.4,6.8l-12.8,0.8l1.2,18.7l10.3-0.6
	l-0.3-4.3l6.8-0.4l0.7,11.1l-28.1,1.7l-0.4-6.8l4.3-0.3l-2.7-44.3l-4.3,0.3l-0.4-6.8L485.6,153.6z"/>
<path class="st16" d="M542.5,155.4l-0.7,11.1L535,166l0.3-4.2l-6-0.4l-2.9,44.3l4.3,0.3l-0.5,6.8l-15.3-1l0.4-6.8l4.1,0.3l2.9-44.3
	l-5.8-0.4l-0.3,4.2l-6.8-0.4l0.8-11.1L542.5,155.4z"/>
<path class="st16" d="M588.5,162.7c1.8,2.7,3.4,5.1,4.9,7.4l-3.8,19.4l-0.1,0v0.1l-3.3,2.2l2.2,3.2l-3.8,19.6l-7.4,4.9l-21.4-4.2
	l1.3-6.7l4.2,0.8l8.6-43.5l-4.2-0.8l1.3-6.7L588.5,162.7z M567.9,210.8l10.1,2l3.7-18.5l-10.1-2L567.9,210.8z M572.9,185.7l10.1,2
	l3.7-18.4l-10.1-2L572.9,185.7z"/>
<path class="st16" d="M638.7,176.4l-8.2,51.3l3.9,1.3l-2.2,6.5l-13.7-4.6l2.2-6.5l3.4,1.1l1.6-10.2l-6.7-2.3l-4.8,9.1l3.3,1.1
	l-2.2,6.4l-13.8-4.6l2.2-6.5l3.9,1.3c16-30.1,24.2-45.4,24.4-45.8L638.7,176.4z M622.1,206.9l4.7,1.6l2.4-14.6L622.1,206.9z"/>
<path class="st16" d="M687.5,196.5l-3,6.1l-3.9-1.9l-19.3,39.9l9.3,4.5l1.9-3.8l6.1,3l-4.8,10l-25.3-12.2l3-6.2l3.9,1.9l19.3-39.9
	l-3.8-1.9l2.9-6.1L687.5,196.5z"/>
<path class="st16" d="M732.3,221.5l-3.7,5.7l-3.7-2.4l-24,37.3l8.7,5.6l2.3-3.6l5.7,3.7l-6,9.3L688,262l3.7-5.7l3.6,2.3l24-37.3
	l-3.6-2.3l3.7-5.7L732.3,221.5z"/>
<path class="st1" d="M376.1,872.5l20.5,7.9l-2.5,6.5l-13.7-5.2l-5.4,14.1l11.9,4.5l-2.5,6.5l-11.9-4.6l-5.4,14.1l13.7,5.2l-2.7,6.9
	l-20.6-7.9L376.1,872.5z"/>
<path class="st1" d="M432.3,905.5l-7.2-1.8l0.4-1.6c0.4-1.7,0.4-3.2-0.1-4.6c-0.5-1.4-1.6-2.3-3.5-2.8c-1-0.2-1.8-0.3-2.5,0
	c-0.7,0.2-1.3,0.6-1.9,1.1c-0.5,0.5-0.9,1.1-1.2,1.9c-0.4,0.7-0.6,1.5-0.8,2.4c-0.2,1-0.4,1.9-0.5,2.5c-0.1,0.7,0,1.3,0.1,1.9
	c0.2,0.6,0.5,1.1,0.9,1.6c0.4,0.5,1.1,1.1,1.9,1.7l4.9,3.5c1.4,1,2.5,2,3.3,3.1c0.8,1.1,1.3,2.2,1.6,3.4c0.3,1.3,0.3,2.6,0.2,4.1
	c-0.2,1.5-0.5,3.1-0.9,5c-0.5,2.1-1.2,4-2.1,5.7c-0.9,1.7-2,3.1-3.2,4.1c-1.3,1.1-2.8,1.8-4.6,2.1c-1.8,0.3-3.8,0.3-6.1-0.3
	c-1.7-0.4-3.3-1.1-4.6-2.1c-1.3-1-2.4-2.1-3.2-3.4c-0.8-1.3-1.4-2.8-1.6-4.4c-0.3-1.6-0.2-3.3,0.2-5l0.7-2.7l7.2,1.8L409,925
	c-0.3,1.3-0.2,2.6,0.3,3.8c0.5,1.2,1.7,2.1,3.5,2.5c1.2,0.3,2.2,0.4,3,0.2c0.8-0.2,1.4-0.6,1.9-1.1c0.5-0.6,0.9-1.3,1.3-2.2
	c0.3-0.9,0.6-1.9,0.9-3.1c0.3-1.3,0.5-2.4,0.6-3.3c0.1-0.8,0.1-1.6-0.1-2.2c-0.2-0.6-0.5-1.1-1-1.6c-0.4-0.5-1.1-1-1.9-1.6l-4.6-3.4
	c-2.8-2-4.4-4.2-5-6.6c-0.6-2.3-0.4-5.1,0.3-8.2c0.4-1.9,1.1-3.6,2.1-5.2c1-1.5,2.1-2.8,3.4-3.8c1.3-1,2.8-1.6,4.5-2
	c1.7-0.3,3.6-0.3,5.7,0.2c1.8,0.5,3.3,1.2,4.7,2.2c1.3,1,2.4,2.2,3.2,3.5c0.8,1.3,1.3,2.7,1.5,4.2c0.2,1.5,0.2,2.9-0.2,4.3
	L432.3,905.5z"/>
<path class="st1" d="M457.1,901.5l-8.5-1.1l0.8-6.9l24.3,2.9l-0.8,6.9l-8.5-1l-5.4,44.3l-7.4-0.9L457.1,901.5z"/>
<path class="st1" d="M481,941.1l7.4,0.3l-0.3,7.4l-7.4-0.3L481,941.1z"/>
<path class="st1" d="M510.9,942l11.8-25.9c0.6-1.3,0.9-2.4,1-3.4c0-1,0-2.1-0.1-3.5c0-0.6-0.1-1.3-0.2-2c-0.1-0.7-0.3-1.3-0.5-1.8
	c-0.2-0.5-0.6-0.9-1.1-1.3c-0.5-0.3-1.2-0.5-2.1-0.4c-1.1,0.1-2,0.4-2.6,1.1c-0.6,0.7-0.9,1.6-0.8,2.8l0.3,4.2l-7.4,0.4l-0.2-4
	c-0.1-1.6,0.1-3,0.6-4.4c0.5-1.4,1.2-2.6,2.1-3.7c0.9-1.1,2.1-1.9,3.4-2.6c1.3-0.7,2.7-1,4.3-1.2c1.9-0.1,3.6,0.2,5,0.8
	c1.4,0.6,2.6,1.5,3.5,2.6c1,1.1,1.7,2.5,2.2,4c0.5,1.5,0.8,3.1,0.9,4.9c0.1,1.3,0.1,2.3,0.1,3.2c0,0.8,0,1.6-0.1,2.4
	c-0.1,0.8-0.3,1.6-0.6,2.4c-0.3,0.8-0.7,1.8-1.2,2.9l-9.6,21.5l13.3-0.8l0.4,7.4l-22,1.3L510.9,942z"/>
<path class="st1" d="M549,904.6c-0.3-1.7-0.3-3.3,0.1-4.7c0.3-1.4,0.9-2.7,1.8-3.8c0.8-1.2,1.8-2.1,3.1-2.8c1.2-0.7,2.5-1.2,4-1.5
	c1.4-0.3,2.8-0.3,4.2,0c1.4,0.3,2.7,0.8,3.9,1.6c1.2,0.8,2.2,1.7,3,3c0.8,1.2,1.4,2.7,1.7,4.4l5.4,29.8c0.3,1.7,0.3,3.3-0.1,4.7
	c-0.3,1.4-0.9,2.7-1.8,3.8c-0.8,1.2-1.8,2.1-3.1,2.8c-1.2,0.7-2.5,1.2-3.9,1.5c-1.4,0.2-2.9,0.2-4.3,0c-1.4-0.3-2.7-0.8-3.9-1.6
	c-1.2-0.7-2.2-1.8-3-3c-0.8-1.2-1.5-2.7-1.8-4.4L549,904.6z M561.7,933.1c0.2,1.1,0.7,1.9,1.5,2.4c0.8,0.6,1.7,0.8,2.8,0.6
	c1-0.2,1.8-0.7,2.4-1.5c0.5-0.8,0.7-1.7,0.5-2.8l-5.4-29.8c-0.2-1.1-0.7-1.9-1.5-2.4c-0.8-0.6-1.7-0.8-2.8-0.6
	c-1,0.2-1.8,0.7-2.4,1.5c-0.5,0.8-0.7,1.7-0.5,2.8L561.7,933.1z"/>
<path class="st1" d="M588.4,896.3c-0.5-1.7-0.7-3.2-0.5-4.7c0.2-1.5,0.6-2.8,1.3-4.1c0.7-1.2,1.6-2.3,2.7-3.2c1.1-0.9,2.4-1.5,3.8-2
	c1.4-0.4,2.8-0.6,4.2-0.5c1.4,0.1,2.7,0.4,4,1.1c1.2,0.6,2.3,1.5,3.3,2.6c1,1.1,1.7,2.5,2.3,4.2l9,29c0.5,1.6,0.7,3.2,0.5,4.7
	c-0.2,1.4-0.6,2.8-1.3,4c-0.7,1.2-1.6,2.3-2.7,3.2c-1.1,0.9-2.4,1.6-3.7,2c-1.4,0.4-2.8,0.6-4.2,0.5c-1.4-0.1-2.8-0.5-4-1.1
	c-1.3-0.6-2.4-1.5-3.3-2.6c-1-1.1-1.7-2.5-2.3-4.2L588.4,896.3z M604.5,923.1c0.3,1,0.9,1.7,1.7,2.2c0.9,0.5,1.8,0.5,2.8,0.2
	c1-0.3,1.8-0.9,2.2-1.8c0.5-0.9,0.5-1.8,0.2-2.8l-9-29c-0.3-1-0.9-1.8-1.8-2.2c-0.8-0.4-1.8-0.5-2.8-0.2c-1,0.3-1.7,0.9-2.2,1.8
	c-0.5,0.9-0.5,1.8-0.2,2.8L604.5,923.1z"/>
<path class="st1" d="M627.7,885.9c-0.6-1.3-1-2.4-1.4-3.3c-0.3-0.9-0.5-1.8-0.6-2.5c-0.1-0.7-0.1-1.5-0.1-2.1
	c0.1-0.7,0.2-1.4,0.4-2.2c0.4-1.5,1-2.9,2.1-4.2c1-1.2,2.3-2.2,3.8-2.9c1.6-0.7,3.1-1,4.8-1c1.6,0,3.1,0.4,4.5,1.2
	c0.7,0.4,1.3,0.8,1.9,1.2c0.6,0.4,1,0.9,1.6,1.5c0.5,0.5,1,1.3,1.5,2.2c0.5,0.9,1,1.9,1.6,3.2c0.7,1.4,1.2,2.6,1.5,3.6
	c0.4,1,0.7,1.9,0.8,2.8c0.1,0.9,0.1,1.7-0.1,2.5c-0.2,0.8-0.5,1.7-1,2.8c1.1,0.2,2,0.6,2.7,1c0.7,0.4,1.4,1,2,1.7
	c0.6,0.7,1.2,1.7,1.8,2.9c0.6,1.2,1.3,2.7,2.1,4.4c0.6,1.4,1.1,2.7,1.5,3.6c0.3,1,0.6,1.8,0.8,2.6c0.2,0.8,0.3,1.4,0.2,2
	c0,0.6-0.1,1.3-0.2,1.9c-0.3,1.5-0.8,2.9-1.9,4.4c-1,1.4-2.5,2.6-4.4,3.5c-2,0.9-3.8,1.2-5.6,1c-1.7-0.2-3.2-0.7-4.5-1.5
	c-0.6-0.4-1.1-0.8-1.6-1.1c-0.4-0.4-0.9-0.9-1.4-1.6c-0.4-0.6-0.9-1.4-1.4-2.3c-0.5-0.9-1.1-2.1-1.7-3.6c-0.8-1.8-1.4-3.3-1.9-4.5
	c-0.5-1.3-0.8-2.3-1-3.3c-0.2-1-0.2-1.8,0-2.6c0.2-0.9,0.5-1.8,1-2.7c-1.1-0.3-2-0.6-2.7-1.1c-0.7-0.4-1.4-0.9-1.9-1.5
	c-0.5-0.6-1.1-1.4-1.6-2.4C629,888.5,628.4,887.3,627.7,885.9z M639.9,877.2c-0.4-0.9-1.1-1.6-2-1.9c-1-0.3-1.9-0.3-2.8,0.1
	c-0.9,0.4-1.5,1.1-1.9,2c-0.4,1-0.3,1.9,0.1,2.8l3.1,6.9c0.4,1,1.1,1.6,2.1,1.9c0.9,0.4,1.9,0.3,2.7-0.1c0.9-0.4,1.5-1.1,1.9-2
	c0.4-0.9,0.4-1.9-0.1-2.8L639.9,877.2z M648.2,895.7c-0.4-0.9-1.1-1.5-2.1-1.9c-0.9-0.3-1.8-0.3-2.7,0.1c-0.9,0.4-1.5,1.1-1.9,2
	c-0.4,0.9-0.3,1.9,0.1,2.8l4.2,9.2c0.4,0.9,1.1,1.6,2.1,1.9c1,0.3,1.9,0.3,2.8-0.1c0.9-0.4,1.5-1.1,1.9-2c0.4-1,0.4-1.9-0.1-2.8
	L648.2,895.7z"/>
<polygon class="st14" points="499.8,9.6 512.6,35.4 541.1,39.6 520.4,59.7 525.3,88.1 499.8,74.7 474.3,88.1 479.2,59.7 458.5,39.6 
	487.1,35.4 "/>
<polygon class="st14" points="608.2,30 620.9,55.9 649.6,60 628.9,80.2 633.7,108.6 608.2,95.2 582.8,108.6 587.6,80.2 567,60 
	595.4,55.9 "/>
<polygon class="st14" points="395.4,30 408.2,55.9 436.7,60 416.1,80.2 420.9,108.6 395.4,95.2 369.9,108.6 374.8,80.2 354.1,60 
	382.7,55.9 "/>
<path class="st1" d="M452.9,686.4l-9.7,109.2h-12.3l-8.9-45.6l-10.5,45.6h-11.6l-9.3-109.2h14.7l5.1,50l11-47.5l12.4,47.5l3.8-50
	H452.9z"/>
<path class="st1" d="M522.6,694v12.4H509v-5.6h-20.3v80h19.4v-10.5h14.5v17.1l-7.7,8.2h-32.7l-8.3-8.5v-92l9.3-8.7h32.1L522.6,694z"
	/>
<path class="st1" d="M588.8,694v12.4h-13.5v-5.6h-20.3v80h19.4v-10.5h14.5v17.1l-7.6,8.2h-32.8l-8.3-8.5v-92l9.3-8.7h32.1L588.8,694
	z"/>
<path class="st17" d="M501.5,223.3c-58.7,0-106.5-47.8-106.5-106.5c0-58.7,47.8-106.5,106.5-106.5c58.7,0,106.5,47.8,106.5,106.5
	C608,175.6,560.2,223.3,501.5,223.3z M501.5,42.7c-40.9,0-74.1,33.2-74.1,74.1c0,40.9,33.2,74.2,74.1,74.2
	c40.9,0,74.2-33.3,74.2-74.2C575.7,75.9,542.4,42.7,501.5,42.7z"/>
<path class="st17" d="M502.4,79.1c-132.5,0-362.7,59-362.7,59s0,512.7,0,586.8c38,85.7,96,126.6,174.3,165.6
	c50.7,25.3,102.1,53.3,188.7,79.9c86.6-26.6,137.8-54.6,188.5-79.9c78.3-39,136.3-79.9,174.1-165.6c0-74.1,0-586.8,0-586.8
	S634.8,79.1,502.4,79.1z"/>
<path class="st18" d="M502.4,101.3c-125.9,0-345.5,56.1-345.5,56.1s0,487,0,557.5c36.7,81.4,91.6,120.3,166,157.3
	c48.2,24,97.2,50.7,179.4,75.9c82.3-25.3,131.4-52,179.6-75.9c74.4-37,129.3-76,165.9-157.3c0-70.5,0-557.5,0-557.5
	S628.2,101.3,502.4,101.3z"/>
<path class="st19" d="M502.9,122.5c-119.6,0-327.7,53.3-327.7,53.3s0,462.7,0,529.6c33.4,77.3,86.5,114.3,157.2,149.5
	c45.8,22.8,92.1,48.1,170.2,72.1c78.2-24,124.8-49.3,170.5-72.1c70.6-35.2,123-72.2,157.5-149.5c0-66.9,0-529.6,0-529.6
	S622.5,122.5,502.9,122.5z"/>
<path class="st17" d="M502.9,142.6c-113.6,0-311.5,50.6-311.5,50.6s0,439.6,0,503.2c32.4,73.4,82.3,108.5,149.4,142
	c43.5,21.7,87.5,45.7,161.8,68.5c74.3-22.8,118.7-46.9,162.1-68.5c67.1-33.4,117.4-68.6,149.8-142c0-63.6,0-503.2,0-503.2
	S616.5,142.6,502.9,142.6z"/>
<rect x="189.2" y="221.3" class="st19" width="631.7" height="16.2"/>
<rect x="189.2" y="466" class="st19" width="631.7" height="16.2"/>
<path class="st19" d="M301.9,737.6c23.1,22.6,89.4,71.1,137,113.5c4.9,4.4,21,8.4,27.9,7.8c1.7-0.2,6.4-1.1,10.8-5.6
	c6.2-6.3,2.6-22.9-0.9-28.7C462,800,438,759.3,430.2,744.5l45,0.1c0,0,1.8,0.5,6.4-4.1c3.5-3.5,1.3-8.5,1.3-8.5L433,649.4
	c-3.9-6.2-5-11.2,3.6-11.2H480c8.6,0,14.3-7.3,10.5-13.6l-93.9-152.9c-1.9-3.2-6-5.2-10.5-5.2H193.9c-9.6,0-15.1,8.8-9.4,15
	l113.3,121.3c0,0,3.1,2.9-1.2,2.9l-47.8-0.2c-8.3,4.1-10.8,17.5-4.7,23.6l74.4,76.8c0,0-4.9,2.6-12.3,2.6c-9.1,0-9.5,5.2-10.8,10.2
	C294.2,723.3,294.9,730.8,301.9,737.6z"/>
<path class="st19" d="M706.3,718.7c-1.3-5-1.7-10.2-10.8-10.2c-7.4,0-12.3-2.6-12.3-2.6l74.4-76.8c6.1-6.1,3.6-19.5-4.7-23.6
	l-47.9,0.2c-4.3,0-1.2-2.9-1.2-2.9l113.3-121.3c5.8-6.2,0.3-15-9.3-15H615.7c-4.5,0-8.5,2-10.5,5.2l-93.9,152.9
	c-3.8,6.3,1.8,13.6,10.5,13.6H565c8.7,0,7.5,4.9,3.6,11.2l-49.9,82.5c0,0-2.2,5.1,1.3,8.5c4.6,4.6,6.4,4.1,6.4,4.1l45-0.1
	c-7.8,14.8-31.9,55.5-46.5,80.1c-3.4,5.7-7.1,22.4-0.8,28.7c4.4,4.5,9.1,5.4,10.8,5.6c6.9,0.7,22.9-3.4,27.8-7.8
	c47.6-42.4,113.9-90.9,137-113.5C706.8,730.8,707.5,723.3,706.3,718.7z"/>
<path class="st18" d="M547.3,845.8l143.5-116c5.9-4.7,1.7-12.8-6.7-12.8h-11.4c-7.8,0-12.2-7.3-7.3-12.2l76.1-77.2
	c4.8-4.9,0.5-12.2-7.3-12.2h-38.3c-7.7,0-12.1-7.1-7.5-12l97.2-104c4.6-5,0.2-12-7.5-12H624.4c-3.6,0-6.8,1.6-8.4,4.2l-75.1,122.3
	c-3.1,5,1.5,10.9,8.4,10.9h34.7c6.9,0,11.4,5.9,8.3,10.9l-51.4,83.7c-3.1,5,1.5,10.8,8.4,10.8h32.6c6.9,0,11.4,5.8,8.4,10.8
	l-58,96.3C527.7,844.8,539.9,851.7,547.3,845.8L547.3,845.8z"/>
<path class="st18" d="M455.8,845.8c7.4,6,19.6-0.9,15-8.6l-58-96.3c-3-5,1.5-10.8,8.4-10.8h32.7c6.9,0,11.4-5.9,8.4-10.8l-51.4-83.7
	c-3.1-5,1.4-10.9,8.3-10.9h34.7c6.9,0,11.4-5.9,8.4-10.9L387,491.5c-1.5-2.6-4.8-4.2-8.4-4.2H224.9c-7.7,0-12.1,7.1-7.5,12l97.2,104
	c4.6,5,0.2,12-7.5,12h-38.3c-7.8,0-12.2,7.2-7.3,12.2l76.1,77.2c4.8,4.9,0.5,12.2-7.4,12.2h-11.4c-8.3,0-12.5,8.1-6.6,12.8
	L455.8,845.8L455.8,845.8z"/>
<rect x="161.2" y="237.5" class="st18" width="675.9" height="228.5"/>
<path class="st18" d="M501.5,30.8c47.5,0,86,38.5,86,86c0,47.5-38.5,86-86,86c-47.5,0-86-38.5-86-86C415.5,69.3,454,30.8,501.5,30.8
	z"/>
<path class="st18" d="M501.5,208.2c-50.4,0-91.4-41-91.4-91.4c0-50.4,41-91.4,91.4-91.4c50.4,0,91.4,41,91.4,91.4
	C592.9,167.2,551.9,208.2,501.5,208.2z M501.5,36.2c-44.4,0-80.6,36.2-80.6,80.6c0,44.5,36.2,80.6,80.6,80.6
	c44.5,0,80.6-36.2,80.6-80.6C582.1,72.4,546,36.2,501.5,36.2z"/>
<path class="st19" d="M584.7,120.4h-78v12.4c7.7,0.5,15.1,2.3,22.2,5.3c8.2,3.5,15.6,8.5,22,14.8c5.3,5.3,9.6,11.3,13,17.9
	C576,157.2,583.7,139.7,584.7,120.4L584.7,120.4z"/>
<path class="st19" d="M556.9,53.6c-13.5-12-30.9-19.5-50.1-20.7v56.5c14.2-1.1,27.4-7.2,37.5-17.3C549.7,66.7,553.9,60.4,556.9,53.6
	L556.9,53.6z"/>
<path class="st19" d="M497.3,110.9V98.9c-7.6-0.5-15.1-2.3-22.2-5.3c-8.2-3.5-15.7-8.5-22-14.8c-5.4-5.3-9.7-11.4-13-18.1
	c-12,13.5-19.7,31-20.8,50.3C419.4,110.9,497.3,110.9,497.3,110.9z"/>
<path class="st19" d="M440.2,170.8c3.3-6.6,7.6-12.6,13-17.9c6.3-6.3,13.7-11.4,22-14.8c7.1-3,14.5-4.8,22.2-5.3v-12.4h-78
	C420.5,139.7,428.2,157.2,440.2,170.8L440.2,170.8z"/>
<path class="st19" d="M506.8,110.9h78c-1.1-19.2-8.7-36.8-20.8-50.3c-3.3,6.7-7.7,12.8-13,18.1c-6.3,6.4-13.7,11.3-22,14.8
	c-7.1,3-14.6,4.8-22.2,5.3L506.8,110.9C506.8,110.9,506.8,110.9,506.8,110.9z"/>
<path class="st19" d="M544.3,159.5c-10.2-10.2-23.3-16.2-37.5-17.3v56.1c19.1-1.1,36.5-8.6,50-20.5
	C553.8,171.1,549.7,164.9,544.3,159.5L544.3,159.5z"/>
<path class="st19" d="M459.8,72.1c10.2,10.2,23.3,16.2,37.5,17.3V33c-19.2,1.1-36.6,8.7-50.1,20.6C450.2,60.4,454.4,66.7,459.8,72.1
	L459.8,72.1z"/>
<path class="st19" d="M497.3,142.2c-14.2,1.1-27.4,7.1-37.5,17.3c-5.3,5.3-9.6,11.6-12.5,18.3c13.5,11.9,30.9,19.5,50,20.5
	L497.3,142.2L497.3,142.2z"/>
<polygon class="st20" points="501.5,416.1 168.7,416.1 91.1,326.8 501.5,326.8 "/>
<polygon class="st20" points="501.8,416.5 834.5,416.5 912.2,327.1 501.8,327.1 "/>
<path class="st21" d="M842.6,95.4H504.8h-3.5H163.5c0,0-90.1,439.2,36,608.6C318.3,863.5,484.2,858,503.1,856.9
	c18.8,1.2,184.8,6.6,303.6-152.9C932.7,534.6,842.6,95.4,842.6,95.4z"/>
<path class="st22" d="M822.8,117.3h-318h-3.5h-318c0,0-84.8,414,33.9,573.6C329,841,484.9,836.1,503.1,835
	c18.1,1.1,174.1,6,285.8-144.1C907.7,531.3,822.8,117.3,822.8,117.3z"/>
<polygon class="st12" points="502,366.2 912.2,327.2 900.4,198.8 502,198.8 501.2,198.8 102.8,198.8 91,327.2 501.2,366.2 
	501.2,366.3 501.6,366.3 502,366.3 "/>
<path class="st23" d="M501.2,531c114.7,0,207.7,93,207.7,207.7c0,114.7-93,207.7-207.7,207.7c-114.7,0-207.7-93-207.7-207.7
	C293.5,624,386.5,531,501.2,531z"/>
<path class="st16" d="M501.2,954.8c-119.1,0-216.1-96.9-216.1-216.1c0-119.1,96.9-216.1,216.1-216.1c119.2,0,216.1,96.9,216.1,216.1
	C717.3,857.8,620.4,954.8,501.2,954.8z M501.2,539.3c-109.9,0-199.3,89.4-199.3,199.3c0,109.9,89.4,199.3,199.3,199.3
	c109.9,0,199.3-89.4,199.3-199.3C700.5,628.8,611.1,539.3,501.2,539.3z"/>
<path class="st24" d="M700.1,725.4L700.1,725.4l0-0.4c-2.3-36.4-13.8-71.1-33.1-100.5c-19.8-30-46.9-53-78.5-66.5
	c-27.6-13.6-57.4-20.5-88.4-20.5c-105.6,0-193.5,82.5-200.1,187.8l0,0.4v0c-0.3,4.2-0.4,8.3-0.4,12.2c0,40.8,12.2,80.1,35.3,113.6
	c20.6,29.9,48.6,53.4,81.2,68.4l-0.2,0.2l9.5,3.8c0,0,0,0,0.1,0l4.4,1.8l0,0c22.4,8.4,46,12.6,70.1,12.6
	c110.5,0,200.5-89.9,200.5-200.5C700.5,734,700.3,729.7,700.1,725.4z M686.1,725.6c0,0.5,0,1-0.1,1.4c0,0.5,0,0.9-0.1,1.4
	c0,0.5-0.1,1.1-0.1,1.6c0,0.4-0.1,0.9-0.1,1.3c-0.1,0.6-0.1,1.2-0.2,1.9c-0.1,0.6-0.1,1.3-0.2,1.9c-0.1,0.7-0.2,1.3-0.3,2
	c-0.1,0.4-0.1,0.8-0.2,1.2c-0.1,0.5-0.2,1.1-0.3,1.6c-0.1,0.4-0.2,0.9-0.2,1.3c-0.1,0.5-0.2,1-0.3,1.5c-0.1,0.4-0.2,0.9-0.3,1.3
	c-0.1,0.5-0.2,1-0.3,1.5c-0.1,0.4-0.2,0.9-0.3,1.3c-0.1,0.5-0.2,1-0.4,1.5c-0.1,0.4-0.2,0.9-0.4,1.3c-0.1,0.5-0.3,1-0.4,1.5
	c-0.1,0.4-0.3,0.9-0.4,1.3c-0.1,0.5-0.3,1-0.4,1.4c-0.1,0.4-0.3,0.9-0.4,1.3c-0.2,0.5-0.3,1-0.5,1.4c-0.1,0.4-0.3,0.9-0.5,1.3
	c-0.2,0.5-0.3,1-0.5,1.4c-0.2,0.4-0.3,0.9-0.5,1.3c-0.2,0.5-0.4,1-0.6,1.4c-0.2,0.4-0.3,0.8-0.5,1.3c-0.2,0.5-0.4,1-0.6,1.4
	c-0.2,0.4-0.4,0.8-0.6,1.2c-0.2,0.5-0.4,1-0.7,1.4c-0.2,0.4-0.4,0.8-0.6,1.2c-0.2,0.5-0.5,0.9-0.7,1.4c-0.2,0.4-0.4,0.8-0.6,1.2
	c-0.2,0.5-0.5,0.9-0.7,1.4c-0.2,0.4-0.4,0.8-0.6,1.2c-0.3,0.5-0.5,0.9-0.8,1.4c-0.2,0.4-0.4,0.8-0.7,1.2c-0.3,0.5-0.6,1-0.8,1.4
	c-0.2,0.4-0.5,0.8-0.7,1.1c-0.3,0.5-0.6,0.9-0.9,1.4c-0.2,0.4-0.5,0.7-0.7,1.1c-0.3,0.5-0.6,1-0.9,1.4c-0.2,0.4-0.5,0.7-0.7,1.1
	c-0.3,0.5-0.7,1-1,1.4c-0.2,0.3-0.5,0.7-0.7,1c-0.3,0.5-0.7,1-1,1.4c-0.2,0.3-0.5,0.7-0.7,1c-0.4,0.5-0.7,1-1.1,1.4
	c-0.2,0.3-0.5,0.6-0.7,1c-0.4,0.5-0.8,1-1.2,1.5c-0.2,0.3-0.5,0.6-0.7,0.9c-0.4,0.5-0.8,1-1.3,1.5c-0.2,0.3-0.5,0.6-0.7,0.8
	c-0.5,0.5-0.9,1-1.4,1.6c-0.2,0.3-0.4,0.5-0.7,0.8c-0.5,0.5-1,1.1-1.5,1.7c-0.2,0.2-0.4,0.4-0.6,0.6c-0.6,0.6-1.2,1.2-1.8,1.8
	c-0.1,0.1-0.3,0.3-0.4,0.4c-3,3-6.1,6-9.4,8.8c-0.1,0.1-0.1,0.1-0.2,0.2c-0.7,0.6-1.5,1.3-2.3,1.9c-0.2,0.1-0.3,0.3-0.5,0.4
	c-0.7,0.6-1.4,1.1-2.1,1.7c-0.2,0.2-0.4,0.3-0.6,0.5c-0.7,0.5-1.3,1-2,1.5c-0.2,0.2-0.5,0.4-0.7,0.6c-0.6,0.5-1.3,1-1.9,1.4
	c-0.3,0.2-0.5,0.4-0.8,0.6c-0.6,0.5-1.3,0.9-1.9,1.3c-0.3,0.2-0.6,0.4-0.9,0.6c-0.6,0.4-1.2,0.9-1.9,1.3c-0.3,0.2-0.6,0.4-0.9,0.6
	c-0.6,0.4-1.2,0.8-1.9,1.2c-0.3,0.2-0.7,0.4-1,0.6c-0.6,0.4-1.2,0.8-1.9,1.2c-0.3,0.2-0.7,0.4-1,0.6c-0.6,0.4-1.3,0.8-1.9,1.1
	c-0.4,0.2-0.7,0.4-1.1,0.6c-0.6,0.4-1.3,0.7-1.9,1.1c-0.4,0.2-0.7,0.4-1.1,0.6c-0.6,0.4-1.3,0.7-1.9,1.1c-0.4,0.2-0.7,0.4-1.1,0.6
	c-0.6,0.3-1.3,0.7-1.9,1c-0.4,0.2-0.8,0.4-1.1,0.6c-0.7,0.3-1.3,0.7-2,1c-0.4,0.2-0.8,0.4-1.2,0.6c-0.7,0.3-1.3,0.6-2,1
	c-0.4,0.2-0.8,0.4-1.2,0.6c-0.7,0.3-1.4,0.6-2,1c-0.4,0.2-0.8,0.4-1.2,0.5c-0.7,0.3-1.4,0.6-2.1,0.9c-0.4,0.2-0.8,0.4-1.2,0.5
	c-0.7,0.3-1.4,0.6-2.1,0.9c-0.4,0.2-0.8,0.3-1.2,0.5c-0.7,0.3-1.4,0.6-2.1,0.9c-0.4,0.2-0.8,0.3-1.2,0.5c-0.7,0.3-1.5,0.6-2.2,0.8
	c-0.4,0.2-0.8,0.3-1.2,0.5c-0.8,0.3-1.5,0.6-2.3,0.8c-0.4,0.1-0.8,0.3-1.2,0.4c-0.8,0.3-1.5,0.5-2.3,0.8c-0.4,0.1-0.8,0.3-1.2,0.4
	c-0.8,0.3-1.6,0.5-2.4,0.8c-0.4,0.1-0.8,0.2-1.1,0.4c-0.8,0.3-1.7,0.5-2.5,0.8c-0.3,0.1-0.7,0.2-1.1,0.3c-0.9,0.3-1.8,0.5-2.8,0.8
	c-0.3,0.1-0.6,0.2-0.8,0.2c-1.1,0.3-2.1,0.6-3.2,0.9c-0.2,0-0.3,0.1-0.5,0.1c-2.5,0.7-5,1.3-7.5,1.8c0,0-0.1,0-0.1,0
	c-1.2,0.3-2.4,0.5-3.7,0.8c-0.3,0.1-0.7,0.1-1,0.2c-0.9,0.2-1.7,0.4-2.6,0.5c0-0.3,0-0.6,0-0.8c0-0.6,0.1-1.3,0.1-1.9
	c0.1-0.9,0.1-1.7,0.2-2.6c0-0.6,0.1-1.2,0.1-1.8c0.1-0.8,0.1-1.6,0.2-2.4c0-0.6,0.1-1.2,0.2-1.8c0.1-0.8,0.2-1.6,0.2-2.3
	c0.1-0.5,0.1-1.1,0.2-1.6c0.1-0.8,0.2-1.6,0.3-2.3c0.1-0.5,0.1-1,0.2-1.4c0.1-0.9,0.3-1.7,0.4-2.6c0-0.3,0.1-0.6,0.1-1
	c0.2-1.1,0.4-2.2,0.6-3.3c0.1-0.3,0.1-0.7,0.2-1c0.1-0.7,0.3-1.4,0.4-2.1c0.1-0.4,0.2-0.8,0.3-1.2c0.1-0.6,0.3-1.2,0.4-1.7
	c0.1-0.4,0.2-0.8,0.3-1.2c0.1-0.5,0.3-1,0.4-1.5c0.1-0.4,0.2-0.8,0.3-1.2c0.1-0.5,0.3-1,0.4-1.4c0.1-0.4,0.2-0.7,0.3-1.1
	c0.1-0.4,0.3-0.9,0.4-1.3c0.1-0.3,0.2-0.7,0.3-1c0.1-0.4,0.3-0.8,0.4-1.2c0.1-0.3,0.2-0.6,0.3-0.9c0.1-0.4,0.3-0.8,0.4-1.1
	c0.1-0.3,0.2-0.6,0.3-0.8c0.2-0.4,0.3-0.8,0.5-1.1c0.1-0.2,0.2-0.4,0.2-0.6c3.2-7.6,7.5-15.8,11.5-22.8c0.4-0.6,0.7-1.3,1.1-1.9
	c0.7-1.2,1.4-2.4,2.1-3.5c0.7-1.1,1.3-2.2,2-3.1c1.3-2,4.7-6.4,8.6-11.4c12.6-16.1,33.6-43.1,40.6-62.3c8.4-23,6.9-33.5,3.9-54.4
	c-0.4-2.9-0.9-6-1.3-9.5c-0.1-0.7-0.2-1.5-0.3-2.3c0-0.2-0.1-0.5-0.1-0.7c-0.1-0.6-0.2-1.2-0.3-1.8c0-0.3-0.1-0.5-0.1-0.8
	c-0.1-0.7-0.3-1.5-0.4-2.2c0-0.2-0.1-0.3-0.1-0.5c-0.2-0.9-0.4-1.9-0.6-2.9c0-0.2-0.1-0.4-0.1-0.6c-0.2-0.8-0.3-1.6-0.5-2.4
	c-0.1-0.3-0.1-0.6-0.2-0.9c-0.2-0.8-0.4-1.6-0.6-2.4c-0.1-0.3-0.1-0.5-0.2-0.8c-0.3-1.1-0.5-2.1-0.8-3.2c0,0,0-0.1,0-0.1
	c-0.3-1-0.5-2.1-0.8-3.1c-0.1-0.3-0.2-0.6-0.3-0.9c-0.2-0.8-0.5-1.7-0.7-2.5c-0.1-0.3-0.2-0.6-0.3-1c-0.3-1-0.6-2-0.9-3
	c0-0.1-0.1-0.2-0.1-0.3c-0.4-1.1-0.7-2.3-1.1-3.4c-0.1-0.3-0.2-0.5-0.3-0.8c-0.3-0.9-0.6-1.8-0.9-2.6c-0.1-0.3-0.3-0.7-0.4-1
	c-0.3-0.9-0.7-1.8-1-2.6c-0.1-0.3-0.2-0.5-0.3-0.8c-0.5-1.1-0.9-2.3-1.4-3.4c-0.1-0.2-0.1-0.3-0.2-0.5c-0.4-1-0.8-1.9-1.2-2.8
	c-0.1-0.3-0.3-0.7-0.4-1c-0.4-0.8-0.8-1.6-1.1-2.4c-0.1-0.2-0.2-0.4-0.3-0.6C653.4,614.8,682.2,666.3,686.1,725.6z M505.1,551.6
	c26.8,0.7,52.5,7,76.5,18.7c0.1,0.1,0.3,0.2,0.4,0.4c0.2,0.2,0.5,0.4,0.7,0.6c0.2,0.2,0.4,0.4,0.7,0.6c0.2,0.2,0.5,0.5,0.7,0.7
	c0.2,0.2,0.4,0.5,0.7,0.7c0.2,0.2,0.5,0.5,0.7,0.7c0.2,0.3,0.4,0.5,0.7,0.8c0.2,0.3,0.4,0.5,0.7,0.8c0.2,0.3,0.4,0.5,0.7,0.8
	c0.2,0.3,0.4,0.5,0.6,0.8c0.2,0.3,0.4,0.6,0.7,0.9c0.2,0.3,0.4,0.6,0.6,0.9c0.2,0.3,0.4,0.6,0.7,1c0.2,0.3,0.4,0.6,0.6,0.9
	c0.2,0.3,0.4,0.7,0.7,1c0.2,0.3,0.4,0.6,0.6,0.9c0.2,0.4,0.4,0.7,0.6,1.1c0.2,0.3,0.4,0.6,0.6,0.9c0.2,0.4,0.4,0.8,0.6,1.1
	c0.2,0.3,0.4,0.6,0.5,1c0.2,0.4,0.4,0.8,0.6,1.2c0.2,0.3,0.3,0.7,0.5,1c0.2,0.4,0.4,0.8,0.6,1.2c0.2,0.3,0.3,0.7,0.5,1
	c0.2,0.4,0.4,0.9,0.6,1.3c0.2,0.3,0.3,0.7,0.5,1c0.2,0.4,0.4,0.9,0.6,1.3c0.2,0.3,0.3,0.7,0.5,1c0.2,0.4,0.4,0.9,0.6,1.4
	c0.1,0.3,0.3,0.7,0.4,1c0.2,0.5,0.4,0.9,0.6,1.4c0.1,0.4,0.3,0.7,0.4,1c0.2,0.5,0.4,1,0.5,1.4c0.1,0.4,0.3,0.7,0.4,1.1
	c0.2,0.5,0.4,1,0.5,1.4c0.1,0.4,0.3,0.7,0.4,1.1c0.2,0.5,0.3,1,0.5,1.5c0.1,0.4,0.2,0.7,0.4,1.1c0.2,0.5,0.3,1,0.5,1.5
	c0.1,0.4,0.2,0.7,0.4,1.1c0.2,0.5,0.3,1,0.5,1.5c0.1,0.4,0.2,0.7,0.3,1.1c0.2,0.5,0.3,1,0.4,1.5c0.1,0.4,0.2,0.7,0.3,1.1
	c0.1,0.5,0.3,1,0.4,1.5c0.1,0.4,0.2,0.7,0.3,1.1c0.1,0.5,0.3,1,0.4,1.5c0.1,0.4,0.2,0.8,0.3,1.1c0.1,0.5,0.2,1,0.4,1.4
	c0.1,0.4,0.2,0.8,0.3,1.2c0.1,0.5,0.2,1,0.3,1.4c0.1,0.4,0.2,0.8,0.3,1.1c0.1,0.5,0.2,1,0.3,1.4c0.1,0.4,0.2,0.8,0.2,1.1
	c0.1,0.5,0.2,1,0.3,1.4c0.1,0.4,0.2,0.7,0.2,1.1c0.1,0.5,0.2,1,0.3,1.5c0.1,0.3,0.1,0.7,0.2,1.1c0.1,0.5,0.2,1,0.3,1.5
	c0.1,0.3,0.1,0.7,0.2,1c0.1,0.5,0.2,1.1,0.2,1.6c0,0.3,0.1,0.6,0.1,0.8c0.1,0.8,0.2,1.6,0.3,2.4c0.5,3.5,0.9,6.7,1.3,9.6
	c2.9,20.3,3.9,27.9-3.2,47.7c-6.2,17.1-26.4,43-38.5,58.5c-4.5,5.8-7.7,9.9-9.3,12.4c-0.3,0.5-0.7,1.1-1,1.6
	c-0.6,0.9-1.2,1.9-1.8,2.8c-5,8.2-11,19.1-15.1,29.1c-0.4,0.9-0.8,1.9-1.1,2.9c-0.1,0.3-0.2,0.6-0.3,0.9c-0.2,0.7-0.5,1.4-0.7,2
	c-0.1,0.4-0.3,0.8-0.4,1.2c-0.2,0.6-0.4,1.3-0.6,1.9c-0.1,0.4-0.3,0.9-0.4,1.3c-0.2,0.6-0.4,1.3-0.6,1.9c-0.1,0.5-0.2,0.9-0.4,1.4
	c-0.2,0.6-0.3,1.3-0.5,1.9c-0.1,0.5-0.2,0.9-0.3,1.4c-0.2,0.6-0.3,1.3-0.5,2c-0.1,0.5-0.2,1-0.3,1.5c-0.1,0.7-0.3,1.3-0.4,2
	c-0.1,0.5-0.2,1-0.3,1.5c-0.1,0.7-0.3,1.4-0.4,2.1c-0.1,0.5-0.2,1-0.3,1.5c-0.1,0.7-0.2,1.5-0.3,2.2c-0.1,0.5-0.1,1-0.2,1.5
	c-0.1,0.8-0.2,1.7-0.3,2.5c0,0.4-0.1,0.8-0.2,1.3c-0.1,1.3-0.3,2.5-0.4,3.8c0,0.1,0,0.2,0,0.3c-0.1,1.2-0.2,2.4-0.3,3.7
	c0,0.5-0.1,0.9-0.1,1.4c-0.1,0.9-0.1,1.8-0.2,2.6c0,0.6-0.1,1.1-0.1,1.7c0,0.8-0.1,1.6-0.1,2.5c0,0.6,0,1.2-0.1,1.8
	c0,0.5,0,1.1-0.1,1.6c-0.3,0-0.6,0.1-0.9,0.1c-1.7,0.2-3.5,0.4-5.2,0.6c-0.5,0.1-1,0.1-1.5,0.2c-2.1,0.2-4.2,0.4-6.3,0.6
	c-0.4,0-0.8,0.1-1.1,0.1c-1.8,0.1-3.6,0.3-5.4,0.4c-0.5,0-1.1,0.1-1.6,0.1c-2.1,0.1-4.2,0.2-6.4,0.3c-0.1,0-0.1,0-0.2,0L505.1,551.6
	L505.1,551.6z M424.7,567.5c20.5-9.1,42.9-14.6,66.4-15.7v289.4v14.2v4.4c-0.4,0-0.8,0-1.1-0.1c-1.8-0.1-3.6-0.2-5.3-0.3
	c-0.6,0-1.1-0.1-1.7-0.1c-2.2-0.2-4.5-0.4-6.7-0.6c-0.4,0-0.8-0.1-1.2-0.1c-1.9-0.2-3.7-0.4-5.6-0.7c-0.6-0.1-1.3-0.2-1.9-0.3
	c-1.9-0.3-3.9-0.6-5.8-0.9c-0.2,0-0.5-0.1-0.7-0.1c-0.7-21.2-4-39.1-9.9-53.3c-5-12-12.5-25.2-17.9-33.5c-1.6-2.5-4.9-6.7-9.3-12.4
	c-12.1-15.5-32.3-41.4-38.5-58.5c-3.9-10.7-5.4-18-5.4-25.9c0-6.2,0.9-12.7,2.2-21.8c0.4-2.9,0.9-6.1,1.3-9.6
	c3.6-26.8,21.4-68.7,41.3-73.5L424.7,567.5z M385.1,591.3c-8.4,16.8-13.7,35.6-15.4,48.4c-0.5,3.4-0.9,6.6-1.3,9.5
	c-1.3,9.3-2.3,16.6-2.3,23.8c0,9.5,1.8,18.4,6.3,30.7c7,19.2,28,46.2,40.6,62.3c3.9,5.1,7.3,9.4,8.6,11.4
	c5.1,7.8,12.1,20.2,16.7,31.3c3.5,8.4,7.6,22.9,8.7,45.2c-0.5-0.1-1.1-0.2-1.6-0.4c-0.5-0.1-1-0.2-1.5-0.3c-0.7-0.2-1.5-0.4-2.2-0.5
	c-0.5-0.1-0.9-0.2-1.4-0.4c-0.7-0.2-1.5-0.4-2.2-0.6c-0.4-0.1-0.9-0.2-1.3-0.4c-0.8-0.2-1.5-0.4-2.3-0.7c-0.4-0.1-0.8-0.2-1.2-0.4
	c-0.8-0.2-1.6-0.5-2.4-0.7c-0.4-0.1-0.7-0.2-1.1-0.3c-0.9-0.3-1.8-0.6-2.7-0.9c-0.3-0.1-0.5-0.2-0.8-0.2c-2.3-0.8-4.6-1.5-6.9-2.4
	c-0.1,0-0.2-0.1-0.2-0.1c-1-0.4-2.1-0.8-3.1-1.2c-0.3-0.1-0.6-0.2-0.9-0.4c-0.8-0.3-1.6-0.6-2.4-0.9c-0.4-0.2-0.8-0.3-1.2-0.5
	c-0.7-0.3-1.4-0.6-2.1-0.8c-0.4-0.2-0.9-0.4-1.3-0.6c-0.6-0.3-1.3-0.5-1.9-0.8c-0.5-0.2-0.9-0.4-1.4-0.6c-0.6-0.3-1.2-0.5-1.8-0.8
	c-0.5-0.2-0.9-0.4-1.4-0.6c-0.6-0.3-1.2-0.5-1.7-0.8c-0.5-0.2-0.9-0.5-1.4-0.7c-0.6-0.3-1.1-0.5-1.7-0.8c-0.5-0.2-0.9-0.5-1.4-0.7
	c-0.5-0.3-1.1-0.5-1.6-0.8c-0.5-0.3-1-0.5-1.4-0.8c-0.5-0.3-1-0.6-1.6-0.8c-0.5-0.3-1-0.5-1.4-0.8c-0.5-0.3-1-0.6-1.5-0.8
	c-0.5-0.3-0.9-0.5-1.4-0.8c-0.5-0.3-1-0.6-1.5-0.9c-0.5-0.3-0.9-0.6-1.4-0.8c-0.5-0.3-1-0.6-1.4-0.9c-0.5-0.3-0.9-0.6-1.4-0.9
	c-0.5-0.3-0.9-0.6-1.4-0.9c-0.5-0.3-0.9-0.6-1.4-0.9c-0.5-0.3-0.9-0.6-1.4-0.9c-0.5-0.3-0.9-0.6-1.4-0.9c-0.4-0.3-0.9-0.6-1.3-0.9
	c-0.5-0.3-0.9-0.6-1.4-1c-0.4-0.3-0.8-0.6-1.3-0.9c-0.5-0.3-0.9-0.7-1.4-1c-0.4-0.3-0.8-0.6-1.2-0.9c-0.5-0.3-0.9-0.7-1.4-1
	c-0.4-0.3-0.8-0.6-1.2-0.9c-0.4-0.3-0.9-0.7-1.4-1c-0.4-0.3-0.8-0.6-1.1-0.9c-0.5-0.4-0.9-0.7-1.4-1.1c-0.4-0.3-0.7-0.6-1.1-0.9
	c-0.5-0.4-0.9-0.7-1.4-1.1c-0.3-0.3-0.7-0.6-1-0.9c-0.5-0.4-0.9-0.8-1.4-1.2c-0.3-0.3-0.6-0.6-0.9-0.8c-0.5-0.4-0.9-0.8-1.4-1.3
	c-0.3-0.3-0.5-0.5-0.8-0.8c-0.5-0.5-1-0.9-1.5-1.4c-0.2-0.2-0.4-0.4-0.6-0.6c-2.6-2.5-5.1-5.1-7.4-7.7c-0.1-0.1-0.3-0.3-0.4-0.4
	c-0.5-0.5-0.9-1.1-1.4-1.6c-0.2-0.2-0.4-0.4-0.6-0.7c-0.4-0.5-0.8-1-1.2-1.5c-0.2-0.3-0.4-0.5-0.7-0.8c-0.4-0.5-0.8-1-1.2-1.5
	c-0.2-0.3-0.5-0.6-0.7-0.9c-0.4-0.5-0.7-1-1.1-1.4c-0.2-0.3-0.5-0.6-0.7-0.9c-0.4-0.5-0.7-1-1.1-1.4c-0.2-0.3-0.5-0.6-0.7-1
	c-0.3-0.5-0.7-1-1-1.4c-0.2-0.3-0.5-0.7-0.7-1c-0.3-0.5-0.6-0.9-0.9-1.4c-0.2-0.3-0.4-0.7-0.7-1c-0.3-0.5-0.6-1-0.9-1.4
	c-0.2-0.3-0.4-0.7-0.6-1c-0.3-0.5-0.6-1-0.9-1.4c-0.2-0.3-0.4-0.7-0.6-1c-0.3-0.5-0.5-1-0.8-1.4c-0.2-0.3-0.4-0.7-0.6-1.1
	c-0.3-0.5-0.5-1-0.8-1.4c-0.2-0.4-0.4-0.7-0.6-1.1c-0.2-0.5-0.5-1-0.7-1.4c-0.2-0.4-0.4-0.7-0.5-1.1c-0.2-0.5-0.5-1-0.7-1.5
	c-0.2-0.4-0.3-0.7-0.5-1.1c-0.2-0.5-0.4-1-0.7-1.5c-0.2-0.4-0.3-0.8-0.5-1.1c-0.2-0.5-0.4-1-0.6-1.5c-0.2-0.4-0.3-0.8-0.5-1.1
	c-0.2-0.5-0.4-1-0.6-1.5c-0.1-0.4-0.3-0.8-0.4-1.2c-0.2-0.5-0.4-1-0.5-1.5c-0.1-0.4-0.3-0.8-0.4-1.2c-0.2-0.5-0.3-1-0.5-1.5
	c-0.1-0.4-0.2-0.8-0.4-1.2c-0.2-0.5-0.3-1-0.5-1.5c-0.1-0.4-0.2-0.8-0.3-1.2c-0.1-0.5-0.3-1-0.4-1.5c-0.1-0.4-0.2-0.8-0.3-1.2
	c-0.1-0.5-0.3-1-0.4-1.5c-0.1-0.4-0.2-0.8-0.3-1.2c-0.1-0.5-0.2-1-0.3-1.5c-0.1-0.4-0.2-0.8-0.3-1.3c-0.1-0.5-0.2-1-0.3-1.5
	c-0.1-0.4-0.1-0.9-0.2-1.3c-0.1-0.5-0.2-1-0.2-1.4c-0.1-0.6-0.2-1.3-0.3-1.9c-0.1-0.7-0.2-1.3-0.2-2c-0.1-0.6-0.1-1.1-0.2-1.7
	c0-0.4-0.1-0.8-0.1-1.2c0-0.5-0.1-1-0.1-1.6c0-0.4-0.1-0.8-0.1-1.2c0-0.5-0.1-1-0.1-1.4C317.5,671.1,344.6,623,385.1,591.3z
	 M320.4,788.6c0.1,0.1,0.1,0.2,0.2,0.2c0.8,1.2,1.5,2.3,2.3,3.4c0.2,0.3,0.4,0.5,0.6,0.8c0.6,0.9,1.3,1.8,2,2.7
	c0.2,0.3,0.5,0.7,0.7,1c0.8,1.1,1.6,2.1,2.5,3.2c0,0,0.1,0.1,0.1,0.2c0.9,1.1,1.8,2.2,2.7,3.3c0.3,0.3,0.5,0.6,0.8,1
	c0.7,0.9,1.5,1.7,2.3,2.6c0.2,0.3,0.5,0.5,0.7,0.8c1,1.1,2,2.1,3,3.2c0.2,0.3,0.5,0.5,0.7,0.7c0.8,0.8,1.7,1.7,2.5,2.5
	c0.3,0.3,0.6,0.6,0.9,0.9c1.1,1,2.2,2.1,3.3,3.1c1.6,1.5,3.3,3,5,4.4c13.6,11.5,29.6,21.5,47.2,29.5c0,0,0,0,0,0
	c2.1,1,4.2,1.9,6.4,2.8c0.1,0,0.2,0.1,0.3,0.1c2,0.8,4,1.6,6,2.4c0.3,0.1,0.5,0.2,0.8,0.3c1.9,0.7,3.9,1.4,5.8,2.1
	c0.4,0.1,0.8,0.3,1.1,0.4c1.8,0.6,3.6,1.2,5.4,1.8c0.5,0.2,1.1,0.4,1.6,0.5c1.7,0.5,3.4,1,5.1,1.5c0.7,0.2,1.4,0.4,2.1,0.6
	c1.6,0.4,3.1,0.8,4.7,1.2c0.9,0.2,1.7,0.5,2.6,0.7c1.5,0.4,3,0.7,4.4,1c1,0.2,1.9,0.5,2.9,0.7c0,0.1,0,0.2,0,0.3
	c-0.1,1.1-0.2,2.1-0.3,3.2c0,0.1,0,0.3-0.1,0.4c-0.1,1.1-0.3,2.2-0.5,3.2c0,0,0,0,0,0c-0.2,1-0.4,2.1-0.7,3.1c0,0.1-0.1,0.3-0.1,0.4
	c-0.3,1-0.5,1.9-0.8,2.8c-0.1,0.2-0.1,0.3-0.2,0.5c-0.3,0.9-0.6,1.8-1,2.6c-0.1,0.2-0.1,0.3-0.2,0.5c-0.4,0.9-0.7,1.7-1.1,2.6
	c-0.1,0.1-0.1,0.2-0.2,0.3c-0.4,0.8-0.8,1.7-1.3,2.5c0,0,0,0.1,0,0.1c-0.4,0.8-0.9,1.6-1.4,2.4c-0.1,0.1-0.1,0.2-0.2,0.3
	c-0.4,0.8-0.9,1.5-1.4,2.2c-0.1,0.1-0.2,0.2-0.2,0.4c-0.5,0.7-0.9,1.4-1.4,2.1c-0.1,0.1-0.2,0.2-0.2,0.3c-0.5,0.7-1,1.3-1.5,2
	c0,0-0.1,0.1-0.1,0.1c-0.5,0.7-1,1.3-1.5,1.9c0,0,0,0-0.1,0.1c-0.5,0.6-1,1.2-1.5,1.8c-0.1,0.1-0.1,0.1-0.2,0.2
	c-0.5,0.6-1,1.1-1.5,1.7c-0.1,0.1-0.1,0.1-0.2,0.2c-0.5,0.5-1,1.1-1.5,1.6c0,0,0,0-0.1,0.1c-0.5,0.5-1,1-1.4,1.5
	C373.6,886.7,335.4,842.1,320.4,788.6z M491.1,924.3c-17.3-0.8-34.3-4-50.7-9.5c0,0,0,0,0,0c0.4-0.5,0.9-1,1.3-1.5
	c0.1-0.2,0.3-0.3,0.4-0.5c0.4-0.5,0.8-0.9,1.2-1.4c0.1-0.1,0.2-0.2,0.2-0.3c0.5-0.6,0.9-1.1,1.4-1.7c0.1-0.2,0.3-0.4,0.4-0.5
	c0.4-0.5,0.8-1.1,1.2-1.6c0.1-0.1,0.2-0.2,0.2-0.3c0.5-0.6,0.9-1.3,1.4-2c0.1-0.2,0.3-0.4,0.4-0.6c0.4-0.6,0.8-1.2,1.2-1.8
	c0.1-0.1,0.2-0.2,0.2-0.3c0.5-0.7,0.9-1.4,1.3-2.2c0.1-0.2,0.2-0.4,0.4-0.6c0.4-0.7,0.8-1.3,1.1-2c0.1-0.1,0.1-0.2,0.2-0.4
	c0.4-0.8,0.8-1.6,1.2-2.4c0.1-0.2,0.2-0.5,0.3-0.7c0.3-0.7,0.7-1.5,1-2.2c0.1-0.2,0.1-0.3,0.2-0.4c0.4-0.9,0.7-1.8,1-2.7
	c0.1-0.2,0.2-0.5,0.3-0.7c0.3-0.8,0.6-1.6,0.8-2.4c0.1-0.2,0.1-0.3,0.2-0.5c0.3-1,0.6-1.9,0.8-2.9c0.1-0.3,0.1-0.5,0.2-0.8
	c0.2-0.9,0.4-1.8,0.6-2.7c0-0.2,0.1-0.3,0.1-0.5c0.2-1,0.4-2.1,0.5-3.1c0-0.3,0.1-0.6,0.1-0.8c0.1-0.9,0.2-1.9,0.3-2.9
	c0-0.1,0-0.2,0-0.3l0.3,0.1l0-0.1c1.5,0.2,3,0.4,4.5,0.6c0.9,0.1,1.8,0.3,2.7,0.4c1.7,0.2,3.4,0.4,5.2,0.6c0.8,0.1,1.5,0.2,2.3,0.3
	c1.9,0.2,3.7,0.3,5.6,0.5c0.7,0,1.3,0.1,2,0.2c2.5,0.2,5,0.3,7.6,0.4v0.1L491.1,924.3L491.1,924.3z M505.1,924.4V874v-0.2
	c2.2,0,4.3-0.1,6.5-0.2c0.5,0,0.9,0,1.4-0.1c2.1-0.1,4.3-0.2,6.4-0.4c0.3,0,0.6,0,0.8-0.1c1.9-0.1,3.8-0.3,5.8-0.5
	c0.4,0,0.9-0.1,1.3-0.1c2.1-0.2,4.1-0.5,6.2-0.7c0,0,0.1,0,0.1,0v0.1l0.4-0.1c2.1,20.8,13.3,35.4,21.6,44.4
	C539.6,921.1,522.6,924,505.1,924.4z M570,910.9C570,910.9,570,910.9,570,910.9c-7.3-7.5-20.5-21-22.2-41.5c0.3-0.1,0.6-0.1,0.9-0.2
	c1.2-0.2,2.3-0.4,3.5-0.7c0.5-0.1,1-0.2,1.5-0.3c1.6-0.3,3.2-0.7,4.8-1.1c0.1,0,0.2,0,0.3-0.1c1.5-0.4,3-0.7,4.5-1.1
	c0.5-0.1,1-0.3,1.5-0.4c1.1-0.3,2.3-0.6,3.4-0.9c0.5-0.1,1-0.3,1.5-0.4c1.3-0.4,2.5-0.7,3.8-1.1c0.3-0.1,0.6-0.2,0.9-0.3
	c1.5-0.5,3.1-0.9,4.6-1.4c0.4-0.1,0.8-0.3,1.2-0.4c1.1-0.4,2.2-0.8,3.4-1.1c0.5-0.2,1-0.3,1.5-0.5c1.1-0.4,2.2-0.8,3.3-1.2
	c0.4-0.2,0.8-0.3,1.2-0.4c1.5-0.6,2.9-1.1,4.4-1.7c0.3-0.1,0.5-0.2,0.8-0.3c1.2-0.5,2.3-1,3.5-1.5c0.5-0.2,0.9-0.4,1.4-0.6
	c1-0.4,2-0.9,3-1.3c0.4-0.2,0.9-0.4,1.3-0.6c1.3-0.6,2.6-1.2,3.9-1.8c0.1,0,0.2-0.1,0.3-0.1c1.4-0.7,2.7-1.3,4.1-2
	c0.4-0.2,0.8-0.4,1.3-0.6c0.9-0.5,1.9-1,2.8-1.5c0.4-0.2,0.9-0.5,1.3-0.7c1-0.6,2-1.1,3-1.7c0.3-0.2,0.6-0.3,0.9-0.5
	c1.3-0.7,2.5-1.5,3.8-2.2c0.3-0.2,0.7-0.4,1-0.6c0.9-0.6,1.9-1.1,2.8-1.7c0.4-0.3,0.8-0.5,1.3-0.8c0.9-0.6,1.7-1.1,2.6-1.7
	c0.4-0.2,0.7-0.5,1.1-0.7c1.2-0.8,2.4-1.6,3.5-2.4c0.2-0.1,0.4-0.3,0.6-0.4c1-0.7,1.9-1.4,2.9-2.1c0.4-0.3,0.8-0.6,1.1-0.9
	c0.8-0.6,1.6-1.2,2.3-1.8c0.4-0.3,0.7-0.6,1.1-0.9c0.9-0.8,1.9-1.5,2.8-2.3c0.2-0.1,0.3-0.3,0.5-0.4c1.1-0.9,2.1-1.8,3.1-2.7
	c0.3-0.3,0.6-0.6,1-0.9c0.7-0.7,1.5-1.3,2.2-2c0.3-0.3,0.7-0.6,1-1c0.8-0.7,1.5-1.4,2.2-2.2c0.2-0.2,0.5-0.5,0.8-0.7
	c1-1,1.9-1.9,2.8-2.9c0.2-0.2,0.4-0.5,0.7-0.7c0.7-0.8,1.4-1.5,2.1-2.3c0.3-0.3,0.6-0.7,0.9-1c0.6-0.7,1.3-1.5,1.9-2.2
	c0.3-0.3,0.5-0.6,0.8-0.9c0.9-1,1.7-2.1,2.6-3.1c0.1-0.1,0.1-0.2,0.2-0.2c0.8-1,1.5-1.9,2.3-2.9c0.3-0.3,0.5-0.6,0.7-1
	c0.6-0.8,1.1-1.6,1.7-2.3c0.2-0.3,0.5-0.7,0.7-1c0.7-0.9,1.3-1.9,1.9-2.8c0.1-0.1,0.2-0.2,0.3-0.4
	C662.9,845.3,622.3,889.7,570,910.9z"/>
<path class="st16" d="M778.3,84.9c0,0-166.9-63.6-280.2-63.6c0,199,0,608.3,0,965.4C923.1,845.3,948,250.1,948,250.1
	c-1.5,0-2.9,0.1-4.4,0.1C852.3,250.2,778.3,176.2,778.3,84.9z"/>
<path class="st16" d="M220.3,84.9c0,0,166.9-63.6,280.2-63.6c0,199,0,608.3,0,965.4c-425.1-141.4-450-736.6-450-736.6
	c1.5,0,2.9,0.1,4.4,0.1C146.3,250.2,220.3,176.2,220.3,84.9z"/>
<path class="st13" d="M766.1,103.2c0,0-159.6-60.8-268-60.8c0,190.3,0,581.7,0,923.2c406.5-135.2,430.3-704.4,430.3-704.4
	c-1.4,0-2.8,0.1-4.2,0.1C836.8,261.3,766.1,190.5,766.1,103.2z"/>
<path class="st13" d="M232.5,103.2c0,0,159.6-60.8,268-60.8c0,190.3,0,581.7,0,923.2C94,830.4,70.2,261.2,70.2,261.2
	c1.4,0,2.8,0.1,4.2,0.1C161.7,261.3,232.5,190.5,232.5,103.2z"/>
<path class="st25" d="M739.8,144c0,0-143.3-54.6-240.7-54.6c0,170.9,0,522.5,0,829.1c365.1-121.4,386.5-632.6,386.5-632.6
	c-1.3,0-2.6,0.5-3.8,0.1C808.3,263.8,754.8,217.5,739.8,144z"/>
<path class="st25" d="M259.6,144c0,0,143.3-54.6,240.7-54.6c0,170.9,0,522.5,0,829.1C135.3,797.1,113.9,285.9,113.9,285.9
	c1.3,0,2.6,0.5,3.8,0.1C191.2,263.8,244.7,217.5,259.6,144z"/>
<polygon class="st13" points="168.1,573.5 184.7,631.2 324.5,837.5 499.6,930.4 686.3,827.7 825.2,629.2 834,576.4 "/>
<path class="st26" d="M500.1,944.1c36,0,128.3-63.2,134.6-73.9c0-4.4-10.1,27.9-134.6,27.9C500.1,977.6,500.1,917.1,500.1,944.1z"/>
<path class="st27" d="M499.8,944.1c-36,0-128.3-63.2-134.6-73.9c0-4.4,10.1,27.9,134.6,27.9C499.8,977.6,499.8,917.1,499.8,944.1z"
	/>
<path class="st27" d="M497,102.1l91.6,128.8l132.2-47.5c0,0-43.5,75.1-75,132.9c-0.8,1.4-9.1,16.9-9.9,18.3
	c-23.4-36.6-66.4-79.1-139-79.2C497,128.5,497,102.1,497,102.1z"/>
<path class="st28" d="M589.2,517c-6-4.2-11.6-8.9-16.9-14.1c-21.8-21.8-34.4-50.5-35.8-81.1h-33.9v130.9
	C536,551.3,566.2,538,589.2,517L589.2,517z"/>
<path class="st28" d="M547.7,421.7c1.8,36.4,21.1,68.2,49.6,87.2c21.4-23.1,34.9-53.6,36.3-87.2H547.7z"/>
<path class="st29" d="M502.7,410.6h33.9c1.4-30.7,13.9-59.3,35.8-81.2c5.3-5.3,10.9-10,16.9-14.1c-23-21-53.2-34.3-86.5-35.6V410.6
	L502.7,410.6z"/>
<path class="st29" d="M547.7,410.6h85.9c-1.4-33.6-14.9-64.1-36.3-87.2C568.8,342.4,549.5,374.2,547.7,410.6L547.7,410.6z"/>
<path class="st29" d="M405,315.3c6,4.2,11.6,8.9,16.9,14.1c21.8,21.9,34.4,50.5,35.8,81.2h33.9V279.7C458.2,281,428,294.3,405,315.3
	L405,315.3z"/>
<path class="st28" d="M491.5,421.7h-33.9c-1.4,30.7-14,59.3-35.8,81.1c-5.3,5.3-10.9,10-16.9,14.1c23,21,53.2,34.3,86.5,35.6
	L491.5,421.7L491.5,421.7z"/>
<path class="st29" d="M446.5,410.6c-1.8-36.4-21.1-68.2-49.6-87.2c-21.4,23.1-34.9,53.6-36.3,87.2L446.5,410.6L446.5,410.6z"/>
<path class="st28" d="M446.5,421.7h-85.9c1.4,33.6,14.9,64.1,36.3,87.2C425.4,489.9,444.7,458.1,446.5,421.7L446.5,421.7z"/>
<path class="st26" d="M495.9,102.1l-91.6,128.8L272,183.4c0,0,43.5,75.1,75,132.9c0.7,1.4,9.1,16.9,9.9,18.3
	c23.5-36.6,66.4-79.1,139-79.2C495.9,128.5,495.9,102.1,495.9,102.1z"/>
<path class="st30" d="M834.1,700.8L818.4,392c0,0-0.1-73.7-0.1-77.1c-4.5-3.6-42.6-29.7-53.6-32.6c-5.9-1.6-135.9-89.8-281.5-94.2
	c-148.9-4.6-313.4,74.6-313.4,74.6l7.9,358.8l0.3,76.9l54.9,32.3l260.9,175.7L834.1,700.8z"/>
<path class="st31" d="M177.9,698.3c0-8.2,0-16.7,0-25.3l-75.6,43.7c0,8,0,15.9,0,23.7c0,0,0,0,0.1,0c0.3,0.6,3,2.2,9.8,6.3
	l74.5-43.1C183.8,701.8,180.8,700.1,177.9,698.3z M102.9,740.2C102.9,740.2,103,740.2,102.9,740.2c0.2,0,0.3,0,0.5,0
	C103.5,740.2,103.1,740.3,102.9,740.2z"/>
<path class="st32" d="M780.9,290.7c4.6,2.6,9.1,5.2,13.5,7.9l72.7-42c-3.9-3-8-5.9-12.1-8.7L780.9,290.7z"/>
<path class="st33" d="M102.3,698.9l75.6-43.7c0-5.2,0-10.4,0-15.7l-75.6,43.7C102.3,688.4,102.3,693.6,102.3,698.9z"/>
<path class="st31" d="M818.2,314.9c0,7.6,0,15.4,0,23.4l75.6-43.7c0-5.1,0-10.1,0-15.1c-4.4-4.3-9-8.4-13.8-12.5l-71.2,41.1
	C812,310.4,815.2,312.6,818.2,314.9z"/>
<path class="st33" d="M893.8,312.5l-75.6,43.7c0,5.9,0,11.8,0,17.8l75.6-43.7C893.8,324.3,893.8,318.4,893.8,312.5z"/>
<path class="st34" d="M217.3,721.5c-5.1-3-10.2-6-15.3-9l-74.4,43c5.2,3,10.3,5.9,15.5,8.9L217.3,721.5z"/>
<path class="st35" d="M498,974.1c0-31.5-0.1-65.5-0.1-90C412.6,835.7,320,781.8,232.6,730.5l-74,42.8
	C273,838.9,387.3,904.7,498,974.1"/>
<path class="st35" d="M498,974.1c125.3-78.6,255.2-152.5,384.7-226.8c9.4-4.9-0.8,0.5,11.3-5.9c0-1.1-0.1-2.1-0.1-3.2
	c0-119.1,0-263.4,0-390.1l-75.6,43.7c0,99.3,0,216.3,0,306.4c-103.8,61.2-215.1,126.1-320.2,185.8C498.1,908.6,498,942.6,498,974.1"
	/>
<path class="st35" d="M798.7,216.1l-0.3-89.5c-98-60.3-299.9-78.1-299.9-78.1c0,0-202.1,18.2-300.1,78.4l0.1,88.7
	c-38.1,17.9-70.9,39.3-96,63.9c0,117.6,0,259.8,0,385.8l75.6-43.7c0-102.2,0-219.7,0-306.6c75.1-57.2,198.4-88.1,320.2-88.2
	c0-26.2,0-36.5,0-47.4c0,10.9,0,21.2,0,47.4c96.1,0.1,193,19.3,266.6,55.5l75.7-43.8C827.4,230.5,813.4,223,798.7,216.1z"/>
<path class="st31" d="M387.8,148.2C387.8,148.2,387.8,148.2,387.8,148.2c0.2,0.1,0.3,0.2,0.5,0.3
	C388.3,148.6,387.9,148.4,387.8,148.2z"/>
<polygon class="st35" points="501.9,969.7 498,974 493.3,969.7 493.3,884.1 501.9,884.1 "/>
<rect x="778.8" y="676.3" class="st21" width="160.1" height="21.7"/>
<rect x="853.7" y="528.3" class="st21" width="85.2" height="21.7"/>
<rect x="60.5" y="676.3" class="st21" width="192.5" height="21.7"/>
<rect x="60.5" y="528.3" class="st21" width="85.2" height="21.7"/>
<polygon class="st36" points="175.5,676.3 60.5,676.3 118,610.3 60.5,549.9 175.5,549.9 "/>
<polygon class="st36" points="824,676.3 938.9,676.3 881.4,610.3 938.9,549.9 824,549.9 "/>
<polygon class="st21" points="829.3,743.5 500.6,927.5 170.1,743.5 170.1,348.7 500.6,162.4 829.3,348.7 "/>
<path class="st20" d="M500.6,935.2L163.3,747.5V344.7l337.4-190.1l335.4,190.1v402.7L500.6,935.2z M176.9,739.5l323.7,180.2
	l321.8-180.2V352.6L500.6,170.2L176.9,352.7C176.9,352.7,176.9,739.5,176.9,739.5z"/>
<path class="st37" d="M830.7,87.5c-10.7,0-19.4,8.7-19.4,19.4c0,7.5,4.3,14,10.5,17.3L709.7,365.2l-30-268.3
	c9.6-1.8,16.8-10.3,16.8-20.4c0-11.5-9.3-20.8-20.8-20.8c-11.5,0-20.8,9.3-20.8,20.8c0,8.7,5.4,16.2,13,19.2l-94.5,264.3L510.3,94.7
	c9-3,15.6-11.5,15.6-21.6c0-12.6-10.2-22.7-22.7-22.7c-12.5,0-22.7,10.2-22.7,22.7c0,9.6,6,17.8,14.4,21.1l-60.4,270.4L337.7,94.2
	c5.9-3.7,9.9-10.2,9.9-17.7c0-11.5-9.3-20.8-20.8-20.8c-11.5,0-20.8,9.3-20.8,20.8c0,10.6,8,19.3,18.2,20.6l-29.4,263.4L183.9,122.1
	c5.6-3.4,9.3-9.6,9.3-16.6c0-10.7-8.7-19.4-19.4-19.4s-19.4,8.7-19.4,19.4s8.7,19.4,19.4,19.4c1.3,0,2.5-0.1,3.7-0.4L215,360.8
	c-0.4,0-0.7-0.1-1.1-0.1c0,0-14.2,13.6,0.4,26.3c-0.3,19.5-0.6,49.6-0.4,71.2c0,0,0-0.1-0.1-0.1c0,0-8.1,24.6,2.3,38.2
	c12.8,0,555.4,0,573.9,0c14.2-14.7-0.1-38.2-0.1-38.2v-71c13.6-14.2,1.9-24.9,0.2-26.4l37.3-234.8c1,0.2,2.1,0.3,3.2,0.3
	c10.7,0,19.4-8.7,19.4-19.4C850.1,96.2,841.4,87.5,830.7,87.5z"/>
<polygon class="st37" points="497.4,902.6 225.9,751.5 215.7,744.3 746.9,728.9 790,744.4 775.3,751.5 "/>
<rect x="216" y="496" class="st37" width="574" height="68.6"/>
<rect x="132.9" y="520.2" class="st38" width="734.4" height="143.4"/>
<rect x="132.9" y="498.6" class="st21" width="734.4" height="21.7"/>
<rect x="132.9" y="663.6" class="st21" width="734.4" height="21.7"/>
<rect x="215.7" y="686" class="st37" width="574.4" height="58.3"/>
<path class="st39" d="M221.5,512.1c-20.5,36.4,12.6,74.2,28.2,79.3c22-33.5,32.3-67.7,24.9-93.3c-3.5-12-7.3-22.1-12.6-30.8
	c74.2-21,147.4-47.1,222.4-64.3c1,5.1,2,10.6,3,16.4c7.3,45.2,3.2,82.9-29.3,143c9.3-0.3,82.6-0.1,60,37.4
	c-16.9,28.5,83.2-117.5,83.2,89.1l-64.5,43.8C296.3,802.6,214,672.4,196.2,637C181.4,607.4,165.8,542.1,221.5,512.1z"/>
<path class="st39" d="M75.7,244.6c-10,51.6,94.8,16.4,74.3-18.6c-29.8-50.9-35.4-104,33.4-167.8c-27,63.9-4.9,132.1,12.4,150.7
	c37.8,40.1,73,56.7,92.4,117.9c3.9,12.1,10.8,33.1,9.6,59.3c15.5-17.2,32-43.1,23.1-85.1c-4.3-20.1-13.4-36.9-26.2-51.9
	c-22.5-27.1-90.2-59.5-67.4-120.9c-0.1,6.7,38.4,42.8,57.9,35.6c18.1-6.7,17.9-55.5,2.7-79c43-3.4,152,213,169.6,232.5
	c25.8,28.8,36.5,49.3,43.8,83.7c-75.4,17.3-148.7,43.4-223.2,64.5c-5.5-8.5-12.6-15.6-22.4-21.5c-28.8-17.4-58.7-15.9-86.7-24
	c-34.9-10-68.1-34.3-86.9-55.4C55.9,335.1,45.3,287.2,75.7,244.6z"/>
<path class="st39" d="M794.9,512.1c20.5,36.4-12.6,74.2-28.2,79.3c-22-33.5-32.3-67.7-24.9-93.3c3.5-12,7.3-22.1,12.6-30.8
	C680.2,446.3,607,420.2,532,403c-1,5.1-2,10.6-3,16.4c-7.3,45.2-3.2,82.9,29.3,143c-9.3-0.3-82.6-0.1-60,37.4
	c16.9,28.5-83.2-117.5-83.2,89.1l64.5,43.8c240.4,69.9,322.7-60.3,340.5-95.7C835,607.4,850.6,542.1,794.9,512.1z"/>
<path class="st39" d="M939.7,244.6c10,51.6-94.8,16.4-74.3-18.6c29.8-50.9,35.4-104-33.4-167.8c27,63.9,4.9,132.1-12.4,150.7
	c-37.8,40.1-73,56.7-92.4,117.9c-3.9,12.1-10.8,33.1-9.6,59.3c-15.5-17.2-32-43.1-23.2-85.1c4.3-20.1,13.4-36.9,26.2-51.9
	c22.5-27.1,90.2-59.5,67.4-120.9c0.1,6.7-38.4,42.8-57.9,35.6c-18.1-6.7-17.9-55.5-2.7-79c-43-3.4-152,213-169.6,232.5
	c-25.8,28.8-36.5,49.3-43.8,83.7c75.4,17.3,148.7,43.4,223.2,64.5c5.5-8.5,12.6-15.6,22.4-21.5c28.8-17.4,58.7-15.9,86.7-24
	c34.9-10,68.1-34.3,86.8-55.4C959.4,335.1,970.1,287.2,939.7,244.6z"/>
<path class="st40" d="M154.4,141.4c0,377.5,158.5,683.5,354,683.5c195.5,0,354-306,354-683.5C862.3,42.7,154.4,42.7,154.4,141.4z"/>
<path class="st41" d="M187.7,151.4c0,339.7,142.6,615.1,318.6,615.1c175.9,0,318.6-275.4,318.6-615.1
	C824.9,62.5,187.7,62.5,187.7,151.4z"/>
<path class="st42" d="M229.4,255.1c34.1,277.8,110.1,342.4,152,353.5c56.5-45.8,124.1-50.9,124.1-50.9l0,0c0.3,0,0.5-11.2,0.6-29.2
	c0.1,18,0.3,29.2,0.6,29.2l0,0c0,0,67.6,5,124.1,50.9c41.9-11.1,117.9-75.7,152-353.5C768.8,255.1,243.5,255.1,229.4,255.1z"/>
<path class="st43" d="M507.7,107.8c0,0.1,0,0.9,0,2.3C507.7,109,507.7,108.2,507.7,107.8c-148.6,0-297,32.2-297,45.6
	c0,47.2,21.5,50.1,21.5,91.2c48,0,187.7-0.2,275.6-0.2c0,0,0.1,0,0.1,0c88,0,227.9,0.2,275.9,0.2c0-41.1,21.4-44,21.4-91.2
	C805.2,140,657.3,107.8,507.7,107.8z"/>
<path class="st39" d="M803.9,517.7c-2.8-2-5.8-3.8-9-5.6c2.9,5.1,4.7,10.2,5.6,15.2C800.6,527.4,802.1,523,803.9,517.7z"/>
<path class="st39" d="M212.2,517.7c2.8-2,5.8-3.8,9-5.6c-2.9,5.1-4.7,10.2-5.6,15.2C215.5,527.4,214,523,212.2,517.7z"/>
<path class="st41" d="M313.2,745c0,103.3,83.7,187,187,187c103.3,0,187-83.7,187-187c0-103.2-83.7-187-187-187
	C396.9,558,313.2,641.7,313.2,745z"/>
<path class="st39" d="M500.1,932c127.7,0,203.7-118.3,184.3-218.7c6.2,38.3-43.6,40.1-66,55.8c-28.9,19.7-26.3,51.9-10.5,76.9
	c-25.9-7.2-40.1-28.3-44-41.4c-18.4-69.7,109.7-116.7,64.8-223c2.1,49.1-46.4,94-95.1,113c14.9-13.5,29.2-33.3,37.3-47.7
	c17.1-30.2,20.6-53.3,15.4-87.5c-5.3-36.8-30.2-66.4-60.5-90.7c13.1,14.5,19.7,42.1,5.3,57.9c3.9-35.5-25-57.9-50-78.9
	c-30.2-25-55.2-84.2-25.6-120.3c-30.9,31.6-35.5,68.4-31.5,90.7c2.6,18.4,15.1,36.2,25.6,51.9c11.8,17.1,27.6,32.9,38.1,51.3
	c19.7,38.1,24.5,80.9-13.7,101.9c3.9-17.1,3.6-37.3,0.6-54.6c-5.3-29.6-23-54.6-54.6-67.1c27.5,16.8,32.9,51.9,30.2,76.9
	c-2.6,21-15.8,41.4-30.2,57.2c-25,27.6-57.2,60.5-44,99.9c6.6,22.4,31.6,46.7,51.3,59.8c-80.7,0-111.8-107.6-93-136.5
	c-46,86.1-14.9,203.9,77.9,251.6C435.1,922.3,455.1,930.3,500.1,932L500.1,932z"/>
<polygon class="st44" points="507.2,223.5 507.2,223 70.9,223 223.4,588.1 505.6,588.1 505.6,588.5 768.6,588.5 941.9,223.5 "/>
<polygon class="st44" points="499.9,777.5 499.9,777.2 335.7,777.2 499.3,976 499.3,977 499.8,976.5 499.9,976.7 499.9,976.3 
	663.6,777.5 "/>
<path class="st44" d="M929.6,511.7c0,234.3-190,424.3-424.3,424.3C271,935.9,81.1,746,81.1,511.7c0-234.3,190-424.3,424.3-424.3
	C739.6,87.4,929.6,277.4,929.6,511.7z"/>
<path class="st14" d="M505.3,111C727.2,111,907,290.9,907,512.7c0,221.9-179.8,401.7-401.7,401.7S103.6,734.6,103.6,512.7
	C103.6,290.9,283.5,111,505.3,111z"/>
<path class="st13" d="M886.5,512.7c0,210.5-170.7,381.2-381.2,381.2S124.1,723.3,124.1,512.7c0-210.5,170.7-381.2,381.2-381.2
	S886.5,302.2,886.5,512.7z"/>
<path class="st26" d="M471.8,714.1L334.5,601L319,569.2l13.2-228.9c0,0-266.8,101.1-266.8,503.8C103,758.4,129.6,731.1,167.8,712
	c-15.7,20.8-51.2,42.1-49,102.9c40.8-65.2,66.6-74.5,122.2-91.6c6.6-2-51,27.8-72.8,68.8c116.1-81.2,228.6-83.9,305.9-73.7
	L471.8,714.1z"/>
<path class="st1" d="M636.1,253.2c7.6-6.5,10.4-23.3,12.8-38.2c0.1-0.6,0.2-1.3,0.3-1.9c-8.1-2.6-16.4-4.9-24.9-6.8
	c-32.5-7.2-65-8.1-96.1-3.6c18.3,14.4,46.3,38.4,76,71.2C618.5,266.2,629.7,258.7,636.1,253.2L636.1,253.2z"/>
<path class="st1" d="M735.4,431.6c-13.2-1.4-24.5-1.7-34.5-0.8c27.2,87.3,22.8,189.1,11.3,261c53.9-35.1,95.3-89.5,112.8-156
	C803,491.8,773.4,435.6,735.4,431.6L735.4,431.6z"/>
<path class="st1" d="M486.3,306.2c32.6,0.4,65.4-8.8,92.5-20.2c-41.3-44.4-78.1-70.8-85.5-75.9c-56.6,16.1-106.8,50.7-142,98.3
	c33.3-5.4,67.8-4.3,101.7-3.1C464,305.7,475.4,306.1,486.3,306.2L486.3,306.2z"/>
<path class="st1" d="M665.2,353.8c2.2,3.4,4.3,6.9,6.4,10.4c7.8,12.9,14.4,26.7,20.2,40.9c13.4-1.9,28.6-2,46.4-0.1
	c42,4.4,71.2,44.9,94.5,87.6c5.3-55.6-7.1-109.7-33.1-156.1c-19.4-1.9-41.3-2.7-64.2-1.1C720.5,336.5,695.6,343,665.2,353.8
	L665.2,353.8z"/>
<path class="st1" d="M600.9,481.1c18.8-33.9,37-57.3,64.8-69c-4.9-12-10.5-23.4-17-34.1c-3-5-6-9.8-9.1-14.5
	c-111,44.3-269.9,135.6-305.1,237.5c30.4,52.8,78.6,95,138.5,117.3c32.4-39.8,73.8-126.2,98.4-177.6
	C583.2,516,593.4,494.7,600.9,481.1L600.9,481.1z"/>
<path class="st1" d="M504.3,399.3c40.5-23.5,82.2-43.5,119.6-58.6c-8.7-12-17.6-23.2-26.5-33.7c-31.5,14.3-71.2,26.5-111.5,25.9
	c-11.3-0.1-22.7-0.5-33.9-0.9c-42.8-1.5-83.8-2.8-121.1,8.3c-11.5,21.3-20.3,44.5-25.8,69.3c-12.3,55.5-6.3,110.7,13.8,159.6
	C354.9,497.8,436.8,438.6,504.3,399.3L504.3,399.3z"/>
<path class="st1" d="M649.7,330.8c35.5-12.9,65.3-20.7,83.8-22c16.6-1.2,32.7-1.2,47.8-0.5c-27.1-36.5-63.4-66.4-106.6-85.4
	c-3,18.5-7,38.6-21.2,50.7c-6.7,5.7-17.7,13.3-31.4,21C631.3,305.8,640.7,317.9,649.7,330.8L649.7,330.8z"/>
<path class="st1" d="M624.4,494c-7.1,12.9-17.2,33.9-28.8,58.2c-34.3,71.7-66.1,135.7-95.4,174.5c2.8,0.7,5.5,1.5,8.3,2.1
	c60.9,13.5,121.5,5,173.6-20.1c14.7-74.6,20.2-183.6-7.4-271.5C654.5,446.3,640.7,464.6,624.4,494L624.4,494z"/>
<path class="st1" d="M322.2,755.1v15.5l-4.1,2.2l3.7,1.7v16.2l-6.6,3.3h-30.9V752h31.3L322.2,755.1z M309.4,757.6h-14.3v12.1h14.3
	V757.6z M309.4,775.7h-14.3v12.7h14.3V775.7z"/>
<path class="st1" d="M366.3,752l7.2,42L362,794l-1.6-10.9h-15.7l-2.6,10.9l-11-0.1l8.9-42H366.3z M358.9,777.6l-2.8-20.3H350
	l-4,20.3H358.9z"/>
<path class="st1" d="M381.4,755.5l7.1-3.5h25.5l6.1,3.1v4.3h-11.2v-1.8h-15.6v12.3h19.9l6.9,3.3v17.3l-7.2,3.5L388,794l-6.7-3.3
	v-4.3h11.2v1.8h15.6v-12.9h-20.4l-6.3-2.9V755.5z"/>
<path class="st1" d="M454.9,794L444.6,777l-5.5,6.4v10.5h-11.9V752h11.9v16.2l13.4-16.2h12.8l-13.8,16.7L467,794H454.9L454.9,794z"
	/>
<path class="st1" d="M512,752v5.5h-26.2v12.4h15.1v5.7h-15.1v12.8h26.3v5.7h-38v-42L512,752z"/>
<path class="st1" d="M556,757.7h-13.8V794h-11.5v-36.3h-13.3V752H556V757.7z"/>
<path class="st1" d="M601.2,755.1v15.5l-4.1,2.2l3.6,1.7v16.2l-6.6,3.3h-30.9V752h31.3L601.2,755.1z M588.5,757.6h-14.3v12.1h14.3
	V757.6z M588.5,775.7h-14.3v12.7h14.3V775.7z"/>
<path class="st1" d="M645.4,752l7.2,42l-11.5,0.1l-1.6-10.9h-15.7l-2.6,10.9l-11-0.1l8.9-42H645.4z M638,777.6l-2.8-20.3H629
	l-4,20.3H638z"/>
<path class="st1" d="M660.4,752h12.1v36.4h26.6v5.7h-38.8L660.4,752L660.4,752z"/>
<path class="st1" d="M703.3,752h12.1v36.4H742v5.7h-38.8L703.3,752L703.3,752z"/>
<rect x="794.4" y="667.3" class="st11" width="51.2" height="43.6"/>
<path class="st45" d="M821.1,752.2c-15.5-45.4-16.4-47.2-24.6-73.5c64.8-23.5,95.5-85.1,95.6-86.8c0.3,5.1,24.3,82,24.3,82
	S911.9,715,821.1,752.2"/>
<path class="st46" d="M837.1,660.1c-2.5-10-16.5-39.4-19.9-49.3c-1.6-4.6,6.1-13.9,6.1-13.9c12.4-17.1,68.7-21.6,68.7-4
	C883.8,617.5,861.4,640.2,837.1,660.1z"/>
<path class="st47" d="M505.2,16.7c131.5,0,238.1,106.6,238.1,238.1c0,131.5-106.6,238.1-238.1,238.1
	c-131.5,0-238.1-106.6-238.1-238.1C267.1,123.3,373.7,16.7,505.2,16.7z"/>
<path class="st48" d="M505.2,499.8c-135.1,0-245-109.9-245-245c0-135.1,109.9-245,245-245s245,109.9,245,245
	C750.2,389.9,640.3,499.8,505.2,499.8z M505.2,23.6c-127.4,0-231.1,103.7-231.1,231.1c0,127.5,103.7,231.1,231.1,231.1
	s231.1-103.7,231.1-231.1C736.3,127.3,632.7,23.6,505.2,23.6z"/>
<rect x="496" y="16.7" class="st48" width="15.2" height="185.2"/>
<path class="st48" d="M328.5,498.1l-10.9-4c27.2-75,61.1-121.9,88.3-159.7C446.7,278,471.3,244,443.9,166l-0.2-0.5
	c-11.1-45.4-43.5-50.8-69.5-55.1c-14.4-2.4-26.9-4.5-32.4-13.6c-3.3-5.5-3.4-12.5-0.4-21.5l11,3.7c-1.8,5.5-2,9.5-0.6,11.9
	c2.7,4.6,13.3,6.3,24.4,8.2c26.2,4.4,65.8,11,78.7,63.5c29.2,83.5,0.4,123.5-39.5,178.8C388.6,378.4,355.2,424.6,328.5,498.1z"/>
<path class="st48" d="M675.5,495.4c-26.7-73.5-60-119.7-86.8-156.9c-39.9-55.3-68.7-95.3-39.5-178.8c13-52.5,52.5-59.1,78.7-63.5
	c11.1-1.9,21.7-3.6,24.4-8.2c1.4-2.4,1.2-6.4-0.6-11.9l11-3.7c3,9,2.9,16-0.4,21.5c-5.5,9.1-18,11.2-32.4,13.6
	c-26,4.3-58.4,9.8-69.5,55.1l-0.2,0.5c-27.4,78-2.8,112.1,37.9,168.5c27.2,37.7,61.1,84.7,88.3,159.7L675.5,495.4z"/>
<path class="st48" d="M523.4,285.7c-2.9-1-5.6-2.6-8.1-4.6l7.3-8.9c3.3,2.7,7.1,3.9,10.8,3.3c3.4-0.5,6.4-2.5,8.4-5.5
	c3.2-5,6.1-10.6,8.9-16c9.2-17.7,18.7-36,40.9-42.8c56.8-18.1,116.3-4.3,159,37.2l-8.1,8.3c-39.6-38.4-94.7-51.3-147.4-34.4
	c-17.6,5.4-25.6,20.8-34.1,37.1c-2.9,5.6-6,11.5-9.4,17c-4,5.9-9.8,9.7-16.4,10.7C531.2,287.4,527.2,287,523.4,285.7z"/>
<path class="st11" d="M206.3,726c-19.4-19.4,79.7,72.6,302,74.6c164.9,1.4,282.5-63.7,294.4-74.7"/>
<text transform="matrix(0.9373 0.3484 -0.3484 0.9373 269.1525 756.9796)" class="st49 st50 st51">b</text>
<text transform="matrix(0.9373 0.3484 -0.3484 0.9373 269.1525 756.9796)" class="st52 st50 st51">b</text>
<text transform="matrix(0.9373 0.3484 -0.3484 0.9373 315.2211 773.2716)" class="st49 st50 st51">a</text>
<text transform="matrix(0.9373 0.3484 -0.3484 0.9373 315.2211 773.2716)" class="st52 st50 st51">a</text>
<text transform="matrix(0.9373 0.3484 -0.3484 0.9373 363.8214 785.707)" class="st49 st50 st51">s</text>
<text transform="matrix(0.9373 0.3484 -0.3484 0.9373 363.8214 785.707)" class="st52 st50 st51">s</text>
<text transform="matrix(0.9373 0.3484 -0.3484 0.9373 407.9106 793.6125)" class="st49 st50 st51">k</text>
<text transform="matrix(0.9373 0.3484 -0.3484 0.9373 407.9106 793.6125)" class="st52 st50 st51">k</text>
<text transform="matrix(0.9373 0.3484 -0.3484 0.9373 457.2333 798.9137)" class="st49 st50 st51">e</text>
<text transform="matrix(0.9373 0.3484 -0.3484 0.9373 457.2333 798.9137)" class="st52 st50 st51">e</text>
<text transform="matrix(0.9373 0.3484 -0.3484 0.9373 503.3636 800.9778)" class="st49 st50 st51">t</text>
<text transform="matrix(0.9373 0.3484 -0.3484 0.9373 503.3636 800.9778)" class="st52 st50 st51">t</text>
<text transform="matrix(0.9373 0.3484 -0.3484 0.9373 551.4138 799.9008)" class="st49 st50 st51">b</text>
<text transform="matrix(0.9373 0.3484 -0.3484 0.9373 551.4138 799.9008)" class="st52 st50 st51">b</text>
<text transform="matrix(0.9373 0.3484 -0.3484 0.9373 599.7152 795.0643)" class="st49 st50 st51">a</text>
<text transform="matrix(0.9373 0.3484 -0.3484 0.9373 599.7152 795.0643)" class="st52 st50 st51">a</text>
<text transform="matrix(0.9373 0.3484 -0.3484 0.9373 649.0688 786.0828)" class="st49 st50 st51">l</text>
<text transform="matrix(0.9373 0.3484 -0.3484 0.9373 649.0688 786.0828)" class="st52 st50 st51">l</text>
<text transform="matrix(0.9373 0.3484 -0.3484 0.9373 693.4011 774.5077)" class="st49 st50 st51">l</text>
<text transform="matrix(0.9373 0.3484 -0.3484 0.9373 693.4011 774.5077)" class="st52 st50 st51">l</text>
<rect x="189" y="753.1" class="st11" width="23.7" height="2.9"/>
<path class="st48" d="M487.8,285.7c2.9-1,5.6-2.6,8.1-4.6l-7.3-8.9c-3.3,2.7-7.1,3.9-10.8,3.3c-3.4-0.5-6.4-2.5-8.4-5.5
	c-3.1-5-6.1-10.6-8.9-16c-9.2-17.7-18.7-36-40.9-42.8c-56.9-18.1-116.3-4.3-159,37.2l8,8.3c39.6-38.4,94.7-51.3,147.5-34.4
	c17.6,5.4,25.6,20.8,34.1,37.1c2.9,5.6,6,11.5,9.4,17c4,5.9,9.8,9.7,16.4,10.7C480.1,287.4,484.1,287,487.8,285.7z"/>
<image style="display:none;overflow:visible;opacity:0.15;enable-background:new    ;" width="185" height="194" xlink:href="415C0D3B47DD9CA1.png"  transform="matrix(0.534 0 0 0.5347 86.8567 594.3855)">
</image>
<path class="st46" d="M156.8,660.1c2.5-10,16.5-39.4,19.9-49.3c1.6-4.6-6.1-13.9-6.1-13.9c-12.4-17.1-68.7-21.6-68.7-4
	C110.1,617.5,132.5,640.2,156.8,660.1z"/>
<path class="st48" d="M810.2,578c-28.9-98-28.8-199.2,3.8-295.6l-15.2-26.5c-231.6,0-218.5-73.6-299.3-73.6
	c-87.1,0-68.2,73.6-295.8,73.6l-15.2,22.7c20.6,62.9,29.6,115.9,26.5,174.4c-4.8,92-47.5,167.5-72,246.4
	c-10.9,34.9-10.6,99.5,0,125.1c43.4,104.2,193.9,92.5,303.2,132.7c14.1,5.2,43,30.6,56.9,30.3c8.2-0.2,42.9-25.3,56.9-30.3
	c81-28.9,197.5-32.9,254-75.8C922.3,799.1,837.8,671.7,810.2,578z"/>
<path class="st47" d="M503,989.7c-9,0-22.7-9-35.8-17.8c-8.3-5.5-16.2-10.7-21.6-12.7c-33.1-12.2-70.6-19.7-106.8-26.9
	c-85.9-17.2-167.1-33.4-197.8-107c-11-26.4-11-91.5-0.1-126.7c7.5-24.1,16.9-48.4,26-72c21-54.2,42.6-110.3,45.9-173.9
	c2.9-56.3-5-108.2-26.4-173.5l-0.3-1.1l16.5-24.7h1.2c139.9,0,185.1-27.3,221.5-49.2c22.6-13.6,40.4-24.4,74.3-24.4
	c30.7,0,47.9,10.3,69.7,23.2c35.7,21.3,84.6,50.4,229.6,50.4h1.4l16.3,28.6l-0.3,1c-31.6,93.6-32.9,195.4-3.8,294.2
	c5.5,18.6,13.2,38.4,21.3,59.4c32.7,84.2,69.7,179.6-18.3,246.3c-35.1,26.6-93.9,38.6-150.7,50.2c-35.8,7.3-72.7,14.8-103.8,25.9
	c-6.2,2.2-17,8.8-27.5,15.1c-15.6,9.5-25.4,15.2-30.1,15.3L503,989.7L503,989.7z M191.2,278.9c21.4,65.4,29.2,117.5,26.3,174.1
	c-3.3,64.3-25.1,120.7-46.2,175.3c-9.1,23.4-18.4,47.7-25.9,71.7c-10.5,33.7-10.5,98.4-0.1,123.5C175,894.9,255,910.9,339.7,927.8
	c36.4,7.3,74,14.8,107.5,27.1c5.9,2.2,14,7.5,22.5,13.2c12,8,25.7,17,33.3,17l0.2,0c3.8-0.1,17.1-8.2,27.8-14.6
	c10.7-6.5,21.7-13.2,28.3-15.5c31.4-11.2,68.6-18.8,104.5-26.1c56.3-11.5,114.6-23.4,148.9-49.4c85.2-64.7,48.9-158.3,16.8-241
	c-8.2-21.1-15.9-40.9-21.4-59.8c-29.3-99.5-28.1-201.8,3.5-296l-14-24.5c-145.2-0.2-194.5-29.6-230.6-51
	c-21.2-12.6-38-22.6-67.4-22.6c-32.7,0-50,10.5-71.9,23.7c-34.8,21-82.4,49.7-222.6,49.9L191.2,278.9z"/>
<path class="st53" d="M785.5,578.6c-26.6-90.2-26.5-183.2,3.5-272l-14-24.4c-213.1,0-201-67.7-275.4-67.7
	c-80.2,0-62.8,67.7-272.1,67.7l-14,20.9c19,57.8,27.2,106.7,24.4,160.4c-4.4,84.6-43.7,154.1-66.3,226.7c-10,32.1-9.8,91.6,0,115.1
	c40,95.9,178.4,85.1,279,122c13,4.8,39.6,28.2,52.3,27.9c7.5-0.2,39.4-23.3,52.3-27.9c74.5-26.6,181.7-30.3,233.6-69.7
	C888.6,782,810.9,664.7,785.5,578.6z"/>
<path class="st53" d="M785.5,578.6c-26.6-90.2-26.5-183.2,3.5-272l-14-24.4c-35,0-64-1.8-88.2-4.9
	c-19.3-2.4-484.2,432.5-501.7,544.9c-0.1,0.4-0.8,2.2-0.7,3.4c0,1.1-0.1,1.4,0.2,2.7c51.3,71.3,174.5,65.3,266.2,99
	c13,4.8,39.6,28.2,52.3,27.9c7.5-0.2,39.4-23.3,52.3-27.9c74.5-26.6,181.7-30.3,233.6-69.7C888.6,782,810.9,664.7,785.5,578.6z"/>
<path class="st45" d="M172.8,752.2c15.5-45.4,16.4-47.2,24.6-73.5c-64.8-23.5-95.5-85.1-95.6-86.8c-0.3,5.1-24.4,82-24.4,82
	S82,715,172.8,752.2"/>
<path class="st47" d="M448.6,713.3l-42.3-143.7l-22.5,54.2V495.5l55.3-136.4h52.6l-56.9,140.2l63.7,214H448.6z"/>
<path class="st11" d="M161.1,771.6c0,0,195,79.5,337.5,79.5"/>
<path class="st46" d="M505.9,247.2l8.8,27.3l28.7,0c1.2,0,2.2,0.9,2.2,2.1c0,0.7-0.4,1.3-0.9,1.7l-23.3,16.8l8.9,27.3
	c0.4,1.1-0.2,2.3-1.4,2.7c-0.7,0.2-1.5,0.1-2.1-0.4L503.9,308L480.7,325c-1,0.7-2.3,0.5-3-0.5c-0.4-0.6-0.5-1.3-0.3-1.9h0l8.9-27.3
	L463,278.4c-1-0.7-1.2-2-0.5-3c0.5-0.6,1.2-0.9,1.9-0.9l28.6,0l8.8-27.3c0.4-1.1,1.6-1.7,2.7-1.4
	C505.2,246.1,505.7,246.6,505.9,247.2L505.9,247.2z"/>
<path class="st48" d="M328,417.2l49.1-120.8v316.2v72.1v230.6H328V417.2z"/>
<path class="st47" d="M504,713.3l63.7-214l-56.9-140.2h52.6l55.3,136.4v128.3l-22.5-54.2l-42.3,143.7H504z"/>
<path class="st48" d="M674.5,915.3h-49.1V684.7v-72.1V296.4l49.1,120.8V915.3z"/>
<path class="st46" d="M502.3,730.8c213.9,0,336.7-87.9,336.7-87.9l35.1,108.6c0,0-154.2,91.7-371.8,91.7
	c-219.3,0-373.3-94.4-373.3-94.4l33.1-109.7C162.2,639.2,298.2,730.8,502.3,730.8"/>
<path class="st47" d="M498,920.4v1.1h-3v2.4h1.7v1.1H495v2.5h3v1.1h-4.4v-8.2L498,920.4z"/>
<path class="st47" d="M501.1,921.1l0.8-0.7h2.9l0.7,0.6v0.8h-1.3v-0.4h-1.8v2.4h2.3l0.8,0.6v3.4l-0.8,0.7l-2.9,0l-0.8-0.6v-0.8h1.3
	v0.4h1.8v-2.5h-2.4l-0.7-0.6L501.1,921.1L501.1,921.1z"/>
<path class="st47" d="M513.3,921.5h-1.6v7h-1.3v-7h-1.5v-1.1h4.4V921.5z"/>
<path class="st47" d="M486.7,938.5c0,0.6,0,1.2,0,1.8h3c0,0.1,0-0.3,0-1.2h1.9c-0.1,1.7-0.2,2.7-0.3,3.1h-6.3
	c-0.4-2-0.4-3.7-0.2-5.2l4.9-2.2c0-0.4,0-0.8,0-1.3H487c0-0.1,0,0.2,0,1H485c0.1-1.5,0.2-2.4,0.3-3h6c0.4,1.3,0.5,2.9,0.2,4.7
	L486.7,938.5z"/>
<path class="st47" d="M502.2,931.7c0.6,0.9,1,1.7,1.3,2.5c0.3,0.9,0.5,1.8,0.5,2.8c0,1-0.2,1.9-0.5,2.8c-0.3,0.8-0.7,1.6-1.3,2.5
	h-4.4c-0.6-0.9-1-1.7-1.3-2.5c-0.3-0.9-0.4-1.8-0.4-2.8c0-1,0.1-1.9,0.4-2.8c0.3-0.8,0.7-1.6,1.3-2.5H502.2z M502,937
	c0-1.2-0.3-2.3-0.9-3.4h-2.3c-0.6,1.1-0.9,2.2-0.9,3.4c0,1.2,0.3,2.3,0.9,3.4h2.3C501.7,939.3,502,938.1,502,937z"/>
<path class="st47" d="M510.2,931.7l0,9.8l0.4,0.8h-2.7l0.4-0.8v-9l-0.4-0.8H510.2z"/>
<path class="st47" d="M516.7,938.5c0,0.6,0,1.2,0,1.8h3c0,0.1,0-0.3,0-1.2h1.9c-0.1,1.7-0.2,2.7-0.3,3.1h-6.3
	c-0.4-2-0.4-3.7-0.2-5.2l4.9-2.2c0-0.4,0-0.8,0-1.3h-2.8c0-0.1,0,0.2,0,1H515c0.1-1.5,0.2-2.4,0.3-3h6c0.4,1.3,0.5,2.9,0.2,4.7
	L516.7,938.5z"/>
<path class="st11" d="M151.2,728c32.3,24.5,199.3,89.5,349.9,89.5c115.9,0,313.4-57,352.9-82"/>
<text transform="matrix(0.9628 0.2702 -0.2702 0.9628 282.1853 782.1864)" class="st54 st55 st56">B</text>
<text transform="matrix(0.9628 0.2702 -0.2702 0.9628 282.1853 782.1864)" class="st57 st55 st56">B</text>
<text transform="matrix(0.9628 0.2702 -0.2702 0.9628 328.0696 794.6708)" class="st54 st55 st56">A</text>
<text transform="matrix(0.9628 0.2702 -0.2702 0.9628 328.0696 794.6708)" class="st57 st55 st56">A</text>
<text transform="matrix(0.9628 0.2702 -0.2702 0.9628 376.8689 805.2062)" class="st54 st55 st56">S</text>
<text transform="matrix(0.9628 0.2702 -0.2702 0.9628 376.8689 805.2062)" class="st57 st55 st56">S</text>
<text transform="matrix(0.9628 0.2702 -0.2702 0.9628 423.5393 812.5571)" class="st54 st55 st56">K</text>
<text transform="matrix(0.9628 0.2702 -0.2702 0.9628 423.5393 812.5571)" class="st57 st55 st56">K</text>
<text transform="matrix(0.9628 0.2702 -0.2702 0.9628 471.8213 816.9088)" class="st54 st55 st56">E</text>
<text transform="matrix(0.9628 0.2702 -0.2702 0.9628 471.8213 816.9088)" class="st57 st55 st56">E</text>
<text transform="matrix(0.9628 0.2702 -0.2702 0.9628 518.5156 817.3314)" class="st54 st55 st56">T</text>
<text transform="matrix(0.9628 0.2702 -0.2702 0.9628 518.5156 817.3314)" class="st57 st55 st56">T</text>
<text transform="matrix(0.9628 0.2702 -0.2702 0.9628 565.5325 813.2081)" class="st54 st55 st56">B</text>
<text transform="matrix(0.9628 0.2702 -0.2702 0.9628 565.5325 813.2081)" class="st57 st55 st56">B</text>
<text transform="matrix(0.9628 0.2702 -0.2702 0.9628 612.4209 806.1562)" class="st54 st55 st56">A</text>
<text transform="matrix(0.9628 0.2702 -0.2702 0.9628 612.4209 806.1562)" class="st57 st55 st56">A</text>
<text transform="matrix(0.9628 0.2702 -0.2702 0.9628 660.1338 796.7391)" class="st54 st55 st56">L</text>
<text transform="matrix(0.9628 0.2702 -0.2702 0.9628 660.1338 796.7391)" class="st57 st55 st56">L</text>
<text transform="matrix(0.9628 0.2702 -0.2702 0.9628 701.7534 787.0402)" class="st54 st55 st56">L</text>
<text transform="matrix(0.9628 0.2702 -0.2702 0.9628 701.7534 787.0402)" class="st57 st55 st56">L</text>
<g>
	<path class="st58" d="M3773.9,126.4c51,411.9-143.2,669.7-390.6,819.1c-256.9-146.8-439.1-395.7-401.4-819.1
		C3151.9-39.8,3605.2-44.7,3773.9,126.4z M3014.4,153.5c-32.2,385,139,613,368.9,754c223.8-147.5,394.5-375,363.4-759.4
		C3589.5-3.6,3163.3-11.4,3014.4,153.5z"/>
	<path class="st59" d="M3746.8,148.1c31,384.4-139.7,611.9-363.4,759.4c-229.8-141-401.1-369-368.9-754
		C3163.3-11.4,3589.5-3.6,3746.8,148.1z"/>
</g>
<path class="st60" d="M3628.5,630.3c-36.9-35.5-150.9,34.1-244.6,25.5c0,0,0,0,0,0c-0.1,0-0.1,0-0.2,0c-0.1,0-0.1,0-0.2,0
	c0,0,0,0,0,0c-93.6,8.5-207.7-61.1-244.6-25.5c68.7,125.6,233.6,242.8,244.5,250.5c0,0.3,0,0.4,0,0.4s0.1-0.1,0.3-0.2
	c0.2,0.1,0.3,0.2,0.3,0.2s0-0.1,0-0.4C3394.9,873.1,3559.8,755.9,3628.5,630.3z"/>
<path class="st61" d="M3465.7,337.3c19.4-24,14.6-111.4-12.3-143c9.5,64.8-5.3,78.5-30,98.3c-9.7,7.8-23.4,9.4-42.1,9.7
	c0,10-0.1,26.8-0.1,48.4c0,8.9-1,40.1,2.5,52c3.4,11.3,10.8,3.7,26.3-2.2C3426.4,394.3,3448.2,358.9,3465.7,337.3z"/>
<path class="st61" d="M3382.6,669.1c544.3-86.4,78.3-178.4,253.4-295.9c68-45.7,37.4-201-42.1-274.4c28,150.7-15.6,182.4-88.7,228.6
	c-28.6,18.1-67.3,21.9-122.8,22.7C3382.5,399.8,3382.6,520.4,3382.6,669.1z"/>
<path class="st61" d="M3384.4,669.1c-544.3-86.4-78.3-178.4-253.4-295.9c-68-45.7-37.4-201,42.1-274.4
	c-28,150.7,15.6,182.4,88.7,228.6c28.6,18.1,67.3,21.9,122.8,22.7C3384.6,399.8,3384.4,520.4,3384.4,669.1z"/>
<path class="st61" d="M3299.6,337c-19.4-24-14.6-111.4,12.3-143c-9.5,64.8,5.3,78.5,30,98.3c9.7,7.8,23.4,9.4,42.1,9.7
	c0,10,0.1,26.8,0.1,48.4c0,8.9,1,40.1-2.5,52c-3.4,11.3-10.8,3.7-26.3-2.2C3339,394.1,3317.1,358.7,3299.6,337z"/>
<path class="st62" d="M3365.2,659.6c0-18.8,0-37.7,0-57.4h-45c-1.2,20.3-4.5,38.6-9.1,55.5C3329.1,659,3347.2,659.5,3365.2,659.6z"
	/>
<path class="st62" d="M3404.1,659.2c18.4-0.3,36.7-0.9,55.1-1.5c-6-17.2-10.8-35.6-14-55.6h-44.6v57.1
	C3401.7,659.3,3402.9,659.2,3404.1,659.2z"/>
<path class="st62" d="M3213.8,646.2c20.6,1.9,41.1,5,61.7,7.6c4.2-16.1,7.2-33.3,9.2-51.7H3163c1.8,15.2,4.6,29.3,8.4,42.5
	C3185.5,644.2,3199.7,644.9,3213.8,646.2z"/>
<path class="st62" d="M3591.3,656.2c5.2-16.5,9-34.5,11.2-54h-118.8c2.7,19.3,6.5,37.5,11.5,54.5
	C3527.2,655.7,3559.2,655.2,3591.3,656.2z"/>
<rect x="2886.4" y="1122.3" class="st63" width="998.5" height="147"/>
<path class="st62" d="M3400.5,569.3c14.9,0,29.9,0,44.6,0c10.5-65.7,38.9-113.6,65.3-163.2c-31-18.6-62.9-38.5-109.9-41.3
	C3400.5,432.1,3400.5,502,3400.5,569.3z"/>
<path class="st62" d="M3228.4,429.7c-33.9,34.7-58.3,78.4-65.4,139.6c40.6,0,81.3,0,121.7,0C3278.4,510.3,3261.1,462.5,3228.4,429.7
	z"/>
<path class="st62" d="M3537.2,432.7c-28.8,34.7-45.7,81-53.5,136.7c39.7,0,79.3,0,118.8,0C3595.6,509,3574.6,462.7,3537.2,432.7z"/>
<path class="st63" d="M3743.1,526.7c35.2,12.6,55.4,25.6,55.4,36.4c0,29.8-249,68.1-413.3,68.1c-30.2,0-62.1-1.3-96.5-3.6h-0.6
	c-150.5-10.2-317-40.2-317-64.5c0-10.9,20.4-24.1,56.1-36.7c-6.1-21.2-9.2-29.7-9.5-29.6c-58.3,18.5-92.9,41.5-92.9,66.4
	c0,26.9,40.5,51.6,107.6,70.8c17.8,6,17.8,5,35.5,9c50.1,11.4,110.8,20.1,178.3,25.2c16.7,1.4,21.3,1.4,41.4,2.6
	c25,1.3,50.7,2.1,77.4,2.4l38.3,0c26.8-0.3,54.7-1.1,81.3-2.5c17.3-0.9,21.8-1.3,39.8-2.6c66.6-5.1,126.5-13.7,176.1-24.9
	c9.6-2.3,19.2-4.6,35.5-9c67.7-19.2,108.6-44,108.6-71.1c0-24.8-34.3-47.7-92.1-66C3752.4,497.1,3742.9,526.7,3743.1,526.7z"/>
<path class="st64" d="M5167.3,295.2c5.7,70.9-25.7,112.8-67,140c-42.4-26-73.9-68-68-139C5059.8,265.8,5138.3,267.2,5167.3,295.2z
	 M5090.3,302.2c4.5,0.5,3.2,6.8,5,10c3-3.8,6.4-2.3,10,0c-2.4-7.1,4.9-8.6,3-12c-6.8,1.8-6.4-3.6-9-6
	C5099.9,300.4,5093.3,299.5,5090.3,302.2z M5087.3,366.2c3.1,0.7,1.9-2.7,5-2c3.1,12.2-15,11.6-19,20c5.3,0.9,10.1,13.5,18,8
	c-1.3,4.6,5.1,1.6,6,4c0.6,2.1-1.2,6.6,1,7c-0.1-2.5-0.2-4.9,2-5c0.1,2.6,0.6,4.8,2,6c0-3,0-6,0-9c9-1.7,12.7-1.9,21-7
	c-2.4-4.1,0.7-3.4,3-5c-4.5-6.7-23.9-8.5-18-19c2,0,1.3,2.7,4,2c21.7-9,37.8-38.2,42-61c-18.2,10.2-32.3,24.4-48,37
	c0.4-3.8-2-4.7-3-7c-7.3-1.3-9.2,2.8-11,7c-14.5-12.5-30.9-28.5-47-36C5050.1,328,5065.7,357.5,5087.3,366.2z"/>
<path class="st63" d="M4251.5-247.1c17.8,6,17.8,5,35.5,9c50.1,11.4,110.8,20.1,178.3,25.2c16.7,1.4,21.3,1.4,41.4,2.6
	c25,1.3,50.7,2.1,77.4,2.4l38.3,0c26.8-0.3,54.7-1.1,81.3-2.5c17.3-0.9,21.8-1.3,39.8-2.6c66.6-5.1,126.5-13.7,176.1-24.9
	c9.6-2.3,19.2-4.6,35.5-9c67.7-19.2,108.6-44,108.6-71.1c0-29.3-47.9-55.9-125.9-75.6c4.8,11.1,8.7,22.5,11.5,34.3
	c0,0.2,0,0.4,0.1,0.6c43,13.9,68.1,28.6,68.1,40.7c0,29.8-249,68.1-413.3,68.1c-30.2,0-62.1-1.3-96.5-3.6l0,0h-0.6
	c-150.5-10.2-317-40.2-317-64.5c0-12.1,25-26.9,68-40.7c0-0.2,0-0.4,0-0.6c2.8-11.8,6.8-23.2,11.5-34.3
	c-78,19.7-125.8,46.4-125.8,75.7C4143.9-290.9,4184.4-266.2,4251.5-247.1z"/>
<path class="st62" d="M3364.4,367.8c-47,2.8-78.9,19.7-109.9,38.3c26.4,49.6,54.8,97.6,65.3,163.2c14.7,0,29.7,0,44.6,0
	C3364.4,502,3364.4,435.1,3364.4,367.8z"/>
<path class="st65" d="M832,742.2c57.1-101,30.8-240.5,55.3-508.1C795.6,237.8,741,204.4,738,119.3
	c-149.8,12.5-204.3-26.6-240.9-97.1c0-0.2,0-0.4,0-0.6c-0.1,0.1-0.1,0.2-0.2,0.3c-0.1-0.1-0.1-0.2-0.2-0.3c0,0.2,0,0.4,0,0.6
	c-36.6,70.6-91.1,109.6-240.9,97.1c-2.9,85.1-57.5,118.5-149.2,114.8c23,251,1.3,389.3,45.6,488.9c-0.2,0.3-0.3,0.6-0.5,0.9
	c40.4,143.8,189.9,218,340,220.1c1.7,0.6,3.4,1.2,5.1,1.9c0,0,0,0,0,0c0,0,0,0,0,0c0,0,0,0,0,0c0,0,0,0,0,0c1.7-0.6,3.4-1.2,5-1.8
	C644.8,942.8,785.8,876.3,832,742.2z"/>
<path class="st60" d="M495.4,82.6c33.3,64.5,82.7,100.3,219.3,88.9c2.6,77.4,52.3,107.7,135.7,104.4
	c-39.2,428.6,64.9,495.7-354.8,647C495.5,638.2,495.4,296.2,495.4,82.6z"/>
<path class="st60" d="M496.7,82.6c-33.3,64.5-82.7,100.3-219.3,88.9c-2.6,77.4-52.3,107.7-135.7,104.4
	c39.2,428.6-64.9,495.7,354.8,647C496.5,638.2,496.7,296.2,496.7,82.6z"/>
<path class="st66" d="M498.2,246.1c-58.8,0-193.8,86.4-316.8,101c-26.3,87.8,58.8,142,64.9,215.6C252,632.4,556.9,246.1,498.2,246.1
	z"/>
<path class="st66" d="M496.9,246.1c-58.8,0,246.2,386.3,251.9,316.5c6.1-73.5,91.2-127.8,64.9-215.6"/>
<path class="st67" d="M498.2,220.1c-58.8,0-190.4,91.2-313.4,105.8c-26.3,87.8,55.4,137.2,61.5,210.7
	c5.7,69.8-25.5,120.8-61.5,184.4c74.1,263.5,551,270.1,623.4,0c-30.5-54.2-74.2-132.8-52.7-219.5c13.4-54.2,82.3-103.2,52.7-175.6
	C679.8,313.9,556.9,220.1,498.2,220.1z"/>
<g>
	<g>
		<path class="st68" d="M598.1,517.8l-27.2-27.2l16.4-16.4c1-1,1.3-2.5,0.7-3.8c-0.6-1.3-1.8-2.1-3.2-2.1h-24.5
			c-3.6,0-7,0.5-10.1,1.6l-32.9-32.3l52.8-52.8c11.5-11.5,18.1-27.3,18.1-43.4v-6.3c0-1.4-0.8-2.7-2.1-3.2c-1.3-0.5-2.7-0.2-3.8,0.7
			l-84.7,84.7l-85.3-84.7c-1-1-2.5-1.3-3.8-0.7c-1.3,0.6-2.1,1.8-2.1,3.2v6.3c0,16.3,6.6,31.9,18.1,42.9l52.8,53.4l-31.8,31.8
			c-0.2,0.2-0.4,0.5-0.5,0.7c-3.4-1.1-7-1.7-10.7-1.7H410c-1.4,0-2.7,0.8-3.2,2.1c-0.5,1.3-0.2,2.7,0.8,3.8l16.8,16.6l-26.9,26.9
			c-3.8,3.2-5.7,7.4-5.7,12.8v13.1h12.5c4.9,0,9.7-2,13.3-5.6l26.8-27.3l16.8,16.6c0.6,0.6,1.5,1,2.4,1c0.5,0,0.9-0.1,1.3-0.3
			c1.3-0.5,2.1-1.8,2.1-3.2v-24.5c0-3.7-0.6-7.3-1.8-10.6c0.3-0.1,0.6-0.4,0.8-0.6l31.7-31.9l32.4,32.9c-1,3.2-1.6,6.6-1.6,10.1
			v24.5c0,1.4,0.8,2.7,2.1,3.2c0.4,0.2,0.9,0.3,1.3,0.3c0.9,0,1.8-0.4,2.4-1l16.4-16.4l27.2,27.2c3.7,3.7,8,5.6,12.7,5.6h13.1v-13.1
			C603.6,525.8,601.8,521.6,598.1,517.8L598.1,517.8z M596.8,536.8"/>
	</g>
</g>
<path class="st66" d="M497.1,875c-114.5,0.3-229.9-49.9-260.8-148.5c29.7-47.2,55.5-85,50.7-136.8c89.6,89.6,141.9,94.4,209.2,52.8
	C496.3,737.9,497.1,810.2,497.1,875z"/>
<path class="st66" d="M495.1,875c114.5,0.3,229.9-49.9,260.8-148.5c-29.7-47.2-55.5-85-50.7-136.8c-89.6,89.6-141.9,93.7-209.2,52.1
	C496,737.2,495.1,810.2,495.1,875z"/>
</svg>
