<?xml version="1.0" encoding="utf-8"?>
<!-- Generator: Adobe Illustrator 22.0.1, SVG Export Plug-In . SVG Version: 6.00 Build 0)  -->
<svg version="1.1" id="Layer_1" xmlns="http://www.w3.org/2000/svg" xmlns:xlink="http://www.w3.org/1999/xlink" x="0px" y="0px"
	 viewBox="0 0 1000 1000" style="enable-background:new 0 0 1000 1000;" xml:space="preserve">
<style type="text/css">
	.st0{display:none;fill:#11284D;}
	.st1{display:none;fill:#FFFFFF;}
	.st2{display:none;fill:#EB2227;}
	.st3{display:none;fill:#F0EFEF;}
	.st4{display:none;fill:#CEA248;}
	.st5{display:none;fill:#2B2C2B;}
	.st6{display:none;fill:#1D76BB;}
	.st7{display:none;fill:#AC8030;}
	.st8{display:none;fill:#025F9C;}
	.st9{display:none;fill:#A7A9AC;}
	.st10{display:none;fill:#E6E7E8;}
	.st11{display:none;fill:none;}
	.st12{display:none;fill:#D1D3D4;}
	.st13{fill:#F8C968;}
	.st14{display:none;fill:#FDB917;}
	.st15{display:none;fill:#2E334B;}
	.st16{display:none;fill:#F1F1F2;}
	.st17{display:none;fill:#595A5C;}
	.st18{display:none;fill:#E7E7E7;}
	.st19{display:none;fill:#0E62AF;}
	.st20{display:none;fill:#2B3C90;}
	.st21{display:none;fill:#F2F2F2;}
	.st22{display:none;fill:#2BACE2;}
	.st23{display:none;fill:#414142;}
	.st24{display:none;fill:#415867;}
	.st25{display:none;fill:#808184;}
	.st26{display:none;fill:#D1D2D3;}
	.st27{display:none;fill:#F8C96A;}
	.st28{display:none;fill:#F06548;}
	.st29{display:none;opacity:0.14;fill:#424143;enable-background:new    ;}
	.st30{display:none;fill:#FFDE11;}
	.st31{display:none;fill:#6AABDD;}
	.st32{display:none;fill:#EC2227;}
	.st33{display:none;fill:#1F2E5C;}
	.st34{display:none;fill:#424143;}
	.st35{display:none;fill:#69539C;}
	.st36{display:none;fill:#3E2A6D;}
	.st37{display:none;fill:#564381;}
	.st38{fill:#F1F1F2;}
	.st39{fill:#404041;}
	.st40{fill:#405766;}
	.st41{fill:#808184;}
	.st42{fill:#D0D2D3;}
	.st43{fill:#F16447;}
</style>
<path class="st0" d="M336.5,169.1l0.1-0.1c-50.2,34.9-117.9,45.5-144.7,48.4l-42.6,4.7l20.4,38.5c17.8,33.8,55.3,121.8,18.2,209.6
	c-30,71.8-41.9,133.7-36.4,189.3c5.6,57.2,30.2,106.7,73.1,147c39.2,36.4,83.9,48.4,119.8,58.1c0,0,20.5,5.8,20.5,5.8
	c-0.1,0,5.9,1.7,7.3,2.1v0c23.8,6.7,68.1,19.3,104.6,64.2l22.1,27.2l22.1-27.2c36.6-44.9,80.9-57.5,104.6-64.2c0,0-0.2-0.2-0.2-0.2
	c1.3-0.2,2.6-0.5,3.9-0.9l3.6-1c0,0-0.3,0-0.6,0.1c1.5-0.3,5.7-1.5,21-5.8c35.9-9.7,80.7-21.8,119.5-57.9
	c43.1-40.5,67.8-90.1,73.4-147.2c0.9-8.8,1.3-17.7,1.3-26.8c0-48.5-12.4-101.9-37.6-162.4c-11.5-27.2-15.8-54.4-15.8-80
	c0-57.2,21.7-106.4,34-129.7l20.3-38.5l-42.6-4.7c-26.8-2.9-94.5-13.5-144.8-48.4C579,111.4,531.3,103.9,499,103.8
	C466.5,103.9,418.8,111.4,336.5,169.1z M499,115.5c30.6,0.1,76,7.3,155.6,63.1c52.4,36.4,122.4,47.4,150,50.4c0,0,16,1.7,25.6,2.8
	C825.6,240.6,818,255,818,255c-12.8,24.3-35.4,75.6-35.4,135.4c0,27,4.6,55.8,16.8,84.6c24.6,58.9,36.7,110.8,36.7,157.7
	c0,8.7-0.4,17.2-1.2,25.6c-5.4,54.2-28.8,101.3-69.7,139.8c-36.7,34.1-80,45.8-114.8,55.2c0,0-20.4,5.7-20.4,5.7
	c-0.1,0-7.4,2.2-7.4,2.2c-24.9,7.1-71.5,20.3-110.4,68c0,0-8.3,10.2-13.3,16.3c-5-6.1-13.3-16.3-13.3-16.3
	c-38.7-47.6-85-60.9-110.1-68l0,0L368,859c-0.1,0-20.7-5.8-20.7-5.8c-34.7-9.3-77.9-21-114.9-55.4c-40.8-38.3-64.1-85.3-69.5-139.5
	c-0.9-8.3-1.3-16.8-1.3-25.5c0-47,12.1-98.9,36.8-158c12.1-28.8,16.8-57.5,16.8-84.4c0-59.8-22.6-111-35.4-135.4
	c0,0-7.6-14.4-12.2-23.1c9.6-1.1,25.6-2.8,25.6-2.8c27.6-3,97.6-14,149.9-50.3l0,0l-0.1,0C422.7,122.9,468.2,115.6,499,115.5z"/>
<path class="st1" d="M498.9,975.9l-28-34.4c-35.1-43.1-77.8-55.2-100.8-61.7l-3.3-1c-1.3-0.4-2.7-0.8-3.9-1.3l0,0.1
	c-10.1-2.8-16.4-4.6-20.3-6.1l-0.1,0.3c-36.7-9.9-82.4-22.2-123-59.9c-44.3-41.7-69.7-92.8-75.5-151.9c-5.6-56.9,6.5-120,37-193
	c35.8-84.8-0.6-170.3-17.9-203.1l-25.6-48.4l53.8-5.9c26.2-2.9,92.3-13.1,141.2-47.1v0c83.9-58.8,133.1-66.5,166.7-66.6
	c33.5,0.1,82.6,7.8,166.5,66.6c48.8,34,115,44.2,141.2,47.1l53.7,5.9l-25.5,48.4c-12.4,23.4-33.1,71-33.1,126.2
	c0,27.2,5.1,53.1,15.3,77.1c25.7,61.6,38.2,115.7,38.2,165.3c0,9-0.5,18.3-1.4,27.5c-5.8,59.1-31.3,110.2-75.7,152
	c-25.9,24-54,37.7-80.6,47l0.8,0l-4.4,1.3c-13.5,4.6-26.6,8.1-38.7,11.4c-5.1,1.5-9.1,2.6-12.1,3.4l0,0l-15.6,4.4
	c-22.9,6.5-65.7,18.6-100.8,61.7L498.9,975.9z M179.6,238.2l7,13.2c13.5,25.7,36.3,77.9,36.3,138.9c0,30.7-5.8,60.1-17.4,87.4
	c-24.3,58.3-36.2,109-36.2,155.1c0,8.5,0.4,16.8,1.2,24.7c5.1,52.4,27.7,97.7,67.1,134.7c35.7,33.2,77.8,44.5,111.7,53.6l28.3,8
	c25.7,7.3,73.6,20.9,113.9,70.5l7.4,9.1l7.4-9.1c40.4-49.6,88.4-63.2,114.2-70.5c0,0,8.1-2.3,8.2-2.4l19.6-5.5
	c34.1-9.2,76.3-20.7,111.7-53.4c39.5-37.2,62.1-82.6,67.3-134.9c0.8-8.3,1.2-16.6,1.2-24.9c0-46-11.8-96.6-36.1-154.8
	c-11.5-27.2-17.4-56.7-17.4-87.5c0-61.1,22.7-113.3,36.2-139l7-13.2l-14.4-1.6c-28.2-3.1-99.7-14.3-153.6-51.8
	c-77.8-54.6-121.7-61.6-151.3-61.7c-29.6,0.1-73.7,7.2-151.6,61.9l0,0c-53.8,37.3-125.2,48.5-153.4,51.6L179.6,238.2z"/>
<path class="st0" d="M783.5,481.9c-36.7-86.7-11.8-176.4,19.3-235.2c-46.2-5.1-109.6-19.8-157.9-53.4
	c-75.7-53.1-117.8-60-145.9-60.1c-28.2,0.1-70.4,7-146.1,60.2c-48.3,33.5-111.6,48.2-157.8,53.3c31.1,58.8,56,148.5,19.3,235.2
	c-55.4,132.9-45.6,232,29.8,303c33.7,31.3,72.9,41.9,107.6,51.3c7.4,2,14.4,3.9,21.3,6c2,0.6,4.3,1.3,6.8,2
	c26.3,7.5,76.7,21.9,119,73.8c42.3-51.9,92.7-66.3,119.1-73.8c2.5-0.7,4.8-1.4,6.9-2c6.8-2.1,13.8-4,21.3-6
	c34.6-9.3,73.8-19.9,107.5-51.2C829.1,713.8,838.9,614.7,783.5,481.9z"/>
<path class="st2" d="M649.3,665.6c-3.3,11.6-7.1,23.1-11.1,34.4c3.7-0.2,7.5-0.4,11.2-0.8c0.5,0,1-0.1,1.5-0.1
	c0.6-0.1,1.5-0.4,2.9-0.7c2.8-0.8,5.7-1.6,8.4-2.6c2.5-1.1,6-2.6,7.4-3.3c3.2-1.5,6.4-3,9.6-4.5c12.8-5.8,54.3-36.4,65.4-44.8
	C816.1,604.5,930,570,932,467.4c1.1-29.3-6.6-54.9-19.3-78.7c-3.4,3.4-3.4,10-6.6,14.1c-45.2,68-122.2,74.9-178.8,125.3
	c-8.6,8.6-13.8,19.3-20.7,29c-5.9-27.9,9.7-53.1,33.2-69c15.5-10,33.8-15.9,48.7-26.3c55.2-23.8,123.9-72.5,126-140.1
	c10-60.8-22.4-114.3-72.2-149.8c2.8,10.4,8.3,23.1,8.3,36.2c5.1,45.6-12.8,87-51.1,111.9c-59.7,41.1-129.5,57.3-186.4,104.6
	c-15.5,14.5-25.6,32.5-22.4,53.9C636.9,529.6,671.8,595.2,649.3,665.6z"/>
<path class="st2" d="M250.1,508.1c-57-33.5-129.8-47-162.2-114.3h-1.7C62,444.5,67.5,515,106.8,556.7c45.6,49,109.1,58.7,161.6,93.9
	c14.1,8.7,24.5,20.9,31,34.6c81.5-1,163.6-12.4,244.9-4c30.3,3.1,60.9,8.1,91.5,8.8c11-30.9,17.7-63.5,16.1-99.1
	c-8.6-76-82.9-122.2-113.6-188.8c-7.3-23.5-2.8-50.4,14.2-68c16.2-15.9,35.9-23.1,57.3-26.6c-2.8-9.3-10-19-19.3-23.1
	c-18.7-9.3-40.7-1-58,5.9c-29-13.8-63.5-0.7-90.1,11.4c-25.9,11.4-47,34.9-78,34.2c0.7,7.9,10,13.5,16.6,16.6
	c24.5,3.4,45.6-8.6,66.3-14.2c-24.8,39.7-14.8,93.2-0.7,135c-0.4,0.3-0.7,0.7-1,0.7c-27.3-37.6-68.7-63.2-107.7-83.6
	C297,370.7,256,352,215.2,331.6c-38.3-23.5-70.8-63.9-69.4-111.2c1-16.9,3.5-33.5,10.7-48c-51.1,34.5-78,87.4-71.4,148.1
	c5.2,57.3,51.1,113.6,105.3,131.9c41.4,26.6,113.9,41.4,116,104.2C293.2,536,272.2,517.7,250.1,508.1z"/>
<path class="st2" d="M501.1,924.7c-117.3,1.4-213.5-92.6-214.8-209.8c-1.4-117.2,92.6-213.5,209.9-214.8
	c117.2-1.4,213.4,92.6,214.8,209.8C712.3,827.2,618.4,923.4,501.1,924.7z"/>
<path class="st0" d="M550.3,832c27.6-17.5,56-36.5,89.7-47.6c0.3-1.5,0.6-3.3,0.8-5.2c1.3-10.6,1.6-25.2,1.6-33.4
	c-26.1,5.4-55.5,9.8-85.4,12.6c-50.7,4.7-97.1,2.3-135.9-2.4c-74.2-9-114.7-27.1-117.5-30.7c10.1,2.5,52.9,9.9,56.7,10.5
	c9.9,1.7,20,3.2,30.4,4.5c78.1,9.8,169.4,8.3,251.9-10.4c-0.6-15.8-2-28.8-4.2-40.4c-11.6,1.2-22.5,1-32.6-0.2
	c-39.7-5-67.5-27.2-90.8-42.7c-90.9-60.2-161.3-61.5-169.6-63.1c11.6-4.9,88.6-0.1,165.8,45.2c32.7,19.2,54.5,39.4,90.2,43.8
	c9.9,1.3,20.9,1.4,33.4,0.2c-8.5-32.5-20-64.1-37.3-91.5c-17.9-28.2-54.8-63.1-81-72.1c24.7,2.9,57,25.6,80.2,53.9
	c22.6,27.7,42.2,64.3,52,107.4c8-2,13.9-6,18.2-11.6c4.8-6.2,7.6-14.5,8.8-23.7c0.8-6.4,0.8-34.1-8.3-52.1c4.2,6.1,13.5,16.2,15,22
	c3.4,13.3,5.7,26.9,5.2,36.4c-0.1,0.9-0.2,1.8-0.2,2.7c-1.3,10.1-4.9,19.5-11.1,27.1c-5.8,7-13.8,12.3-24.2,15.2
	c2.6,12.5,4.5,25.9,4.9,39.6c14.8-4.1,48.5-16.3,55.9-24.8c-0.1,5.6,3,11.3,2.4,17c-10.1,8.1-45.5,20.3-57.8,23.6
	c0.2,9.1,0,25.9-1.5,39.7c3.2-0.2,6.6,0,10.1,0.4c6.2,0.8,12.2,2.3,16.2,4.3c0.3,0.2,12.7,6.6,13,6.8c-1.7,3.9-3.7,7.1-5.5,10.9
	c-0.1,0-11.9-5.7-12-5.7c-0.9-0.4-3.4-1-6.2-1.3c-3.2-0.4-7.1-0.6-10.6-0.5c-2.6,0.1-5.1,0.3-6.9,0.6c-3.8,21.2-10.5,53.8-57.9,84.8
	c18.8-18.6,39.6-50.2,42.5-81c-28.3,8.4-52.4,24.7-77.8,40.9c-26.7,17-54.8,33.8-90.9,40.4c-18.2,3.3-58.2,2.3-69-3.2
	c16.8,0.4,46.7-3.7,63.3-6.9C495,866.3,522.2,849.8,550.3,832z"/>
<polygon class="st3" points="486.7,320.9 506.2,302.1 486.7,302.1 "/>
<polygon class="st2" points="449.8,16.1 459.1,44.6 489.1,44.6 464.8,62.2 474.1,90.8 449.8,73.1 425.5,90.8 434.8,62.2 410.6,44.6 
	440.6,44.6 "/>
<polygon class="st2" points="538.9,16.1 548.2,44.6 578.1,44.6 553.9,62.2 563.1,90.8 538.9,73.1 514.6,90.8 523.9,62.2 499.6,44.6 
	529.6,44.6 "/>
<path class="st4" d="M499.4,108.7c-172.7,0-394.6,23.9-394.6,23.9s1.5,266.8,1.5,527c5.7,85.3,21.8,136.1,110.5,214.8
	c88.7,78.7,282.7,116.4,282.7,116.4s194-37.7,282.7-116.4c88.7-78.7,104.7-129.5,110.5-214.8c0-260.2,1.5-527,1.5-527
	S672.5,108.7,499.4,108.7z"/>
<path class="st5" d="M499.4,152.8c155.4,0,355.2,21.5,355.2,21.5s-1.4,240.2-1.4,474.3c-5.2,76.7-19.6,122.5-99.4,193.3
	c-79.8,70.9-254.4,104.8-254.4,104.8S324.8,912.8,245,841.9c-79.8-70.8-94.3-116.6-99.4-193.3c0-234.2-1.4-474.3-1.4-474.3
	S343.5,152.8,499.4,152.8z"/>
<path class="st6" d="M499.4,192.5c-139.9,0-319.6,19.4-319.6,19.4S181,428,181,638.7c4.6,69.1,17.6,110.2,89.5,174
	c71.9,63.8,229,94.3,229,94.3s157.1-30.5,229-94.3c71.8-63.8,84.8-104.9,89.5-174c0-210.7,1.2-426.8,1.2-426.8
	S639.6,192.5,499.4,192.5z"/>
<path class="st6" d="M516.8,426.1c-139.9,0-337,62.3-337,62.3S181,428,181,638.7c4.6,69.1,17.6,110.2,89.5,174
	c71.9,63.8,229,94.3,229,94.3s157.1-30.5,229-94.3c71.8-63.8,84.8-104.9,89.5-174c0-210.7,1.2-181.5,1.2-181.5
	S657,426.1,516.8,426.1z"/>
<path class="st5" d="M845,336l-697-1v268.8l129.2-42.7c0,0,27.8-30.6,52.6-61.9c24.8-31.3,34.5-33.7,60.2-48.5
	c25.7-14.7,72.2-30.6,110.4-30.6c38.3,0,69.2,7.1,99.2,22.4c30,15.3,49.1,36.6,54.2,45.9c5.2,9.3,22.9,23.9,37.4,41.4
	c14.6,17.5,30.4,40.1,30.4,40.1L845,603.8V336z"/>
<path class="st7" d="M279.6,744.1c-30-19.9-54.2-45.8-69.8-75.6c10.9,54.9,42.3,102.4,86,134.2c2.4,0.3,6.4,0.6,11.2,0.7
	C299.2,792.6,285.4,767,279.6,744.1z"/>
<path class="st7" d="M564.6,817.8c2.4,5.9,5.9,10.7,10.4,14.4c15.6,12.9,44.5,10.8,53.2,9.8c43.7-31.8,75.2-79.3,86-134.2
	C686.4,760.8,631.6,801.6,564.6,817.8L564.6,817.8z"/>
<path class="st8" d="M509.6,883.4c31-1.4,60.4-9.2,86.8-22.3c-11.2-1.6-23.5-5.6-33.8-14.1c-8-6.6-13.7-15.1-17.3-25.4
	c-11.6,1.9-23.5,3.1-35.6,3.6L509.6,883.4L509.6,883.4z"/>
<path class="st8" d="M394.7,474c-2.3,1.1-59,37.3-37.5,121.2c6.1,23.8,23.7,44.7,41.9,67c27.7,33.8,59,72.2,59.8,129.7
	c0.1,3.8-0.1,7.4-0.4,10.9c10.3,1.7,20.9,2.7,31.7,3.1V447.1C455.8,448.6,424.1,459.8,394.7,474L394.7,474z"/>
<path class="st8" d="M490.3,883.4v-58.2c-12.1-0.4-24-1.6-35.6-3.6c-3.6,10.3-9.4,18.8-17.3,25.4c-10.3,8.5-22.6,12.5-33.8,14.1
	C429.9,874.2,459.2,882,490.3,883.4L490.3,883.4z"/>
<path class="st4" d="M714.8,626.3c-3.6-39.5-24.6-74.5-49.5-103.4c4.5,19.5,4.8,45-4,77.4c-7.6,27.7-26,50.3-45.6,74.2
	c-26.9,32.9-54.8,67-55.5,117.7c0,2.3,0,4.6,0.2,6.7C649.4,777.2,722,706.3,714.8,626.3L714.8,626.3z"/>
<path class="st7" d="M372,842.1c10.6,1.1,38.2,2.4,53-10c4.5-3.7,7.9-8.5,10.3-14.4c-67.1-16.2-121.9-57-149.6-110
	C296.6,762.7,328.2,810.3,372,842.1L372,842.1z"/>
<path class="st4" d="M285.1,626.3c-7.2,80,65.4,150.9,154.4,172.5c0.1-2.1,0.2-4.4,0.2-6.7c-0.7-50.7-28.5-84.7-55.5-117.7
	c-19.5-23.9-38-46.5-45.6-74.2c-8.9-32.4-8.5-57.9-4-77.4C309.6,551.8,288.6,586.7,285.1,626.3L285.1,626.3z"/>
<path class="st8" d="M606.8,474c-29.5-14.1-62.6-25.3-97.2-26.9v358.7c10.8-0.4,21.4-1.4,31.7-3.1c-0.3-3.5-0.5-7.1-0.4-10.9
	c0.8-57.4,32.2-95.8,59.8-129.7c18.2-22.3,35.7-43.2,41.9-67C665.4,508,607.4,474.3,606.8,474L606.8,474z"/>
<path class="st4" d="M209.6,551.3c-6.2,53.6,23.7,104.1,70.9,138.7c-24.1-64.9,4.7-117.3,3.6-119.1c-7.8-12.4-16.8-30.2-20.3-44.3
	c-8-32.6-7-58-2-77.4C236.1,477.4,214.2,511.9,209.6,551.3L209.6,551.3z"/>
<path class="st7" d="M693.7,803.4c4.8-0.1,8.8-0.5,11.2-0.7c43.7-31.8,75.2-79.3,86-134.2c-15.6,29.8-39.7,55.7-69.8,75.6
	C715.3,767,701.4,792.6,693.7,803.4z"/>
<path class="st4" d="M791.9,551.3c-4.6-39.5-26.5-73.9-52.2-102.1c5,19.4,6,44.9-2,77.4c-3.5,14.1-12.5,31.9-20.3,44.3
	c-1.1,1.8,27.7,54.2,3.6,119.1C768.2,655.5,798.2,605,791.9,551.3L791.9,551.3z"/>
<path class="st4" d="M449.8,7.8l8.8,27.3l28.7,0c1.2,0,2.2,0.9,2.2,2.1c0,0.7-0.4,1.3-0.9,1.7l-23.3,16.8l8.9,27.3
	c0.4,1.1-0.2,2.3-1.4,2.7c-0.7,0.2-1.5,0.1-2.1-0.4l-23.1-16.8l-23.2,16.9c-1,0.7-2.3,0.5-3-0.5c-0.4-0.6-0.5-1.3-0.3-1.9h0
	l8.9-27.3L406.8,39c-1-0.7-1.2-2-0.5-3c0.5-0.6,1.2-0.9,1.9-0.9l28.6,0l8.8-27.3c0.4-1.1,1.6-1.7,2.7-1.4
	C449.1,6.6,449.5,7.1,449.8,7.8L449.8,7.8z"/>
<path class="st4" d="M553.2,7.8l8.8,27.3l28.7,0c1.2,0,2.2,0.9,2.2,2.1c0,0.7-0.4,1.3-0.9,1.7l-23.3,16.8l8.9,27.3
	c0.4,1.1-0.2,2.3-1.4,2.7c-0.7,0.2-1.5,0.1-2.1-0.4l-23.1-16.8L528,85.5c-1,0.7-2.3,0.5-3-0.5c-0.4-0.6-0.5-1.3-0.3-1.9h0l9-27.3
	L510.3,39c-1-0.7-1.2-2-0.5-3c0.5-0.6,1.2-0.9,1.9-0.9l28.6,0l8.8-27.3c0.4-1.1,1.6-1.7,2.7-1.4C552.5,6.6,553,7.1,553.2,7.8
	L553.2,7.8z"/>
<path class="st9" d="M307.7,394.7c0,5.4-0.7,8.9-2.2,10.3c-1,0.9-2.8,1.4-5.4,1.6c-0.1,0-0.5,0-1.3,0c-1,0-1.8,0.1-2.4,0.1h-14.5
	V349h12.4c6.1,0,9.9,0.5,11.2,1.6c1.4,1.2,2.2,3.6,2.2,7v8c0,4.7-1.5,7.5-4.4,8.5l-3.5,1.2l3.2,1.2c1.7,0.6,2.9,1.7,3.6,3.2
	c0.8,1.7,1.2,4.5,1.2,8.6V394.7z M293.5,371.9c1.8,0,3.1-0.4,3.9-1.2c0.8-0.8,1.2-2.4,1.2-4.6v-4.2c0-3-0.4-4.9-1.2-5.8
	c-0.7-0.7-2-1-3.7-1l0.1-0.1c-0.4,0-0.7-0.1-0.9-0.1h-1.9v16.8H293.5z M293.9,400.3c1.6,0,2.8-0.4,3.6-1.2c0.8-0.8,1.2-2,1.2-3.7
	v-10.9c-0.1-3.5-1.6-5.3-4.5-5.3h-3.2v21.1H293.9z"/>
<path class="st9" d="M349,349l7.1,57.6H348l-1-12.2h-8.6l-0.9,12.2h-8.1l7.3-57.6H349z M338.7,388.3h7.8l-3.5-27.6l-0.9-0.1
	L338.7,388.3z"/>
<path class="st9" d="M401.8,404.1c-0.7,1-1.7,1.7-3,1.9c-1.5,0.4-4.6,0.6-9.1,0.6c-5.6,0-9-0.7-10.2-2.1c-0.8-0.9-1.3-2.2-1.6-4
	c-0.1-0.7-0.1-2.9-0.1-6.4v-8.5h8.6v9.3c0,2.1,0.5,3.6,1.4,4.5c0.7,0.7,1.6,1,2.7,1c1.1,0,1.9-0.3,2.7-1c1-0.9,1.4-2.1,1.4-3.7v-8.3
	l-0.1-1.4c-0.1-2.4-1.4-4.2-3.8-5.5c-0.3-0.1-0.7-0.3-1.2-0.6c0,0-0.1,0-0.1-0.1l-5.6-3.2c-2.6-1.5-4.3-2.9-5-4.1
	c-0.7-1.2-1-3.6-1-7.1v-7.1c0-3.9,0.6-6.4,1.8-7.5c1.3-1.2,5.3-1.8,12-1.8c3.6,0,6.2,0.2,7.6,0.5c1.1,0.3,2,0.9,2.7,1.8
	c1,1.3,1.5,4.2,1.5,8.4v6h-8.6v-4.7c0-1.8-0.2-3.1-0.5-3.7l-0.1-0.3c-0.9-1.3-2-2-3.5-2c-1.7,0-3,0.7-3.7,2.2v0.1l-0.1,0.1
	c-0.3,0.8-0.4,2-0.4,3.7v4.5c0,2.4,1.4,4.4,4.3,5.8l0.1-0.1c0,0,0.2,0.2,0.7,0.5l4.6,2.5c3.3,1.8,5.4,3.4,6.1,4.7
	c0.7,1.2,1.1,3.7,1.1,7.5v9.8c0,3.9,0,5.9,0,5.9S402.8,402.9,401.8,404.1z"/>
<path class="st9" d="M450.3,349l-6.5,26.9l7.8,30.7h-8.7l-7.9-27.6h-1v27.6h-9.1V349h9.1v25h0.8l7-25H450.3z"/>
<path class="st9" d="M489.4,349v5.9h-7.2v16.7h7.2v6.1h-7.2v22.6h7.2v6.3h-16.3V349H489.4z"/>
<path class="st9" d="M533,349v6h-6.3v51.6h-9.1V355H511v-6H533z"/>
<path class="st9" d="M580.4,394.7c0,5.4-0.7,8.9-2.2,10.3c-1,0.9-2.8,1.4-5.4,1.6c-0.1,0-0.5,0-1.3,0c-1,0-1.8,0.1-2.4,0.1h-14.5
	V349H567c6.1,0,9.9,0.5,11.2,1.6c1.4,1.2,2.2,3.6,2.2,7v8c0,4.7-1.5,7.5-4.4,8.5l-3.5,1.2l3.2,1.2c1.7,0.6,2.9,1.7,3.6,3.2
	c0.8,1.7,1.2,4.5,1.2,8.6L580.4,394.7L580.4,394.7z M566.3,371.9c1.8,0,3.1-0.4,3.9-1.2c0.8-0.8,1.2-2.4,1.2-4.6v-4.2
	c0-3-0.4-4.9-1.2-5.8c-0.7-0.7-2-1-3.7-1l0.1-0.1c-0.4,0-0.7-0.1-0.9-0.1h-1.9v16.8H566.3z M566.6,400.3c1.6,0,2.8-0.4,3.6-1.2
	c0.8-0.8,1.2-2,1.2-3.7v-10.9c-0.1-3.5-1.6-5.3-4.5-5.3h-3.2v21.1H566.6z"/>
<path class="st9" d="M621.8,349l7.1,57.6h-8.2l-1-12.2H611l-0.9,12.2H602l7.3-57.6H621.8z M611.5,388.3h7.8l-3.5-27.6l-0.9-0.1
	L611.5,388.3z"/>
<path class="st9" d="M659.5,349v51.3h7.9v6.3h-16.9V349H659.5z"/>
<path class="st9" d="M698,349v51.3h7.9v6.3H689V349H698z"/>
<path class="st9" d="M494.4,915v1.3h-1.6v3.7h1.6v1.4h-1.6v5h1.6v1.4h-3.6V915H494.4z"/>
<path class="st9" d="M501.4,927.3c-0.2,0.2-0.4,0.4-0.7,0.4c-0.3,0.1-1,0.1-2,0.1c-1.3,0-2-0.2-2.3-0.5c-0.2-0.2-0.3-0.5-0.4-0.9
	c0-0.2,0-0.6,0-1.4v-1.9h1.9v2.1c0,0.5,0.1,0.8,0.3,1c0.2,0.1,0.4,0.2,0.6,0.2c0.2,0,0.4-0.1,0.6-0.2c0.2-0.2,0.3-0.5,0.3-0.8v-1.8
	l0-0.3c0-0.5-0.3-0.9-0.9-1.2c-0.1,0-0.2-0.1-0.3-0.1c0,0,0,0,0,0l-1.3-0.7c-0.6-0.3-1-0.6-1.1-0.9c-0.1-0.3-0.2-0.8-0.2-1.6v-1.6
	c0-0.9,0.1-1.4,0.4-1.7c0.3-0.3,1.2-0.4,2.7-0.4c0.8,0,1.4,0,1.7,0.1c0.2,0.1,0.4,0.2,0.6,0.4c0.2,0.3,0.3,0.9,0.3,1.9v1.3h-1.9v-1
	c0-0.4,0-0.7-0.1-0.8l0-0.1c-0.2-0.3-0.5-0.5-0.8-0.5c-0.4,0-0.7,0.2-0.8,0.5v0l0,0c-0.1,0.2-0.1,0.4-0.1,0.8v1c0,0.5,0.3,1,1,1.3
	l0,0c0,0,0.1,0,0.2,0.1l1,0.6c0.7,0.4,1.2,0.8,1.4,1c0.2,0.3,0.2,0.8,0.2,1.7v2.2c0,0.9,0,1.3,0,1.3S501.6,927.1,501.4,927.3z"/>
<path class="st9" d="M508.2,915v1.3h-1.4v11.5h-2v-11.5h-1.5V915H508.2z"/>
<path class="st10" d="M317.8,295.3c0,9.7-1.3,15.9-4,18.4c-1.8,1.6-5,2.6-9.7,2.8c-0.2,0-0.9,0-2.3,0c-1.7,0.1-3.2,0.1-4.4,0.1
	h-25.9V213.5h22.2c11,0,17.7,0.9,20.1,2.8c2.6,2.2,3.9,6.4,3.9,12.5v14.3c0,8.4-2.6,13.5-7.9,15.2l-6.2,2.1l5.7,2.1
	c3.1,1.1,5.2,3,6.5,5.7c1.4,3,2.1,8.1,2.1,15.4L317.8,295.3L317.8,295.3z M292.4,254.4c3.3,0,5.6-0.7,7-2.1c1.5-1.5,2.2-4.2,2.2-8.3
	v-7.5c0-5.4-0.7-8.9-2.1-10.3c-1.3-1.2-3.5-1.8-6.7-1.8l0.1-0.1c-0.7-0.1-1.2-0.1-1.7-0.1h-3.5v30.2L292.4,254.4L292.4,254.4z
	 M293,305.3c2.9,0,5.1-0.7,6.5-2.2c1.4-1.4,2.1-3.6,2.1-6.6V277c-0.2-6.3-2.8-9.4-8-9.4h-5.8v37.8H293z"/>
<path class="st10" d="M391.9,213.5l12.8,103.2h-14.7l-1.8-21.8h-15.5l-1.7,21.8h-14.4l13-103.2H391.9z M373.4,283.8h14.1l-6.3-49.4
	l-1.7-0.1L373.4,283.8z"/>
<path class="st10" d="M489.4,316.7h-15.5v-29.5c0-5.9-0.4-9.6-1.2-11.1c-1.2-2.1-4-3.3-8.5-3.4h-5.2v44h-15.7V213.5h20.4
	c0.3,0,0.6,0,0.8,0l8.3,0.3c7.1,0.1,11.7,1.2,13.7,3.4c2,2.1,3,6.9,3,14.3V243c0,7.5-0.8,12.7-2.3,15.7c-1.1,2.1-3.1,3.6-5.9,4.4
	l-5.5,1.4v2.2l5.4,1.8c2.9,1,5.1,2.8,6.5,5.2c1.3,2.4,1.9,8.4,1.9,17.9L489.4,316.7L489.4,316.7z M473.9,235.9l-0.1-2.8
	c0-3.2-0.8-5.5-2.3-6.8c-1.4-1.2-3.4-1.8-5.9-1.8h-6.5v35.2h5.5c3.1,0,5.4-0.6,6.8-1.9c1.6-1.5,2.5-4.8,2.5-9.7V235.9z"/>
<path class="st10" d="M544.2,213.5v91.8h14.2v11.4h-30.3V213.5H544.2z"/>
<path class="st10" d="M626.2,213.5v10.6h-12.9V254h12.9v11h-12.9v40.5h12.9v11.2h-29.2V213.5H626.2z"/>
<path class="st10" d="M708,312.2c-1.3,1.8-3.1,3-5.4,3.5c-2.8,0.7-8.2,1-16.3,1c-10.1,0-16.2-1.2-18.3-3.7c-1.5-1.5-2.4-3.9-2.8-7.1
	c-0.2-1.3-0.3-5.1-0.3-11.5v-15.2h15.4v16.6c0,3.8,0.9,6.5,2.6,8c1.3,1.2,2.9,1.8,4.9,1.8c1.9,0,3.5-0.6,4.8-1.8
	c1.7-1.5,2.6-3.8,2.6-6.7v-14.8l-0.3-2.6c-0.2-4.2-2.5-7.5-6.8-9.9c-0.6-0.3-1.3-0.6-2.1-1c-0.1,0-0.2,0-0.3-0.1l-10.1-5.7
	c-4.7-2.7-7.7-5.1-8.9-7.4c-1.2-2.2-1.8-6.4-1.8-12.6v-12.8c0-7,1.1-11.4,3.2-13.4c2.3-2.1,9.5-3.2,21.4-3.2c6.5,0,11,0.3,13.5,0.9
	c2,0.5,3.6,1.6,4.8,3.2c1.8,2.4,2.7,7.4,2.7,15.1v10.8h-15.5v-8.4c0-3.3-0.3-5.5-0.9-6.7l-0.3-0.5c-1.5-2.4-3.6-3.6-6.2-3.6
	c-3.1,0-5.3,1.3-6.6,4v0.1l-0.1,0.1c-0.5,1.4-0.8,3.6-0.8,6.6v8c0,4.4,2.6,7.9,7.7,10.4l0.1-0.1c0,0.1,0.4,0.4,1.3,0.9l8.3,4.5
	c5.9,3.3,9.6,6.1,11,8.4c1.3,2.2,1.9,6.7,1.9,13.4v17.5c0,7.1,0,10.6,0,10.6S709.7,309.9,708,312.2z"/>
<rect x="268" y="185" class="st11" width="522" height="43"/>
<path class="st12" d="M490.8,930.1c0.3-0.1,0.8-0.2,1.3-0.2c0.3,0,0.5,0.1,0.8,0.2c0.5,0.3,0.8,0.8,0.8,1.6c0,0.4-0.1,0.8-0.2,1.1
	l-1.5,4.5h1.1l0.5-0.4v1.5h-3l2-6.2c0.1-0.2,0.1-0.4,0-0.6c-0.1-0.4-0.4-0.6-1.1-0.6c-0.3,0-0.6,0.2-0.8,0.5L490.8,930.1
	L490.8,930.1z"/>
<path class="st12" d="M496.7,929.8c0.8,0,1.3,0.4,1.6,1.1c0.2,0.6,0.4,1.7,0.4,3.1c0,1.4-0.1,2.4-0.3,3c-0.3,0.8-0.8,1.2-1.6,1.2
	c-0.8,0-1.3-0.4-1.6-1.1c-0.2-0.6-0.4-1.7-0.4-3.1c0-1.4,0.1-2.5,0.4-3.1C495.5,930.2,496,929.8,496.7,929.8z M496.7,937.4
	c0.3,0,0.6-0.3,0.7-1c0.1-0.4,0.1-1.2,0.1-2.4c0-1.1,0-1.8-0.1-2.3c-0.1-0.7-0.4-1-0.7-1c-0.3,0-0.5,0.3-0.7,0.9
	c-0.1,0.5-0.1,1.3-0.1,2.4c0,1.1,0,1.9,0.1,2.3C496.2,937.1,496.4,937.4,496.7,937.4z"/>
<path class="st12" d="M501.7,929.8c0.8,0,1.3,0.4,1.6,1.1c0.2,0.6,0.4,1.7,0.4,3.1c0,1.4-0.1,2.4-0.3,3c-0.3,0.8-0.8,1.2-1.6,1.2
	c-0.8,0-1.3-0.4-1.6-1.1c-0.2-0.6-0.4-1.7-0.4-3.1c0-1.4,0.1-2.5,0.4-3.1C500.4,930.2,500.9,929.8,501.7,929.8z M501.7,937.4
	c0.3,0,0.6-0.3,0.7-1c0.1-0.4,0.1-1.2,0.1-2.4c0-1.1,0-1.8-0.1-2.3c-0.1-0.7-0.4-1-0.7-1c-0.3,0-0.5,0.3-0.7,0.9
	c-0.1,0.5-0.1,1.3-0.1,2.4c0,1.1,0,1.9,0.1,2.3C501.1,937.1,501.3,937.4,501.7,937.4z"/>
<path class="st12" d="M508.4,935.9c0,0.4-0.1,0.8-0.2,1.2c-0.3,0.8-0.9,1.2-1.7,1.2c-0.3,0-0.6-0.1-0.9-0.3
	c-0.6-0.4-0.9-1.1-0.9-2.1c0-0.2,0-0.5,0.1-0.8c0.2-0.6,0.5-1,1-1.3c-0.2-0.1-0.3-0.2-0.5-0.4c-0.3-0.4-0.5-0.9-0.5-1.5
	c0-0.3,0.1-0.7,0.2-1c0.3-0.7,0.8-1,1.5-1c0.3,0,0.6,0.1,0.9,0.2c0.6,0.3,0.9,0.9,0.9,1.8c0,0.2,0,0.5-0.1,0.8
	c-0.2,0.5-0.4,0.9-0.8,1.1c0.2,0.1,0.4,0.3,0.5,0.5C508.2,934.8,508.4,935.3,508.4,935.9z M505.8,932.5c0,0.4,0.1,0.7,0.4,0.9
	c0.1,0.1,0.3,0.1,0.4,0.1c0.3,0,0.5-0.2,0.6-0.5c0.1-0.2,0.1-0.3,0.1-0.5v-0.9c0-0.4-0.1-0.7-0.3-0.9c-0.1-0.1-0.2-0.1-0.4-0.1
	c-0.3,0-0.5,0.2-0.6,0.5c-0.1,0.2-0.1,0.3-0.1,0.5L505.8,932.5L505.8,932.5z M507.3,935.3c0-0.5-0.1-0.8-0.4-0.9
	c-0.1-0.1-0.3-0.1-0.4-0.1c-0.3,0-0.5,0.1-0.6,0.4c-0.1,0.1-0.1,0.3-0.1,0.4v1.6c0,0.3,0.1,0.6,0.4,0.7c0.1,0.1,0.3,0.1,0.4,0.1
	c0.3,0,0.5-0.2,0.7-0.5c0.1-0.2,0.1-0.4,0.1-0.5L507.3,935.3L507.3,935.3z"/>
<polygon class="st13" points="496,25.2 512.2,57.6 548.1,62.9 522.1,88.3 528.2,124.1 496,107.2 463.9,124.1 470.1,88.3 444,62.9 
	480,57.6 "/>
<path class="st14" d="M501.5,223.3c-58.7,0-106.5-47.8-106.5-106.5c0-58.7,47.8-106.5,106.5-106.5c58.7,0,106.5,47.8,106.5,106.5
	C608,175.6,560.2,223.3,501.5,223.3z M501.5,42.7c-40.9,0-74.1,33.2-74.1,74.1c0,40.9,33.2,74.2,74.1,74.2
	c40.9,0,74.2-33.3,74.2-74.2C575.7,75.9,542.4,42.7,501.5,42.7z"/>
<path class="st14" d="M502.4,79c-132.5,0-362.7,59-362.7,59s0,512.7,0,586.8c38,85.7,96,126.6,174.3,165.6
	c50.7,25.3,102.1,53.3,188.7,79.9c86.6-26.6,137.8-54.6,188.5-79.9c78.3-39,136.3-79.9,174.1-165.6c0-74.1,0-586.8,0-586.8
	S634.8,79,502.4,79z"/>
<path class="st15" d="M502.4,101.3c-125.9,0-345.5,56.1-345.5,56.1s0,487,0,557.5c36.7,81.4,91.6,120.3,166,157.3
	c48.2,24,97.2,50.7,179.4,75.9c82.3-25.3,131.4-52,179.6-75.9c74.4-37,129.3-76,165.9-157.3c0-70.5,0-557.5,0-557.5
	S628.2,101.3,502.4,101.3z"/>
<path class="st16" d="M502.9,122.5c-119.6,0-327.7,53.3-327.7,53.3s0,462.7,0,529.6c33.4,77.3,86.5,114.3,157.2,149.5
	c45.8,22.8,92.1,48.1,170.2,72.1c78.2-24,124.8-49.3,170.5-72.1c70.6-35.2,123-72.2,157.5-149.5c0-66.9,0-529.6,0-529.6
	S622.5,122.5,502.9,122.5z"/>
<path class="st14" d="M502.9,142.6c-113.6,0-311.5,50.6-311.5,50.6s0,439.6,0,503.2c32.4,73.4,82.3,108.5,149.4,142
	c43.5,21.7,87.5,45.7,161.8,68.5c74.3-22.8,118.7-46.9,162.1-68.5c67.1-33.4,117.4-68.6,149.8-142c0-63.6,0-503.2,0-503.2
	S616.5,142.6,502.9,142.6z"/>
<rect x="189.2" y="221.3" class="st16" width="631.7" height="16.2"/>
<rect x="189.2" y="466" class="st16" width="631.7" height="16.2"/>
<path class="st16" d="M301.9,737.6c23.1,22.6,89.4,71.1,137,113.5c4.9,4.4,21,8.4,27.9,7.8c1.7-0.2,6.4-1.1,10.8-5.6
	c6.2-6.3,2.6-22.9-0.9-28.7C462,800,438,759.3,430.2,744.5l45,0.1c0,0,1.8,0.5,6.4-4.1c3.5-3.5,1.3-8.5,1.3-8.5L433,649.4
	c-3.9-6.2-5-11.2,3.6-11.2H480c8.6,0,14.3-7.3,10.5-13.6l-93.9-152.9c-1.9-3.2-6-5.2-10.5-5.2H193.9c-9.6,0-15.1,8.8-9.4,15
	l113.3,121.3c0,0,3.1,2.9-1.2,2.9l-47.8-0.2c-8.3,4.1-10.8,17.5-4.7,23.6l74.4,76.8c0,0-4.9,2.6-12.3,2.6c-9.1,0-9.5,5.2-10.8,10.2
	C294.2,723.3,294.9,730.8,301.9,737.6z"/>
<path class="st16" d="M706.3,718.7c-1.3-5-1.7-10.2-10.8-10.2c-7.4,0-12.3-2.6-12.3-2.6l74.4-76.8c6.1-6.1,3.6-19.5-4.7-23.6
	l-47.9,0.2c-4.3,0-1.2-2.9-1.2-2.9l113.3-121.3c5.8-6.2,0.3-15-9.3-15H615.7c-4.5,0-8.5,2-10.5,5.2l-93.9,152.9
	c-3.8,6.3,1.8,13.6,10.5,13.6H565c8.7,0,7.5,4.9,3.6,11.2l-49.9,82.5c0,0-2.2,5.1,1.3,8.5c4.6,4.6,6.4,4.1,6.4,4.1l45-0.1
	c-7.8,14.8-31.9,55.5-46.5,80.1c-3.4,5.7-7.1,22.4-0.8,28.7c4.4,4.5,9.1,5.4,10.8,5.6c6.9,0.7,22.9-3.4,27.8-7.8
	c47.6-42.4,113.9-90.9,137-113.5C706.8,730.8,707.5,723.3,706.3,718.7z"/>
<path class="st15" d="M547.3,845.8l143.5-116c5.9-4.7,1.7-12.8-6.7-12.8h-11.4c-7.8,0-12.2-7.3-7.3-12.2l76.1-77.2
	c4.8-4.9,0.5-12.2-7.3-12.2h-38.3c-7.7,0-12.1-7.1-7.5-12l97.2-104c4.6-5,0.2-12-7.5-12H624.4c-3.6,0-6.8,1.6-8.4,4.2l-75.1,122.3
	c-3.1,5,1.5,10.9,8.4,10.9h34.7c6.9,0,11.4,5.9,8.3,10.9l-51.4,83.7c-3.1,5,1.5,10.8,8.4,10.8h32.6c6.9,0,11.4,5.8,8.4,10.8
	l-58,96.3C527.7,844.8,539.9,851.7,547.3,845.8L547.3,845.8z"/>
<path class="st15" d="M455.8,845.8c7.4,6,19.6-0.9,15-8.6l-58-96.3c-3-5,1.5-10.8,8.4-10.8h32.7c6.9,0,11.4-5.9,8.4-10.8l-51.4-83.7
	c-3.1-5,1.4-10.9,8.3-10.9h34.7c6.9,0,11.4-5.9,8.4-10.9L387,491.5c-1.5-2.6-4.8-4.2-8.4-4.2H224.9c-7.7,0-12.1,7.1-7.5,12l97.2,104
	c4.6,5,0.2,12-7.5,12h-38.3c-7.8,0-12.2,7.2-7.3,12.2l76.1,77.2c4.8,4.9,0.5,12.2-7.4,12.2h-11.4c-8.3,0-12.5,8.1-6.6,12.8
	L455.8,845.8L455.8,845.8z"/>
<rect x="161.2" y="237.5" class="st15" width="675.9" height="228.5"/>
<path class="st15" d="M501.5,30.8c47.5,0,86,38.5,86,86c0,47.5-38.5,86-86,86c-47.5,0-86-38.5-86-86C415.5,69.3,454,30.8,501.5,30.8
	z"/>
<path class="st15" d="M501.5,208.2c-50.4,0-91.4-41-91.4-91.4c0-50.4,41-91.4,91.4-91.4c50.4,0,91.4,41,91.4,91.4
	C592.9,167.2,551.9,208.2,501.5,208.2z M501.5,36.2c-44.4,0-80.6,36.2-80.6,80.6c0,44.5,36.2,80.6,80.6,80.6
	c44.5,0,80.6-36.2,80.6-80.6C582.1,72.4,546,36.2,501.5,36.2z"/>
<path class="st16" d="M584.7,120.4h-78v12.4c7.7,0.5,15.1,2.3,22.2,5.3c8.2,3.5,15.6,8.5,22,14.8c5.3,5.3,9.6,11.3,13,17.9
	C576,157.2,583.7,139.7,584.7,120.4L584.7,120.4z"/>
<path class="st16" d="M556.9,53.6c-13.5-12-30.9-19.5-50.1-20.7v56.5c14.2-1.1,27.4-7.2,37.5-17.3C549.7,66.7,553.9,60.4,556.9,53.6
	L556.9,53.6z"/>
<path class="st16" d="M497.3,110.9V98.9c-7.6-0.5-15.1-2.3-22.2-5.3c-8.2-3.5-15.7-8.5-22-14.8c-5.4-5.3-9.7-11.4-13-18.1
	c-12,13.5-19.7,31-20.8,50.3C419.4,110.9,497.3,110.9,497.3,110.9z"/>
<path class="st16" d="M440.2,170.8c3.3-6.6,7.6-12.6,13-17.9c6.3-6.3,13.7-11.4,22-14.8c7.1-3,14.5-4.8,22.2-5.3v-12.4h-78
	C420.5,139.7,428.2,157.2,440.2,170.8L440.2,170.8z"/>
<path class="st16" d="M506.8,110.9h78c-1.1-19.2-8.7-36.8-20.8-50.3c-3.3,6.7-7.7,12.8-13,18.1c-6.3,6.4-13.7,11.3-22,14.8
	c-7.1,3-14.6,4.8-22.2,5.3L506.8,110.9C506.8,110.9,506.8,110.9,506.8,110.9z"/>
<path class="st16" d="M544.3,159.5c-10.2-10.2-23.3-16.2-37.5-17.3v56.1c19.1-1.1,36.5-8.6,50-20.5
	C553.8,171.1,549.7,164.9,544.3,159.5L544.3,159.5z"/>
<path class="st16" d="M459.8,72.1c10.2,10.2,23.3,16.2,37.5,17.3V33c-19.2,1.1-36.6,8.7-50.1,20.6C450.2,60.4,454.4,66.7,459.8,72.1
	L459.8,72.1z"/>
<path class="st16" d="M497.3,142.2c-14.2,1.1-27.4,7.1-37.5,17.3c-5.3,5.3-9.6,11.6-12.5,18.3c13.5,11.9,30.9,19.5,50,20.5
	L497.3,142.2L497.3,142.2z"/>
<polygon class="st17" points="501.5,416.1 168.7,416.1 91.1,326.8 501.5,326.8 "/>
<polygon class="st17" points="501.8,416.5 834.5,416.5 912.2,327.1 501.8,327.1 "/>
<path class="st18" d="M842.6,95.4H504.8h-3.5H163.5c0,0-90.1,439.2,36,608.6C318.3,863.5,484.2,858,503.1,856.9
	c18.8,1.2,184.8,6.6,303.6-152.9C932.7,534.6,842.6,95.4,842.6,95.4z"/>
<path class="st19" d="M822.8,117.3h-318h-3.5h-318c0,0-84.8,414,33.9,573.6C329,841,484.9,836.1,503.1,835
	c18.1,1.1,174.1,6,285.8-144.1C907.7,531.3,822.8,117.3,822.8,117.3z"/>
<polygon class="st12" points="502,366.2 912.2,327.2 900.4,198.8 502,198.8 501.2,198.8 102.8,198.8 91,327.2 501.2,366.2 
	501.2,366.3 501.6,366.3 502,366.3 "/>
<path class="st20" d="M501.2,531c114.7,0,207.7,93,207.7,207.7c0,114.7-93,207.7-207.7,207.7c-114.7,0-207.7-93-207.7-207.7
	C293.5,624,386.5,531,501.2,531z"/>
<path class="st21" d="M501.2,954.8c-119.1,0-216.1-96.9-216.1-216.1c0-119.1,96.9-216.1,216.1-216.1c119.2,0,216.1,96.9,216.1,216.1
	C717.3,857.8,620.4,954.8,501.2,954.8z M501.2,539.3c-109.9,0-199.3,89.4-199.3,199.3c0,109.9,89.4,199.3,199.3,199.3
	c109.9,0,199.3-89.4,199.3-199.3C700.5,628.8,611.1,539.3,501.2,539.3z"/>
<path class="st22" d="M700.1,725.4L700.1,725.4l0-0.4c-2.3-36.4-13.8-71.1-33.1-100.5c-19.8-30-46.9-53-78.5-66.5
	c-27.6-13.6-57.4-20.5-88.4-20.5c-105.6,0-193.5,82.5-200.1,187.8l0,0.4v0c-0.3,4.2-0.4,8.3-0.4,12.2c0,40.8,12.2,80.1,35.3,113.6
	c20.6,29.9,48.6,53.4,81.2,68.4l-0.2,0.2l9.5,3.8c0,0,0,0,0.1,0l4.4,1.8l0,0c22.4,8.4,46,12.6,70.1,12.6
	c110.5,0,200.5-89.9,200.5-200.5C700.5,734,700.3,729.7,700.1,725.4z M686.1,725.6c0,0.5,0,1-0.1,1.4c0,0.5,0,0.9-0.1,1.4
	c0,0.5-0.1,1.1-0.1,1.6c0,0.4-0.1,0.9-0.1,1.3c-0.1,0.6-0.1,1.2-0.2,1.9c-0.1,0.6-0.1,1.3-0.2,1.9c-0.1,0.7-0.2,1.3-0.3,2
	c-0.1,0.4-0.1,0.8-0.2,1.2c-0.1,0.5-0.2,1.1-0.3,1.6c-0.1,0.4-0.2,0.9-0.2,1.3c-0.1,0.5-0.2,1-0.3,1.5c-0.1,0.4-0.2,0.9-0.3,1.3
	c-0.1,0.5-0.2,1-0.3,1.5c-0.1,0.4-0.2,0.9-0.3,1.3c-0.1,0.5-0.2,1-0.4,1.5c-0.1,0.4-0.2,0.9-0.4,1.3c-0.1,0.5-0.3,1-0.4,1.5
	c-0.1,0.4-0.3,0.9-0.4,1.3c-0.1,0.5-0.3,1-0.4,1.4c-0.1,0.4-0.3,0.9-0.4,1.3c-0.2,0.5-0.3,1-0.5,1.4c-0.1,0.4-0.3,0.9-0.5,1.3
	c-0.2,0.5-0.3,1-0.5,1.4c-0.2,0.4-0.3,0.9-0.5,1.3c-0.2,0.5-0.4,1-0.6,1.4c-0.2,0.4-0.3,0.8-0.5,1.3c-0.2,0.5-0.4,1-0.6,1.4
	c-0.2,0.4-0.4,0.8-0.6,1.2c-0.2,0.5-0.4,1-0.7,1.4c-0.2,0.4-0.4,0.8-0.6,1.2c-0.2,0.5-0.5,0.9-0.7,1.4c-0.2,0.4-0.4,0.8-0.6,1.2
	c-0.2,0.5-0.5,0.9-0.7,1.4c-0.2,0.4-0.4,0.8-0.6,1.2c-0.3,0.5-0.5,0.9-0.8,1.4c-0.2,0.4-0.4,0.8-0.7,1.2c-0.3,0.5-0.6,1-0.8,1.4
	c-0.2,0.4-0.5,0.8-0.7,1.1c-0.3,0.5-0.6,0.9-0.9,1.4c-0.2,0.4-0.5,0.7-0.7,1.1c-0.3,0.5-0.6,1-0.9,1.4c-0.2,0.4-0.5,0.7-0.7,1.1
	c-0.3,0.5-0.7,1-1,1.4c-0.2,0.3-0.5,0.7-0.7,1c-0.3,0.5-0.7,1-1,1.4c-0.2,0.3-0.5,0.7-0.7,1c-0.4,0.5-0.7,1-1.1,1.4
	c-0.2,0.3-0.5,0.6-0.7,1c-0.4,0.5-0.8,1-1.2,1.5c-0.2,0.3-0.5,0.6-0.7,0.9c-0.4,0.5-0.8,1-1.3,1.5c-0.2,0.3-0.5,0.6-0.7,0.8
	c-0.5,0.5-0.9,1-1.4,1.6c-0.2,0.3-0.4,0.5-0.7,0.8c-0.5,0.5-1,1.1-1.5,1.7c-0.2,0.2-0.4,0.4-0.6,0.6c-0.6,0.6-1.2,1.2-1.8,1.8
	c-0.1,0.1-0.3,0.3-0.4,0.4c-3,3-6.1,6-9.4,8.8c-0.1,0.1-0.1,0.1-0.2,0.2c-0.7,0.6-1.5,1.3-2.3,1.9c-0.2,0.1-0.3,0.3-0.5,0.4
	c-0.7,0.6-1.4,1.1-2.1,1.7c-0.2,0.2-0.4,0.3-0.6,0.5c-0.7,0.5-1.3,1-2,1.5c-0.2,0.2-0.5,0.4-0.7,0.6c-0.6,0.5-1.3,1-1.9,1.4
	c-0.3,0.2-0.5,0.4-0.8,0.6c-0.6,0.5-1.3,0.9-1.9,1.3c-0.3,0.2-0.6,0.4-0.9,0.6c-0.6,0.4-1.2,0.9-1.9,1.3c-0.3,0.2-0.6,0.4-0.9,0.6
	c-0.6,0.4-1.2,0.8-1.9,1.2c-0.3,0.2-0.7,0.4-1,0.6c-0.6,0.4-1.2,0.8-1.9,1.2c-0.3,0.2-0.7,0.4-1,0.6c-0.6,0.4-1.3,0.8-1.9,1.1
	c-0.4,0.2-0.7,0.4-1.1,0.6c-0.6,0.4-1.3,0.7-1.9,1.1c-0.4,0.2-0.7,0.4-1.1,0.6c-0.6,0.4-1.3,0.7-1.9,1.1c-0.4,0.2-0.7,0.4-1.1,0.6
	c-0.6,0.3-1.3,0.7-1.9,1c-0.4,0.2-0.8,0.4-1.1,0.6c-0.7,0.3-1.3,0.7-2,1c-0.4,0.2-0.8,0.4-1.2,0.6c-0.7,0.3-1.3,0.6-2,1
	c-0.4,0.2-0.8,0.4-1.2,0.6c-0.7,0.3-1.4,0.6-2,1c-0.4,0.2-0.8,0.4-1.2,0.5c-0.7,0.3-1.4,0.6-2.1,0.9c-0.4,0.2-0.8,0.4-1.2,0.5
	c-0.7,0.3-1.4,0.6-2.1,0.9c-0.4,0.2-0.8,0.3-1.2,0.5c-0.7,0.3-1.4,0.6-2.1,0.9c-0.4,0.2-0.8,0.3-1.2,0.5c-0.7,0.3-1.5,0.6-2.2,0.8
	c-0.4,0.2-0.8,0.3-1.2,0.5c-0.8,0.3-1.5,0.6-2.3,0.8c-0.4,0.1-0.8,0.3-1.2,0.4c-0.8,0.3-1.5,0.5-2.3,0.8c-0.4,0.1-0.8,0.3-1.2,0.4
	c-0.8,0.3-1.6,0.5-2.4,0.8c-0.4,0.1-0.8,0.2-1.1,0.4c-0.8,0.3-1.7,0.5-2.5,0.8c-0.3,0.1-0.7,0.2-1.1,0.3c-0.9,0.3-1.8,0.5-2.8,0.8
	c-0.3,0.1-0.6,0.2-0.8,0.2c-1.1,0.3-2.1,0.6-3.2,0.9c-0.2,0-0.3,0.1-0.5,0.1c-2.5,0.7-5,1.3-7.5,1.8c0,0-0.1,0-0.1,0
	c-1.2,0.3-2.4,0.5-3.7,0.8c-0.3,0.1-0.7,0.1-1,0.2c-0.9,0.2-1.7,0.4-2.6,0.5c0-0.3,0-0.6,0-0.8c0-0.6,0.1-1.3,0.1-1.9
	c0.1-0.9,0.1-1.7,0.2-2.6c0-0.6,0.1-1.2,0.1-1.8c0.1-0.8,0.1-1.6,0.2-2.4c0-0.6,0.1-1.2,0.2-1.8c0.1-0.8,0.2-1.6,0.2-2.3
	c0.1-0.5,0.1-1.1,0.2-1.6c0.1-0.8,0.2-1.6,0.3-2.3c0.1-0.5,0.1-1,0.2-1.4c0.1-0.9,0.3-1.7,0.4-2.6c0-0.3,0.1-0.6,0.1-1
	c0.2-1.1,0.4-2.2,0.6-3.3c0.1-0.3,0.1-0.7,0.2-1c0.1-0.7,0.3-1.4,0.4-2.1c0.1-0.4,0.2-0.8,0.3-1.2c0.1-0.6,0.3-1.2,0.4-1.7
	c0.1-0.4,0.2-0.8,0.3-1.2c0.1-0.5,0.3-1,0.4-1.5c0.1-0.4,0.2-0.8,0.3-1.2c0.1-0.5,0.3-1,0.4-1.4c0.1-0.4,0.2-0.7,0.3-1.1
	c0.1-0.4,0.3-0.9,0.4-1.3c0.1-0.3,0.2-0.7,0.3-1c0.1-0.4,0.3-0.8,0.4-1.2c0.1-0.3,0.2-0.6,0.3-0.9c0.1-0.4,0.3-0.8,0.4-1.1
	c0.1-0.3,0.2-0.6,0.3-0.8c0.2-0.4,0.3-0.8,0.5-1.1c0.1-0.2,0.2-0.4,0.2-0.6c3.2-7.6,7.5-15.8,11.5-22.8c0.4-0.6,0.7-1.3,1.1-1.9
	c0.7-1.2,1.4-2.4,2.1-3.5c0.7-1.1,1.3-2.2,2-3.1c1.3-2,4.7-6.4,8.6-11.4c12.6-16.1,33.6-43.1,40.6-62.3c8.4-23,6.9-33.5,3.9-54.4
	c-0.4-2.9-0.9-6-1.3-9.5c-0.1-0.7-0.2-1.5-0.3-2.3c0-0.2-0.1-0.5-0.1-0.7c-0.1-0.6-0.2-1.2-0.3-1.8c0-0.3-0.1-0.5-0.1-0.8
	c-0.1-0.7-0.3-1.5-0.4-2.2c0-0.2-0.1-0.3-0.1-0.5c-0.2-0.9-0.4-1.9-0.6-2.9c0-0.2-0.1-0.4-0.1-0.6c-0.2-0.8-0.3-1.6-0.5-2.4
	c-0.1-0.3-0.1-0.6-0.2-0.9c-0.2-0.8-0.4-1.6-0.6-2.4c-0.1-0.3-0.1-0.5-0.2-0.8c-0.3-1.1-0.5-2.1-0.8-3.2c0,0,0-0.1,0-0.1
	c-0.3-1-0.5-2.1-0.8-3.1c-0.1-0.3-0.2-0.6-0.3-0.9c-0.2-0.8-0.5-1.7-0.7-2.5c-0.1-0.3-0.2-0.6-0.3-1c-0.3-1-0.6-2-0.9-3
	c0-0.1-0.1-0.2-0.1-0.3c-0.4-1.1-0.7-2.3-1.1-3.4c-0.1-0.3-0.2-0.5-0.3-0.8c-0.3-0.9-0.6-1.8-0.9-2.6c-0.1-0.3-0.3-0.7-0.4-1
	c-0.3-0.9-0.7-1.8-1-2.6c-0.1-0.3-0.2-0.5-0.3-0.8c-0.5-1.1-0.9-2.3-1.4-3.4c-0.1-0.2-0.1-0.3-0.2-0.5c-0.4-1-0.8-1.9-1.2-2.8
	c-0.1-0.3-0.3-0.7-0.4-1c-0.4-0.8-0.8-1.6-1.1-2.4c-0.1-0.2-0.2-0.4-0.3-0.6C653.4,614.8,682.2,666.3,686.1,725.6z M505.1,551.6
	c26.8,0.7,52.5,7,76.5,18.7c0.1,0.1,0.3,0.2,0.4,0.4c0.2,0.2,0.5,0.4,0.7,0.6c0.2,0.2,0.4,0.4,0.7,0.6c0.2,0.2,0.5,0.5,0.7,0.7
	c0.2,0.2,0.4,0.5,0.7,0.7c0.2,0.2,0.5,0.5,0.7,0.7c0.2,0.3,0.4,0.5,0.7,0.8c0.2,0.3,0.4,0.5,0.7,0.8c0.2,0.3,0.4,0.5,0.7,0.8
	c0.2,0.3,0.4,0.5,0.6,0.8c0.2,0.3,0.4,0.6,0.7,0.9c0.2,0.3,0.4,0.6,0.6,0.9c0.2,0.3,0.4,0.6,0.7,1c0.2,0.3,0.4,0.6,0.6,0.9
	c0.2,0.3,0.4,0.7,0.7,1c0.2,0.3,0.4,0.6,0.6,0.9c0.2,0.4,0.4,0.7,0.6,1.1c0.2,0.3,0.4,0.6,0.6,0.9c0.2,0.4,0.4,0.8,0.6,1.1
	c0.2,0.3,0.4,0.6,0.5,1c0.2,0.4,0.4,0.8,0.6,1.2c0.2,0.3,0.3,0.7,0.5,1c0.2,0.4,0.4,0.8,0.6,1.2c0.2,0.3,0.3,0.7,0.5,1
	c0.2,0.4,0.4,0.9,0.6,1.3c0.2,0.3,0.3,0.7,0.5,1c0.2,0.4,0.4,0.9,0.6,1.3c0.2,0.3,0.3,0.7,0.5,1c0.2,0.4,0.4,0.9,0.6,1.4
	c0.1,0.3,0.3,0.7,0.4,1c0.2,0.5,0.4,0.9,0.6,1.4c0.1,0.4,0.3,0.7,0.4,1c0.2,0.5,0.4,1,0.5,1.4c0.1,0.4,0.3,0.7,0.4,1.1
	c0.2,0.5,0.4,1,0.5,1.4c0.1,0.4,0.3,0.7,0.4,1.1c0.2,0.5,0.3,1,0.5,1.5c0.1,0.4,0.2,0.7,0.4,1.1c0.2,0.5,0.3,1,0.5,1.5
	c0.1,0.4,0.2,0.7,0.4,1.1c0.2,0.5,0.3,1,0.5,1.5c0.1,0.4,0.2,0.7,0.3,1.1c0.2,0.5,0.3,1,0.4,1.5c0.1,0.4,0.2,0.7,0.3,1.1
	c0.1,0.5,0.3,1,0.4,1.5c0.1,0.4,0.2,0.7,0.3,1.1c0.1,0.5,0.3,1,0.4,1.5c0.1,0.4,0.2,0.8,0.3,1.1c0.1,0.5,0.2,1,0.4,1.4
	c0.1,0.4,0.2,0.8,0.3,1.2c0.1,0.5,0.2,1,0.3,1.4c0.1,0.4,0.2,0.8,0.3,1.1c0.1,0.5,0.2,1,0.3,1.4c0.1,0.4,0.2,0.8,0.2,1.1
	c0.1,0.5,0.2,1,0.3,1.4c0.1,0.4,0.2,0.7,0.2,1.1c0.1,0.5,0.2,1,0.3,1.5c0.1,0.3,0.1,0.7,0.2,1.1c0.1,0.5,0.2,1,0.3,1.5
	c0.1,0.3,0.1,0.7,0.2,1c0.1,0.5,0.2,1.1,0.2,1.6c0,0.3,0.1,0.6,0.1,0.8c0.1,0.8,0.2,1.6,0.3,2.4c0.5,3.5,0.9,6.7,1.3,9.6
	c2.9,20.3,3.9,27.9-3.2,47.7c-6.2,17.1-26.4,43-38.5,58.5c-4.5,5.8-7.7,9.9-9.3,12.4c-0.3,0.5-0.7,1.1-1,1.6
	c-0.6,0.9-1.2,1.9-1.8,2.8c-5,8.2-11,19.1-15.1,29.1c-0.4,0.9-0.8,1.9-1.1,2.9c-0.1,0.3-0.2,0.6-0.3,0.9c-0.2,0.7-0.5,1.4-0.7,2
	c-0.1,0.4-0.3,0.8-0.4,1.2c-0.2,0.6-0.4,1.3-0.6,1.9c-0.1,0.4-0.3,0.9-0.4,1.3c-0.2,0.6-0.4,1.3-0.6,1.9c-0.1,0.5-0.2,0.9-0.4,1.4
	c-0.2,0.6-0.3,1.3-0.5,1.9c-0.1,0.5-0.2,0.9-0.3,1.4c-0.2,0.6-0.3,1.3-0.5,2c-0.1,0.5-0.2,1-0.3,1.5c-0.1,0.7-0.3,1.3-0.4,2
	c-0.1,0.5-0.2,1-0.3,1.5c-0.1,0.7-0.3,1.4-0.4,2.1c-0.1,0.5-0.2,1-0.3,1.5c-0.1,0.7-0.2,1.5-0.3,2.2c-0.1,0.5-0.1,1-0.2,1.5
	c-0.1,0.8-0.2,1.7-0.3,2.5c0,0.4-0.1,0.8-0.2,1.3c-0.1,1.3-0.3,2.5-0.4,3.8c0,0.1,0,0.2,0,0.3c-0.1,1.2-0.2,2.4-0.3,3.7
	c0,0.5-0.1,0.9-0.1,1.4c-0.1,0.9-0.1,1.8-0.2,2.6c0,0.6-0.1,1.1-0.1,1.7c0,0.8-0.1,1.6-0.1,2.5c0,0.6,0,1.2-0.1,1.8
	c0,0.5,0,1.1-0.1,1.6c-0.3,0-0.6,0.1-0.9,0.1c-1.7,0.2-3.5,0.4-5.2,0.6c-0.5,0.1-1,0.1-1.5,0.2c-2.1,0.2-4.2,0.4-6.3,0.6
	c-0.4,0-0.8,0.1-1.1,0.1c-1.8,0.1-3.6,0.3-5.4,0.4c-0.5,0-1.1,0.1-1.6,0.1c-2.1,0.1-4.2,0.2-6.4,0.3c-0.1,0-0.1,0-0.2,0L505.1,551.6
	L505.1,551.6z M424.7,567.5c20.5-9.1,42.9-14.6,66.4-15.7v289.4v14.2v4.4c-0.4,0-0.8,0-1.1-0.1c-1.8-0.1-3.6-0.2-5.3-0.3
	c-0.6,0-1.1-0.1-1.7-0.1c-2.2-0.2-4.5-0.4-6.7-0.6c-0.4,0-0.8-0.1-1.2-0.1c-1.9-0.2-3.7-0.4-5.6-0.7c-0.6-0.1-1.3-0.2-1.9-0.3
	c-1.9-0.3-3.9-0.6-5.8-0.9c-0.2,0-0.5-0.1-0.7-0.1c-0.7-21.2-4-39.1-9.9-53.3c-5-12-12.5-25.2-17.9-33.5c-1.6-2.5-4.9-6.7-9.3-12.4
	c-12.1-15.5-32.3-41.4-38.5-58.5c-3.9-10.7-5.4-18-5.4-25.9c0-6.2,0.9-12.7,2.2-21.8c0.4-2.9,0.9-6.1,1.3-9.6
	c3.6-26.8,21.4-68.7,41.3-73.5L424.7,567.5z M385.1,591.3c-8.4,16.8-13.7,35.6-15.4,48.4c-0.5,3.4-0.9,6.6-1.3,9.5
	c-1.3,9.3-2.3,16.6-2.3,23.8c0,9.5,1.8,18.4,6.3,30.7c7,19.2,28,46.2,40.6,62.3c3.9,5.1,7.3,9.4,8.6,11.4
	c5.1,7.8,12.1,20.2,16.7,31.3c3.5,8.4,7.6,22.9,8.7,45.2c-0.5-0.1-1.1-0.2-1.6-0.4c-0.5-0.1-1-0.2-1.5-0.3c-0.7-0.2-1.5-0.4-2.2-0.5
	c-0.5-0.1-0.9-0.2-1.4-0.4c-0.7-0.2-1.5-0.4-2.2-0.6c-0.4-0.1-0.9-0.2-1.3-0.4c-0.8-0.2-1.5-0.4-2.3-0.7c-0.4-0.1-0.8-0.2-1.2-0.4
	c-0.8-0.2-1.6-0.5-2.4-0.7c-0.4-0.1-0.7-0.2-1.1-0.3c-0.9-0.3-1.8-0.6-2.7-0.9c-0.3-0.1-0.5-0.2-0.8-0.2c-2.3-0.8-4.6-1.5-6.9-2.4
	c-0.1,0-0.2-0.1-0.2-0.1c-1-0.4-2.1-0.8-3.1-1.2c-0.3-0.1-0.6-0.2-0.9-0.4c-0.8-0.3-1.6-0.6-2.4-0.9c-0.4-0.2-0.8-0.3-1.2-0.5
	c-0.7-0.3-1.4-0.6-2.1-0.8c-0.4-0.2-0.9-0.4-1.3-0.6c-0.6-0.3-1.3-0.5-1.9-0.8c-0.5-0.2-0.9-0.4-1.4-0.6c-0.6-0.3-1.2-0.5-1.8-0.8
	c-0.5-0.2-0.9-0.4-1.4-0.6c-0.6-0.3-1.2-0.5-1.7-0.8c-0.5-0.2-0.9-0.5-1.4-0.7c-0.6-0.3-1.1-0.5-1.7-0.8c-0.5-0.2-0.9-0.5-1.4-0.7
	c-0.5-0.3-1.1-0.5-1.6-0.8c-0.5-0.3-1-0.5-1.4-0.8c-0.5-0.3-1-0.6-1.6-0.8c-0.5-0.3-1-0.5-1.4-0.8c-0.5-0.3-1-0.6-1.5-0.8
	c-0.5-0.3-0.9-0.5-1.4-0.8c-0.5-0.3-1-0.6-1.5-0.9c-0.5-0.3-0.9-0.6-1.4-0.8c-0.5-0.3-1-0.6-1.4-0.9c-0.5-0.3-0.9-0.6-1.4-0.9
	c-0.5-0.3-0.9-0.6-1.4-0.9c-0.5-0.3-0.9-0.6-1.4-0.9c-0.5-0.3-0.9-0.6-1.4-0.9c-0.5-0.3-0.9-0.6-1.4-0.9c-0.4-0.3-0.9-0.6-1.3-0.9
	c-0.5-0.3-0.9-0.6-1.4-1c-0.4-0.3-0.8-0.6-1.3-0.9c-0.5-0.3-0.9-0.7-1.4-1c-0.4-0.3-0.8-0.6-1.2-0.9c-0.5-0.3-0.9-0.7-1.4-1
	c-0.4-0.3-0.8-0.6-1.2-0.9c-0.4-0.3-0.9-0.7-1.4-1c-0.4-0.3-0.8-0.6-1.1-0.9c-0.5-0.4-0.9-0.7-1.4-1.1c-0.4-0.3-0.7-0.6-1.1-0.9
	c-0.5-0.4-0.9-0.7-1.4-1.1c-0.3-0.3-0.7-0.6-1-0.9c-0.5-0.4-0.9-0.8-1.4-1.2c-0.3-0.3-0.6-0.6-0.9-0.8c-0.5-0.4-0.9-0.8-1.4-1.3
	c-0.3-0.3-0.5-0.5-0.8-0.8c-0.5-0.5-1-0.9-1.5-1.4c-0.2-0.2-0.4-0.4-0.6-0.6c-2.6-2.5-5.1-5.1-7.4-7.7c-0.1-0.1-0.3-0.3-0.4-0.4
	c-0.5-0.5-0.9-1.1-1.4-1.6c-0.2-0.2-0.4-0.4-0.6-0.7c-0.4-0.5-0.8-1-1.2-1.5c-0.2-0.3-0.4-0.5-0.7-0.8c-0.4-0.5-0.8-1-1.2-1.5
	c-0.2-0.3-0.5-0.6-0.7-0.9c-0.4-0.5-0.7-1-1.1-1.4c-0.2-0.3-0.5-0.6-0.7-0.9c-0.4-0.5-0.7-1-1.1-1.4c-0.2-0.3-0.5-0.6-0.7-1
	c-0.3-0.5-0.7-1-1-1.4c-0.2-0.3-0.5-0.7-0.7-1c-0.3-0.5-0.6-0.9-0.9-1.4c-0.2-0.3-0.4-0.7-0.7-1c-0.3-0.5-0.6-1-0.9-1.4
	c-0.2-0.3-0.4-0.7-0.6-1c-0.3-0.5-0.6-1-0.9-1.4c-0.2-0.3-0.4-0.7-0.6-1c-0.3-0.5-0.5-1-0.8-1.4c-0.2-0.3-0.4-0.7-0.6-1.1
	c-0.3-0.5-0.5-1-0.8-1.4c-0.2-0.4-0.4-0.7-0.6-1.1c-0.2-0.5-0.5-1-0.7-1.4c-0.2-0.4-0.4-0.7-0.5-1.1c-0.2-0.5-0.5-1-0.7-1.5
	c-0.2-0.4-0.3-0.7-0.5-1.1c-0.2-0.5-0.4-1-0.7-1.5c-0.2-0.4-0.3-0.8-0.5-1.1c-0.2-0.5-0.4-1-0.6-1.5c-0.2-0.4-0.3-0.8-0.5-1.1
	c-0.2-0.5-0.4-1-0.6-1.5c-0.1-0.4-0.3-0.8-0.4-1.2c-0.2-0.5-0.4-1-0.5-1.5c-0.1-0.4-0.3-0.8-0.4-1.2c-0.2-0.5-0.3-1-0.5-1.5
	c-0.1-0.4-0.2-0.8-0.4-1.2c-0.2-0.5-0.3-1-0.5-1.5c-0.1-0.4-0.2-0.8-0.3-1.2c-0.1-0.5-0.3-1-0.4-1.5c-0.1-0.4-0.2-0.8-0.3-1.2
	c-0.1-0.5-0.3-1-0.4-1.5c-0.1-0.4-0.2-0.8-0.3-1.2c-0.1-0.5-0.2-1-0.3-1.5c-0.1-0.4-0.2-0.8-0.3-1.3c-0.1-0.5-0.2-1-0.3-1.5
	c-0.1-0.4-0.1-0.9-0.2-1.3c-0.1-0.5-0.2-1-0.2-1.4c-0.1-0.6-0.2-1.3-0.3-1.9c-0.1-0.7-0.2-1.3-0.2-2c-0.1-0.6-0.1-1.1-0.2-1.7
	c0-0.4-0.1-0.8-0.1-1.2c0-0.5-0.1-1-0.1-1.6c0-0.4-0.1-0.8-0.1-1.2c0-0.5-0.1-1-0.1-1.4C317.5,671.1,344.6,623,385.1,591.3z
	 M320.4,788.6c0.1,0.1,0.1,0.2,0.2,0.2c0.8,1.2,1.5,2.3,2.3,3.4c0.2,0.3,0.4,0.5,0.6,0.8c0.6,0.9,1.3,1.8,2,2.7
	c0.2,0.3,0.5,0.7,0.7,1c0.8,1.1,1.6,2.1,2.5,3.2c0,0,0.1,0.1,0.1,0.2c0.9,1.1,1.8,2.2,2.7,3.3c0.3,0.3,0.5,0.6,0.8,1
	c0.7,0.9,1.5,1.7,2.3,2.6c0.2,0.3,0.5,0.5,0.7,0.8c1,1.1,2,2.1,3,3.2c0.2,0.3,0.5,0.5,0.7,0.7c0.8,0.8,1.7,1.7,2.5,2.5
	c0.3,0.3,0.6,0.6,0.9,0.9c1.1,1,2.2,2.1,3.3,3.1c1.6,1.5,3.3,3,5,4.4c13.6,11.5,29.6,21.5,47.2,29.5c0,0,0,0,0,0
	c2.1,1,4.2,1.9,6.4,2.8c0.1,0,0.2,0.1,0.3,0.1c2,0.8,4,1.6,6,2.4c0.3,0.1,0.5,0.2,0.8,0.3c1.9,0.7,3.9,1.4,5.8,2.1
	c0.4,0.1,0.8,0.3,1.1,0.4c1.8,0.6,3.6,1.2,5.4,1.8c0.5,0.2,1.1,0.4,1.6,0.5c1.7,0.5,3.4,1,5.1,1.5c0.7,0.2,1.4,0.4,2.1,0.6
	c1.6,0.4,3.1,0.8,4.7,1.2c0.9,0.2,1.7,0.5,2.6,0.7c1.5,0.4,3,0.7,4.4,1c1,0.2,1.9,0.5,2.9,0.7c0,0.1,0,0.2,0,0.3
	c-0.1,1.1-0.2,2.1-0.3,3.2c0,0.1,0,0.3-0.1,0.4c-0.1,1.1-0.3,2.2-0.5,3.2c0,0,0,0,0,0c-0.2,1-0.4,2.1-0.7,3.1c0,0.1-0.1,0.3-0.1,0.4
	c-0.3,1-0.5,1.9-0.8,2.8c-0.1,0.2-0.1,0.3-0.2,0.5c-0.3,0.9-0.6,1.8-1,2.6c-0.1,0.2-0.1,0.3-0.2,0.5c-0.4,0.9-0.7,1.7-1.1,2.6
	c-0.1,0.1-0.1,0.2-0.2,0.3c-0.4,0.8-0.8,1.7-1.3,2.5c0,0,0,0.1,0,0.1c-0.4,0.8-0.9,1.6-1.4,2.4c-0.1,0.1-0.1,0.2-0.2,0.3
	c-0.4,0.8-0.9,1.5-1.4,2.2c-0.1,0.1-0.2,0.2-0.2,0.4c-0.5,0.7-0.9,1.4-1.4,2.1c-0.1,0.1-0.2,0.2-0.2,0.3c-0.5,0.7-1,1.3-1.5,2
	c0,0-0.1,0.1-0.1,0.1c-0.5,0.7-1,1.3-1.5,1.9c0,0,0,0-0.1,0.1c-0.5,0.6-1,1.2-1.5,1.8c-0.1,0.1-0.1,0.1-0.2,0.2
	c-0.5,0.6-1,1.1-1.5,1.7c-0.1,0.1-0.1,0.1-0.2,0.2c-0.5,0.5-1,1.1-1.5,1.6c0,0,0,0-0.1,0.1c-0.5,0.5-1,1-1.4,1.5
	C373.6,886.7,335.4,842.1,320.4,788.6z M491.1,924.3c-17.3-0.8-34.3-4-50.7-9.5c0,0,0,0,0,0c0.4-0.5,0.9-1,1.3-1.5
	c0.1-0.2,0.3-0.3,0.4-0.5c0.4-0.5,0.8-0.9,1.2-1.4c0.1-0.1,0.2-0.2,0.2-0.3c0.5-0.6,0.9-1.1,1.4-1.7c0.1-0.2,0.3-0.4,0.4-0.5
	c0.4-0.5,0.8-1.1,1.2-1.6c0.1-0.1,0.2-0.2,0.2-0.3c0.5-0.6,0.9-1.3,1.4-2c0.1-0.2,0.3-0.4,0.4-0.6c0.4-0.6,0.8-1.2,1.2-1.8
	c0.1-0.1,0.2-0.2,0.2-0.3c0.5-0.7,0.9-1.4,1.3-2.2c0.1-0.2,0.2-0.4,0.4-0.6c0.4-0.7,0.8-1.3,1.1-2c0.1-0.1,0.1-0.2,0.2-0.4
	c0.4-0.8,0.8-1.6,1.2-2.4c0.1-0.2,0.2-0.5,0.3-0.7c0.3-0.7,0.7-1.5,1-2.2c0.1-0.2,0.1-0.3,0.2-0.4c0.4-0.9,0.7-1.8,1-2.7
	c0.1-0.2,0.2-0.5,0.3-0.7c0.3-0.8,0.6-1.6,0.8-2.4c0.1-0.2,0.1-0.3,0.2-0.5c0.3-1,0.6-1.9,0.8-2.9c0.1-0.3,0.1-0.5,0.2-0.8
	c0.2-0.9,0.4-1.8,0.6-2.7c0-0.2,0.1-0.3,0.1-0.5c0.2-1,0.4-2.1,0.5-3.1c0-0.3,0.1-0.6,0.1-0.8c0.1-0.9,0.2-1.9,0.3-2.9
	c0-0.1,0-0.2,0-0.3l0.3,0.1l0-0.1c1.5,0.2,3,0.4,4.5,0.6c0.9,0.1,1.8,0.3,2.7,0.4c1.7,0.2,3.4,0.4,5.2,0.6c0.8,0.1,1.5,0.2,2.3,0.3
	c1.9,0.2,3.7,0.3,5.6,0.5c0.7,0,1.3,0.1,2,0.2c2.5,0.2,5,0.3,7.6,0.4v0.1L491.1,924.3L491.1,924.3z M505.1,924.4V874v-0.2
	c2.2,0,4.3-0.1,6.5-0.2c0.5,0,0.9,0,1.4-0.1c2.1-0.1,4.3-0.2,6.4-0.4c0.3,0,0.6,0,0.8-0.1c1.9-0.1,3.8-0.3,5.8-0.5
	c0.4,0,0.9-0.1,1.3-0.1c2.1-0.2,4.1-0.5,6.2-0.7c0,0,0.1,0,0.1,0v0.1l0.4-0.1c2.1,20.8,13.3,35.4,21.6,44.4
	C539.6,921.1,522.6,924,505.1,924.4z M570,910.9C570,910.9,570,910.9,570,910.9c-7.3-7.5-20.5-21-22.2-41.5c0.3-0.1,0.6-0.1,0.9-0.2
	c1.2-0.2,2.3-0.4,3.5-0.7c0.5-0.1,1-0.2,1.5-0.3c1.6-0.3,3.2-0.7,4.8-1.1c0.1,0,0.2,0,0.3-0.1c1.5-0.4,3-0.7,4.5-1.1
	c0.5-0.1,1-0.3,1.5-0.4c1.1-0.3,2.3-0.6,3.4-0.9c0.5-0.1,1-0.3,1.5-0.4c1.3-0.4,2.5-0.7,3.8-1.1c0.3-0.1,0.6-0.2,0.9-0.3
	c1.5-0.5,3.1-0.9,4.6-1.4c0.4-0.1,0.8-0.3,1.2-0.4c1.1-0.4,2.2-0.8,3.4-1.1c0.5-0.2,1-0.3,1.5-0.5c1.1-0.4,2.2-0.8,3.3-1.2
	c0.4-0.2,0.8-0.3,1.2-0.4c1.5-0.6,2.9-1.1,4.4-1.7c0.3-0.1,0.5-0.2,0.8-0.3c1.2-0.5,2.3-1,3.5-1.5c0.5-0.2,0.9-0.4,1.4-0.6
	c1-0.4,2-0.9,3-1.3c0.4-0.2,0.9-0.4,1.3-0.6c1.3-0.6,2.6-1.2,3.9-1.8c0.1,0,0.2-0.1,0.3-0.1c1.4-0.7,2.7-1.3,4.1-2
	c0.4-0.2,0.8-0.4,1.3-0.6c0.9-0.5,1.9-1,2.8-1.5c0.4-0.2,0.9-0.5,1.3-0.7c1-0.6,2-1.1,3-1.7c0.3-0.2,0.6-0.3,0.9-0.5
	c1.3-0.7,2.5-1.5,3.8-2.2c0.3-0.2,0.7-0.4,1-0.6c0.9-0.6,1.9-1.1,2.8-1.7c0.4-0.3,0.8-0.5,1.3-0.8c0.9-0.6,1.7-1.1,2.6-1.7
	c0.4-0.2,0.7-0.5,1.1-0.7c1.2-0.8,2.4-1.6,3.5-2.4c0.2-0.1,0.4-0.3,0.6-0.4c1-0.7,1.9-1.4,2.9-2.1c0.4-0.3,0.8-0.6,1.1-0.9
	c0.8-0.6,1.6-1.2,2.3-1.8c0.4-0.3,0.7-0.6,1.1-0.9c0.9-0.8,1.9-1.5,2.8-2.3c0.2-0.1,0.3-0.3,0.5-0.4c1.1-0.9,2.1-1.8,3.1-2.7
	c0.3-0.3,0.6-0.6,1-0.9c0.7-0.7,1.5-1.3,2.2-2c0.3-0.3,0.7-0.6,1-1c0.8-0.7,1.5-1.4,2.2-2.2c0.2-0.2,0.5-0.5,0.8-0.7
	c1-1,1.9-1.9,2.8-2.9c0.2-0.2,0.4-0.5,0.7-0.7c0.7-0.8,1.4-1.5,2.1-2.3c0.3-0.3,0.6-0.7,0.9-1c0.6-0.7,1.3-1.5,1.9-2.2
	c0.3-0.3,0.5-0.6,0.8-0.9c0.9-1,1.7-2.1,2.6-3.1c0.1-0.1,0.1-0.2,0.2-0.2c0.8-1,1.5-1.9,2.3-2.9c0.3-0.3,0.5-0.6,0.7-1
	c0.6-0.8,1.1-1.6,1.7-2.3c0.2-0.3,0.5-0.7,0.7-1c0.7-0.9,1.3-1.9,1.9-2.8c0.1-0.1,0.2-0.2,0.3-0.4
	C662.9,845.3,622.3,889.7,570,910.9z"/>
<path class="st21" d="M778.3,84.9c0,0-166.9-63.6-280.2-63.6c0,199,0,608.3,0,965.4C923.1,845.3,948,250.1,948,250.1
	c-1.5,0-2.9,0.1-4.4,0.1C852.3,250.2,778.3,176.2,778.3,84.9z"/>
<path class="st21" d="M220.3,84.9c0,0,166.9-63.6,280.2-63.6c0,199,0,608.3,0,965.4c-425.1-141.4-450-736.6-450-736.6
	c1.5,0,2.9,0.1,4.4,0.1C146.3,250.2,220.3,176.2,220.3,84.9z"/>
<path class="st23" d="M766.1,103.2c0,0-159.6-60.8-268-60.8c0,190.3,0,581.7,0,923.2c406.5-135.2,430.3-704.4,430.3-704.4
	c-1.4,0-2.8,0.1-4.2,0.1C836.8,261.3,766.1,190.5,766.1,103.2z"/>
<path class="st23" d="M232.5,103.2c0,0,159.6-60.8,268-60.8c0,190.3,0,581.7,0,923.2C94,830.4,70.2,261.2,70.2,261.2
	c1.4,0,2.8,0.1,4.2,0.1C161.7,261.3,232.5,190.5,232.5,103.2z"/>
<path class="st24" d="M739.8,144c0,0-143.3-54.6-240.7-54.6c0,170.9,0,522.5,0,829.1c365.1-121.4,386.5-632.6,386.5-632.6
	c-1.3,0-2.6,0.5-3.8,0.1C808.3,263.8,754.8,217.5,739.8,144z"/>
<path class="st24" d="M259.6,144c0,0,143.3-54.6,240.7-54.6c0,170.9,0,522.5,0,829.1C135.3,797.1,113.9,285.9,113.9,285.9
	c1.3,0,2.6,0.5,3.8,0.1C191.2,263.8,244.7,217.5,259.6,144z"/>
<polygon class="st23" points="168.1,573.5 184.7,631.2 324.5,837.5 499.6,930.4 686.3,827.7 825.2,629.2 834,576.4 "/>
<path class="st25" d="M500.1,944.1c36,0,128.3-63.2,134.6-73.9c0-4.4-10.1,27.9-134.6,27.9C500.1,977.6,500.1,917.1,500.1,944.1z"/>
<path class="st26" d="M499.8,944.1c-36,0-128.3-63.2-134.6-73.9c0-4.4,10.1,27.9,134.6,27.9C499.8,977.6,499.8,917.1,499.8,944.1z"
	/>
<path class="st26" d="M497,102.1l91.6,128.8l132.2-47.5c0,0-43.5,75.1-75,132.9c-0.8,1.4-9.1,16.9-9.9,18.3
	c-23.4-36.6-66.4-79.1-139-79.2C497,128.5,497,102.1,497,102.1z"/>
<path class="st27" d="M589.2,517c-6-4.2-11.6-8.9-16.9-14.1c-21.8-21.8-34.4-50.5-35.8-81.1h-33.9v130.9
	C536,551.3,566.2,538,589.2,517L589.2,517z"/>
<path class="st27" d="M547.7,421.7c1.8,36.4,21.1,68.2,49.6,87.2c21.4-23.1,34.9-53.6,36.3-87.2H547.7z"/>
<path class="st28" d="M502.7,410.6h33.9c1.4-30.7,13.9-59.3,35.8-81.2c5.3-5.3,10.9-10,16.9-14.1c-23-21-53.2-34.3-86.5-35.6V410.6
	L502.7,410.6z"/>
<path class="st28" d="M547.7,410.6h85.9c-1.4-33.6-14.9-64.1-36.3-87.2C568.8,342.4,549.5,374.2,547.7,410.6L547.7,410.6z"/>
<path class="st28" d="M405,315.3c6,4.2,11.6,8.9,16.9,14.1c21.8,21.9,34.4,50.5,35.8,81.2h33.9V279.7C458.2,281,428,294.3,405,315.3
	L405,315.3z"/>
<path class="st27" d="M491.5,421.7h-33.9c-1.4,30.7-14,59.3-35.8,81.1c-5.3,5.3-10.9,10-16.9,14.1c23,21,53.2,34.3,86.5,35.6
	L491.5,421.7L491.5,421.7z"/>
<path class="st28" d="M446.5,410.6c-1.8-36.4-21.1-68.2-49.6-87.2c-21.4,23.1-34.9,53.6-36.3,87.2L446.5,410.6L446.5,410.6z"/>
<path class="st27" d="M446.5,421.7h-85.9c1.4,33.6,14.9,64.1,36.3,87.2C425.4,489.9,444.7,458.1,446.5,421.7L446.5,421.7z"/>
<path class="st25" d="M495.9,102.1l-91.6,128.8L272,183.4c0,0,43.5,75.1,75,132.9c0.7,1.4,9.1,16.9,9.9,18.3
	c23.5-36.6,66.4-79.1,139-79.2C495.9,128.5,495.9,102.1,495.9,102.1z"/>
<path class="st29" d="M834.1,700.8L818.4,392c0,0-0.1-73.7-0.1-77.1c-4.5-3.6-42.6-29.7-53.6-32.6c-5.9-1.6-135.9-89.8-281.5-94.2
	c-148.9-4.6-313.4,74.6-313.4,74.6l7.9,358.8l0.3,76.9l54.9,32.3l260.9,175.7L834.1,700.8z"/>
<path class="st30" d="M177.9,698.3c0-8.2,0-16.7,0-25.3l-75.6,43.7c0,8,0,15.9,0,23.7c0,0,0,0,0.1,0c0.3,0.6,3,2.2,9.8,6.3
	l74.5-43.1C183.8,701.8,180.8,700.1,177.9,698.3z M102.9,740.2C102.9,740.2,103,740.2,102.9,740.2c0.2,0,0.3,0,0.5,0
	C103.5,740.2,103.1,740.3,102.9,740.2z"/>
<path class="st31" d="M780.9,290.7c4.6,2.6,9.1,5.2,13.5,7.9l72.7-42c-3.9-3-8-5.9-12.1-8.7L780.9,290.7z"/>
<path class="st32" d="M102.3,698.9l75.6-43.7c0-5.2,0-10.4,0-15.7l-75.6,43.7C102.3,688.4,102.3,693.6,102.3,698.9z"/>
<path class="st30" d="M818.2,314.9c0,7.6,0,15.4,0,23.4l75.6-43.7c0-5.1,0-10.1,0-15.1c-4.4-4.3-9-8.4-13.8-12.5l-71.2,41.1
	C812,310.4,815.2,312.6,818.2,314.9z"/>
<path class="st32" d="M893.8,312.5l-75.6,43.7c0,5.9,0,11.8,0,17.8l75.6-43.7C893.8,324.3,893.8,318.4,893.8,312.5z"/>
<path class="st33" d="M217.3,721.5c-5.1-3-10.2-6-15.3-9l-74.4,43c5.2,3,10.3,5.9,15.5,8.9L217.3,721.5z"/>
<path class="st34" d="M498,974.1c0-31.5-0.1-65.5-0.1-90C412.6,835.7,320,781.8,232.6,730.5l-74,42.8
	C273,838.9,387.3,904.7,498,974.1"/>
<path class="st34" d="M498,974.1c125.3-78.6,255.2-152.5,384.7-226.8c9.4-4.9-0.8,0.5,11.3-5.9c0-1.1-0.1-2.1-0.1-3.2
	c0-119.1,0-263.4,0-390.1l-75.6,43.7c0,99.3,0,216.3,0,306.4c-103.8,61.2-215.1,126.1-320.2,185.8C498.1,908.6,498,942.6,498,974.1"
	/>
<path class="st34" d="M798.7,216.1l-0.3-89.5c-98-60.3-299.9-78.1-299.9-78.1c0,0-202.1,18.2-300.1,78.4l0.1,88.7
	c-38.1,17.9-70.9,39.3-96,63.9c0,117.6,0,259.8,0,385.8l75.6-43.7c0-102.2,0-219.7,0-306.6c75.1-57.2,198.4-88.1,320.2-88.2
	c0-26.2,0-36.5,0-47.4c0,10.9,0,21.2,0,47.4c96.1,0.1,193,19.3,266.6,55.5l75.7-43.8C827.4,230.5,813.4,223,798.7,216.1z"/>
<path class="st30" d="M387.8,148.2C387.8,148.2,387.8,148.2,387.8,148.2c0.2,0.1,0.3,0.2,0.5,0.3
	C388.3,148.6,387.9,148.4,387.8,148.2z"/>
<polygon class="st34" points="501.9,969.7 498,974 493.3,969.7 493.3,884.1 501.9,884.1 "/>
<rect x="778.8" y="676.3" class="st18" width="160.1" height="21.7"/>
<rect x="853.7" y="528.3" class="st18" width="85.2" height="21.7"/>
<rect x="60.5" y="676.3" class="st18" width="192.5" height="21.7"/>
<rect x="60.5" y="528.3" class="st18" width="85.2" height="21.7"/>
<polygon class="st35" points="175.5,676.3 60.5,676.3 118,610.3 60.5,549.9 175.5,549.9 "/>
<polygon class="st35" points="824,676.3 938.9,676.3 881.4,610.3 938.9,549.9 824,549.9 "/>
<polygon class="st18" points="829.3,743.5 500.6,927.5 170.1,743.5 170.1,348.7 500.6,162.4 829.3,348.7 "/>
<path class="st17" d="M500.6,935.2L163.3,747.5V344.7l337.4-190.1l335.4,190.1v402.7L500.6,935.2z M176.9,739.5l323.7,180.2
	l321.8-180.2V352.6L500.6,170.2L176.9,352.7C176.9,352.7,176.9,739.5,176.9,739.5z"/>
<path class="st36" d="M830.7,87.5c-10.7,0-19.4,8.7-19.4,19.4c0,7.5,4.3,14,10.5,17.3L709.7,365.2l-30-268.3
	c9.6-1.8,16.8-10.3,16.8-20.4c0-11.5-9.3-20.8-20.8-20.8c-11.5,0-20.8,9.3-20.8,20.8c0,8.7,5.4,16.2,13,19.2l-94.5,264.3L510.3,94.7
	c9-3,15.6-11.5,15.6-21.6c0-12.6-10.2-22.7-22.7-22.7c-12.5,0-22.7,10.2-22.7,22.7c0,9.6,6,17.8,14.4,21.1l-60.4,270.4L337.7,94.2
	c5.9-3.7,9.9-10.2,9.9-17.7c0-11.5-9.3-20.8-20.8-20.8c-11.5,0-20.8,9.3-20.8,20.8c0,10.6,8,19.3,18.2,20.6l-29.4,263.4L183.9,122.1
	c5.6-3.4,9.3-9.6,9.3-16.6c0-10.7-8.7-19.4-19.4-19.4s-19.4,8.7-19.4,19.4s8.7,19.4,19.4,19.4c1.3,0,2.5-0.1,3.7-0.4L215,360.8
	c-0.4,0-0.7-0.1-1.1-0.1c0,0-14.2,13.6,0.4,26.3c-0.3,19.5-0.6,49.6-0.4,71.2c0,0,0-0.1-0.1-0.1c0,0-8.1,24.6,2.3,38.2
	c12.8,0,555.4,0,573.9,0c14.2-14.7-0.1-38.2-0.1-38.2v-71c13.6-14.2,1.9-24.9,0.2-26.4l37.3-234.8c1,0.2,2.1,0.3,3.2,0.3
	c10.7,0,19.4-8.7,19.4-19.4C850.1,96.2,841.4,87.5,830.7,87.5z"/>
<polygon class="st36" points="497.4,902.6 225.9,751.5 215.7,744.3 746.9,728.9 790,744.4 775.3,751.5 "/>
<rect x="216" y="496" class="st36" width="574" height="68.6"/>
<rect x="132.9" y="520.2" class="st37" width="734.4" height="143.4"/>
<rect x="132.9" y="498.6" class="st18" width="734.4" height="21.7"/>
<rect x="132.9" y="663.6" class="st18" width="734.4" height="21.7"/>
<rect x="215.7" y="686" class="st36" width="574.4" height="58.3"/>
<g>
	<path class="st38" d="M735.7,201.1c0,0-142.7-54.4-239.7-54.4c0,170.2,0,520.4,0,825.8c363.6-121,384.9-630.1,384.9-630.1
		c-1.3,0-2.5,0.1-3.8,0.1C799,342.5,735.7,279.2,735.7,201.1z"/>
</g>
<g>
	<path class="st38" d="M258.3,201.1c0,0,142.7-54.4,239.7-54.4c0,170.2,0,520.4,0,825.8c-363.6-121-384.9-630.1-384.9-630.1
		c1.3,0,2.5,0.1,3.8,0.1C195,342.5,258.3,279.2,258.3,201.1z"/>
</g>
<g>
	<path class="st39" d="M725.2,216.8c0,0-136.5-52-229.2-52c0,162.8,0,497.6,0,789.7c347.7-115.7,368.1-602.6,368.1-602.6
		c-1.2,0.1-2.4,0.1-3.6,0.1C785.8,352,725.2,291.5,725.2,216.8z"/>
</g>
<g>
	<path class="st39" d="M268.8,216.8c0,0,136.5-52,229.2-52c0,162.8,0,497.6,0,789.7C150.3,838.8,129.9,351.9,129.9,351.9
		c1.2,0.1,2.4,0.1,3.6,0.1C208.2,352,268.8,291.5,268.8,216.8z"/>
</g>
<g>
	<path class="st40" d="M702.8,251.7c0,0-122.6-46.7-205.9-46.7c0,146.2,0,446.9,0,709.3c312.3-103.9,330.6-541.2,330.6-541.2
		c-1.1,0-2.2,0.4-3.3,0.1C761.3,354.2,715.6,314.6,702.8,251.7z"/>
</g>
<g>
	<path class="st40" d="M292,251.7c0,0,122.6-46.7,205.9-46.7c0,146.2,0,446.9,0,709.3C185.6,810.4,167.3,373.1,167.3,373.1
		c1.1,0,2.2,0.4,3.3,0.1C233.5,354.2,279.2,314.6,292,251.7z"/>
</g>
<path class="st39" d="M817.3,564.4c0-159.5-142.3-288.9-317.8-288.9c-175.5,0-317.8,129.3-317.8,288.9S817.3,723.9,817.3,564.4z"/>
<path class="st41" d="M669,338c54.1,23.5,106.1,86.9,118.5,145.3c7.2,33.5-32.2,65.4-89,89.3C670,584.7,629.5,320.8,669,338z"/>
<path class="st42" d="M330.3,338c-54.1,23.5-106.1,86.9-118.5,145.3c-7.2,33.5,32.2,65.4,88.9,89.3
	C329.3,584.7,369.8,320.8,330.3,338z"/>
<polygon class="st39" points="213.7,619.1 227.9,668.4 347.5,844.9 497.2,924.4 657,836.5 775.8,666.7 783.3,621.6 "/>
<path class="st41" d="M497.7,936.2c30.8,0,109.7-54,115.2-63.2c0-3.8-8.7,23.8-115.2,23.8C497.7,964.8,497.7,913.1,497.7,936.2z"/>
<path class="st42" d="M497.5,936.2c-30.8,0-109.7-54-115.2-63.2c0-3.8,8.7,23.8,115.2,23.8C497.5,964.8,497.5,913.1,497.5,936.2z"/>
<path class="st13" d="M659.6,756.7v-64c0-18.3-2.3-31.2-6.9-38.9c-5.9-9.8-17-15.1-33.2-16.2h-0.4c14.9-1,25.8-7.7,32.8-20
	c5.1-9.3,7.7-20.3,7.7-33.2v-28.5c0-38.6-21.7-57.8-65.2-57.8l-15.2,0c0,10.4,0,20.7,0,31.1l11.7,0.1c14.4,0,21.6,9.4,21.6,28.2
	v47.4c0,18.8-7.2,28.2-21.6,28.2l-11.7,0c0.1,7.3,0,14.7,0,22.1l4.4-0.1c12.8,0,21.3,4.9,25.4,14.7c2.3,5.7,3.5,15.3,3.5,28.9v73.6
	c0,13.9,1.9,25.3,5.8,34.3h47.8C661.7,791.3,659.6,774.7,659.6,756.7z"/>
<path class="st13" d="M569.8,570.4h-46.7v32.3c0,0,15.9,9.7,30.3,27.6c14.4,17.9,16.4,38.2,16.4,38.2V570.4z"/>
<g>
	<path class="st43" d="M440.1,441.3c13.2-6.9,29.5-10.4,49-10.4c24.1,0,43.2,5,57.4,14.9c15.5,10.9,23.3,27,23.3,48.5v68.3h-46.6
		l0.1-55.4c0-28.9-10.1-35.6-34.2-35.6c-15.2,0-22.6,12.1-22.3,36.1c0.3,24.7,5.8,45.5,16.3,62.4c6.6,10.2,18.1,22.6,34.6,37.1
		c18.1,15.5,30.5,29.4,37.1,41.6c11.5,20.4,17.3,47.2,17.3,80.1v34.6c0,21.4-7.8,37.6-23.3,48.5c-13.9,9.9-32.8,14.8-56.9,14.8
		c-19.5,0-36-3.5-49.5-10.4c-20.8-10.5-31.2-28.2-31.2-52.9v-67.3c0,0,0-1.2,0-15.4c0-14.2,28.9,27.8,28.9,27.8s29-43.2,29-27.8
		c0,15.4,0,15.4,0,15.4v54.4c0,23.7,7.6,35.6,22.8,35.6c15.2,0,22.6-12,22.3-36.1c-0.3-32.3-7.3-59.7-20.8-82.1
		c-7.9-13.2-21.9-28.9-42.1-47c-14.8-13.5-24.9-24.2-30.2-32.2c-8.2-12.5-12.4-27.4-12.4-44.5v-50
		C408.9,469.5,419.3,451.8,440.1,441.3z"/>
</g>
<path class="st41" d="M492.1,332.8l-51.8,72.8l-74.8-26.9c0,0,25.8,44.6,43.7,77.5c8.1-20.9,41.9-36.7,82.9-36.8
	C492.1,347.7,492.1,332.8,492.1,332.8z"/>
<path class="st42" d="M491.5,332.8l51.8,72.8l74.8-26.9c0,0-25.8,44.6-43.7,77.5c-8.1-20.9-41.9-36.7-82.9-36.8
	C491.5,347.7,491.5,332.8,491.5,332.8z"/>
<g>
	<path class="st38" d="M482.6,875.2c1.2,0,2,0.2,2.7,0.5c0.6,0.4,0.9,0.8,0.9,1.4v2.8c0,0.6-0.3,1.1-0.9,1.4
		c-0.6,0.3-1.5,0.5-2.7,0.5h-1.8c-0.4,0-0.6,0.1-0.6,0.4v2.6h2.1c0.1-0.2,0.2-0.6,0.3-1h3.5v2.9h-10.3v-4.7c0-0.6,0.3-1.1,0.9-1.4
		c0.6-0.3,1.5-0.5,2.6-0.5h1.8c0.2,0,0.4,0,0.5-0.1c0.1,0,0.2-0.1,0.2-0.2v-2.4c0-0.2-0.2-0.3-0.7-0.3h-1.5c-0.1,0.2-0.2,0.6-0.3,1
		h-3.5v-2.9H482.6z"/>
	<path class="st38" d="M495.7,875.2c2.5,0,3.7,0.7,3.7,2v7.4c0,0.6-0.3,1.1-1,1.5c-0.7,0.4-1.6,0.5-2.8,0.5h-3c-2.5,0-3.8-0.7-3.8-2
		v-7.4c0-0.7,0.3-1.1,1-1.5c0.6-0.4,1.6-0.5,2.8-0.5H495.7z M493.7,877.1c-0.2,0-0.2,0-0.2,0.1v7.6c0,0.1,0.1,0.1,0.2,0.1h1.1
		c0.1,0,0.2,0,0.2-0.1v-7.5c0-0.1-0.1-0.1-0.2-0.1H493.7z"/>
	<path class="st38" d="M502.1,875.2h5.4v11.4h-4.4v-9.5c-0.2,0-0.5-0.1-1.1-0.2V875.2z"/>
	<path class="st38" d="M516.7,875.2c1.1,0,2,0.2,2.6,0.5c0.6,0.4,0.9,0.8,0.9,1.4v2.8c0,0.4-0.2,0.7-0.7,1.1c0.4,0.3,0.7,0.7,0.7,1
		v2.7c0,0.6-0.3,1.1-0.9,1.4c-0.6,0.4-1.5,0.5-2.6,0.5h-6.5v-2.9h3.5c0.2,0.5,0.3,0.8,0.3,1c0.4,0,0.8,0,1.2,0c0.2,0,0.4,0,0.5-0.1
		c0.1-0.1,0.2-0.2,0.2-0.3v-2.3c0.1-0.2-0.2-0.3-0.6-0.3h-3.4l0-1.8h3.5c0.4,0,0.6-0.1,0.6-0.3v-2.4c0-0.2-0.2-0.3-0.7-0.3h-1.2
		c-0.1,0.2-0.2,0.5-0.4,1h-3.5v-2.9H516.7z"/>
</g>
<path class="st38" d="M482.9,848.4v2.2h-3.7v6.2h3.6v2.2h-3.6v8.7h3.7v2.2h-7v-21.5H482.9z"/>
<path class="st38" d="M495.7,849c0.7-0.4,1.6-0.6,2.7-0.6c1.3,0,2.3,0.3,3.1,0.8c0.8,0.6,1.3,1.5,1.3,2.6v3.7h-3.1v-3
	c0-1.3-0.4-1.9-1.2-1.9c-0.8,0-1.2,0.7-1.2,2c0,1.3,0.3,2.5,0.9,3.4c0.4,0.6,1,1.2,1.9,2c1,0.9,1.7,1.6,2,2.3
	c0.6,1.1,0.9,2.5,0.9,4.3v1.9c0,1.2-0.4,2.1-1.3,2.6c-0.8,0.6-1.8,0.8-3.1,0.8c-1.1,0-2-0.2-2.7-0.6c-1.1-0.6-1.7-1.5-1.7-2.9V862
	h3.1v3.8c0,1.3,0.4,1.9,1.2,1.9c0.8,0,1.2-0.6,1.2-1.9c0-1.8-0.4-3.3-1.1-4.5c-0.4-0.7-1.2-1.6-2.3-2.6c-0.8-0.7-1.4-1.3-1.6-1.7
	c-0.4-0.7-0.7-1.5-0.7-2.4v-2.7C494,850.5,494.6,849.6,495.7,849z"/>
<path class="st38" d="M520.6,848.4v2.2h-2.9v19.3h-3.3v-19.3h-2.9v-2.2H520.6z"/>
</svg>
